<svg xmlns="http://www.w3.org/2000/svg" width="588" height="331" viewBox="0 0 588 331"><defs><linearGradient id="rl7ja" x1="49.53" x2="105.3" y1="209.3" y2="209.3" gradientUnits="userSpaceOnUse"><stop offset="0" stop-color="#40d5e6"/><stop offset="1" stop-color="#57f"/></linearGradient><linearGradient id="rl7jb" x1="90.44" x2="140.87" y1="240.42" y2="240.42" gradientUnits="userSpaceOnUse"><stop offset="0" stop-color="#40d5e6"/><stop offset="1" stop-color="#57f"/></linearGradient><linearGradient id="rl7jc" x1="94.75" x2="132.6" y1="247.75" y2="247.75" gradientUnits="userSpaceOnUse"><stop offset="0" stop-color="#40d5e6"/><stop offset="1" stop-color="#57f"/></linearGradient><linearGradient id="rl7jd" x1="81.08" x2="125.16" y1="217.29" y2="217.29" gradientUnits="userSpaceOnUse"><stop offset="0" stop-color="#40d5e6"/><stop offset="1" stop-color="#57f"/></linearGradient><linearGradient id="rl7je" x1="70.96" x2="111.64" y1="280.52" y2="280.52" gradientUnits="userSpaceOnUse"><stop offset="0" stop-color="#ff9340"/><stop offset="1" stop-color="#ffce45"/></linearGradient><linearGradient id="rl7jf" x1="70.96" x2="111.64" y1="280.52" y2="280.52" gradientUnits="userSpaceOnUse"><stop offset="0" stop-color="#c97332"/><stop offset="1" stop-color="#ffce45"/></linearGradient></defs><g><g><path fill="#2d5ca8" d="M130.746 328.278S-8.416 258.29 21.833 219.48c15.194-19.495 50.92 6.938 50.92 6.938s-28.036-38.677-46.742-50.713c-18.706-12.036-4.808-47.342-7.443-58.325-2.635-10.983-28.913-26.258-12.073-32.963 16.84-6.705 32.572 2.065 36.273 14.8 3.702 12.732 1.779 16.314 13.969 20.007 12.19 3.695 22.368 21.076 24.219 35.982 1.852 14.905 17.696 32.666 17.696 32.666s-30.25-66.44-34.151-87.444C60.599 79.425 50.01 9.1 65.946 11.875c15.936 2.776 52.918 28.686 63.575 48.118 10.658 19.432 31.335 85.16 31.335 85.16s-14.458-124.024-4.15-124.024c10.309 0 27.777 59.24 27.777 59.24s4.509-51.299 26.023-63.867c17.19-10.042 20.623 6.784 26.126 13.266 19.07 22.461 19.07 84.806 19.07 84.806s78.5-76.33 112.514-80.568c33.318-4.152 47.359-16.739 50.778-22.21 3.418-5.473 22.523-16.256 28.238-8.088 5.716 8.167 3.472 32.816-6.51 39-9.982 6.181-10.668 12.75-11.25 26.585-.582 13.834-4.376 28.731-9.42 35.163-5.042 6.431-10.452 34.776-10.452 34.776s32.085-59.04 66.235-67.604c34.149-8.564 31.589-22.843 45.992-35.746 14.403-12.903 33.836-24.932 30.135-10.126-3.702 14.805-12.03 19.635-7.404 30.175 4.627 10.54 2.777 34.74-2.776 40.684-5.552 5.944-23.25 35.8-22.266 42.617.984 6.82-10.958 25.283-10.958 25.283s37.544-22.488 51.424-11.419c13.88 11.07-50.37 76.445-50.37 76.445s68.239-30.047 77.493-14.542c9.253 15.505-68.42 69.77-68.42 69.77s56.41-18.52 40.679 11.14c-15.73 29.661-77.976 34.692-77.976 34.692z"/></g><g><path fill="url(#rl7ja)" d="M54.4 135.605c-16.347 7.818 14.57 21.323 3.909 40.157-10.66 18.834 4.126 18.145 10.263 35.671 4.223 12.067-17.369 22.609-3.866 31.494 13.504 8.883 26.599 37.597 26.599 37.597 14.869 11.657 2.06-16.71 11.944-40.492 9.882-23.783-20.064-10.965-4.16-40.461 15.904-29.495-18.57-10.127-16.615-38.378.612-8.848-2.542-8.532-6.863-8.217-3.564.26-7.921.52-11.616-4.362 0 0-4.141-13.246-8.589-13.245-.334 0-.67.075-1.006.236z"/></g><g><path fill="#fff" d="M96.013 269.718c-6.446-4.533-13.989-36.125-14.44-54.942-.23-9.64-3.08-13.655-5.594-17.198-2.402-3.386-4.478-6.31-3.27-13.026 2.312-12.835-3.762-18.375-3.824-18.43l.702-.8c.271.236 6.596 5.95 4.172 19.418-1.13 6.275.733 8.9 3.09 12.22 2.473 3.487 5.552 7.826 5.79 17.789.483 20.196 8.195 50.024 13.987 54.098z"/></g><g><path fill="url(#rl7jb)" d="M91.865 267.517c-1.532-4.38 2.131-12.047 5.366-15.899.238-.283 5.799-7.063 5.188-16.766-.1-1.578-.263-3.03-.407-4.31-.38-3.393-.653-5.844.605-7.258 1.151-1.293 3.67-1.879 8.167-1.899 9.031-.044 12.598-3.778 15.463-6.777 1.146-1.201 2.136-2.238 3.319-2.883 3.817-2.085 7.912-2.506 9.523-.977 1.224 1.161.647 3.149-.054 4.611-1.335 2.792-3.024 4.516-4.515 6.036-2.07 2.114-3.708 3.785-2.877 7.027.163.634.35 1.278.539 1.923 1.316 4.504 2.56 8.759-4.335 11.858-1.619.727-3.102 1.31-4.411 1.824-5.457 2.14-9.062 3.554-12.924 11.709-.719 1.518-1.35 2.952-1.962 4.336-2.916 6.607-4.82 10.924-10.121 10.923-.764 0-1.599-.09-2.517-.275-2.091-.424-3.453-1.501-4.047-3.203zm33.61-53.646c-2.725 2.853-6.118 6.407-14.696 6.446-4.892.024-7.571.699-8.959 2.259-1.575 1.769-1.279 4.418-.867 8.086.143 1.265.304 2.704.401 4.257.584 9.265-4.887 15.95-4.94 16.014-3.267 3.893-7.294 11.966-5.556 16.934.728 2.084 2.357 3.396 4.842 3.897.99.201 1.894.295 2.725.295 6-.001 8.197-4.976 11.1-11.556.609-1.38 1.238-2.805 1.95-4.31 3.683-7.772 6.945-9.053 12.349-11.174a97.047 97.047 0 0 0 4.46-1.844c7.741-3.48 6.243-8.607 4.921-13.131-.185-.633-.372-1.263-.529-1.887-.681-2.66.626-3.995 2.606-6.015 1.473-1.502 3.303-3.371 4.715-6.322 1.546-3.23.757-4.963-.175-5.846-.847-.803-2.171-1.196-3.745-1.196-2.077 0-4.591.683-7.023 2.011-1.328.725-2.422 1.87-3.579 3.082z"/></g><g><path fill="url(#rl7jc)" d="M120.831 225.516c-1.56 5.46-4.834 13.595-15.219 21.166-9.466 6.899-10.809 30.477-10.862 31.477l1.065.054c.012-.238 1.364-24.067 10.425-30.669 10.652-7.766 14.013-16.124 15.616-21.736 1.654-5.79 10.659-7.45 10.748-7.466l-.185-1.052c-.397.072-9.75 1.791-11.588 8.226z"/></g><g><path fill="url(#rl7jd)" d="M109.285 179.653c-2.842 9.596-31.628 4.185-19.545 28.212 12.082 24.026-15.281 8.036-7.108 29.003 8.174 20.966.711 43.39 9.596 37.687 8.883-5.704 4.991-32.107 14.23-35.244 9.239-3.138 10.747-6.795 1.599-15.324-9.148-8.53 23.971-16.998 15.797-34.219-8.173-17.221 1.377-27.705-6.396-30.37-.534-.183-1.017-.27-1.455-.27-5.078-.001-4.101 11.692-6.718 20.525z"/></g><g><path fill="#fff" d="M96.35 273.55c-.848-3.59-8.073-35.177-1.33-38.995 5.942-3.364 5.796-16.454 4.868-28.814-.82-10.941 13.232-16.054 13.83-16.267l.357 1.005c-.139.05-13.883 5.054-13.123 15.183.953 12.693 1.053 26.162-5.407 29.82-5.12 2.9-.407 28.286 1.842 37.823z"/></g><g><path fill="url(#rl7je)" d="M70.965 262.301l9.606 36.446h21.468l9.606-36.446z"/></g><g><path fill="url(#rl7jf)" d="M70.965 262.301l9.606 36.446h9.925c0-32.474 21.149-36.446 21.149-36.446z"/></g><g><path fill="#ffca55" d="M236.684 149.151l-45.568.21.153 33.027.031 6.957 6.926-6.99 38.61-.177z"/></g><g><path fill="#fff" d="M217.46 167.079a3.48 3.48 0 1 1-6.96.022 3.48 3.48 0 0 1 6.96-.022z"/></g><g><path fill="#fff" d="M228.891 167.042a3.48 3.48 0 1 1-6.96.023 3.48 3.48 0 0 1 6.96-.023z"/></g><g><path fill="#fff" d="M206.293 167.115a3.48 3.48 0 1 1-6.96.021 3.48 3.48 0 1 1 6.96-.02z"/></g><g><path fill="#78c2ff" d="M223.16 58.86l45.567.21-.152 33.026-.032 6.957-6.925-6.989-38.61-.178z"/></g><g><path fill="#fff" d="M242.383 76.787a3.48 3.48 0 1 0 6.961.023 3.48 3.48 0 0 0-6.96-.023z"/></g><g><path fill="#fff" d="M230.954 76.752a3.48 3.48 0 1 0 6.96.02 3.48 3.48 0 0 0-6.96-.02z"/></g><g><path fill="#fff" d="M253.55 76.822a3.48 3.48 0 1 0 6.96.022 3.48 3.48 0 0 0-6.96-.022z"/></g><g><path fill="#ffca55" d="M438.17 49.803l-64.788.298.216 46.96.045 9.89 9.845-9.935 54.898-.254z"/></g><g><path fill="#fff" d="M410.837 75.294a4.948 4.948 0 1 1-9.896.03 4.948 4.948 0 0 1 9.896-.03z"/></g><g><path fill="#fff" d="M427.09 75.242a4.95 4.95 0 0 1-4.933 4.964 4.946 4.946 0 0 1-4.963-4.932 4.946 4.946 0 0 1 4.93-4.965 4.95 4.95 0 0 1 4.966 4.933z"/></g><g><path fill="#fff" d="M394.96 75.344a4.947 4.947 0 1 1-9.897.031 4.95 4.95 0 0 1 9.897-.031z"/></g><g><path fill="#78c2ff" d="M542.843 84.465l-57.006.263.191 41.319.04 8.703 8.663-8.744 48.303-.223z"/></g><g><path fill="#fff" d="M518.796 106.894a4.355 4.355 0 1 1-8.71.024 4.355 4.355 0 0 1 8.71-.024z"/></g><g><path fill="#fff" d="M533.095 106.849a4.356 4.356 0 0 1-8.71.027 4.353 4.353 0 0 1 4.341-4.367 4.354 4.354 0 0 1 4.368 4.34z"/></g><g><path fill="#fff" d="M504.823 106.938a4.353 4.353 0 1 1-4.365-4.34 4.352 4.352 0 0 1 4.365 4.34z"/></g><g><path fill="#ffca55" d="M159.242 152.594s-.074.319-.442.97a7.07 7.07 0 0 1-.383.626c-1.229 1.88-4.24 5.45-11.52 10.871-2.017-8.851-1.988-13.524-1.702-15.751.025-.24.064-.482.114-.721.145-.735.295-1.026.295-1.026a7.266 7.266 0 0 1 9.334-4.302 7.266 7.266 0 0 1 4.304 9.333zm-8.386 1.733a4.528 4.528 0 1 0 3.133-8.498 4.528 4.528 0 0 0-3.133 8.498z"/></g><g><path fill="#ffca55" d="M471.031 51.578l-8.214-3.568a1.33 1.33 0 1 1 1.061-2.439l5.807 2.524 4.194-9.295a1.329 1.329 0 0 1 1.76-.664c.669.3.967 1.088.665 1.757z"/></g><g><path fill="#ffca55" d="M456.981 55.333c-5.32-7.573-3.489-18.066 4.085-23.387 7.573-5.322 18.065-3.49 23.386 4.084 5.323 7.573 3.491 18.065-4.083 23.387-7.574 5.322-18.066 3.49-23.388-4.084zm1.963-1.379c4.561 6.492 13.554 8.062 20.047 3.501 6.491-4.562 8.061-13.554 3.5-20.046-4.563-6.493-13.555-8.063-20.047-3.501-6.49 4.562-8.06 13.555-3.5 20.046z"/></g><g><path fill="#ffc655" d="M131.817 127.498l-21.853-4.462 3.055-14.962 21.852 4.462z"/></g><g><path fill="#ffbc55" d="M109.965 123.036l12.634-6.133 9.219 10.595z"/></g><g><path fill="#ffa655" d="M134.87 112.536l-12.827 7.091-9.024-11.553z"/></g><g><path fill="#ffca55" d="M436.836 118.775c-5.726-.059-7.694 5.096-7.694 5.096s-4.764-2.786-9.19.843c-4.424 3.631-2.151 7.186-2.151 7.186 3.122 7.617 18.203 11.473 18.203 11.473s9.345-12.45 7.009-20.346c0 0-.455-4.193-6.177-4.252z"/></g><g><path fill="#ffd255" d="M44.426 116.032c-1.122-.373-1.964-1.136-2.376-2.146-.954-1.932-2.413-3.734-3.5-4.932a10.12 10.12 0 0 1-6.802-6.61c-1.719-5.316 1.208-11.041 6.525-12.76 5.318-1.72 11.042 1.207 12.76 6.525a10.09 10.09 0 0 1-1.107 8.577c.08 2.189.372 4.102.871 5.69.821 2.075-.46 4.543-2.867 5.507-.12.049-.24.093-.36.132-1.052.337-2.155.347-3.144.017zM32.537 102.09a9.293 9.293 0 0 0 6.351 6.098l.115.033.081.088c1.132 1.24 2.697 3.153 3.718 5.224l.012.028c.317.79.982 1.387 1.875 1.685.917.307 1.958.259 2.932-.132 1.986-.798 3.063-2.791 2.4-4.445l-.006-.015-.005-.014c-.534-1.693-.842-3.732-.916-6.057l-.005-.132.072-.11a9.267 9.267 0 0 0 1.083-7.977c-1.578-4.882-6.833-7.57-11.715-5.991-4.883 1.578-7.57 6.835-5.992 11.717z"/></g><g><path fill="#ffd255" d="M44.521 113.526l-5.41-9.719 2.851.891.722-2.007 1.705.908 1.301-2.502 2.978 10.734-.799.221-2.414-8.704-.716 1.377-1.599-.85-.666 1.853-1.63-.51 4.402 7.906z"/></g><g><path fill="#ffd255" d="M51.962 116.297l-6.671 2.677-1.08-2.688 6.672-2.677z"/></g><g><path fill="#ffd255" d="M52.59 114.76l-8.816 3.539-1.737-4.328 8.816-3.538z"/></g><g><path fill="#eb4747" d="M538.81 210.054c-.023 57.195-1.626 68.392-15.988 81.206-5.624 5.02-15.969 15.444-45.817 20.635-8.959 1.558-19.675 2.645-32.546 2.973-5.25.133-10.07-.057-14.479-.538-3.698-.398-7.107-1.005-10.237-1.788-32.804-8.219-35.253-36.326-20.907-59.968 3.8-6.26 8.143-12.018 12.694-17.383 7.027-8.288 14.56-15.65 21.381-22.522 6.288-6.332 11.973-12.248 16.104-18.089 1.743-2.46 3.21-4.908 4.33-7.368a123.032 123.032 0 0 1 3.512-7.084 127.57 127.57 0 0 1 5.17-8.768 126.121 126.121 0 0 1 3.878-5.683c4.188-5.79 7.3-9.04 7.3-9.04s.388-.183 1.106-.48c.38-.16.856-.352 1.42-.566a65.71 65.71 0 0 1 1.501-.554 82.372 82.372 0 0 1 1.777-.604c.201-.066.407-.133.618-.197l.377-.119c.048-.014.098-.03.147-.043 4.258-1.306 10.098-2.666 16.457-2.893 18.85-.673 42.224 8.622 42.201 58.873z"/></g><g><path fill="#b7ceff" d="M462.5 296.161s.47 3.833 1.092 5.524c.625 1.692 4.007 5.594 2.577 9.345-1.55 4.067-8.312.148-11.072-1.095-2.758-1.239-2.13-3.49-2.423-6.249-.295-2.755-1.642-2.83-1.144-4.769.495-1.939 3.513-5.651 3.513-5.651z"/></g><g><path fill="#eea886" d="M456.346 291.26s-1.731 2.424-1.683 2.49c.048.066 7.416 4.553 7.928 3.098.408-1.156.58-2.831.58-2.831z"/></g><g><path fill="#b7ceff" d="M431.369 298.872s-2.247 1.969-4.267 4.997c-2.018 3.027-7.378 3.189-7.606 7.322-.23 4.133 7.285 4.26 11.229 2.914 3.948-1.344 4.542-5.38 6.928-6.391 2.386-1.01 3.626-1.826 3.442-3.796-.184-1.971-1.503-5.17-1.503-5.17s-1.484.474-2.355.57c-.872.095-3.804.13-5.868-.446z"/></g><g><path fill="#fff" d="M458.412 186.891s-1.512 8.992-2.73 14.932c-.496 2.408-.94 4.315-1.218 4.915-.35.756-3.187 3.802-6.66 7.381-6.095 6.273-14.148 14.174-14.148 14.174l-3.15-5.976s7.154-8.385 12.004-13.98c2.244-2.589 3.995-4.58 4.315-4.867 1.014-.907 2.19-9.844 3.845-17.205 1.653-7.364 4.968-11.433 4.968-11.433z"/></g><g><path fill="#eea886" d="M447.803 214.119c-6.095 6.273-14.147 14.175-14.147 14.175l-3.15-5.977s7.154-8.385 12.004-13.98c1.486.729 4.214 2.469 5.294 5.782z"/></g><g><path fill="#eea886" d="M431.722 296.117l-.354 2.755s3.914 1.381 8.223-.124l.088-2.447z"/></g><g><path fill="#fff" d="M487.256 227.078c.226.801-41.435 0-41.435 0s11.524-8.389 12.27-10.629c.749-2.24-2.934-15.686-3.413-20.06-.384-3.501-1.347-19.164.96-21.556 2.412-2.501 11.097-5.122 11.097-5.122l12.664.471s2.088.435 3.583 1.129c1.494.695 10.037 3.737 11.424 8.005 1.387 4.269-8.525 17.991-8.525 17.991s-.02.618-.048 1.628c-.038 1.348-.096 3.397-.147 5.62-.067 2.877-.124 6.044-.124 8.358 0 5.443 1.47 13.366 1.694 14.165z"/></g><g><path fill="#303669" d="M487.258 227.08s5.667 8.322 5.746 14.004c.079 5.682-10.057 24.713-11.59 27.435-4.611 8.185-17.258 25.838-17.258 25.838s-2.18-.055-8.981-2.696c0 0 8.413-23.32 9.479-25.74 4.52-10.268 7.046-17.55 5.527-19.311-1.521-1.761-5.667-3.526-6.867-4.567-1.201-1.04-22.113 3.952-24.304 4.52-5.674 1.47-3.088 11.345-1.833 15.772 2.1 7.404 3.936 34.145 3.936 34.145s-4.041 1.723-10.812.268c0 0-13.292-48.286-13.718-53.088-.426-4.802-.637-12.72 32.12-18.738z"/></g><g><path fill="#eea886" d="M470.21 142.198s-10.993-2.479-8.481 11.354c2.51 13.834 5.155 14.92 11.785 12.058 6.634-2.862 6.039-11.725 6.372-16.07.333-4.348-6.17-7.19-9.676-7.342z"/></g><g><path fill="#eea886" d="M467.301 173.262s4.868 5.16 12.561.47c0 0-1.72-11.186-.814-16.632.905-5.448-10.038 8.44-10.038 8.44.143.076.237.596.26 1.336.02.626-.014 1.411-.115 2.216-.225 1.811-.789 3.725-1.854 4.17z"/></g><g><path fill="#3a3f47" d="M479.35 156.637s-.283-4.359-1.875-4.495c-1.592-.136-1.836 1.62-1.836 1.62l-1.608.303s.508-3.82-1.082-4.488c-1.59-.668-10.299 2.103-11.575.981-1.277-1.12-.676-8.87 1.633-9.93 2.305-1.06 8.68-3.436 13.348-.276 0 0 3.641-.415 4.18 2.522.541 2.938-.196 11.578-1.185 13.763z"/></g><g><path fill="#a77860" d="M469.156 169.093c7.937-2.447 8.535-7.227 8.544-7.301-2.614 4.49-8.43 5.085-8.43 5.085.021.626-.013 1.41-.114 2.216z"/></g><g><path fill="#eea886" d="M483.112 171.372s-5.813 11.57-15.203 10.824c-9.39-.748-1.6-12.378-1.175-12.485.47-.118 9.632-2.401 16.378 1.66z"/></g><g><path fill="#e8e8e8" d="M441.054 226.492s28.771 3.547 46.203.588l-33.307-4.163s-.198.849-12.896 3.575z"/></g><g><path fill="#eea886" d="M462.574 221.606l-2.143 1.087s.489 3.404 1.662 4.435l2.406-.613s-.502-3.734-1.925-4.909z"/></g><g><path fill="#fff" d="M495.867 214.635c-.43.496-6.085 2.77-12.476 5.233h-.001c-8.728 3.364-18.575 6.545-18.575 6.545l-2.241-4.806s10.31-5.603 17.279-9.533c3.292-1.855 5.836-3.338 6.198-3.681 1.12-1.067 1.41-2.778.587-5.762-.825-2.984-2.723-16.701-2.936-18.301-.214-1.6.532-5.87 4.534-6.083 4.003-.213 6.039.917 6.039.917s1.005.418 1.752 10.128c.747 9.71.853 24.17-.16 25.343z"/></g><g><path fill="#b0b0b0" d="M485.833 198.935c-.038 1.348-.096 3.396-.147 5.62-3.906-9.574-1.65-17.215-1.611-17.343-.422 2.598 1.728 11.596 1.758 11.723z"/></g><g><path fill="#b0b0b0" d="M455.681 201.823c-.495 2.408-.939 4.315-1.218 4.915-1.333-6.455-.133-14.72-.133-14.72.182 3.948 1.351 9.805 1.351 9.805z"/></g><g><path fill="#eea886" d="M483.391 219.868c-8.729 3.363-18.893 6.647-18.893 6.647l-1.924-4.909s10.31-5.602 17.28-9.532c0 0 2.534 1.235 3.537 7.794z"/></g><g><path fill="#444c94" d="M461.954 226.8l-40.895-.602 20.646 10.484z"/></g><g><path fill="#303669" d="M441.705 236.681l20.249-7.843v-2.037l-21.85 7.88z"/></g><g><path fill="#eea886" d="M460.893 222.767s-2.555-.398-4.319-.809c-1.368-.318-4.764.12-5.629.996-.865.878-3.618 6.988-4.139 7.36-.52.374.268 1.236 1.181.803 0 0 .84 2.673 2.91 1.672 2.072-1 3.477-3.186 4.563-3.57 1.083-.385 7.402-2.327 7.402-2.327s-.342-4.776-1.969-4.125z"/></g><g><path fill="#eea886" d="M451.568 222.554s-1.642.793-2.068 1.146c-.429.353-2.167 1.653-2.587 1.96-.419.304.635 1.173 3.74-.17 3.103-1.344.915-2.936.915-2.936z"/></g><g><path fill="#303669" d="M441.705 236.681l-12.161-33.21-39.214.64 11.59 30.606z"/></g><g><path fill="#518afa" d="M416.995 218.163c1.196 2.393.835 4.998-.808 5.819-1.641.823-3.943-.452-5.14-2.844-1.197-2.392-.835-4.997.807-5.82 1.642-.821 3.944.452 5.14 2.845z"/></g><g><path fill="#eea886" d="M475.673 151.915c.144-1.221 2.556-1.67 2.75.16.194 1.83-1.095 5.043-2.012 4.728-.915-.317-.937-3.205-.738-4.888z"/></g><g><path fill="#ff9201" d="M233.832 284.231c-.278 1.944-11.96 10.125-14.26 11.761-1.846 1.311-3.451 1.913-6.242 2.962h-.002c-6.343 1.667-46.14 13.543-46.14 13.543-.103-.405-.16-.755-.393-1.21-1.486.592-3.016.976-3.986 1.28-1.481.462-13.242.832-15.65 1.296-2.407.463-7.223 1.203-9.167-.649s1.205-5.833 3.89-6.852c2.684-1.019 12.5-1.296 14.26-1.482 1.759-.184 4.074-.833 5.186-.463.35.117 1.902-.338 3.86-1.015a33.822 33.822 0 0 1-.058-1.176l10.448-3.013-1.934-18.5s4.545-17.13 22.709-4.063c0 0 4.05 1.191 5.44 1.561.099.027.254.03.465.014 2.77-.209 14.678-3.809 18.98-3.809 4.63 0 6.113-.279 7.78.555 1.666.833 5.092 7.315 4.814 9.26z"/></g><g><path fill="#ff9201" d="M215.225 313.215c-1.945 1.852-6.76 1.11-9.167.648-2.407-.463-14.168-.834-15.649-1.295-1.483-.464-4.259-1.112-6.205-2.41-.156-.104-.514-.26-1.039-.455l-.002.002-2.94 2.12-40.889-13.014c-2.45-.672-4.394-1.694-5.688-2.82-2.13-1.851-13.983-9.815-14.26-11.76-.278-1.945 3.147-8.426 4.814-9.26 1.667-.833 3.15-.555 7.778-.555 4.63 0 18.058 4.167 19.446 3.796.632-.17 1.94-.834 3.18-1.51 1.483-.812 2.87-1.637 2.87-1.637 19.887-8.878 22.101 5.648 22.101 5.648l-1.178 17.934s1.658.82 3.814 1.846l9.857 2.784-1.29.932c.556.18.952.263 1.112.208 1.111-.37 3.427.279 5.186.464 1.76.186 11.574.463 14.26 1.48 2.686 1.02 5.833 5 3.89 6.854z"/></g><g><path fill="#5478b3" d="M154.603 276.702c1.371.095 10.638 5.462 12.836 6.745-3.34-1.745-16.015-5.235-16.015-5.235.632-.169 1.94-.834 3.18-1.51z"/></g><g><path fill="#5478b3" d="M202.258 278.225s-15.964 3.873-18.885 5.496c.133-.097 8.414-6.39 12.76-7.227 0 0 4.271 1.347 5.66 1.717.098.027.253.03.464.014z"/></g><g><path fill="#eea886" d="M215.225 313.215c-1.945 1.852-6.76 1.11-9.167.648-2.407-.463-14.168-.834-15.649-1.295-.427-.134-.958-.283-1.548-.457-1.463-.432-3.272-1.03-4.657-1.953-.156-.104-.514-.26-1.039-.455l7.4-5.341.213-.153c.556.18.952.263 1.112.208 1.111-.37 3.427.279 5.186.464 1.76.186 11.574.463 14.26 1.48 2.686 1.02 5.833 5 3.89 6.854z"/></g><g><path fill="#fff" d="M215.225 313.215c-1.945 1.852-6.76 1.11-9.167.648-2.407-.463-14.168-.834-15.649-1.295-.427-.134-.958-.283-1.548-.457l-.003-.002s3.237-3.202 1.707-7.747l.213-.153c.556.18.952.263 1.112.208 1.111-.37 3.427.279 5.186.464 1.76.186 11.574.463 14.26 1.48 2.686 1.02 5.833 5 3.89 6.854z"/></g><g><path fill="#e55353" d="M158.662 280.788c.02.05.017.087-.015.109-.184.139-.154.08.015-.11z"/></g><g><path fill="#e93f4b" d="M212.18 259.137c.776 1.575 1.072 3.427-5.983 10.557-4.969 5.02-15.773 9.505-15.773 9.505s-4.383-3.871-5.062-4.366l.002-.001c-.492.039-.972.052-1.414.03-2.197-.111-17.504.43-23.769.143a166.595 166.595 0 0 0 2.627 1.697s-3.405 3.265-4.146 4.086c-.639-1.477-24.024-13.02-23.226-16.96 1.027-5.074 8.148-18.272 9.074-19.383.927-1.112 5.494-10.804 8.211-12.161 1.303-.652 5.16-2.054 8.822-3.34l.004-.001c3.975-1.394 7.718-2.648 7.718-2.648h10.804s3.421 1.099 6.553 2.11c1.738.564 3.386 1.1 4.312 1.41 2.592.863 8.085 3.64 10.37 9.69 2.285 6.05 10.72 19.32 10.875 19.632zm-61.427 8.78c1.06 1.274 4.116 3.494 6.884 5.386.336-3.335.636-4.096 1.01-5.215.417-1.25.494-3.087-.493-7.1-.989-4.012-4.507-11.728-4.507-11.728s-6.79 11.729-7.594 12.964c-.802 1.234 2.385 2.915 4.7 5.693zm47.765-1.326c3.067-3.483 5.78-5.726 4.483-6.898-1.296-1.173-9.475-12.286-9.475-12.286s-.679 5.743-1.667 7.84c-.988 2.1-1.789 7.594-1.728 9.508.04 1.266.411 4.79.657 7.028 3.23-1.88 6.821-4.161 7.73-5.192z"/></g><g><path fill="#eea886" d="M175.955 196.602s8.449 1.33 7.162 14.55c-1.286 13.218-8.743 12.135-9.242 12.121-.498-.014-7.485.241-8.03-15.899 0 0-.238-11.933 10.11-10.772z"/></g><g><path fill="#eea886" d="M183.248 207.418s.925-.988 1.265.012c.339 1-1.263 5.463-1.321 5.672 0 0-.17.387-.39.173-.223-.213.446-5.857.446-5.857z"/></g><g><path fill="#eea886" d="M166.072 207.25s-.905-1.005-1.265-.012c-.357.994 1.144 5.485 1.21 5.696 0 0 .162.39.389.182.226-.21-.334-5.865-.334-5.865z"/></g><g><path fill="#434343" d="M183.243 209.446l-1.21 1.615s.034-3.544-.158-4.099c-.195-.556-.492-2.254-.653-2.655-.164-.4-7.256-2.389-13.521.58 0 0 .275 2.55-.326 2.776-.6.227-.305 4.151-.305 4.151l-.995-1.122s-1.522-10.169-1.146-11.229c.377-1.06 1.574-7.432 14.427-3.649 0 0 4.007-.849 4.812 1.917.804 2.767-.925 11.715-.925 11.715z"/></g><g><path fill="#b57433" d="M163.524 293.973s-12.933-7.751-18.582-8.97c-5.338-1.152-7.284-3.15-7.284-3.15s8.49 0 14.137 4.015c3.835 2.723 11.73 8.105 11.73 8.105z"/></g><g><path fill="#b57433" d="M175.013 299.376s22.495-11.812 31.68-14.372c5.258-1.47 7.284-3.15 7.284-3.15s-13.907 1.359-22.364 6.452c-4.032 2.426-16.6 11.07-16.6 11.07z"/></g><g><path fill="#eea886" d="M166.795 311.287c-1.486.593-3.016.977-3.986 1.28-1.481.462-13.242.832-15.65 1.296-2.407.463-7.222 1.203-9.167-.648-1.944-1.853 1.205-5.833 3.89-6.853 2.684-1.018 12.5-1.296 14.26-1.481 1.759-.185 4.074-.833 5.186-.464.35.117 1.903-.338 3.862-1.015.059 1.176 1.605 7.885 1.605 7.885z"/></g><g><path fill="#faa146" d="M175.013 310.167l22.113-6.544-4.372-1.335s-17.672 6.406-17.74 7.879z"/></g><g><path fill="#b57433" d="M175.013 310.167l10.35-3.156-7.176 4.167z"/></g><g><path fill="#525252" d="M167.905 283.721l-.466-.274c.187.096.342.188.466.274z"/></g><g><path fill="#fff" d="M162.808 312.567c-1.48.462-13.24.832-15.649 1.296-2.408.463-7.223 1.203-9.167-.649-1.945-1.852 1.205-5.833 3.89-6.852 2.684-1.019 12.5-1.296 14.26-1.482 1.76-.184 4.073-.833 5.186-.463 0 0-2.969 4.538 1.48 8.15z"/></g><g><path fill="#525252" d="M155.499 281.853l-3.407-19.383 44.058-1.017-2.838 19.074s-14.063 5.146-18.836 8.15c0 0-12.063-4.956-18.977-6.824z"/></g><g><path fill="#6e6e6e" d="M177.07 274.16c0 1.602-1.105 2.901-2.47 2.901-1.363 0-2.468-1.299-2.468-2.901 0-1.602 1.105-2.901 2.468-2.901 1.365 0 2.47 1.299 2.47 2.901z"/></g><g><path fill="#eea886" d="M180.18 226.33a.18.18 0 0 0-.013-.034c-.527-1.178-.268-6.916-.268-6.916s-10.762-2.74-10.454-.645c.307 2.094-.928 7.812-.928 7.812l-5.52 1.888s5.882 15.793 12.642 13.756c6.76-2.037 9.311-14.325 9.311-14.325z"/></g><g><path fill="#a77860" d="M169.646 221.112s1.687 2.188 4.696 2.188c1.98 0 3.33-.488 5.302-2.41 0 0-.784 3.584-5.288 3.923 0 0-3.22.466-4.71-3.7z"/></g><g><path fill="#464240" d="M354.938 101.943s6.254-.654 8.508 5.385c2.252 6.04 4.375 8.015 4.64 11.19 1.073 12.83 7.066 9.928 5.38 17.323-1.686 7.398-2.852 8.518-2.852 8.518l-14.325-2.81-14.515.047s5.68-2.836 4.415-8.874c-1.265-6.04-4.415-15.937-2.636-22.68 1.78-6.74 7.648-7.583 11.385-8.099z"/></g><g><path fill="#eb4747" d="M350.981 300.217s-4.49 6.169-3.854 7.163c.64.994 5.542 1.136 8.523 0 2.983-1.137 3.055-8.488 4.404-11.646.566-1.324-.644-5.226-2.344-5.51-1.7-.282-3.693.609-3.693.609s1.74 4.494-3.036 9.384z"/></g><g><path fill="#eea886" d="M354.017 290.833s-.354 2.912-.923 4.972c-.567 2.059-3.62 6.745-3.479 7.314.141.568 3.976 1.082 5.54-.382 1.56-1.465 2.767-5.706 2.91-8.272.143-2.567-.355-4.24-.355-4.24s-2.2-.954-3.693.608z"/></g><g><path fill="#eb4747" d="M360.054 295.733v6.567h-.853v-5.076z"/></g><g><path fill="#eb4747" d="M362.735 300.217s-4.49 6.169-3.853 7.163c.64.994 5.54 1.136 8.522 0 2.983-1.137 3.055-8.488 4.403-11.646.565-1.324-.644-5.226-2.343-5.51-1.699-.282-3.693.609-3.693.609s1.74 4.494-3.036 9.384z"/></g><g><path fill="#eea886" d="M365.771 290.833s-.354 2.912-.922 4.972c-.568 2.059-3.623 6.745-3.48 7.314.142.568 3.977 1.082 5.538-.382 1.561-1.465 2.77-5.706 2.913-8.272.141-2.567-.357-4.24-.357-4.24s-2.202-.954-3.692.608z"/></g><g><path fill="#eb4747" d="M371.807 295.733v6.567h-.852v-5.076z"/></g><g><path fill="#eea886" d="M342.725 188.59s-3.397 18.72-4.315 23.403c-.918 4.684-3.489 27.364-3.764 31.22-.277 3.858 8.377 22.408 8.918 23.689 9.054 21.419 10.1 26.266 10.1 26.266s2.972 1.862 4.346-.36c.417-.677-5.574-25.24-6.56-32.054-.918-6.337-3.307-16.123-2.663-18.348.642-2.223 6.52-32.874 7.623-34.16 1.101-1.285 2.754.736 3.397 3.583.643 2.846 2.02 27.455 2.845 30.577.827 3.122.185 13.683.643 19.009.46 5.326 2.372 30.187 2.372 30.187s3.7.662 4.066.07c.368-.592 3.571-27.612 3.664-33.947.091-6.337.19-15.075.366-17.816 1.701-26.257 4.916-29.69-.702-48.59-13.744-46.24-30.336-2.73-30.336-2.73z"/></g><g><path fill="#ff9201" d="M342.725 188.59s-3.397 18.72-4.315 23.403c-.918 4.684-3.489 27.364-3.764 31.22-.277 3.858 8.08 22.407 8.264 23.785.183 1.377 7.065 21.094 7.065 21.094s6.951-.12 8.846-1.92c.381-.362-6.385-18.603-7.37-25.418-.919-6.337-3.308-16.123-2.664-18.348.642-2.223 6.52-32.874 7.623-34.16 1.101-1.285 2.754.736 3.397 3.583.643 2.846 2.02 27.455 2.845 30.577.827 3.122.185 13.683.643 19.009.46 5.326-.508 24.25-.508 24.25s9.106.478 9.472-.114c.367-.591 1.045-21.491 1.138-27.826.091-6.337.19-15.075.366-17.816 1.701-26.257 4.916-29.69-.702-48.59-13.744-46.24-30.336-2.73-30.336-2.73z"/></g><g><path fill="#eb4747" d="M374.425 194.89c.53-.214-3.72-14.271-4.564-18.474-.76-3.79-3.35-7.26-.82-13.716 1.447-3.697 1.351-8.067 1.351-8.067s3.87 8.537 4.237 10.742c.368 2.203-13.377-1.806-13.566-1.5-.363.58-.763 4.3-.763 5.585 0 1.063 19.95 5.777 22.313 1.6.669-1.186-3.665-23.859-6.46-26.88-4.592-4.958-16.652-9.184-16.652-9.184s-3.305-1.774-9.122.063c-5.815 1.837-13.956 7.467-15.366 8.937-1.407 1.47-7.04 23.61-7.532 26.478-.461 2.697-.28 8.372 5.878 7.646l16.62-3.805-1.032-5.067-12.458.987c-2.542.432-1.323-1.8-1-3.04.317-1.216 3.444-12.484 3.444-12.484-.182 3.12 2.174 13.372 3.4 16.924 1.223 3.55-1.484 22.55-1.668 24.63 0 0 10.006 8.22 33.76-1.375z"/></g><g><path fill="#eea886" d="M362.215 136.037s-4.101 8.462-7.524 10.94c0 0-6.165-9.237-5.851-11.368 0 0 6.829-3.028 13.375.428z"/></g><g><path fill="#eea886" d="M362.362 164.566s-1.899-.766-2.404-1.455c-.503-.69-2.189-1.1-3.435-.73-1.246.372-.557 5.726-.557 5.726l6.578.853z"/></g><g><path fill="#eea886" d="M350.457 168.656s.633-3.46.48-4.099c-.152-.637 1.124-1.279 1.3.3.18 1.578.274 2.582.274 2.582z"/></g><g><path fill="#51578c" d="M353.191 171.058l4.788-.196a1.153 1.153 0 0 0 1.107-1.138l.127-10.483a1.15 1.15 0 0 0-1.189-1.166l-5.732.187a1.154 1.154 0 0 0-1.113 1.241l.816 10.492a1.153 1.153 0 0 0 1.196 1.063z"/></g><g><path fill="#eea886" d="M350.351 168.937s-.089-.983 1.8-1.883c2.505-1.195 5.85-2.41 6.42-2.096.822.451.398 1.077-1.186 1.6-1.583.521-2.105.688-2.105.688s3.097-.295 3.794.075c.694.372.733 1.227.225 1.368-.508.14-1.706.226-1.706.226s1.315.05 1.446.577c.098.391.146.95-1.098 1.181 0 0 .844.937-.422 1.537-1.265.6-3.556 1.148-4.707 1.336-2.393.393-7.796.101-7.796.101l2.22-3.755s1.234.096 2.084-.192c1.147-.392 1.031-.763 1.031-.763z"/></g><g><path fill="#eb4747" d="M348.947 169.248l1.032 5.066-10.592 2.426-.409-6.704z"/></g><g><path fill="#eb4747" d="M361.063 163.875s-.873 1.873-.764 5.586c0 0 6.57 2.398 11.67 2.956v-6.444z"/></g><g><path fill="#b33636" d="M349.98 174.314l-7.426 4.13c.051-.862.088-1.687.107-2.453z"/></g><g><path fill="#b33636" d="M369.496 174.863c-5.956-2.366-8.341-4.502-8.996-5.179-.141-.144-.2-.223-.2-.223l8.459 2.466c.21 1.025.488 1.987.737 2.936z"/></g><g><path fill="#eea886" d="M355.762 105.476s8.282 1.195 7.07 13.42c-1.212 12.227-8.522 11.257-9.01 11.246-.49-.01-7.333.255-7.925-14.664 0 0-.276-11.032 9.865-10.002z"/></g><g><path fill="#eea886" d="M359.442 127.974s-.512 6.36.713 8.265c1.224 1.905-1.047 4.492-5.73 3.606-4.682-.884-4.409-3.538-4.409-3.538s1.311-3.926.927-7.067c-.384-3.14 8.5-1.266 8.5-1.266z"/></g><g><path fill="#464240" d="M354.815 109.907s3.87 4.068 5.67 6.128c1.794 2.06 2.001 6.04 2.001 6.04s3.03-3.699 1.763-8.006c-1.266-4.308-4.264-12.686-11.847-10.113-7.585 2.575-7.864 13.905-6.976 19.522 0 0 3.406-12.4 9.39-13.57z"/></g><g><path fill="#a77860" d="M351.553 129.589s3.528 1.668 6.962-.796c0 0-.953 1.97-3.482 2.25-2.528.28-3.48-1.454-3.48-1.454z"/></g><g><path fill="#464240" d="M350.35 131.806s-11.396 10.138-8.439 16.464c2.523 5.397 11.473 2.087 9.998-3.569-1.478-5.656-1.56-12.894-1.56-12.894z"/></g><g><path fill="#48484d" d="M353.453 160.284a.713.713 0 1 1-1.426-.002.713.713 0 0 1 1.426.002z"/></g><g><path fill="#eea886" d="M292.88 139.747s8.64 2.537 8.112 14.284c-.531 11.746-8.112-14.284-8.112-14.284z"/></g><g><path fill="#eea886" d="M292.084 139.747s.667.906-.167 6.752c-.834 5.845.746 8.289.935 10.722.188 2.43 3.04 18.142 3.119 18.836.076.695.46 9.056 1.573 11.275 1.112 2.219 9.29 14.794 9.4 15.422.11.628 3.972-2.191 3.972-2.191s-7.344-15.28-7.82-16.785c-.59-1.87-2.4-6.505-2.51-8.928-.271-5.927.267-19.692.059-22.69-.391-5.613-4.814-11.52-8.561-12.413z"/></g><g><path fill="#eea987" d="M303.097 189.905s1.287 2.827 2.048 3.003c.76.176 1.666 1.117 2.317 1.406.651.29 2.701.446 3.253.983.225.218 1.09 2.104 1.593 2.5.506.395 1.625 1.073 1.28 1.5-.347.421-1.51.09-1.51.09s.438.388.251.857c-.365.914-.978.955-.978.955s.197.685-.052 1.026c-.545.75-1.14.773-1.14.773s-.05.53-.527.943c-.609.53-1.36.228-1.36.228s-.61.84-1.17.676c-.565-.162-.89-.582-1.292-.828s-3.209-3.473-4.245-6.492c-1.037-3.02-2.836-5.474-2.836-5.474z"/></g><g><path fill="#214361" d="M295.196 211.672l-15.337-18.911 31.556-25.593 15.338 18.908z"/></g><g><path fill="#db9c7c" d="M311.922 199.012s-2.446-2.718-3.665-2.666c-1.22.051-.39 1.081-.39 1.081s-.803-1.03-1.67-.485c-.867.547.167 1.701.167 1.701s-.814-.619-1.456.238c-.641.86.429 1.624.429 1.624s-1.615-.238-1.27 1.08c.584 2.224 2.988 3.311 2.988 3.311s.67.186 1.23-.684c0 0 1.51.578 1.924-1.17 0 0 1.765-.407 1.204-1.816 0 0 1.859-.65.509-2.214z"/></g><g><path fill="#fccca2" d="M284.98 105.428s-12.498-1.04-12.156 12.107c.342 13.145 2.425 15.123-.008 24.414-2.432 9.289 12.184-5.277 12.184-5.277z"/></g><g><path fill="#eea987" d="M271.363 186.664s-4.602 5.864-6.227 9.746c-1.625 3.879-4.331 12.384-3.969 18.97.36 6.589 2.524 18.95 1.893 21.748-.632 2.797-1.261 8.573-1.938 10.557-.679 1.985-3.384 7.759-3.656 13.715-.27 5.956 3.791 32.124 3.61 34.56-.181 2.437 4.602.993 4.602.993s1.623-23.641 2.526-27.702c.902-4.061 1.985-17.865 2.798-18.858.812-.994 3.033-11.28 2.688-12.904-.344-1.625 8.861-25.988 9.402-30.861.542-4.872 14.114-19.964 14.114-19.964s-11.857-4.535-25.843 0z"/></g><g><path fill="#eea987" d="M293.326 186.664s.233 2.458.505 3.36c.27.903 6.497 23.914 7.129 32.757.633 8.843 2.255 16.343 2.525 18.232.272 1.89-.27 8.207-.811 9.83-.54 1.625 2.708 39.974 2.978 40.877.27.9-2.167 1.173-3.88.9-1.716-.268-10.377-28.151-9.836-32.843.542-4.693 1.08-14.697-.451-18.764-1.534-4.066-15.34-33.483-15.43-35.287-.09-1.805-5.974-32.89 17.27-19.062z"/></g><g><path fill="#eea987" d="M265.592 294.076s.444 3.115.93 3.965c.487.85 1.82 5.179 2.429 5.988.607.81 1.942 6.877 0 7.606-1.942.727-6.515 1.941-8.051-.486a9.985 9.985 0 0 1-1.497-6.717c.243-1.86 2.087-10.402 2.063-11.247-.026-.844 4.126.891 4.126.891z"/></g><g><path fill="#fff" d="M268.175 302.348s.208 4.715-3.352 4.715-5.137-4.291-5.137-4.291-1.213 2.106 0 6.598c1.214 4.49 6.27 3.559 7.404 3.397 1.132-.161 6.502-1.582 1.086-10.42z"/></g><g><path fill="#fff" d="M305.267 289.84s2.518 4.503 4.011 5.415c1.863 1.138 5.476 4.783 6.74 4.95 1.263.17 5.801.974 4.925 3.536-.719 2.1-11.544 1.8-12.766.747-1.22-1.052-4.87-4.83-6.345-4.746-1.473.085-.924 5.449-.924 5.449h-1.6s-.56-5.22-.627-6.116c-.199-2.655 1.694-4.61 1.778-6.124.084-1.516.17-2.646.17-2.646z"/></g><g><path fill="#eea987" d="M315.657 300.083s-3.57 1.232-6.315-.345c-2.747-1.58-8.017-3.975-9.88-3.993 0 0 1.013-3.108 1.036-3.457.022-.348.132-1.983.132-1.983l4.609-.74s2.988 4.388 4.305 5.42c1.318 1.035 4.693 3.612 6.113 5.098z"/></g><g><path fill="#18127b" d="M297.283 186.258s1.284 5.347 1.759 6.903c.473 1.556 3.514 25.705 4.262 40.81 0 0-18.204 6.9-43.244 5.75 0 0-.609-27.746 1.692-35.596 2.301-7.851 6.467-15.196 9.611-17.461 2.796-2.016 25.92-.406 25.92-.406z"/></g><g><path fill="#fff" d="M300.41 154.647c-.202 3.182-1.504 5.217-1.774 6.366-.272 1.152 0 3.791-.338 6.431-.34 2.64-1.353 15.226-1.015 18.813.337 3.587-24.62 1.967-26.514.884 0 0 4.204-7.515 4.316-10.63.038-1.068.678-4.398-1.083-6.834-.93-1.286-2.653-5.38-4.372-8.373 0 0 .319-.62 0 0-.666-1.16-1.365-2.317-1.852-3.178-.636-1.125-.99-2.458-.99-2.458s-1.11-13.806 1.935-15.362c3.046-1.557 4.669-1.828 7.648-1.964 2.978-.135 4.94-.744 4.94-.744l6.97.744s2.46 1.153 4.22 1.29c1.759.134 3.909 3.956 4.973 6.725.878 2.282 3.14 5.108 2.937 8.29z"/></g><g><path fill="#eea886" d="M272.507 138.865s-5.516.458-7.592 5.528c-2.073 5.071-1.9 10.218-2.348 12.09-.451 1.874-1.108 12.722-1.581 14.325-.472 1.603-2.096 9.037-2.46 15.046-.362 6.01.534 18.683.534 18.683l3.056-1.484s2.722-18.793 3.9-22.767c1.01-3.397 1.01-9.176 1.577-11.262.565-2.088 4.03-14.643 4.588-15.916.857-1.95 5.067-14.306.326-14.243z"/></g><g><path fill="#eea886" d="M283.758 106.759c3.097-.507 10.186.27 12.194 8.403 0 0 .004 2.255-.337 4.065-.34 1.809 1.817 6.786 1.438 7.087-.38.3-2.033.819-2.033.819s-1.172 5.84-3.157 6.018c-1.98.177-9.643-.511-13.968-7.115-4.328-6.604-6.646-17.23 5.863-19.277z"/></g><g><path fill="#eea886" d="M288.898 130.887s-.15.817-.294 2.02c-.072.615-.143 1.33-.188 2.086-.122 2.098-.06 4.523.655 6.062 0 0-3.888 2.364-8.046-3.42 0 0 .411-7.176-1.979-10.99-2.388-3.815 9.852 4.242 9.852 4.242z"/></g><g><path fill="#fccca2" d="M295.952 115.162s-4.664 4.025-9.602 5.295c-4.937 1.27-7.552 6.817-7.552 6.817s-8.738-8.715-3.465-17.172c5.272-8.46 20.609-4.686 20.619 5.06z"/></g><g><path fill="#a77860" d="M288.604 132.907c-.072.615-.144 1.33-.188 2.087-4.355-2.113-6.755-5.01-6.755-5.01 2.56 1.833 6.943 2.923 6.943 2.923z"/></g><g><path fill="#fccca2" d="M285.442 120.746s-5.052 13.584-4.446 16.853c0 0-2.675-.46-7.435.995 0 0 2.302-24.233 11.881-17.848z"/></g><g><path fill="#eea886" d="M279.31 138.037s1.662 10.187 7.821 9.036c6.158-1.151 1.488-8.614 1.488-8.614s-2.736-2.292-9.31-.422z"/></g><g><path fill="#eea886" d="M262.19 202.537s.483 1.612 1.245 3.236c.37.792.926 6.129.945 6.823.02.582-.39.268-.618-.1-.129-.211-.618-2.032-1.034-2.99-.35-.804-.62-1.094-.746-.817-.126.28-.13 3.736.295 5.18.425 1.444.35 4.854-.46 4.424-.81-.432-3.077-6.416-3.1-8.731-.02-2.317.334-5.115.334-5.115z"/></g></g></svg>