<svg xmlns="http://www.w3.org/2000/svg" width="224" height="132" viewBox="0 0 224 132"><g><g opacity=".4"><g opacity=".4"><path fill="#2b2b2b" d="M98.022 55.206a6.833 6.833 0 0 1-6.824-6.827V15.657a6.832 6.832 0 0 1 6.824-6.825h4.08V7.628a6.834 6.834 0 0 1 6.824-6.825h10.83l.063.01.013.002h.013c.124.007.243.029.374.073a1.4 1.4 0 0 1 .524.316l16.42 16.42c.11.108.197.239.27.398l.046.124c.04.12.064.237.072.358v.01l.002.009.013.09v21.74a6.832 6.832 0 0 1-6.825 6.824h-4.077v1.203a6.833 6.833 0 0 1-6.825 6.826zm0-43.636a4.087 4.087 0 0 0-4.083 4.084v32.724a4.088 4.088 0 0 0 4.083 4.084h21.816a4.088 4.088 0 0 0 4.083-4.084V27.993h-9.596a6.834 6.834 0 0 1-6.825-6.825v-9.597h-9.478zm28.642 32.864h4.077a4.087 4.087 0 0 0 4.083-4.082V19.966h-9.596a6.832 6.832 0 0 1-6.824-6.825V3.545h-9.478a4.088 4.088 0 0 0-4.084 4.084v1.203h4.01l.086.013.291.048v-.004l.092.029.004.002h.004c.192.063.367.169.511.31l16.423 16.424c.105.105.192.232.264.388l.05.132c.041.124.064.238.072.357v.01l.002.009.013.088zM110.241 13.51v7.657a4.09 4.09 0 0 0 4.085 4.084h7.658l-11.316-11.316zm10.903-8.028v7.659a4.088 4.088 0 0 0 4.083 4.083h7.66l-.428-.427-10.888-10.889z"/></g><g opacity=".4"><path fill="#fff" d="M102.351 7.628V9.08h-4.329a6.582 6.582 0 0 0-6.574 6.575V48.38a6.583 6.583 0 0 0 6.574 6.575h21.817a6.582 6.582 0 0 0 6.575-6.575v-1.453h4.327a6.582 6.582 0 0 0 6.575-6.575V18.633l-.01-.074-.003-.019v-.019a1.113 1.113 0 0 0-.059-.29l-.042-.112a1.072 1.072 0 0 0-.216-.318l-16.42-16.42a1.133 1.133 0 0 0-.34-.226l-.086-.03a1.131 1.131 0 0 0-.306-.06l-.027-.002-.026-.004-.044-.006h-10.81a6.584 6.584 0 0 0-6.576 6.575zm24.063 37.057V26.657l-.01-.07-.004-.02v-.02a1.133 1.133 0 0 0-.058-.288l-.046-.12a1.1 1.1 0 0 0-.21-.308l-16.42-16.424a1.054 1.054 0 0 0-.308-.208h-.003l-.004-.003a.793.793 0 0 0-.096-.037l-.008-.003-.008-.002-.033-.01-.308-.052-.068-.01h-4.238V7.628a4.34 4.34 0 0 1 4.334-4.334h9.728v9.846a6.582 6.582 0 0 0 6.574 6.576h9.846v20.635a4.338 4.338 0 0 1-4.333 4.333zm-1.186-27.21a4.339 4.339 0 0 1-4.332-4.334V4.878l.853.853 10.888 10.891.853.853zM98.021 52.713a4.338 4.338 0 0 1-4.333-4.334V15.654a4.338 4.338 0 0 1 4.333-4.334h9.728v9.847a6.584 6.584 0 0 0 6.575 6.575h9.846V48.38a4.337 4.337 0 0 1-4.333 4.334zm16.304-27.212a4.339 4.339 0 0 1-4.335-4.334v-8.26l.854.853 10.89 10.887.852.854zm5.45-24.948l.081.011c.154.008.296.038.443.087.056.02.09.03.123.044.21.096.364.2.496.33l16.42 16.422c.134.133.24.29.325.48l.05.135c.05.146.077.284.087.425l.015.11v21.755a7.082 7.082 0 0 1-7.075 7.075h-3.827v.953c0 3.9-3.174 7.075-7.075 7.075H98.022c-3.9 0-7.074-3.175-7.074-7.075V15.655c0-3.9 3.174-7.075 7.074-7.075h3.83v-.952a7.085 7.085 0 0 1 7.074-7.075zm10.966 43.632a3.837 3.837 0 0 0 3.833-3.833V20.217h-9.346c-3.9 0-7.074-3.174-7.074-7.076V3.795h-9.228a3.838 3.838 0 0 0-3.834 3.834v.952h3.78l.107.017v-.003c.135.007.28.037.424.086.23.074.44.201.613.37l16.424 16.426c.127.128.231.28.317.468l.056.146c.05.15.076.283.085.424l.016.106v17.564zm-9.347-38.1v7.056a3.838 3.838 0 0 0 3.833 3.834h7.055zm-1.556 46.128a3.838 3.838 0 0 0 3.833-3.834V28.243h-9.346a7.085 7.085 0 0 1-7.075-7.075v-9.347h-9.228a3.838 3.838 0 0 0-3.833 3.834V48.38a3.839 3.839 0 0 0 3.833 3.834h21.816zm1.542-27.212l-10.889-10.888v7.054a3.838 3.838 0 0 0 3.835 3.834z"/></g><g opacity=".4"><path fill="#2b2b2b" d="M108.341 46.06a1.299 1.299 0 0 1-1.298-1.3v-5.802h-5.804a1.3 1.3 0 0 1 0-2.597h5.803v-5.804a1.3 1.3 0 0 1 2.599 0v5.804h5.803a1.3 1.3 0 0 1 0 2.597h-5.803v5.803a1.3 1.3 0 0 1-1.3 1.299z"/></g><g opacity=".4"><path fill="#fff" d="M108.341 29.508zm0 0c.579 0 1.049.47 1.05 1.049v6.054h6.053a1.05 1.05 0 0 1 0 2.097h-6.053v6.053a1.05 1.05 0 0 1-2.099 0v-6.053h-6.052a1.048 1.048 0 0 1-1.003-1.003 1.047 1.047 0 0 1 1.003-1.094h6.053v-6.054c0-.579.47-1.048 1.048-1.05zm0-.5zm0 0a1.55 1.55 0 0 0-1.548 1.549v5.554h-5.554a1.548 1.548 0 1 0 0 3.097h5.553v5.553a1.549 1.549 0 0 0 3.098 0v-5.553h5.554a1.549 1.549 0 0 0 0-3.097h-5.554v-5.554a1.55 1.55 0 0 0-1.549-1.55z"/></g></g><g opacity=".4"><g opacity=".4"><g><text dominant-baseline="text-before-edge" transform="translate(-1 69)"><tspan fill="#2b2b2b" font-family="'.SF Compact Rounded','..SFCompactRounded-Regular'" font-size="22">Faylı bu sahǝyǝ buraxın</tspan></text></g></g></g><g opacity=".4"><g opacity=".4"><g><text dominant-baseline="text-before-edge" transform="translate(-1 105)"><tspan fill="#2b2b2b" font-family="'.SF Compact Rounded','..SFCompactRounded-Regular'" font-size="22">*format: jpeg, png, mp4</tspan></text></g></g></g></g></svg>