<svg xmlns="http://www.w3.org/2000/svg" width="22" height="22" viewBox="0 0 22 22"><g><g opacity=".8"><path fill="#fff" d="M11.266.512c5.774 0 10.506 4.614 10.569 10.388.068 6.072-4.899 10.72-10.653 10.68C5.401 21.537.682 16.81.704 11.045.698 5.22 5.468.514 11.266.512zm-1.301 14.02h-.001c0 .894-.001 1.79.001 2.684 0 .205.005.211.194.211.638.002 1.275.001 1.911 0 .192-.002.197-.007.201-.209.006-.335.006-.67.006-1.007l.001-4.31c0-.283.003-.286.288-.288.472-.005.946-.003 1.42-.008.237-.002.24-.005.27-.237.072-.563.145-1.126.214-1.69.038-.309.036-.31-.286-.312l-1.704.001c-.119 0-.203-.02-.202-.165.004-.533-.024-1.067.017-1.6.032-.414.28-.679.682-.769.143-.032.289-.047.435-.046.327 0 .655-.006.982 0 .128.001.186-.038.185-.175-.005-.55-.004-1.102-.001-1.653 0-.124-.036-.182-.173-.194-.644-.053-1.288-.093-1.933-.046-1.305.097-2.228.938-2.449 2.223-.089.513-.047 1.03-.06 1.546-.006.224.002.447-.004.671-.005.186-.022.2-.214.206-.051.003-.102.001-.154.002-.465 0-.93.002-1.395 0-.122-.002-.191.024-.19.17.006.636.005 1.273 0 1.91-.001.131.062.161.174.16.189-.003.378 0 .567 0 .345.002.689.006 1.033.004.129 0 .193.05.184.183-.005.07.001.138.001.207z"/></g></g></svg>