<svg xmlns="http://www.w3.org/2000/svg" viewBox="0 0 164.15 78.08">
<defs>
<style>.cls-1{opacity:0.4;}.cls-2{font-size:23.4px;font-family:..SFCompactRounded-Regular, "..SFCompactRounded Regular";}.cls-15,.cls-2{fill:#2b2b2b;}.cls-3{letter-spacing:0.01em;}.cls-4{letter-spacing:-0.01em;}.cls-5{letter-spacing:0em;}.cls-6{letter-spacing:0.01em;}.cls-7{letter-spacing:-0.01em;}.cls-8{letter-spacing:-0.01em;}.cls-9{letter-spacing:0em;}.cls-10{letter-spacing:-0.01em;}.cls-11{letter-spacing:0em;}.cls-12{letter-spacing:-0.01em;}.cls-13{letter-spacing:0em;}.cls-14{opacity:0.45;}.cls-15{stroke:#fff;stroke-miterlimit:10;}</style>
</defs><g id="Слой_2" data-name="Слой 2"><g id="Layer_1" data-name="Layer 1"><g class="cls-1"><text class="cls-2" transform="translate(0 72.23) scale(0.93 1)">
<tspan class="cls-3">*</tspan>
<tspan class="cls-4" x="9.83" y="0">f</tspan>
<tspan class="cls-5" x="16.33" y="0">o</tspan>
<tspan class="cls-6" x="28" y="0">r</tspan>
<tspan class="cls-7" x="36.9" y="0">m</tspan>
<tspan class="cls-8" x="56.25" y="0">a</tspan>
<tspan class="cls-9" x="67.25" y="0">t</tspan>
<tspan x="75.09" y="0">: </tspan>
<tspan class="cls-10" x="84.89" y="0">j</tspan>
<tspan class="cls-11" x="90.35" y="0">peg</tspan>
<tspan x="128.07" y="0">, </tspan>
<tspan class="cls-13" x="137.87" y="0">png</tspan>
</text></g><g class="cls-14"><path class="cls-15" d="M110.21.5H67.35A5.85,5.85,0,0,0,61.5,6.35V33.62a5.85,5.85,0,0,0,5.85,5.85h42.86a5.85,5.85,0,0,0,5.85-5.85V6.35A5.85,5.85,0,0,0,110.21.5Zm2,33.12a2,2,0,0,1-2,2H67.35a2,2,0,0,1-1.95-2V32.48l7.79-7.79,6.42,6.41a1.94,1.94,0,0,0,2.75,0L98.52,15l13.64,13.63v5Zm0-10.55L99.9,10.81a2,2,0,0,0-2.76,0L81,27l-6.42-6.42a1.94,1.94,0,0,0-2.75,0L65.4,27V6.35A2,2,0,0,1,67.35,4.4h42.86a2,2,0,0,1,2,1.95V23.07Z"/><path class="cls-15" d="M79,8.29a5.85,5.85,0,1,0,5.84,5.85A5.85,5.85,0,0,0,79,8.29Zm0,7.8A1.95,1.95,0,1,1,81,14.14,2,2,0,0,1,79,16.09Z"/></g></g></g></svg>