<svg xmlns="http://www.w3.org/2000/svg" width="22" height="22" viewBox="0 0 22 22"><g><g opacity=".8"><path fill="#fff" d="M21.552 11.024c.015 5.81-4.745 10.55-10.543 10.56-5.79.01-10.61-4.633-10.617-10.531C.386 5.216 5.119.604 10.792.508c5.829-.094 10.745 4.542 10.76 10.515zm-9.915 5.684c.748-.01 1.5.015 2.243-.091 1.304-.188 2.193-.889 2.578-2.174.105-.348.147-.708.156-1.07.039-1.523.049-3.046.006-4.569a4.68 4.68 0 0 0-.107-.922c-.253-1.095-.88-1.866-1.96-2.24-.467-.165-.956-.212-1.447-.224-1.273-.03-2.547-.02-3.82-.01-.483.003-.965.011-1.44.11-1.2.245-2.006.932-2.356 2.122a4.616 4.616 0 0 0-.162 1.095c-.064 1.222-.037 2.444-.032 3.665.002.577.01 1.155.119 1.724.178.94.66 1.672 1.513 2.133.526.284 1.099.388 1.69.412a47.58 47.58 0 0 0 2.284.038c.306 0 .52.002.736 0z"/></g><g opacity=".8"><path fill="#fff" d="M6.336 8.599a3.22 3.22 0 0 1 .123-.71c.219-.706.69-1.15 1.4-1.352.386-.108.782-.13 1.177-.133 1.488-.013 2.976-.057 4.463.035.445.027.868.135 1.239.393.523.365.762.89.845 1.506.06.444.063.892.066 1.339.007 1.195.02 2.392-.026 3.587a3.551 3.551 0 0 1-.154.99c-.238.716-.74 1.14-1.46 1.324a3.581 3.581 0 0 1-.792.102 83.978 83.978 0 0 1-4.49-.002 3.522 3.522 0 0 1-.916-.132c-.81-.242-1.264-.798-1.418-1.611-.092-.483-.095-.975-.101-1.465-.006-.482-.002-.964-.002-1.446 0-.808-.013-1.617.046-2.425zm4.646 5.342c1.625-.01 2.902-1.29 2.897-2.904-.005-1.592-1.327-2.892-2.931-2.881a2.886 2.886 0 0 0-2.882 2.896 2.893 2.893 0 0 0 2.916 2.889zm2.366-5.945a.652.652 0 0 0 .666.69.655.655 0 0 0 .664-.641.668.668 0 0 0-.66-.678c-.375-.004-.66.263-.67.629z"/></g><g opacity=".8"><path fill="#fff" d="M10.964 12.952a1.896 1.896 0 0 1-1.897-1.907c0-1.045.851-1.89 1.913-1.898 1.025-.008 1.899.856 1.905 1.883a1.923 1.923 0 0 1-1.921 1.922z"/></g></g></svg>