<svg xmlns="http://www.w3.org/2000/svg" width="187" height="40" viewBox="0 0 187 40"><g><g><path fill="#666" d="M2.776 3.031h5.386v4.322h3.556v4.237H8.162v8.087c0 1.64.82 2.197 2.51 2.197.436 0 .907-.018 1.098-.035v4.026c-.418.07-1.325.157-2.44.157-4.776 0-6.694-1.464-6.694-5.35V11.59H-.082V7.353h2.858z"/></g><g><path fill="#666" d="M30.183 17.481c0 5.787-3.713 8.837-8.61 8.837-5.195 0-8.542-3.434-8.542-8.924V15.53h11.696v-.628c0-2.37-1.464-3.782-3.382-3.782-1.655 0-2.893.82-3.12 2.196h-5.072c.28-2.929 2.684-6.31 8.21-6.31 5.23 0 8.82 3.068 8.82 8.995zm-11.8 1.255v.018c0 2.056 1.238 3.573 3.138 3.573 1.916 0 3.206-1.517 3.206-3.573v-.018z"/></g><g><path fill="#666" d="M37.916 25.97H32.32V.922h5.595V14.64h.262l5.246-7.286h6.328l-6.45 8 6.903 10.616h-6.52l-4.688-7.495-1.081 1.325z"/></g><g><path fill="#666" d="M51.641.922h5.595V25.97h-5.595z"/></g><g><path fill="#666" d="M63.315-.071c-1.656 0-3.015 1.08-3.015 2.736 0 1.656 1.359 2.736 3.015 2.736 1.656 0 3.016-1.08 3.016-2.736 0-1.656-1.36-2.736-3.016-2.736zm-2.788 26.04h5.578V7.353h-5.578z"/></g><g><path fill="#666" d="M70.74 11.59h-2.77V7.354h2.77V5.506c0-3.852 2.04-5.3 6.66-5.3 1.341 0 2.038.106 2.387.123v3.8c-.227-.017-.593-.052-1.22-.052-1.604 0-2.423.505-2.423 1.9v1.377h3.538v4.236h-3.399v14.38H70.74z"/></g><g><path fill="#666" d="M84.598-.071c-1.655 0-3.015 1.08-3.015 2.736 0 1.656 1.36 2.736 3.015 2.736 1.657 0 3.016-1.08 3.016-2.736 0-1.656-1.359-2.736-3.016-2.736zm-2.788 26.04h5.578V7.353H81.81z"/></g><g><path fill="#666" d="M90.631 7.353h5.421v2.911h.28c.452-1.412 2.004-3.189 4.984-3.189 2.841 0 4.532 1.36 5.125 3.311h.226c.541-1.55 2.458-3.31 5.631-3.31 3.782 0 5.943 2.491 5.943 6.134v12.76h-5.595V14.9c0-2.354-1.203-3.277-2.737-3.277-1.708 0-2.806 1.133-2.806 3.4v10.945h-5.334V15.005c0-2.562-1.307-3.38-2.77-3.38-1.518 0-2.79.94-2.79 3.363V25.97h-5.578z"/></g><g><path fill="#297fb8" d="M154.742 20.166c0 1.464 1.255 2.196 2.563 2.196 1.586 0 2.928-.976 2.928-2.458v-1.83h-2.824c-1.726 0-2.667.836-2.667 2.092z"/></g><g><path fill="#297fb8" d="M182.183 1.243a4.396 4.396 0 0 1 4.396 4.395v22.047a4.396 4.396 0 0 1-4.396 4.396h-32.442l-11.377 7.883 2.698-7.883h-11.995a4.396 4.396 0 0 1-4.396-4.396V5.638a4.396 4.396 0 0 1 4.396-4.395zM136.66 25.97h6.466l6.328-18.616h-5.805l-3.556 13.457h-.209l-3.137-13.457h-5.996zm29.082-12.41c0-4.6-3.486-6.484-7.948-6.484-5.909 0-7.774 3.172-7.879 6.205h5.212c.07-1.272 1.011-2.144 2.597-2.144 1.57 0 2.51.837 2.51 2.353v1.552h-4.305c-4.34 0-6.694 2.161-6.694 5.56 0 3.538 2.51 5.648 6.153 5.648 2.737 0 4.236-1.22 4.863-2.51h.245v2.23h5.246zm14.76-6.31c-.367-.105-.89-.156-1.674-.156-2.475 0-3.852 1.76-4.2 2.998h-.262V7.353h-5.595V25.97h5.751V15.93c0-2.492 1.081-4.148 3.94-4.148.82 0 1.64.07 2.04.21z"/></g><g><path fill="#fff" d="M149.453 7.353h-5.805l-3.556 13.457h-.209l-3.138-13.457h-5.996l5.91 18.616h6.466z"/></g><g><path fill="#fff" d="M157.793 7.075c4.462 0 7.948 1.883 7.948 6.484v12.41h-5.246v-2.23h-.244c-.628 1.29-2.127 2.51-4.864 2.51-3.643 0-6.153-2.11-6.153-5.648 0-3.399 2.353-5.56 6.694-5.56h4.305V13.49c0-1.516-.94-2.353-2.51-2.353-1.586 0-2.527.872-2.597 2.144h-5.212c.105-3.033 1.97-6.205 7.88-6.205zm2.44 11h-2.824c-1.725 0-2.667.835-2.667 2.091 0 1.464 1.256 2.196 2.563 2.196 1.586 0 2.928-.977 2.928-2.458z"/></g><g><path fill="#fff" d="M174.626 10.09h-.26V7.355h-5.596V25.97h5.752V15.93c0-2.492 1.08-4.15 3.938-4.15.82 0 1.64.072 2.04.21V7.249c-.366-.104-.889-.156-1.673-.156-2.475 0-3.852 1.76-4.2 2.998z"/></g></g></svg>