<svg xmlns="http://www.w3.org/2000/svg" width="117" height="32" viewBox="0 0 117 32"><g><g><path fill="#403d3a" d="M59.497 12.223c.76 0 1.342.187 1.747.573.405.386.603.86.603 1.432 0 .484-.149.908-.444 1.264-.297.355-.73.583-1.314.67l1.896 2.47a.725.725 0 0 1-.276.04.73.73 0 0 1-.277-.04l-1.846-2.41H57.66v2.41a.546.546 0 0 1-.464 0v-6.419zm-1.827 3.624h1.836c.622 0 1.087-.146 1.393-.453.306-.307.464-.693.464-1.156 0-.464-.158-.85-.464-1.155-.306-.307-.77-.455-1.393-.455H57.67z"/></g><g><path fill="#403d3a" d="M64.731 14.554c.631 0 1.125.218 1.481.652.355.435.493.938.404 1.51h-3.535c.01.524.179.939.504 1.245.325.306.751.464 1.274.464.493 0 .967-.158 1.411-.484.031.03.04.099.04.198 0 .098-.009.167-.04.197-.364.307-.848.454-1.45.454-.652 0-1.176-.197-1.581-.593-.405-.394-.602-.908-.602-1.54 0-.612.197-1.116.582-1.52.386-.405.89-.603 1.512-.603zm.029.366c-.464 0-.839.138-1.135.414-.297.276-.465.643-.504 1.096h3.12c.011-.434-.128-.8-.415-1.086-.286-.286-.651-.434-1.095-.434z"/></g><g><path fill="#403d3a" d="M69.44 14.525c.643 0 1.176.237 1.6.72l.02-.572a.513.513 0 0 1 .386 0v3.91c0 .534-.158.968-.484 1.303-.326.336-.791.505-1.393.505-.622 0-1.115-.15-1.481-.445-.03-.04-.04-.11-.04-.207 0-.1.01-.168.04-.198.445.316.918.474 1.422.474.484 0 .859-.13 1.116-.385.256-.257.385-.602.385-1.026v-.544a2.048 2.048 0 0 1-1.57.7c-.602 0-1.086-.196-1.452-.601-.365-.405-.542-.91-.542-1.511 0-.603.187-1.106.552-1.511.366-.404.85-.603 1.452-.603zm.1.405c-.494 0-.89.158-1.185.483-.296.327-.445.74-.445 1.246 0 .502.149.917.445 1.243.296.326.69.484 1.185.484.326 0 .622-.08.889-.237a2.06 2.06 0 0 0 .592-.493V15.64a2.262 2.262 0 0 0-.603-.494 1.709 1.709 0 0 0-.888-.237z"/></g><g><path fill="#403d3a" d="M73.243 13.044a.318.318 0 0 0-.228-.09.362.362 0 0 0-.246.09.283.283 0 0 0-.099.227c0 .089.03.168.1.227a.36.36 0 0 0 .245.088.316.316 0 0 0 .228-.088.312.312 0 0 0 .088-.227.312.312 0 0 0-.088-.227zm-.03 1.638a.579.579 0 0 0-.444 0v3.95a.57.57 0 0 0 .444 0z"/></g><g><path fill="#403d3a" d="M76.492 14.534h-.01zm1.5.613c.405.404.613.908.613 1.51 0 .603-.197 1.107-.603 1.51-.405.406-.908.613-1.51.613-.612 0-1.117-.207-1.521-.612-.405-.404-.603-.908-.603-1.511 0-.602.198-1.106.603-1.51.403-.404.906-.612 1.516-.613.6 0 1.102.209 1.506.613zm-1.52-.227c-.484 0-.88.168-1.195.493-.316.326-.474.74-.474 1.244s.158.918.474 1.244c.316.327.72.495 1.205.495.484 0 .888-.168 1.204-.495.316-.326.474-.74.474-1.244s-.158-.918-.474-1.244a1.616 1.616 0 0 0-1.204-.493z"/></g><g><path fill="#403d3a" d="M81.716 14.544c.523 0 .918.148 1.185.444.267.297.395.682.395 1.165v2.48a.59.59 0 0 1-.446 0v-2.41c0-.405-.098-.721-.305-.958s-.523-.355-.948-.355c-.297 0-.582.088-.86.266a3.12 3.12 0 0 0-.65.534v2.923a.59.59 0 0 1-.445 0v-3.95a.565.565 0 0 1 .405 0l.02.65c.483-.531 1.017-.8 1.609-.8z"/></g><g><path fill="#403d3a" d="M86.04 14.574c.564 0 .998.147 1.294.454.296.307.445.721.445 1.254v2.38a.523.523 0 0 1-.385 0l-.021-.514a2.895 2.895 0 0 1-.72.454 2.216 2.216 0 0 1-.948.207c-.444 0-.8-.118-1.076-.354a1.161 1.161 0 0 1-.415-.929c0-.385.138-.69.415-.928.276-.237.64-.355 1.096-.355.335 0 .65.058.947.187.297.128.534.267.7.414v-.61c0-.416-.107-.742-.334-.979-.227-.238-.563-.356-1.007-.356-.474 0-.938.158-1.393.475-.03-.03-.04-.099-.04-.199 0-.098.01-.168.04-.197.376-.296.859-.444 1.452-.444zm-.286 1.994h.01zm-.82.267a.853.853 0 0 0-.305.681.88.88 0 0 0 .296.682c.197.178.474.266.829.266.316 0 .622-.069.929-.216.306-.149.523-.287.65-.426v-.61c-.127-.14-.344-.279-.65-.427a2.102 2.102 0 0 0-.924-.217c-.343.001-.618.09-.824.267z"/></g><g><path fill="#403d3a" d="M89.457 18.632a.57.57 0 0 1-.444 0v-6.418a.57.57 0 0 1 .444 0z"/></g><g><path fill="#403d3a" d="M92.883 11.177a.313.313 0 0 0 .228-.09.317.317 0 0 0 .09-.235.294.294 0 0 0-.09-.219.317.317 0 0 0-.228-.088.361.361 0 0 0-.246.088.29.29 0 0 0-.099.229c0 .097.03.176.1.235.068.06.147.09.245.09zm.228 1.046a.546.546 0 0 0-.464 0v6.42a.546.546 0 0 0 .464 0z"/></g><g><path fill="#403d3a" d="M96.597 14.544c.523 0 .918.148 1.185.444.267.297.395.682.395 1.165v2.48a.59.59 0 0 1-.445 0v-2.41c0-.405-.1-.721-.306-.958-.207-.237-.523-.355-.948-.355-.297 0-.582.088-.86.266a3.093 3.093 0 0 0-.65.534v2.923a.59.59 0 0 1-.445 0v-3.95a.565.565 0 0 1 .405 0l.02.65c.483-.531 1.017-.8 1.609-.8z"/></g><g><path fill="#403d3a" d="M102.7 18.632a.701.701 0 0 1-.288.04.783.783 0 0 1-.296-.04l-2.33-1.896v1.896a.57.57 0 0 1-.444 0v-6.418a.57.57 0 0 1 .444 0v4.256l2.251-1.788a.722.722 0 0 1 .287-.04c.128 0 .227.01.286.04l-2.4 1.916z"/></g><g><path fill="#403d3a" d="M104.141 13.044a.314.314 0 0 0-.227-.09.363.363 0 0 0-.247.09.285.285 0 0 0-.098.227c0 .089.03.168.098.227a.361.361 0 0 0 .247.088.312.312 0 0 0 .227-.088.313.313 0 0 0 .09-.227.313.313 0 0 0-.09-.227zm-.03 1.638a.579.579 0 0 0-.444 0v3.95a.57.57 0 0 0 .444 0z"/></g><g><path fill="#403d3a" d="M108.21 17.655c0 .365-.149.642-.436.83-.286.187-.63.286-1.036.295v.523a.77.77 0 0 1 .612.12c.197.128.296.315.296.572a.685.685 0 0 1-.237.543.86.86 0 0 1-.582.208 1.02 1.02 0 0 1-.563-.168c-.03-.03-.04-.079-.04-.149 0-.069.01-.119.04-.148a.85.85 0 0 0 .532.187.595.595 0 0 0 .395-.127.438.438 0 0 0 .16-.366c0-.207-.09-.355-.278-.434-.187-.079-.395-.07-.622.02v-.81c-.503-.049-.899-.188-1.185-.415-.03-.03-.039-.099-.039-.198 0-.098.01-.158.04-.187.443.325.918.493 1.411.493.287 0 .543-.059.76-.178a.593.593 0 0 0 .326-.562.524.524 0 0 0-.157-.386 1.044 1.044 0 0 0-.356-.236 45.412 45.412 0 0 0-.652-.238c-.503-.167-.868-.335-1.096-.493-.227-.158-.336-.384-.336-.69 0-.347.148-.613.435-.81.286-.198.631-.298 1.036-.298.267 0 .534.04.8.12.267.08.475.177.632.306.031.03.04.1.04.197 0 .098-.009.158-.04.187-.444-.325-.908-.493-1.382-.493-.286 0-.533.06-.75.187-.218.13-.326.306-.326.543 0 .11.03.208.08.286.05.081.137.16.265.228.13.07.247.13.356.168.11.04.276.1.514.178.484.158.84.316 1.066.483.227.168.336.405.336.712z"/></g><g><path fill="#403d3a" d="M110.766 14.574c.563 0 .998.147 1.294.454.296.307.445.721.445 1.254v2.38a.525.525 0 0 1-.386 0l-.02-.514a2.895 2.895 0 0 1-.72.454 2.224 2.224 0 0 1-.949.207c-.443 0-.799-.118-1.075-.354a1.161 1.161 0 0 1-.415-.929c0-.385.138-.69.415-.928.276-.237.641-.355 1.095-.355.336 0 .652.058.948.187.297.128.534.267.701.414v-.61c0-.416-.109-.742-.335-.979-.227-.238-.563-.356-1.007-.356-.475 0-.939.158-1.393.475-.03-.03-.04-.099-.04-.199 0-.098.01-.168.04-.197.375-.296.86-.444 1.452-.444zm-.286 1.994h.01zm-.819.267a.85.85 0 0 0-.306.681c0 .277.098.503.295.682.198.178.474.266.83.266.316 0 .622-.069.928-.216.307-.149.524-.287.652-.426v-.61c-.128-.14-.345-.279-.652-.427a2.095 2.095 0 0 0-.923-.217c-.342.001-.618.09-.824.267z"/></g><g><path fill="#403d3a" d="M115.32 12.441c-.554 0-.83.315-.83.937v1.304H116a.42.42 0 0 1 0 .375h-1.512v3.574a.568.568 0 0 1-.443 0v-3.574h-.652a.413.413 0 0 1 0-.375h.652V13.32c0-.415.118-.732.345-.939.227-.208.513-.316.86-.316.355 0 .7.1 1.036.307a.52.52 0 0 1 .03.216c0 .11-.01.178-.04.207-.326-.236-.642-.354-.948-.354z"/></g><g><path fill="#403d3a" d="M57.433 21.365c.088 0 .167-.03.227-.089a.317.317 0 0 0 .089-.237.287.287 0 0 0-.09-.217.316.316 0 0 0-.226-.089.362.362 0 0 0-.247.089.289.289 0 0 0-.1.227c0 .098.032.177.1.237a.362.362 0 0 0 .247.089zm.227 1.047a.546.546 0 0 0-.464 0v6.418a.546.546 0 0 0 .464 0z"/></g><g><path fill="#403d3a" d="M61.126 28.613c.484 0 .948-.158 1.393-.484.03.03.04.098.04.207 0 .11-.01.178-.04.208-.386.305-.86.454-1.433.454-.65 0-1.185-.198-1.6-.603-.414-.404-.62-.908-.62-1.52 0-.613.206-1.116.62-1.52.415-.405.95-.603 1.6-.603.573 0 1.047.148 1.433.454.03.03.04.098.04.197 0 .1-.01.168-.04.198-.445-.326-.909-.484-1.393-.484-.523 0-.958.168-1.294.494-.335.326-.504.74-.504 1.244 0 .503.17.918.504 1.244.336.327.771.494 1.294.494z"/></g><g><path fill="#403d3a" d="M66.004 28.198c.03.03.04.1.04.197a.51.51 0 0 1-.03.208c-.316.246-.652.375-1.007.375-.277 0-.504-.089-.672-.257-.168-.168-.257-.415-.257-.74v-2.735h-.65a.413.413 0 0 1 0-.375h.65v-1.284a.573.573 0 0 1 .445 0v1.284h1.392a.42.42 0 0 1 0 .375h-1.392v2.695c0 .435.188.652.553.652.246 0 .562-.138.938-.415z"/></g><g><path fill="#403d3a" d="M67.604 23.231a.313.313 0 0 0-.227-.089.362.362 0 0 0-.247.09.285.285 0 0 0-.098.226c0 .09.03.17.098.227.07.06.148.09.247.09a.309.309 0 0 0 .227-.09.31.31 0 0 0 .088-.227.312.312 0 0 0-.088-.227zm-.03 1.64a.579.579 0 0 0-.444 0v3.95a.57.57 0 0 0 .444 0z"/></g><g><path fill="#403d3a" d="M74.003 24.742c.504 0 .878.148 1.126.444.246.297.375.682.375 1.165v2.48a.579.579 0 0 1-.444 0v-2.41c0-.405-.1-.722-.297-.958-.197-.238-.484-.356-.87-.356-.295 0-.572.09-.838.267a2.883 2.883 0 0 0-.622.533v2.923a.579.579 0 0 1-.444 0v-2.409c0-.405-.1-.722-.287-.958-.187-.238-.484-.356-.88-.356a1.54 1.54 0 0 0-.828.257 2.74 2.74 0 0 0-.633.533v2.923a.568.568 0 0 1-.443 0v-3.95a.573.573 0 0 1 .404 0l.02.652c.484-.533 1.008-.8 1.58-.8.72 0 1.185.306 1.393.91.553-.604 1.115-.91 1.688-.91z"/></g><g><path fill="#403d3a" d="M78.278 24.762c.563 0 .997.148 1.294.455.296.306.445.72.445 1.253v2.38a.515.515 0 0 1-.386 0l-.02-.514a2.896 2.896 0 0 1-.72.455 2.224 2.224 0 0 1-.949.207c-.443 0-.799-.118-1.075-.355a1.16 1.16 0 0 1-.415-.928c0-.386.138-.691.415-.93.276-.236.641-.354 1.095-.354.336 0 .652.058.948.187.296.129.534.268.701.415v-.612c0-.415-.108-.741-.336-.977-.226-.238-.563-.356-1.006-.356-.475 0-.939.158-1.393.474-.03-.03-.04-.1-.04-.198s.01-.168.04-.197c.375-.296.86-.444 1.452-.444zm-.286 1.995h.01zm-.819.267a.849.849 0 0 0-.306.68c0 .278.098.504.295.682.198.178.474.267.83.267.316 0 .622-.07.928-.218.307-.148.524-.285.652-.424v-.612c-.128-.138-.345-.277-.652-.425a2.095 2.095 0 0 0-.923-.217c-.342 0-.618.09-.824.267z"/></g><g><path fill="#403d3a" d="M81.834 23.231a.317.317 0 0 0-.228-.089.361.361 0 0 0-.246.09.286.286 0 0 0-.1.226c0 .09.03.17.1.227.069.06.148.09.246.09a.313.313 0 0 0 .228-.09.31.31 0 0 0 .088-.227.312.312 0 0 0-.088-.227zm-.03 1.64a.579.579 0 0 0-.444 0v3.95a.57.57 0 0 0 .444 0z"/></g><g><path fill="#403d3a" d="M87.58 22.401c.563 0 1.027.148 1.393.445.366.296.553.691.553 1.175 0 .346-.089.651-.266.908a1.447 1.447 0 0 1-.751.553c.414.11.731.307.947.583.218.276.326.612.326.997 0 .523-.187.948-.572 1.273-.386.328-.918.485-1.6.485h-2.469v-6.419zm-1.965 2.932h2.074c.425 0 .761-.118 1.008-.344.246-.228.375-.534.375-.919s-.139-.69-.425-.918c-.287-.227-.652-.346-1.096-.346h-1.946zm0 3.102h1.976c.543 0 .967-.129 1.264-.386.295-.257.444-.592.444-1.007 0-.405-.129-.73-.395-.977-.267-.247-.672-.375-1.215-.375h-2.074z"/></g><g><path fill="#403d3a" d="M91.313 23.231a.313.313 0 0 0-.227-.089.362.362 0 0 0-.247.09.285.285 0 0 0-.098.226c0 .09.03.17.098.227.07.06.148.09.247.09a.309.309 0 0 0 .227-.09.31.31 0 0 0 .09-.227.313.313 0 0 0-.09-.227zm-.03 1.64a.579.579 0 0 0-.444 0v3.95a.57.57 0 0 0 .444 0z"/></g><g><path fill="#403d3a" d="M95.391 24.91c.03.03.04.099.04.217 0 .119-.01.198-.04.237-.227-.158-.513-.237-.858-.237-.475 0-.958.326-1.453.978v2.715a.57.57 0 0 1-.444 0v-3.949a.565.565 0 0 1 .405 0l.03.819c.434-.641.938-.967 1.501-.967.325 0 .592.058.8.187z"/></g><g><path fill="#403d3a" d="M96.715 28.82a.57.57 0 0 1-.444 0v-6.419a.57.57 0 0 1 .444 0z"/></g><g><path fill="#403d3a" d="M98.502 23.231a.313.313 0 0 0-.227-.089.362.362 0 0 0-.247.09.285.285 0 0 0-.098.226c0 .09.03.17.098.227.07.06.148.09.247.09a.309.309 0 0 0 .227-.09.31.31 0 0 0 .09-.227.313.313 0 0 0-.09-.227zm-.03 1.64a.579.579 0 0 0-.444 0v3.95a.57.57 0 0 0 .444 0z"/></g><g><path fill="#403d3a" d="M103.104 24.87a.573.573 0 0 1 .473 0l-2.794 5.56a.63.63 0 0 1-.464 0l.977-1.926-1.846-3.634a.553.553 0 0 1 .464 0l1.61 3.17z"/></g><g><path fill="#403d3a" d="M105.02 23.231a.313.313 0 0 0-.228-.089.362.362 0 0 0-.247.09.285.285 0 0 0-.098.226c0 .09.03.17.098.227.07.06.148.09.247.09a.309.309 0 0 0 .227-.09.31.31 0 0 0 .09-.227.313.313 0 0 0-.09-.227zm-.03 1.64a.579.579 0 0 0-.444 0v3.95a.57.57 0 0 0 .443 0z"/></g><g><path fill="#377cbe" d="M-.102 8.894c0-.329.263-.626.626-.626H9.95c3.956 0 7.186 3.165 7.186 7.087 0 3.032-2.01 5.505-4.878 6.658l4.516 8.374c.23.428 0 .956-.56.956h-3.462c-.296 0-.461-.165-.527-.297L7.842 22.31h-3.66v8.406c0 .33-.296.627-.625.627H.524a.626.626 0 0 1-.626-.627zm9.69 9.89c1.748 0 3.265-1.517 3.265-3.363 0-1.747-1.517-3.198-3.264-3.198H4.216v6.56z"/></g><g><path fill="#377cbe" d="M19.413 3.224c0 1.45 1.12 2.638 2.604 2.638a2.624 2.624 0 0 0 2.636-2.638c0-1.45-1.153-2.603-2.636-2.603-1.484 0-2.604 1.153-2.604 2.603zm.428 27.491c0 .331.297.627.626.627h3.066a.648.648 0 0 0 .626-.627V8.895a.649.649 0 0 0-.626-.627h-3.066a.649.649 0 0 0-.626.626z"/></g><g><path fill="#377cbe" d="M27.522 3.224c0 1.45 1.12 2.638 2.603 2.638a2.624 2.624 0 0 0 2.637-2.638c0-1.45-1.153-2.603-2.637-2.603-1.483 0-2.603 1.153-2.603 2.603zm.428 27.491c0 .331.297.627.626.627h3.066a.648.648 0 0 0 .626-.627V8.895a.649.649 0 0 0-.626-.627h-3.066a.649.649 0 0 0-.626.626z"/></g><g><path fill="#377cbe" d="M47.893 19.674c1.912.659 3.955 2.208 3.955 5.306 0 3.693-3.164 6.363-7.185 6.363h-7.978a.625.625 0 0 1-.625-.626V8.894c0-.329.263-.626.625-.626h7.55c3.922 0 6.954 2.637 6.954 6.098 0 2.473-1.58 4.285-3.296 5.143zm-3.989-1.714c1.681 0 2.77-1.32 2.77-2.967 0-1.648-1.089-2.802-2.77-2.802h-3.593v5.769zm.462 9.493c1.648 0 2.9-1.286 2.9-3 0-1.648-1.252-2.867-2.9-2.867h-4.055v5.867z"/></g></g></svg>