<svg xmlns="http://www.w3.org/2000/svg" width="153" height="33" viewBox="0 0 153 33"><defs><radialGradient id="iu96a" cx="128.67" cy="16.59" r="2.01" gradientUnits="userSpaceOnUse"><stop offset="0" stop-color="#357dc0"/><stop offset="1" stop-color="#357dc0"/></radialGradient></defs><g><g><path fill="#666" d="M9.095 17.935c-1.377 0-2.045-.456-2.045-1.79v-6.59h2.9V6.11h-2.9V2.591H2.67v3.52H.339v3.444h2.216v7.403c0 3.16 1.564 4.357 5.449 4.357.912 0 1.645-.073 1.987-.13v-3.282c-.155.016-.538.032-.896.032z"/></g><g><path fill="#666" d="M17.8 5.825c4.26 0 7.184 2.5 7.184 7.322v1.213c0 4.708-3.021 7.191-7.012 7.191-4.226 0-6.955-2.793-6.955-7.264v-1.523h9.529v-.505c0-1.93-1.197-3.087-2.753-3.087-1.352 0-2.362.668-2.541 1.791h-4.137c.228-2.385 2.19-5.138 6.686-5.138zm2.746 9.553h-5.171v.016c0 1.678 1.009 2.908 2.557 2.908 1.563 0 2.614-1.23 2.614-2.908z"/></g><g><path fill="#666" d="M35.67 12.626l5.253-6.516h-5.147L31.5 12.039h-.212V.873h-4.56v20.394h4.56v-5.025l.88-1.075 3.819 6.1h5.31z"/></g><g><path fill="#666" d="M42.462 21.266h4.561V.872h-4.561z"/></g><g><path fill="#666" d="M49.516 2.29c0 1.352 1.107 2.232 2.459 2.232 1.344 0 2.45-.88 2.45-2.232 0-1.352-1.106-2.232-2.45-2.232-1.352 0-2.46.88-2.46 2.232zm.187 18.976h4.544V6.11h-4.544z"/></g><g><path fill="#666" d="M64.395 3.438c.513 0 .807.033.994.041V.384c-.286-.008-.855-.097-1.947-.097-3.762 0-5.424 1.18-5.424 4.316V6.11h-2.256v3.445h2.256v11.711h4.52V9.556h2.76V6.11h-2.874V4.986c0-1.132.66-1.548 1.97-1.548z"/></g><g><path fill="#666" d="M66.847 2.29c0 1.352 1.107 2.232 2.459 2.232s2.459-.88 2.459-2.232c0-1.352-1.107-2.232-2.46-2.232-1.351 0-2.458.88-2.458 2.232zm.187 18.976h4.544V6.11h-4.544z"/></g><g><path fill="#666" d="M91.866 5.882c-2.582 0-4.146 1.434-4.585 2.696h-.188c-.48-1.588-1.857-2.696-4.17-2.696-2.427 0-3.69 1.45-4.064 2.599h-.228V6.11h-4.414v15.156h4.545v-8.943c0-1.97 1.034-2.736 2.272-2.736 1.189 0 2.256.668 2.256 2.753v8.926h4.349v-8.91c0-1.85.888-2.77 2.28-2.77 1.255 0 2.232.75 2.232 2.673v9.007h4.552V10.883c0-2.973-1.758-5.001-4.837-5.001z"/></g><g><path fill="#297fb8" d="M148.778 1.133a3.583 3.583 0 0 1 3.584 3.575v17.96a3.584 3.584 0 0 1-3.584 3.583h-26.42l-9.26 6.418 2.19-6.418h-9.765a3.583 3.583 0 0 1-3.583-3.583V4.708a3.582 3.582 0 0 1 3.583-3.574zm-31.804 20.133l5.147-15.155h-4.723l-2.9 10.962h-.162L111.778 6.11h-4.886l4.813 15.156zm18.415-10.105c0-3.748-2.834-5.28-6.475-5.28-4.805 0-6.328 2.583-6.41 5.05h4.244c.057-1.033.822-1.742 2.11-1.742 1.278 0 2.043.683 2.043 1.913v1.27H127.4c-3.534 0-5.448 1.76-5.448 4.53 0 2.874 2.044 4.592 5.008 4.592 2.232 0 3.445-.994 3.958-2.043h.204v1.815h4.268zm12.021-5.14c-.293-.081-.725-.122-1.36-.122-2.02 0-3.136 1.433-3.42 2.443h-.213V6.11h-4.56v15.157h4.682V13.09c0-2.027.88-3.372 3.21-3.372.667 0 1.335.058 1.661.172z"/></g><g><path fill="url(#iu96a)" d="M128.605 14.841c-1.401 0-2.174.684-2.174 1.702 0 1.189 1.026 1.791 2.092 1.791 1.287 0 2.379-.797 2.379-2.003v-1.49z"/></g></g></svg>