<svg xmlns="http://www.w3.org/2000/svg" width="21" height="16" viewBox="0 0 21 16"><g><g><path fill="#fff" d="M10.44.596l8.712-.001c.24 0 .476.02.702.109.233.09.236.104.055.276l-3.626 3.43-4.887 4.619c-.634.6-1.277.596-1.908-.005L1.038.976C.814.763.816.756 1.112.665c.178-.055.36-.07.547-.07h8.781z"/></g><g><path fill="#fff" d="M10.43 15.392l-8.783.001c-.22 0-.431-.026-.634-.104-.251-.095-.253-.106-.063-.286l2.687-2.541c1.254-1.185 2.51-2.368 3.76-3.558.124-.117.187-.121.31-.001.545.533 1.102 1.056 1.656 1.58.668.632 1.497.632 2.165 0 .543-.513 1.087-1.026 1.622-1.547.117-.114.18-.106.294.002 2.138 2.044 4.28 4.085 6.426 6.122.132.125.126.18-.044.237a2.125 2.125 0 0 1-.681.096l-8.715-.001z"/></g><g><path fill="#fff" d="M.16 1.634c.405.562.922.97 1.394 1.42a935.406 935.406 0 0 0 5.007 4.759c.143.135.14.196 0 .328-1.936 1.832-3.865 3.67-5.796 5.506-.216.207-.445.403-.596.697-.114-.181-.1-.356-.1-.526V2.15c0-.167 0-.334.091-.516z"/></g><g><path fill="#fff" d="M20.707 1.64c.12.438.1 12.406.008 12.635-2.143-2.037-4.298-4.089-6.459-6.135-.142-.134-.069-.188.028-.28 1.977-1.878 3.951-3.758 5.93-5.636.176-.168.337-.349.493-.585z"/></g></g></svg>