<svg xmlns="http://www.w3.org/2000/svg" width="16" height="12" viewBox="0 0 16 12"><g><g><path fill="#297fb8" d="M7.982.536h6.727c.186 0 .368.015.542.083.18.07.182.081.043.213-.933.884-1.867 1.767-2.8 2.648L8.72 7.048c-.49.463-.986.46-1.473-.005A39242.5 39242.5 0 0 0 .722.83C.55.665.55.66.78.59a1.43 1.43 0 0 1 .422-.054l6.78.001z"/></g><g><path fill="#297fb8" d="M7.974 11.96c-2.261 0-4.521 0-6.782.002-.17 0-.332-.021-.49-.08-.193-.074-.195-.082-.048-.222l2.075-1.962c.968-.915 1.938-1.828 2.903-2.747.096-.091.145-.094.239-.001.42.412.85.816 1.279 1.22.515.488 1.156.488 1.672 0 .419-.396.839-.792 1.253-1.194.089-.088.138-.081.225.002 1.653 1.578 3.307 3.153 4.963 4.726.102.097.098.139-.034.183a1.622 1.622 0 0 1-.526.075l-6.73-.001z"/></g><g><path fill="#297fb8" d="M.044 1.338c.313.434.712.748 1.076 1.097a790.19 790.19 0 0 0 3.866 3.674c.111.104.108.15 0 .253-1.494 1.414-2.984 2.833-4.474 4.25-.168.16-.344.312-.46.539-.089-.14-.078-.274-.078-.406V3.43 1.736c0-.13 0-.258.07-.398z"/></g><g><path fill="#297fb8" d="M15.91 1.342c.092.339.074 9.579.005 9.757-1.654-1.573-3.319-3.158-4.987-4.737-.11-.104-.053-.146.021-.216 1.526-1.45 3.051-2.903 4.578-4.352.137-.131.261-.27.382-.452z"/></g></g></svg>