<svg xmlns="http://www.w3.org/2000/svg" width="29" height="28" viewBox="0 0 29 28"><g><g><path fill="none" stroke="#1bbc9b" stroke-miterlimit="20" d="M28.063 14.014c0 7.444-6.035 13.48-13.48 13.48-7.444 0-13.478-6.036-13.478-13.48C1.105 6.57 7.139.535 14.583.535c7.445 0 13.48 6.035 13.48 13.48z"/></g><g><path fill="#1bbc9b" d="M19.762 16.013a6.78 6.78 0 0 1 1.999 4.826h-1.066a5.766 5.766 0 0 0-5.76-5.759 5.766 5.766 0 0 0-5.758 5.76H8.11a6.78 6.78 0 0 1 1.999-4.827 6.784 6.784 0 0 1 2.594-1.627 3.942 3.942 0 0 1-1.714-3.25 3.95 3.95 0 0 1 3.946-3.947 3.95 3.95 0 0 1 3.945 3.946 3.941 3.941 0 0 1-1.713 3.251 6.8 6.8 0 0 1 2.594 1.627zm-4.826-1.999a2.882 2.882 0 0 0 2.879-2.879 2.882 2.882 0 0 0-2.88-2.88 2.883 2.883 0 0 0-2.88 2.88 2.883 2.883 0 0 0 2.88 2.88z"/></g></g></svg>