<svg xmlns="http://www.w3.org/2000/svg" viewBox="0 0 121.97 78.22"><defs><style>.cls-1{opacity:0.4;}.cls-2{font-size:22px;fill:#2b2b2b;font-family:..SFCompactRounded-Regular, "..SFCompactRounded Regular";}.cls-3{letter-spacing:0.01em;}.cls-4{letter-spacing:-0.01em;}.cls-5{letter-spacing:-0.01em;}.cls-6{letter-spacing:0.01em;}.cls-7{letter-spacing:-0.01em;}.cls-8{letter-spacing:-0.01em;}.cls-9{letter-spacing:0em;}.cls-10{opacity:0.45;}.cls-11{fill:#42474a;}</style></defs><g id="Слой_2" data-name="Слой 2"><g id="Layer_1" data-name="Layer 1"><g class="cls-1"><text class="cls-2" transform="translate(0 72.72)"><tspan class="cls-3">*</tspan><tspan class="cls-4" x="9.24" y="0">f</tspan><tspan class="cls-5" x="15.36" y="0">o</tspan><tspan class="cls-6" x="27.32" y="0">r</tspan><tspan class="cls-7" x="34.69" y="0">m</tspan><tspan class="cls-8" x="52.89" y="0">a</tspan><tspan class="cls-9" x="63.23" y="0">t</tspan><tspan x="70.6" y="0">: mp4</tspan></text></g><g class="cls-10"><path class="cls-11" d="M88.66,4.65a1.79,1.79,0,0,0-1.9-.09L74,11.65V6.49C74,2.91,71.38,0,68.15,0H40.87C37.64,0,35,2.91,35,6.49v26c0,3.59,2.61,6.5,5.84,6.5H68.15c3.23,0,5.85-2.91,5.85-6.5V27.32l12.76,7.1a1.86,1.86,0,0,0,2.62-1,2.49,2.49,0,0,0,.2-1v-26A2.24,2.24,0,0,0,88.66,4.65ZM70.1,32.47a2.07,2.07,0,0,1-1.95,2.17H40.87a2.07,2.07,0,0,1-1.95-2.17v-26a2.07,2.07,0,0,1,1.95-2.16H68.15A2.06,2.06,0,0,1,70.1,6.49v26ZM85.69,29,74,22.48v-6L85.69,10Z"/><path class="cls-11" d="M54.51,10.82c-4.3,0-7.79,3.88-7.79,8.66s3.49,8.66,7.79,8.66,7.8-3.87,7.8-8.66S58.82,10.82,54.51,10.82Zm0,13a4.14,4.14,0,0,1-3.9-4.33,3.92,3.92,0,1,1,7.8,0A4.14,4.14,0,0,1,54.51,23.81Z"/></g></g></g></svg>