<svg xmlns="http://www.w3.org/2000/svg" width="22" height="22" viewBox="0 0 22 22"><g><g opacity=".8"><path fill="#fff" d="M10.638 21.593C4.911 21.581.083 16.984.11 10.983.138 5.046 5.016.48 10.719.498c5.707.02 10.511 4.657 10.516 10.517-.013 5.863-4.734 10.588-10.597 10.577zM6.563 6.208c-.386.018-.775.022-1.157.094-.67.125-1.142.488-1.379 1.14-.175.483-.23.983-.271 1.491a25.058 25.058 0 0 0-.036 3.686c.043.626.061 1.253.252 1.86.207.663.623 1.094 1.311 1.247.329.074.662.11.997.127a82.21 82.21 0 0 0 4.413.11c1.686.003 3.373-.022 5.054-.162.784-.066 1.334-.465 1.592-1.227.071-.21.134-.427.166-.648.093-.64.144-1.284.151-1.929.011-.954.033-1.91-.051-2.863-.047-.53-.078-1.063-.251-1.575-.146-.43-.378-.788-.779-1.023a1.877 1.877 0 0 0-.779-.252c-.333-.032-.668-.06-1.003-.074a95.439 95.439 0 0 0-4.412-.095 82.373 82.373 0 0 0-3.818.093z"/></g><g opacity=".8"><path fill="#fff" d="M12.893 10.998c-.353.192-.697.382-1.044.57l-2.356 1.275-.136.072c-.09.047-.15.038-.153-.08-.002-.05-.005-.103-.005-.154l-.002-3.375V9.28c.008-.24.02-.25.228-.145.322.163.64.332.96.498l2.353 1.226c.05.026.117.037.155.138z"/></g></g></svg>