<svg xmlns="http://www.w3.org/2000/svg" width="594" height="340" viewBox="0 0 594 340"><defs><linearGradient id="n64ga" x1="441.8" x2="177.17" y1="60.53" y2="361.05" gradientUnits="userSpaceOnUse"><stop offset="0" stop-color="#8fd4ff"/><stop offset="1" stop-color="#1355bf"/></linearGradient><linearGradient id="n64gb" x1="110.24" x2="225.78" y1="126.06" y2="-10.94" gradientUnits="userSpaceOnUse"><stop offset="0" stop-color="#ffc34e"/><stop offset="1" stop-color="#fb8627"/></linearGradient><linearGradient id="n64gc" x1="132.8" x2="248.34" y1="107.03" y2="-29.97" gradientUnits="userSpaceOnUse"><stop offset="0" stop-color="#ffc34e"/><stop offset="1" stop-color="#fb8627"/></linearGradient><linearGradient id="n64gd" x1="105.96" x2="185.34" y1="82.16" y2="-59.84" gradientUnits="userSpaceOnUse"><stop offset="0" stop-color="#ffc34e"/><stop offset="1" stop-color="#fb8627"/></linearGradient><linearGradient id="n64ge" x1="112.81" x2="236.12" y1="115.89" y2="-30.33" gradientUnits="userSpaceOnUse"><stop offset="0" stop-color="#ffc34e"/><stop offset="1" stop-color="#fb8627"/></linearGradient><clipPath id="n64gf"><path d="M262.174 76.787a5.102 5.102 0 0 0-5.069 5.68l11.367 99.765a5.103 5.103 0 0 0 5.07 4.525h104.121a5.103 5.103 0 0 0 5.071-5.68l-11.367-99.765a5.102 5.102 0 0 0-5.07-4.525z"/></clipPath><clipPath id="n64gg"><path d="M262.174 76.787a5.102 5.102 0 0 0-5.069 5.68l11.367 99.765a5.103 5.103 0 0 0 5.07 4.525h104.121a5.103 5.103 0 0 0 5.071-5.68l-11.367-99.765a5.102 5.102 0 0 0-5.07-4.525z"/></clipPath><clipPath id="n64gh"><path d="M262.174 76.787a5.102 5.102 0 0 0-5.069 5.68l11.367 99.765a5.103 5.103 0 0 0 5.07 4.525h104.121a5.103 5.103 0 0 0 5.071-5.68l-11.367-99.765a5.102 5.102 0 0 0-5.07-4.525z"/></clipPath><clipPath id="n64gi"><path d="M262.174 76.787a5.102 5.102 0 0 0-5.069 5.68l11.367 99.765a5.103 5.103 0 0 0 5.07 4.525h104.121a5.103 5.103 0 0 0 5.071-5.68l-11.367-99.765a5.102 5.102 0 0 0-5.07-4.525z"/></clipPath><clipPath id="n64gj"><path d="M262.174 76.787a5.102 5.102 0 0 0-5.069 5.68l11.367 99.765a5.103 5.103 0 0 0 5.07 4.525h104.121a5.103 5.103 0 0 0 5.071-5.68l-11.367-99.765a5.102 5.102 0 0 0-5.07-4.525z"/></clipPath><clipPath id="n64gk"><path d="M262.174 76.787a5.102 5.102 0 0 0-5.069 5.68l11.367 99.765a5.103 5.103 0 0 0 5.07 4.525h104.121a5.103 5.103 0 0 0 5.071-5.68l-11.367-99.765a5.102 5.102 0 0 0-5.07-4.525z"/></clipPath><clipPath id="n64gl"><path d="M262.174 76.787a5.102 5.102 0 0 0-5.069 5.68l11.367 99.765a5.103 5.103 0 0 0 5.07 4.525h104.121a5.103 5.103 0 0 0 5.071-5.68l-11.367-99.765a5.102 5.102 0 0 0-5.07-4.525z"/></clipPath><clipPath id="n64gm"><path d="M262.174 76.787a5.102 5.102 0 0 0-5.069 5.68l11.367 99.765a5.103 5.103 0 0 0 5.07 4.525h104.121a5.103 5.103 0 0 0 5.071-5.68l-11.367-99.765a5.102 5.102 0 0 0-5.07-4.525z"/></clipPath><clipPath id="n64gn"><path d="M262.174 76.787a5.102 5.102 0 0 0-5.069 5.68l11.367 99.765a5.103 5.103 0 0 0 5.07 4.525h104.121a5.103 5.103 0 0 0 5.071-5.68l-11.367-99.765a5.102 5.102 0 0 0-5.07-4.525z"/></clipPath><clipPath id="n64go"><path d="M262.174 76.787a5.102 5.102 0 0 0-5.069 5.68l11.367 99.765a5.103 5.103 0 0 0 5.07 4.525h104.121a5.103 5.103 0 0 0 5.071-5.68l-11.367-99.765a5.102 5.102 0 0 0-5.07-4.525z"/></clipPath><clipPath id="n64gp"><path d="M262.174 76.787a5.102 5.102 0 0 0-5.069 5.68l11.367 99.765a5.103 5.103 0 0 0 5.07 4.525h104.121a5.103 5.103 0 0 0 5.071-5.68l-11.367-99.765a5.102 5.102 0 0 0-5.07-4.525z"/></clipPath><clipPath id="n64gq"><path d="M262.174 76.787a5.102 5.102 0 0 0-5.069 5.68l11.367 99.765a5.103 5.103 0 0 0 5.07 4.525h104.121a5.103 5.103 0 0 0 5.071-5.68l-11.367-99.765a5.102 5.102 0 0 0-5.07-4.525z"/></clipPath><clipPath id="n64gr"><path d="M262.174 76.787a5.102 5.102 0 0 0-5.069 5.68l11.367 99.765a5.103 5.103 0 0 0 5.07 4.525h104.121a5.103 5.103 0 0 0 5.071-5.68l-11.367-99.765a5.102 5.102 0 0 0-5.07-4.525z"/></clipPath><clipPath id="n64gs"><path d="M262.174 76.787a5.102 5.102 0 0 0-5.069 5.68l11.367 99.765a5.103 5.103 0 0 0 5.07 4.525h104.121a5.103 5.103 0 0 0 5.071-5.68l-11.367-99.765a5.102 5.102 0 0 0-5.07-4.525z"/></clipPath><clipPath id="n64gt"><path d="M262.174 76.787a5.102 5.102 0 0 0-5.069 5.68l11.367 99.765a5.103 5.103 0 0 0 5.07 4.525h104.121a5.103 5.103 0 0 0 5.071-5.68l-11.367-99.765a5.102 5.102 0 0 0-5.07-4.525z"/></clipPath><clipPath id="n64gu"><path d="M262.174 76.787a5.102 5.102 0 0 0-5.069 5.68l11.367 99.765a5.103 5.103 0 0 0 5.07 4.525h104.121a5.103 5.103 0 0 0 5.071-5.68l-11.367-99.765a5.102 5.102 0 0 0-5.07-4.525z"/></clipPath><clipPath id="n64gv"><path d="M262.174 76.787a5.102 5.102 0 0 0-5.069 5.68l11.367 99.765a5.103 5.103 0 0 0 5.07 4.525h104.121a5.103 5.103 0 0 0 5.071-5.68l-11.367-99.765a5.102 5.102 0 0 0-5.07-4.525z"/></clipPath><clipPath id="n64gw"><path d="M262.174 76.787a5.102 5.102 0 0 0-5.069 5.68l11.367 99.765a5.103 5.103 0 0 0 5.07 4.525h104.121a5.103 5.103 0 0 0 5.071-5.68l-11.367-99.765a5.102 5.102 0 0 0-5.07-4.525z"/></clipPath><clipPath id="n64gx"><path d="M262.174 76.787a5.102 5.102 0 0 0-5.069 5.68l11.367 99.765a5.103 5.103 0 0 0 5.07 4.525h104.121a5.103 5.103 0 0 0 5.071-5.68l-11.367-99.765a5.102 5.102 0 0 0-5.07-4.525z"/></clipPath><clipPath id="n64gy"><path d="M262.174 76.787a5.102 5.102 0 0 0-5.069 5.68l11.367 99.765a5.103 5.103 0 0 0 5.07 4.525h104.121a5.103 5.103 0 0 0 5.071-5.68l-11.367-99.765a5.102 5.102 0 0 0-5.07-4.525z"/></clipPath></defs><g><g><path fill="#2d5ca8" d="M131.296 332.103S-9.468 261.31 21.13 222.051c15.37-19.719 51.507 7.018 51.507 7.018s-28.36-39.12-47.282-51.296c-18.92-12.175-4.863-47.888-7.528-58.997-2.665-11.11-29.246-26.56-12.212-33.343 17.035-6.782 32.947 2.09 36.691 14.97 3.744 12.88 1.8 16.503 14.13 20.24 12.33 3.735 22.626 21.317 24.498 36.395 1.872 15.077 17.9 33.042 17.9 33.042s-30.598-67.206-34.545-88.45c-3.948-21.244-14.658-92.38 1.462-89.573 16.12 2.81 53.526 29.017 64.307 48.673 10.78 19.656 31.696 86.14 31.696 86.14S147.13 21.416 157.556 21.416c10.426 0 28.096 59.923 28.096 59.923s4.561-51.889 26.323-64.602c17.387-10.158 20.86 6.862 26.426 13.42 19.291 22.717 19.291 85.781 19.291 85.781s79.404-77.209 113.81-81.496c33.7-4.198 47.903-16.93 51.361-22.466 3.457-5.535 22.782-16.442 28.564-8.18 5.782 8.26 3.511 33.194-6.586 39.447-10.097 6.254-10.792 12.898-11.38 26.892-.588 13.994-4.426 29.063-9.527 35.57-5.1 6.504-10.573 35.175-10.573 35.175s32.455-59.72 66.998-68.382c34.542-8.663 31.952-23.107 46.521-36.159 14.57-13.05 34.226-25.218 30.481-10.243-3.744 14.977-12.167 19.863-7.487 30.524 4.68 10.661 2.808 35.14-2.808 41.152-5.617 6.014-23.519 36.211-22.524 43.108.995 6.898-11.084 25.575-11.084 25.575s37.977-22.748 52.017-11.55c14.04 11.195-50.949 77.323-50.949 77.323s69.023-30.393 78.384-14.709c9.36 15.684-69.208 70.573-69.208 70.573s57.06-18.734 41.148 11.27c-15.912 30.001-78.875 35.091-78.875 35.091z"/></g><g><path fill="#0e3a82" d="M409.233 331.597H263.022a5.737 5.737 0 0 1-5.704-5.126l-27.92-260.975a5.735 5.735 0 0 1 5.703-6.345h146.212a5.734 5.734 0 0 1 5.703 5.125l27.923 260.974a5.737 5.737 0 0 1-5.704 6.347z"/></g><g><path fill="url(#n64ga)" d="M251.744 69.364a4.98 4.98 0 0 0-4.952 5.511l26.227 235.324a4.981 4.981 0 0 0 4.953 4.451h122.333a4.98 4.98 0 0 0 4.952-5.511L379.03 73.815a4.98 4.98 0 0 0-4.953-4.451z"/></g><g><path fill="#d3ae64" d="M302.998 212.132c0 6.234-5.054 11.288-11.288 11.288-6.233 0-11.287-5.053-11.287-11.287 0-6.235 5.054-11.289 11.287-11.289 6.234 0 11.288 5.054 11.288 11.288z"/></g><g><path fill="#0e3a82" d="M364.812 212.132c0 6.85-5.553 12.402-12.403 12.402-6.85 0-12.403-5.552-12.403-12.402s5.553-12.403 12.403-12.403c6.85 0 12.403 5.553 12.403 12.403z"/></g><g><path fill="#fff" d="M355.016 209.01c-.111 1.275 2.995-.167 4.492.943 1.498 1.108 1.054 6.876 0 7.264-1.053.388-5.303.444-6.673-.277-1.368-.72-2.293-.586-2.293-.586l-.705-6.034s.853-.257 1.796-1.089c.943-.832.499-5.269.499-5.269 1.608-.22 2.995 3.772 2.884 5.047zm-10.038 9.095c-.388-.333-.407-7.17 0-7.379 1.056-.539 4.104-.386 4.104-.386s1.109 4.714.887 6.933c-.221 2.218-4.603 1.164-4.991.832z"/></g><g><path fill="#2d5ca8" d="M323.299 213.323h-15.634a2.16 2.16 0 0 1-2.154-2.153v-.938a2.16 2.16 0 0 1 2.154-2.154h15.634a2.16 2.16 0 0 1 2.154 2.154v.938a2.16 2.16 0 0 1-2.154 2.153z"/></g><g><path fill="#2d5ca8" d="M323.299 220.122h-15.634a2.16 2.16 0 0 1-2.154-2.154v-.937a2.16 2.16 0 0 1 2.154-2.154h15.634a2.16 2.16 0 0 1 2.154 2.154v.937a2.16 2.16 0 0 1-2.154 2.154z"/></g><g><path fill="#2d5ca8" d="M386.953 213.323h-15.634a2.16 2.16 0 0 1-2.154-2.153v-.938a2.16 2.16 0 0 1 2.154-2.154h15.634a2.16 2.16 0 0 1 2.154 2.154v.938a2.16 2.16 0 0 1-2.154 2.153z"/></g><g><path fill="#2d5ca8" d="M386.953 220.122h-15.634a2.16 2.16 0 0 1-2.154-2.154v-.937a2.16 2.16 0 0 1 2.154-2.154h15.634a2.16 2.16 0 0 1 2.154 2.154v.937a2.16 2.16 0 0 1-2.154 2.154z"/></g><g><path fill="#2d5ca8" d="M385.554 251.048h-95.808a2.15 2.15 0 0 1-2.143-2.143 2.15 2.15 0 0 1 2.143-2.143h95.808a2.15 2.15 0 0 1 2.143 2.143 2.149 2.149 0 0 1-2.143 2.143z"/></g><g><path fill="#2d5ca8" d="M386.964 259.138h-95.807a2.15 2.15 0 0 1-2.143-2.144 2.15 2.15 0 0 1 2.143-2.143h95.807a2.15 2.15 0 0 1 2.144 2.143 2.15 2.15 0 0 1-2.144 2.144z"/></g><g><path fill="#2d5ca8" d="M372.389 267.92h-95.807a2.15 2.15 0 0 1-2.143-2.144 2.15 2.15 0 0 1 2.143-2.143h95.807a2.15 2.15 0 0 1 2.144 2.143 2.15 2.15 0 0 1-2.144 2.144z"/></g><g><path fill="#0f2d5c" d="M263.856 331.597H258.7a3.829 3.829 0 0 1-3.806-3.41L225.865 63.8a4.192 4.192 0 0 1 4.168-4.649h4.425a4.192 4.192 0 0 1 4.167 3.734l29.037 264.465a3.829 3.829 0 0 1-3.806 4.247z"/></g><g><path fill="#0f2d5c" d="M364.884 324.091h-26.04a1.45 1.45 0 0 1-1.447-1.447 1.45 1.45 0 0 1 1.446-1.447h26.041c.795 0 1.447.651 1.447 1.447s-.652 1.447-1.447 1.447z"/></g><g><path fill="#0f2d5c" d="M335.17 66.166a1.863 1.863 0 0 1-1.858-1.857c0-1.022.836-1.858 1.858-1.858 1.02 0 1.857.836 1.857 1.858a1.863 1.863 0 0 1-1.857 1.857z"/></g><g><path fill="#0f2d5c" d="M342.457 66.166a1.863 1.863 0 0 1-1.857-1.857c0-1.022.836-1.858 1.857-1.858 1.022 0 1.858.836 1.858 1.858a1.863 1.863 0 0 1-1.858 1.857z"/></g><g><path fill="#0f2d5c" d="M323.595 66.166h-20.004a1.863 1.863 0 0 1-1.858-1.857c0-1.022.836-1.858 1.858-1.858h20.004c1.022 0 1.858.836 1.858 1.858a1.863 1.863 0 0 1-1.858 1.857z"/></g><g><path fill="#0f2d5c" d="M277.9 334.454h-92.128c-22.79 0-41.266-18.476-41.266-41.266V275.24c0-22.791 18.476-41.266 41.267-41.266H277.9c22.79 0 41.266 18.475 41.266 41.265v17.948c0 22.79-18.475 41.266-41.266 41.266z"/></g><g><path fill="#2a66c6" d="M273.838 330.025h-84.006c-20.782 0-37.628-16.847-37.628-37.629v-16.364c0-20.782 16.847-37.629 37.628-37.629h84.006c20.782 0 37.628 16.847 37.628 37.629v16.364c0 20.782-16.846 37.629-37.628 37.629z"/></g><g opacity=".4"><g opacity=".4"><path fill="#fff" d="M197.501 279.984c0-17.75 14.441-32.19 32.191-32.19s32.19 14.44 32.19 32.19-14.44 32.19-32.19 32.19-32.19-14.44-32.19-32.19zm4.287 0c0 15.387 12.517 27.905 27.904 27.905 15.386 0 27.904-12.518 27.904-27.905 0-15.386-12.518-27.904-27.904-27.904-15.387 0-27.904 12.518-27.904 27.904z"/></g></g><g opacity=".4"><g opacity=".4"><path fill="#fff" d="M245.938 276.419c2.745 1.584 2.745 5.546 0 7.13l-10.133 5.85-10.133 5.85c-2.745 1.586-6.175-.395-6.175-3.564v-23.401c0-3.17 3.43-5.15 6.175-3.565l10.133 5.849z"/></g></g><g opacity=".4"><g opacity=".4"><path fill="#fff" d="M169.656 320.32c.675.39.675 1.364 0 1.754l-2.49 1.438-2.49 1.439a1.013 1.013 0 0 1-1.52-.877v-5.752c0-.78.844-1.267 1.52-.877l2.49 1.439z"/></g></g><g opacity=".4"><g opacity=".4"><path fill="#fff" d="M178.686 325.087a.682.682 0 0 1-.68-.679v-6.422a.68.68 0 0 1 1.359 0v6.422a.68.68 0 0 1-.68.68z"/></g></g><g opacity=".4"><g opacity=".4"><path fill="#fff" d="M181.738 325.087a.68.68 0 0 1-.679-.679v-6.422a.68.68 0 0 1 1.358 0v6.422a.682.682 0 0 1-.679.68z"/></g></g><g opacity=".4"><g opacity=".4"><path fill="#fff" d="M295.657 320.421v-.49c0-.63.511-1.141 1.141-1.141h.588v-1.482h-1.368a1.842 1.842 0 0 0-1.842 1.842v1.271z"/></g></g><g opacity=".4"><g opacity=".4"><path fill="#fff" d="M300.474 321.779v.687c0 .629-.51 1.14-1.14 1.14h-.589v1.482h1.368a1.843 1.843 0 0 0 1.842-1.843v-1.466z"/></g></g><g opacity=".4"><g opacity=".4"><path fill="#fff" d="M298.745 318.79h.588a1.14 1.14 0 0 1 1.14 1.14v.492h1.483v-1.271a1.842 1.842 0 0 0-1.843-1.842h-1.368z"/></g></g><g opacity=".4"><g opacity=".4"><path fill="#fff" d="M297.387 323.606h-.588a1.14 1.14 0 0 1-1.141-1.14v-.687h-1.482v1.466c0 1.017.825 1.842 1.843 1.842h1.368z"/></g></g><g opacity=".4"><g opacity=".4"><path fill="#fff" d="M276.529 320.421h-78.32a2.573 2.573 0 0 0-4.897 0h-2.231a.788.788 0 0 0-.785.786c0 .432.353.786.785.786h2.23a2.575 2.575 0 0 0 2.45 1.786 2.574 2.574 0 0 0 2.449-1.786h78.319a.788.788 0 0 0 .786-.786.788.788 0 0 0-.786-.786z"/></g></g><g opacity=".4"><g opacity=".4"><path fill="#fff" d="M282.137 318.635h-1.714v5.456h1.714l3.001 2.536V316.1z"/></g></g><g opacity=".4"><g opacity=".4"><path fill="#fff" d="M288.324 321.208l.505-.505a.447.447 0 0 0-.631-.632l-.505.505-.506-.505a.447.447 0 0 0-.631.632l.505.505-.505.505a.447.447 0 0 0 .631.632l.506-.506.505.506a.447.447 0 0 0 .63-.632z"/></g></g><g><path fill="#0f2d5c" d="M493.197 324.485s13.026 1.448 16.127 0c3.102-1.446 4.135 1.893-3.928 5.908-8.064 4.017-11.578 7.118-14.266 6.084-2.688-1.034-4.55-6.221-4.136-9.21.414-2.988 6.203-2.782 6.203-2.782z"/></g><g><path fill="#0f2d5c" d="M434.685 322.832s-.62 9.924 2.481 11.99c3.101 2.07 6.861 4.86-.414 4.86-7.274 0-9.21-3.411-11.484-6.926-2.275-3.515-4.639-6.237-1.404-8.614 3.234-2.376 3.378-4.62 3.998-4.62.62 0 6.823 3.31 6.823 3.31z"/></g><g><path fill="#0e3a82" d="M477.682 229.69c0 58.301-42.096 98.728-42.096 98.728s-10.004-3.523-10.314-7.245c-.31-3.72 16.42-30.39 16.42-50.239v-59.852z"/></g><g><path fill="#0f2d5c" d="M441.693 211.082v49.47c7.675 17.698 10.584 34.369 10.946 46.643 11.671-17.466 25.043-44.646 25.043-77.506z"/></g><g><path fill="#0e3a82" d="M441.708 201.158c-.93 48.688 41.384 127.769 44.29 129.01 2.905 1.24 11.131-2.885 10.658-5.893-11.22-71.327-13.392-118.775-13.392-118.775z"/></g><g><path fill="#255096" d="M488.223 139.297s2.233 2.079 5.024.735c2.791-1.343 12.982-8.546 12.672-10.303-.31-1.757-5.072-2.178-5.072-2.178s-14.753 11.663-12.624 11.746z"/></g><g><path fill="#ffc34e" d="M490.909 139.025c-1.911-.306 4.377-5.307 6.433-7.374 2.056-2.067 3.382-3.032 3.382-3.032s3.515.427 3.515 1.109c0 .683-10.08 8.732-10.08 8.732s-2.388.703-3.25.565z"/></g><g><path fill="#f09959" d="M478.569 148.021s3.67-6.202 5.427-7.856c1.758-1.655 7.692-4.86 8.592-4.88 1.54-.035-5.284 4.57-5.284 4.57s.931 5.995.104 8.166c-.827 2.172-9.511 5.066-9.511 5.066z"/></g><g><path fill="#91d5ff" d="M471.746 154.532s5.996-8.994 7.34-8.374c1.344.62 4.962 8.374 4.962 8.374s-10.545 10.958-10.545 8.89c0-2.067-1.757-8.89-1.757-8.89z"/></g><g><path fill="#f09959" d="M455.165 106.365s-6.203 21.916-10.337 31.014c-4.136 9.096-6.204 26.05-5.376 55.824.827 29.772-4.962 28.945 3.72 32.667 8.685 3.722 39.699-2.481 43.834-11.991 4.135-9.512-2.77-48.233-13.026-62.441-10.127-14.028-14.68-19.021-14.68-22.33 0-3.307 4.003-17.367 4.003-17.367z"/></g><g><path fill="#b3e2ff" d="M487.005 213.879c4.135-9.512-2.769-48.232-13.026-62.44-4.716-6.534-8.222-11.106-10.623-14.462-4.91-2.931-10.332-5.661-15.534-7.248-1.04 2.932-2.069 5.613-2.995 7.65-4.135 9.097-6.203 26.05-5.376 55.824.827 29.773-4.962 28.946 3.721 32.667 8.685 3.722 39.698-2.48 43.833-11.991z"/></g><g><path fill="#b3e2ff" d="M444.138 125.8c.103-1.702 22.192 7.03 22.33 8.684.137 1.653 1.44 7.824 3.27 11.148s-30.751 21.893-29.553 12.853c1.198-9.04 3.678-28.137 3.953-32.685z"/></g><g><path fill="#e38540" d="M459.319 129.477a3.882 3.882 0 0 1-.019-.369c0-3.308 4.002-17.367 4.002-17.367l-8.137-5.376s-1.44 5.088-3.395 11.378c2.528 7.55 4.893 10.124 7.549 11.734z"/></g><g><path fill="#f09959" d="M477.983 117.095c-1.72 7.793-7.102 13.335-13.324 11.812-4.563-1.119-11.576-7.5-9.327-16.81 1.873-7.758 8.184-12.992 14.44-11.612 6.255 1.38 9.932 8.816 8.212 16.61z"/></g><g><path fill="#f09959" d="M485.046 167.83c5.646-9.75 6.277-18.857 10.277-21.702 5.628-4.001 10.25-12.95 8.212-13.302-2.039-.352-10.288 7.206-10.288 7.206s2.147-2.938 1.634-3.183c-.512-.246-4.668 2.77-5.312 6.335-.645 3.563-8.627 19.94-15.324 25.187-6.697 5.245 5.155 9.21 10.8-.54z"/></g><g><path fill="#91d5ff" d="M448.469 143.261c-10.006 2.491-5.43 32.704 3.006 50.623 8.434 17.92 24.286 2.44 30.213-1.95 2.25-1.668 3.733-3.357 4.707-4.812-1.902-10.692-5.165-22.163-9.191-30.235-9.443 11.084-13.932-17.31-28.735-13.626z"/></g><g><path fill="#b3e2ff" d="M451.475 141.092c-12.582 1.262-5.692 32.668 3.508 45.35 9.2 12.68 22.294.413 26.429-6.893 4.135-7.306 12.509-19.728 12.509-27.809 0-1.516-3.101-1.826-6.823-1.55-3.505.26-19.336 22.053-19.336 22.053s-5.287-32.254-16.287-31.15z"/></g><g><path fill="#0f2d5c" d="M481.825 100.844c7.693 3.238 3.084 13.483-.972 13.867-4.056.384-8.746-7.095-11.154-7.347-2.409-.254.486 4.182-1.659 5.196-2.144 1.014-4.145 2.7-4.769 5.361-.624 2.661-2.338 8.455.461 8.71 2.798.253 5.84-2.79 7.741-2.916a10.374 10.374 0 0 1 3.553.423s-4.828 6.675-8.373 7.056c-3.546.38-7.414-4.803-10.17-9.183-2.756-4.38-1.585-7.3-1.585-7.3s-2.819 3.173-4.593 2.92c-1.774-.254 2.662-2.789 2.79-10.267.126-7.48 3.421-11.409 7.477-11.409 4.056 0 3.55-2.064 9.745-1.9 5.582.145 9.703 6.03 11.508 6.79z"/></g><g><path fill="#f09959" d="M464.91 116.126c.18 1.93-.812 3.602-2.214 3.73-1.403.132-2.685-1.328-2.864-3.258-.18-1.931.811-3.603 2.214-3.733 1.402-.13 2.684 1.33 2.864 3.26z"/></g><g><path fill="#0f2d5c" d="M79.507 324.19c-7.111 7.924-20.42 6.742-18.286 10.16 2.133 3.416 11.704 2.541 17.089 2.254 8.955-.477 6.48-5.607 7.19-7.436.712-1.829-5.993-4.978-5.993-4.978z"/></g><g><path fill="#0f2d5c" d="M139.859 212.132s-44.432 34.133-43.823 41.143c.61 7.01 32.754 65.49 35.425 65.505 2.67.017 8.73-2.99 9.637-4.38.906-1.392-1.786-41.886-5.138-46.02s25.688-45.581 25.688-45.581z"/></g><g><path fill="#0e3a82" d="M178.474 204.818s10.149 23.162 4.236 29.562c-5.912 6.4-26.663 11.135-33.645 21.637-15.351 23.09-15.543 39.458-36.571 57.151-21.03 17.692-27.078 18.125-27.078 18.125l-7.055-6.186s23.466-31.909 32.609-57.509c9.143-25.599 33.218-55.77 33.218-55.77z"/></g><g><path fill="#255096" d="M137.14 150.307s-2.117 1.971-4.763.696c-2.646-1.273-12.306-8.1-12.012-9.766.294-1.666 4.808-2.066 4.808-2.066s13.986 11.057 11.967 11.136z"/></g><g><path fill="#ffc34e" d="M134.595 150.05c1.812-.29-4.15-5.03-6.1-6.99-1.947-1.96-3.205-2.876-3.205-2.876s-3.332.406-3.332 1.052c0 .647 9.555 8.277 9.555 8.277s2.265.667 3.082.536z"/></g><g><path fill="#f09959" d="M146.292 158.578s-3.479-5.88-5.145-7.448c-1.666-1.568-7.292-4.608-8.145-4.626-1.459-.031 5.01 4.332 5.01 4.332s-.883 5.684-.099 7.742c.784 2.059 9.016 4.802 9.016 4.802z"/></g><g><path fill="#fb8627" d="M152.76 164.75s-5.684-8.526-6.958-7.938c-1.274.588-4.704 7.938-4.704 7.938s9.996 10.388 9.996 8.428c0-1.96 1.666-8.428 1.666-8.428z"/></g><g><path fill="#f09959" d="M168.479 119.088s5.88 20.777 9.8 29.4c3.92 8.623 5.88 24.696 5.096 52.92-.784 28.224 4.704 27.44-3.528 30.968-8.232 3.527-37.632-2.352-41.552-11.368-3.92-9.017 2.625-45.723 12.348-59.192 9.6-13.298 13.916-18.032 13.916-21.168 0-3.136-3.794-16.464-3.794-16.464z"/></g><g><path fill="url(#n64gb)" d="M160.714 148.107c-2.276 3.182-5.601 7.517-10.071 13.71-9.724 13.469-16.268 50.174-12.348 59.192 3.92 9.015 33.32 14.895 41.552 11.367 8.231-3.527 2.744-2.744 3.528-30.969.784-28.223-1.176-44.295-5.096-52.918-.878-1.932-1.854-4.473-2.84-7.252-4.931 1.504-10.071 4.092-14.725 6.87z"/></g><g><path fill="url(#n64gc)" d="M157.765 145.745c-.132 1.567-1.367 7.417-3.102 10.568-1.734 3.152 29.152 20.754 28.016 12.184-1.135-8.57-3.485-26.672-3.746-30.985-.009-.142-.18-.207-.483-.207-3.141-.001-20.566 7.01-20.685 8.44z"/></g><g><path fill="#e38540" d="M164.54 140.999c.013-.12.019-.236.019-.351 0-3.135-3.794-16.463-3.794-16.463l7.714-5.096s1.365 4.823 3.218 10.786c-2.395 7.157-4.638 9.598-7.156 11.124z"/></g><g><path fill="#f09959" d="M149.066 129.226c1.425 6.458 5.885 11.051 11.041 9.788 3.781-.927 9.593-6.215 7.73-13.93-1.553-6.428-6.782-10.765-11.965-9.622-5.184 1.144-8.23 7.307-6.806 13.764z"/></g><g><path fill="#f09959" d="M140.152 177.356c-5.353-9.243-5.95-17.877-9.743-20.573-5.334-3.793-9.716-12.276-7.784-12.61 1.932-.335 9.752 6.83 9.752 6.83s-2.035-2.785-1.549-3.017c.486-.233 4.426 2.627 5.036 6.005.612 3.378 8.18 18.904 14.528 23.877 6.348 4.973-4.887 8.731-10.24-.512z"/></g><g><path fill="url(#n64gd)" d="M160.545 161.592c-4.511 5.594-8.02 11.188-12.959 5.391-3.816 7.652-6.909 18.525-8.713 28.662.924 1.38 2.33 2.981 4.463 4.56 5.618 4.161 20.645 18.837 28.641 1.85 7.996-16.987 12.334-45.629 2.85-47.989a10.23 10.23 0 0 0-2.487-.315c-4.982 0-8.634 3.921-11.795 7.841z"/></g><g><path fill="url(#n64ge)" d="M156.538 181.541s-15.009-20.661-18.33-20.907c-3.528-.261-6.469.032-6.469 1.47 0 7.66 7.938 19.437 11.858 26.361 3.92 6.926 16.334 18.555 25.055 6.534 8.721-12.022 15.252-41.793 3.325-42.99a5.409 5.409 0 0 0-.521-.026c-10.074.003-14.918 29.558-14.918 29.558z"/></g><g><path fill="#0f2d5c" d="M131.46 311.484c.537 12.8-14.09 23.161-7.996 24.075 6.096.915 10.895-3.206 13.677-6.326 2.78-3.121 5.803-4.045 4.989-7.581-.814-3.535-.867-10.992-1.718-13.43-.852-2.438-8.951 3.262-8.951 3.262z"/></g><g><path fill="#0f2d5c" d="M153.817 109.18c-12.449.851-10.859 20.144-10.859 20.144s10.266.297 13.328-.59c3.062-.89 6.18-3.286 6.18-3.286s1.883 7.307 7.028 7.714l5.145.41s3.395-13.874.711-20.13c-5.565-12.97-16.678-6.477-21.533-4.263z"/></g><g><path fill="#f09959" d="M167.398 127.861c-.737 1.896-2.481 2.988-3.895 2.439-1.414-.549-1.962-2.533-1.226-4.428.737-1.897 2.48-2.989 3.895-2.44 1.414.55 1.963 2.533 1.226 4.429z"/></g><g><path fill="#0f2d5c" d="M173.546 123.67s2.987 10.31 7.132 10.837c4.144.527 30.643 2.062 23.87 29.867-4.708 19.332-13.059 22.56-4.605 29.665 7.044 5.919 15.364-1.49 15.364-1.49s4.073 22.092-12.384 21.809c-16.457-.284-24.314-17.584-17.609-33.458 6.705-15.874-6.579-19.935-7.122-28.852-.599-9.823 0-14.087 0-14.087l-4.646-5.536z"/></g><g><path fill="#d3ae64" d="M124.712 123.67c0 6.234-5.055 11.288-11.289 11.288-6.232 0-11.286-5.054-11.286-11.287 0-6.234 5.053-11.288 11.286-11.288 6.235 0 11.289 5.054 11.289 11.288z"/></g><g><path fill="#d3ae64" d="M526.6 112.63c0 6.232-5.053 11.286-11.287 11.286-6.234 0-11.288-5.053-11.288-11.286 0-6.235 5.054-11.289 11.288-11.289s11.288 5.055 11.288 11.289z"/></g><g><path fill="#d3ae64" d="M505.926 82.757a8.957 8.957 0 1 1-17.913 0 8.957 8.957 0 0 1 17.913 0z"/></g><g><path fill="#d3ae64" d="M526.6 51.552a9.202 9.202 0 1 1-18.403-.001 9.202 9.202 0 0 1 18.404.001z"/></g><g><path fill="#d3ae64" d="M505.37 23.082a6.094 6.094 0 1 1-12.187-.002 6.094 6.094 0 0 1 12.188.002z"/></g><g><path fill="#d3ae64" d="M129.726 86.941a8.624 8.624 0 1 1-17.248 0 8.624 8.624 0 0 1 17.248 0z"/></g><g><path fill="#d3ae64" d="M103.314 60.74a7.283 7.283 0 1 1-14.567 0 7.283 7.283 0 0 1 14.567 0z"/></g><g/><g clip-path="url(#n64gf)"><path fill="#0e3a82" d="M381.481 190.392H270.476a5.44 5.44 0 0 1-5.405-4.824l-12.118-106.36a5.438 5.438 0 0 1 5.404-6.056h111.006a5.44 5.44 0 0 1 5.405 4.824l12.118 106.36a5.44 5.44 0 0 1-5.405 6.056z"/></g><g/><g clip-path="url(#n64gg)"><path fill="#ffc34e" d="M331.494 96.213c4.687 9.372.807 20.164-8.411 23.978-9.28 3.837-19.424 1.658-24.111-7.714-4.686-9.372-1.206-20.611 7.775-25.101 8.98-4.491 20.06-.535 24.747 8.837z"/></g><g/><g clip-path="url(#n64gh)"><path fill="#ffc34e" d="M306.231 121.357c-1.044 0-3.095-.368-5.695-2.676-2.134-1.893-3.666-4.795-4.313-8.17-.817-4.257-.285-9.149 1.58-14.54a.522.522 0 1 1 .986.34c-1.804 5.217-2.323 9.93-1.54 14.003.604 3.15 2.017 5.845 3.98 7.586 3.266 2.897 5.454 2.376 5.475 2.371a.526.526 0 0 1 .638.368.52.52 0 0 1-.358.638c-.033.01-.297.08-.753.08z"/></g><g/><g clip-path="url(#n64gi)"><path fill="#e38540" d="M354.296 134.344s-2.358-.829-3.608-5.966c-.643-2.643 1.073-7.216 2.501-8.644-.929-2.644-4.5-12.51-2.93-12.503 1.588.007 5.144 10.93 5.144 10.93s1.93-10.144 3.144-10.002c1.215.143 0 10.574 0 10.574s4.318.727 5.644 4.644c1.326 3.917-2.813 10.055-2.813 10.912 0 .858-.473 3.591-.473 3.591l-6.788-1.07z"/></g><g/><g clip-path="url(#n64gj)"><path fill="#f09959" d="M359.62 118.39c1.346.171 2.335 1.12 2.914 1.75 1.014.38 1.73 1.423 1.657 2.594-.058.951-2.435 4.177-4.04 5.447-1.96 1.555-2.92.055-2.46-.445.458-.5-.93-.5-1.5-1.144-.573-.642 1.784-5.188 2.142-6.452.357-1.264.64-1.833 1.287-1.75z"/></g><g/><g clip-path="url(#n64gk)"><path fill="#e38540" d="M356.1 125.664c3.305.57 5.877.429 5.734-.5-.143-.93-3.227-2.378-4.076-2.908-.848-.53-1.657 3.408-1.657 3.408z"/></g><g/><g clip-path="url(#n64gl)"><path fill="#f09959" d="M356.047 128.45c1.819 3.437-.357 6.287-1.75 5.895-1.394-.394-3.454-3.541-3.746-7.182-.291-3.643-.074-3.714 1.282-5.571 1.356-1.858 5.214-.072 6.286.964 1.072 1.036 3.358 1.964 2.358 2.608-1.001.642-3.862 0-4.896-.43-1.034-.428-.963.644-1.463 1.144-.5.5.643.143 1.929 2.572z"/></g><g/><g clip-path="url(#n64gm)"><path fill="#a8ceff" d="M320.562 132.682c11.837 6.484 25.91 38.144 25.91 38.144s3.666-28.307 6.932-34.66c.837-1.629 7.502-.508 8.573 1.14 1.072 1.647 3.43 42.387-1.93 49.451-5.357 7.065-18.431 5.25-18.431 5.25l-17.163-14.903z"/></g><g/><g clip-path="url(#n64gn)"><path fill="#93bbf0" d="M351.766 140.654c-2.854 9.028-6.503 28.52-5.574 33.807.928 5.286 3.001 7.573 3.001 7.573s-1.572-13.075-.5-20.362c1.071-7.288 3.073-21.018 3.073-21.018z"/></g><g/><g clip-path="url(#n64go)"><path fill="#93bbf0" d="M339.649 190.3c6.029-.627 11.145-1.194 9.896-1.194-2.786 0-15.717-7.458-14.646-14.718 1.072-7.259 1.215-21.648-2.356-28.006l-1.203-2.652c-3.86-5.274-6.654-8.787-10.778-11.047l3.891 44.422z"/></g><g/><g clip-path="url(#n64gp)"><path fill="#a8ceff" d="M300.95 129.397s-16.966 9.48-20.921 11.497c-3.955 2.017 11.08 61.196 14.424 63.732 3.344 2.536 32.785.437 36.136-2.759 3.352-3.196-2.571-13.002.329-32.637 2.9-19.635-8.847-36.586-10.356-36.548-1.51.038-11.36-3.285-11.36-3.285z"/></g><g/><g clip-path="url(#n64gq)"><path fill="#93bbf0" d="M294.453 204.627c3.344 2.535 24.411 2.593 33.378-.198 1.013-.315 5.608-2.146 5.715-3.867-1.082-.204-5.379.313-7.123-.088-6.065-1.394-9.405-8.907-9.405-8.907s-3.34-1.201-10.81-4.366c-7.472-3.164-4.396-12.744-4.572-16.964-.176-4.218-7.383-18.018-20.919-28.478l-1.242.556c-.965 9.618 11.884 59.965 14.978 62.312z"/></g><g/><g clip-path="url(#n64gr)"><path fill="#a8ceff" d="M278.695 142.006c-8.174 26.133-19.76 55.787-17.915 55.787 1.845 0 48.78 1.898 50.625.317 1.846-1.58 1.32-7.644 1.055-8.435-.264-.791-26.682-5.48-26.682-5.48s3.48-6.78 4.797-20.03c1.318-13.251-10.33-27.115-11.88-22.16z"/></g><g/><g clip-path="url(#n64gs)"><path fill="#f09959" d="M307.165 106.688l-6.584 24.061s11.126 17.366 14.185 15.823c3.058-1.542-1.71-14.115-1.71-15.823 0-1.708 4.768-19.336 4.768-19.336z"/></g><g/><g clip-path="url(#n64gt)"><path fill="#e38540" d="M313.284 131.975c-.142-.569-.229-.997-.229-1.227 0-1.708 4.77-19.335 4.77-19.335l-10.66-4.725-2.179 7.962c1.903 8.224 5.337 13.703 8.298 17.325z"/></g><g/><g clip-path="url(#n64gu)"><path fill="#f09959" d="M331.802 106.29c1.254 6.978.428 16.244-5.768 18.6-6.195 2.356-13.658-2.151-16.67-10.068-3.01-7.916-.427-16.243 5.769-18.598 6.196-2.357 15.17 1.73 16.669 10.067z"/></g><g/><g clip-path="url(#n64gv)"><path fill="#fff" d="M318.733 116.85s5.292 2.03 8.203 1.994c2.91-.036 3.36-.237 3.36-.237s-2.01 4.031-4.573 3.778c-4.693-.46-6.563-4.417-6.99-5.536z"/></g><g/><g clip-path="url(#n64gw)"><path fill="#f09959" d="M310.834 110.216c.869 2.44.114 4.937-1.685 5.577-1.798.64-3.961-.818-4.83-3.258-.867-2.438-.113-4.935 1.686-5.576 1.799-.639 3.96.82 4.829 3.257z"/></g><g/><g clip-path="url(#n64gx)"><path fill="#ffc34e" d="M331.874 97.525c-2.109 16.373-22.002 14.264-22.002 14.264s-4.102-5.394-5.948-2.566c-1.845 2.829 2.561-16.598 13.975-17.211 3.75-.201 13.975 5.513 13.975 5.513z"/></g><g/><g clip-path="url(#n64gy)"><path fill="#ffc34e" d="M311.656 90.603c0 5.583-4.823 10.108-10.773 10.108-5.95 0-10.774-4.525-10.774-10.108 0-5.582 4.823-10.108 10.774-10.108 5.95 0 10.773 4.526 10.773 10.108z"/></g><g><path fill="#d3ae64" d="M371.76 37.66c0 6.235-5.055 11.289-11.289 11.289s-11.287-5.054-11.287-11.288c0-6.233 5.053-11.287 11.287-11.287 6.234 0 11.288 5.054 11.288 11.287z"/></g><g><path fill="#0e3a82" d="M261.545 37.912c0 9.559-7.749 17.307-17.307 17.307s-17.306-7.748-17.306-17.307c0-9.558 7.748-17.307 17.306-17.307s17.307 7.749 17.307 17.307z"/></g><g><path fill="#fff" d="M247.876 33.555c-.155 1.78 4.179-.233 6.268 1.315 2.089 1.548 1.47 9.596 0 10.138-1.47.542-7.401.619-9.311-.387-1.91-1.006-3.2-.818-3.2-.818l-.984-8.42s1.19-.358 2.506-1.52c1.316-1.16.696-7.35.696-7.35 2.245-.31 4.18 5.26 4.025 7.042zm-14.007 12.69c-.542-.464-.568-10.005 0-10.295 1.473-.753 5.727-.538 5.727-.538s1.547 6.577 1.237 9.673c-.31 3.096-6.422 1.625-6.964 1.16z"/></g><g><path fill="#c1c765" d="M395.113 291.638c0 8.824-7.153 15.978-15.978 15.978-8.824 0-15.978-7.154-15.978-15.978s7.154-15.979 15.978-15.979c8.825 0 15.978 7.155 15.978 15.98z"/></g><g><path fill="#fff" d="M371.514 300.105c-2.36-14.117 8.447-14.466 8.447-14.466v-4.183l8.563 8.563-8.25 8.25v-4.787s-4.147.175-5.716 2.44c-1.568 2.266-3.044 4.183-3.044 4.183z"/></g><g><path fill="#c1c765" d="M160.483 42.351c0 8.824-7.153 15.978-15.978 15.978-8.824 0-15.978-7.154-15.978-15.978s7.154-15.978 15.978-15.978c8.825 0 15.978 7.154 15.978 15.978z"/></g><g><path fill="#fff" d="M136.883 50.818c-2.359-14.117 8.447-14.466 8.447-14.466V32.17l8.563 8.562-8.25 8.25v-4.787s-4.147.175-5.716 2.44c-1.568 2.266-3.044 4.183-3.044 4.183z"/></g><g><path fill="#fff" d="M417.23 58.797a4.286 4.286 0 1 1-8.573 0 4.286 4.286 0 0 1 8.573 0z"/></g><g><path fill="#fff" d="M417.23 78.088a4.286 4.286 0 1 1-8.573-.001 4.286 4.286 0 0 1 8.573 0z"/></g><g><path fill="#fff" d="M401.155 68.77a4.287 4.287 0 1 1-8.573 0 4.287 4.287 0 0 1 8.573 0z"/></g><g><path fill="#fff" d="M412.942 78.945a.86.86 0 0 1-.429-.116l-16.074-9.318a.856.856 0 0 1-.022-1.47l16.075-9.972a.857.857 0 1 1 .903 1.457l-14.86 9.219 14.838 8.6a.859.859 0 0 1-.43 1.6z"/></g><g><path fill="#fff" d="M303.962 247.718a2.218 2.218 0 1 1-4.435 0 2.218 2.218 0 0 1 4.435 0z"/></g><g><path fill="#fff" d="M303.962 257.699a2.218 2.218 0 1 1-4.435 0 2.218 2.218 0 0 1 4.435 0z"/></g><g><path fill="#fff" d="M295.646 252.878a2.217 2.217 0 1 1-4.435.001 2.217 2.217 0 0 1 4.435-.001z"/></g><g><path fill="#fff" d="M301.744 258.556a.847.847 0 0 1-.429-.116l-8.317-4.82a.857.857 0 0 1-.022-1.47l8.317-5.16a.857.857 0 1 1 .904 1.457l-7.103 4.406 7.081 4.103a.86.86 0 0 1-.43 1.6z"/></g><g><path fill="#fff" d="M18.123 186.631h-3.115a4.415 4.415 0 0 0-4.415 4.415v1.92a4.416 4.416 0 0 0 4.416 4.416h3.114a4.415 4.415 0 0 0 4.415-4.415v-1.92a4.415 4.415 0 0 0-4.415-4.416z"/></g><g><path fill="#fff" d="M39.842 186.631h-3.115a4.415 4.415 0 0 0-4.415 4.415v1.921a4.415 4.415 0 0 0 4.415 4.415h3.115a4.415 4.415 0 0 0 4.415-4.415v-1.92a4.415 4.415 0 0 0-4.415-4.416z"/></g><g><path fill="#fff" d="M61.56 186.631h-3.115a4.415 4.415 0 0 0-4.415 4.415v1.921a4.415 4.415 0 0 0 4.415 4.415h3.115a4.415 4.415 0 0 0 4.415-4.415v-1.92a4.415 4.415 0 0 0-4.415-4.416z"/></g><g><path fill="#fff" d="M583.835 81.18v-3.114a4.416 4.416 0 0 0-4.415-4.416h-1.92a4.415 4.415 0 0 0-4.415 4.416v3.114a4.415 4.415 0 0 0 4.415 4.415h1.92a4.415 4.415 0 0 0 4.415-4.415z"/></g><g><path fill="#fff" d="M583.835 102.9v-3.116a4.415 4.415 0 0 0-4.415-4.415h-1.92a4.415 4.415 0 0 0-4.415 4.415v3.115a4.415 4.415 0 0 0 4.415 4.415h1.92a4.415 4.415 0 0 0 4.415-4.415z"/></g><g><path fill="#fff" d="M583.835 124.617v-3.114a4.415 4.415 0 0 0-4.415-4.415h-1.92a4.414 4.414 0 0 0-4.415 4.415v3.114a4.416 4.416 0 0 0 4.415 4.416h1.92a4.416 4.416 0 0 0 4.415-4.416z"/></g><g><path fill="#fff" d="M113.424 116.157l1.865 5.739h6.035l-4.882 3.548 1.864 5.739-4.882-3.547-4.882 3.547 1.864-5.74-4.882-3.547h6.035z"/></g><g><path fill="#fff" d="M121.102 81.12l1.445 4.447h4.676l-3.783 2.748 1.445 4.448-3.783-2.748-3.783 2.748 1.445-4.448-3.783-2.748h4.676z"/></g><g><path fill="#fff" d="M96.03 55.787l1.23 3.784h3.978l-3.219 2.338 1.23 3.784-3.219-2.338-3.219 2.338 1.23-3.784-3.219-2.338h3.98z"/></g><g><path fill="#fff" d="M291.71 204.62l1.866 5.739h6.035l-4.882 3.547 1.864 5.739-4.882-3.546-4.882 3.546 1.864-5.74-4.882-3.546h6.035z"/></g><g><path fill="#fff" d="M360.472 30.148l1.865 5.74h6.034l-4.881 3.547 1.864 5.74-4.882-3.548-4.882 3.547 1.864-5.739-4.882-3.548h6.035z"/></g><g><path fill="#fff" d="M515.313 105.343l1.865 5.74h6.035l-4.882 3.547 1.864 5.74-4.882-3.548-4.882 3.547 1.864-5.739-4.881-3.547h6.034z"/></g><g><path fill="#fff" d="M496.97 76.962l1.343 4.135h4.347l-3.517 2.554 1.344 4.135-3.517-2.555-3.517 2.555 1.343-4.135-3.516-2.554h4.347z"/></g><g><path fill="#fff" d="M517.4 46.024l1.372 4.224h4.44l-3.593 2.61 1.372 4.223-3.592-2.61-3.593 2.61 1.372-4.224-3.592-2.609h4.44z"/></g><g><path fill="#fff" d="M499.278 19.263l.948 2.917h3.066l-2.481 1.802.948 2.917-2.481-1.803-2.481 1.803.948-2.917-2.481-1.802h3.066z"/></g></g></svg>