<svg xmlns="http://www.w3.org/2000/svg" width="638" height="310" viewBox="0 0 638 310"><defs><linearGradient id="ybdva" x1="315.41" x2="315.41" y1="292.65" y2="195.77" gradientUnits="userSpaceOnUse"><stop offset="0" stop-color="#1f3a65"/><stop offset="1" stop-color="#294a7a"/></linearGradient><linearGradient id="ybdvb" x1="256.96" x2="256.96" y1="300.16" y2="274.12" gradientUnits="userSpaceOnUse"><stop offset="0" stop-color="#1f3a65"/><stop offset="1" stop-color="#294a7a"/></linearGradient><linearGradient id="ybdvc" x1="366.23" x2="366.23" y1="300.16" y2="274.12" gradientUnits="userSpaceOnUse"><stop offset="0" stop-color="#1f3a65"/><stop offset="1" stop-color="#294a7a"/></linearGradient><linearGradient id="ybdvd" x1="345.55" x2="285.68" y1="227.58" y2="298.56" gradientUnits="userSpaceOnUse"><stop offset="0" stop-color="#ffc34e"/><stop offset="1" stop-color="#fb8627"/></linearGradient><linearGradient id="ybdve" x1="309.25" x2="308.17" y1="159.09" y2="116.94" gradientUnits="userSpaceOnUse"><stop offset="0" stop-color="#3f2323"/><stop offset="1" stop-color="#5e3434"/></linearGradient><linearGradient id="ybdvf" x1="443.75" x2="464.68" y1="286.04" y2="286.04" gradientUnits="userSpaceOnUse"><stop offset="0" stop-color="#1f3a65"/><stop offset="1" stop-color="#294a7a"/></linearGradient><linearGradient id="ybdvg" x1="473.65" x2="447.08" y1="214.14" y2="266.87" gradientUnits="userSpaceOnUse"><stop offset="0" stop-color="#e2e8f7"/><stop offset="1" stop-color="#fff"/></linearGradient></defs><g><g><path fill="#2d5ca8" d="M566.61 180.163c.129 18.228-1.095 34.942-3.365 49.725a101.537 101.537 0 0 1-.531 3.3c-1.192 7.199-2.641 13.913-4.284 20.113a466.86 466.86 0 0 1-.87 3.139c-6.311 22.06-15.281 36.972-24.846 42.48H130.906s-34.25-29.694-41.126-72.11a70.67 70.67 0 0 1-.468-3.251c-2.673-21.111 1.627-45.152 20.129-70.16 8.437-11.383 19.532-19.306 32.27-24.764.998-.42 1.98-.822 2.995-1.208 18.888-7.392 41.078-9.71 63.364-10.065 1.127-.015 2.254-.032 3.38-.032 13.269-.097 26.506.45 39.05.95 1.19.065 2.367.112 3.543.16 20.256.855 38.517 1.483 51.769-.95h.017a51.793 51.793 0 0 0 3.51-.771h.016c14.669-3.591 21.9-11.916 16.698-29.823-10.08-34.733.242-60.191 22.705-74.25a63.814 63.814 0 0 1 3.542-2.076C365.006 3.678 381.06.07 399.223.119c1.273 0 2.56.032 3.866.065 15.442.466 32.3 3.51 49.805 9.323a158.28 158.28 0 0 1 26.327 11.449 89.626 89.626 0 0 1 2.963 1.69c15.942 9.21 29.356 20.837 40.466 33.977.757.87 1.48 1.756 2.206 2.657 28.872 35.587 41.465 81.528 41.754 120.883z"/></g><g><path fill="#fff" d="M558.43 253.3c-.29 1.062-.58 2.11-.87 3.14a133.19 133.19 0 0 1-18.582-8.309c-29.468-16.006-66.986-51.657-78.356-130.688-4.894-34.073 1.353-66.52 18.599-96.487a89.645 89.645 0 0 1 2.963 1.69c-15.137 26.28-23.64 57.697-18.373 94.33 11.176 77.63 47.793 112.59 76.552 128.24a126.403 126.403 0 0 0 18.067 8.084z"/></g><g><path fill="#fff" d="M563.244 229.887a101.6 101.6 0 0 1-.53 3.301c-18.616-8.743-42.077-27.76-53.027-69.048-10.58-39.982-6.36-75.473 12.962-107.518.757.87 1.482 1.756 2.206 2.658-18.373 31.045-22.286 65.392-12.045 104.04 10.467 39.5 32.641 57.952 50.434 66.567z"/></g><g><path fill="#fff" d="M387.549 67.605c1.562 52.462-4.412 86.358-19.372 109.933-15.667 24.701-41.802 39.63-84.748 48.404-8.003 1.642-15.909 2.464-23.671 2.464-24.17 0-46.939-7.874-66.89-23.269-23.204-17.922-40.965-44.91-51.158-76.503a97.49 97.49 0 0 1 2.995-1.208c9.984 31.062 27.391 57.6 50.144 75.167 25.571 19.758 55.989 26.731 87.936 20.21 79.869-16.345 104.538-54.042 101.543-155.1-.853-28.697 4.155-51.336 14.895-67.584 1.272 0 2.56.032 3.865.064-11.176 15.78-16.393 38.39-15.539 67.422z"/></g><g><path fill="#fff" d="M287.89 176.169a62.876 62.876 0 0 1-10.241.838c-25.748 0-55.233-15.604-69.58-59.645 1.128-.015 2.255-.032 3.382-.032 15.813 47.277 49.709 59.967 75.908 55.667 35.393-5.797 69.434-42.237 62.848-98.354-2.835-24.075-2.962-44.621-1.45-61.995a63.826 63.826 0 0 1 3.543-2.078c-1.755 17.697-1.82 38.79 1.112 63.702 6.81 58.098-28.68 95.859-65.522 101.897z"/></g><g><path fill="#fff" d="M309.338 116.718c-1.239 5.651-3.413 11.416-7.133 16.264-4.943 6.472-11.884 10.305-20.628 11.383a25.264 25.264 0 0 1-3.092.194c-5.426 0-10.402-1.852-14.814-5.555-5.829-4.895-10.08-12.496-13.172-20.724 1.191.064 2.367.112 3.543.161 2.866 7.278 6.666 13.864 11.706 18.1 4.509 3.783 9.71 5.345 15.427 4.637 7.858-.967 14.057-4.38 18.47-10.129 3.059-3.993 4.992-8.776 6.167-13.559h.016a51.66 51.66 0 0 0 3.51-.772z"/></g><g><path fill="#fff" d="M184.302 298.92h-3.511c-14.444-33.075-35.264-55.12-61.963-65.57-9.693-3.8-19.532-5.781-29.048-6.538a71.068 71.068 0 0 1-.468-3.252c10.032.724 20.434 2.785 30.692 6.795 27.873 10.918 49.484 33.944 64.298 68.565z"/></g><g><path fill="#98b2d8" d="M114.602 199.239l-9.951 10.257-4.154-6.103-1.385-2.045c-4.43 1.112-10.966-7.551-13.591-12.173-2.608-4.638 7.858-11.788 7.858-11.788-1.707-5.12-8.567-8.34-8.76-9.757-.193-1.402 1.514-2.915 7.746 0 6.248 2.93 11.674 13.284 11.674 13.284 1.11-3.011-3.817-11.159-2.915-12.076.902-.903 5.733.209 9.453 8.05 3.735 7.859 1.513 17.118 1.513 17.118l.048.08z"/></g><g><path fill="#b1c3e8" d="M93.01 176.486s7.395 8.458 6.597 11.779c-.797 3.322-4.521-.533-4.521-.533s3.42 3.955 2.315 5.263c-1.108 1.308-5.234-2.013-5.234-2.013s4.932 6.14 0 5.233c-4.931-.905-11.126-10.206-6.368-11.141 0 0-.576-6.773 3.75-4.458 0 0-1.936-5.645 3.46-4.13z"/></g><g><path fill="#b7cae5" d="M182.856 298.978s8.325-24.314 3.945-48.29c0 0-.016-.05-.032-.162 0-.049-.018-.113-.033-.194l-.387-1.883s-4.83 4.218-11.497 8.405c-8.003 5.04-18.679 10.048-26.875 7.697-15.04-4.3-37.036-33.542-47.245-56.634 0 0 5.104-7.648 15.297-9.999 0 0 20.402 27.181 38.39 33.622 0 0 9.661-11.545 17.165-28.453 4.797-10.789 11.996-17.616 21.078-21.288 5.152-2.109 10.918-3.188 17.181-3.38l15.765-7.36s2.56.017 6.537.531c7.392.967 19.678 3.672 29.613 11.241 15.298 11.658 37.31 116.147 37.31 116.147z"/></g><g><path fill="#97b3d1" d="M186.769 250.526a89.806 89.806 0 0 0-.42-2.077s-4.83 4.22-11.496 8.405l4.653-39.806c4.735 18.228 7.005 31.851 7.263 33.478z"/></g><g><path fill="#ced9ea" d="M232.146 171.59c-2.432 15.46-17.906 29.742-29.081 29.55-8.985-.161-10.306-13.044-10.402-19.34 5.152-2.11 10.918-3.189 17.18-3.382l15.766-7.359s2.559.016 6.537.531z"/></g><g><path fill="#97b3d1" d="M205.396 283.18s35.502-36.946 37.045-75.794l10.467 32.742-4.026 34.09z"/></g><g><path fill="#98b2d8" d="M204.364 298.97h-39.753s.101-5.435 6.24-7.246c6.14-1.812 10.064-9.46 28.482-8.454z"/></g><g><path fill="#b6c5dd" d="M245.036 262.435s-18.729 10.771-48.22 18.42c0 0-4.093 9.862 3.087 18.115h57.058z"/></g><g><path fill="#5d7ca0" d="M175.299 149.528s-8.478-11.702-7.435-19.581c1.042-7.879 8.336-6.028 8.336-6.028s-.34-19.146 17.383-14.25c0 0-.39-5.846 3.48-5.695 3.87.152 9.938 9.053 9.938 9.053s1.506-6.595 4.127-5.038c2.62 1.557 3.43 8.362 8.903 11.639 5.474 3.275 8.86 7.515 4.563 20.798-4.298 13.284-1.073 14.225-2.608 21.045-1.458 6.477-2.624 10.417-6.644 10.782-4.02.363-19.41-15.872-19.41-15.872z"/></g><g><path fill="#98b2d8" d="M225.608 171.06s-9.87 23.943-20.24 22.141c-5.154-.903-6.296-4.042-6.345-7.682-.048-4.75 1.804-10.32-.998-12.656l12.43-17.665 2.738-3.897s3.35 9.694 12.416 19.758z"/></g><g><path fill="#799cbf" d="M199.023 185.52c-.048-4.75 1.804-10.322-.998-12.657l12.43-17.665c1.064 1.24 1.82 3.446 2.127 6.908 1.642 18.244-8.003 22.48-13.56 23.413z"/></g><g><path fill="#98b2d8" d="M174.092 140.218s3.36 30.845 15.946 37.787c10.939 6.033 24.223-12.216 23.956-21.243 0 0 4.768-3.641 3.972-9.534-.795-5.895-7.027-3.94-7.773 5.558 0 0-5.067-.361-6.004-12.232-3.182 2.634-6.615 1.82-10.221-1.382 0 0-1.79 6.607-10.998-1.114 0 0-3.474 4.717-8.878 2.16z"/></g><g><path fill="#5d7ca0" d="M470.964 259.72s16.245 27.106 21.872 40.257h-57.285s-3.264-15.846-9.004-31.07z"/></g><g><path fill="#799cbf" d="M448.621 265.759c-3.135 10.389-7.915 19.259-15.007 25.994l1.937 8.225-69.323-.857 7.717-47.452z"/></g><g><path fill="#799cbf" d="M557.368 117.83s2.294-14.372 6.856-19.471c4.563-5.1 17.042-12.642 18.518-9.96 1.477 2.685-11.003 11.1-11.003 11.1s5.636-1.342 10.467 6.978-10.735 14.76-10.735 14.76l-3.086 6.979-12.346-7.783z"/></g><g><path fill="#98b2d8" d="M573.332 99.771s-6.957 7.073-5.939 9.095c1.017 2.021 4.851-1.156 4.851-1.156s-3.13 4.765-.705 5.993c2.426 1.226 6.182-2.888 6.182-2.888s-3.13 4.331-1.33 5.125c1.8.794 11.423-5.99 9.703-7.579-1.722-1.589-2.66-.289-2.66-.289s2.013-3.393 0-4.476c-2.194-1.179-3.288.94-3.288.94s1.644-2.6.314-3.61c-1.33-1.01-4.148.288-4.148.288s.924-4.33-2.98-1.443z"/></g><g><path fill="#98b2d8" d="M566.875 99.6c-2.113-.604-6.408 3.79-6.408 3.79-1.689 2.173-2.033 6.503-2.102 8.5-.217 5.576-2.326 8.542-2.326 8.542l6.265 3.95c4.851-6.25 3.264-14.254 2.481-17.086 2.365-3.533 3.351-7.337 2.09-7.696z"/></g><g><path fill="#b7cae5" d="M570.929 129.692s-20.934 55.747-54.201 60.69c-14.88 2.206-26.12 2.432-33.977 2.013-9.372-.483-13.977-1.9-14.315-1.997-.017 0-.017-.016-.017-.016s-9.13 17.004-3.22 41.432c5.894 24.412 8.05 29.517 8.05 29.517s-44.844 32.977-81.317 2.946l-32.913-51.174-10.306-16.038s9.468-31.095 36.166-51.303l.017-.016c10.063-7.633 22.592-13.72 37.97-15.974 7.89-1.19 16.52-1.369 25.957-.24 0 0 7.246 2.044 19.033 6.36a442.443 442.443 0 0 1 22.56 8.968c24.427 10.467 31.142 13.591 31.142 13.591s26.022-25.668 32.737-41.238c0 0 13.413 1.352 16.634 12.48z"/></g><g><path fill="#97b3d1" d="M402.982 155.145c-.121 12.494-2.791 24.6-3.967 34.001l20.686-4.188 32.188 31.824s4.077 9.324-4.224 10.934c-6.505 1.262-36.906 5.49-36.906 5.49-7.006 9.536-10.172 24.122-13.666 38.276l-30.864-53.629z"/></g><g><path fill="#ced9ea" d="M448.822 158.145c-14.412-3.655-21.996-16.618-25.957-28.373 7.891-1.19 16.521-1.369 25.957-.24 0 0 7.246 2.044 19.033 6.36 1.385 10.288.886 27.293-19.033 22.253z"/></g><g><path fill="#97b3d1" d="M486.664 169.546s-3.092 12.109-3.913 22.85c-9.372-.484-13.978-1.901-14.316-1.997-.016 0-.016-.016-.016-.016s8.181-13.993 18.245-20.837z"/></g><g><path fill="#f2f4f9" d="M450.692 222.087l-35.947 5.217a1.945 1.945 0 0 1-2.205-1.646l-7.942-54.713a1.947 1.947 0 0 1 1.647-2.205l35.947-5.216a1.945 1.945 0 0 1 2.205 1.645l7.941 54.713a1.946 1.946 0 0 1-1.646 2.205z"/></g><g><path fill="#98b2d8" d="M424.534 187.258l5.502-2.146s5.233-14.493 11.741-5.368c0 0 4.495-2.683 4.361-4.16-.133-1.475-.2-3.623-.2-3.623s9.108 1.969 7.07 14.672c-2.038 12.703-9.822 11.093-17.47 11.227l-9.527 3.757z"/></g><g><path fill="#c1cfe5" d="M428.082 204.971s-42.865 28.373-61.383 14.686a74.335 74.335 0 0 1-7.68-6.554l-10.306-16.038s9.468-31.095 36.166-51.303l.016-.017c8.85-3.975 18.096-2.528 18.572 5.67 1.132 19.53-15.57 31.538-17.638 40.4l38.421-7.778s6.248 6.635 3.832 20.934z"/></g><g><path fill="#5d7ca0" d="M478.47 99.817s6.126-13.088 3.62-20.63c-2.505-7.542-9.32-4.353-9.32-4.353s-3.267-18.868-19.752-10.728c0 0-.716-5.814-4.488-4.938-3.773.877-8.06 10.76-8.06 10.76s-2.72-6.194-5-4.173c-2.281 2.022-1.796 8.86-6.557 13.106-4.76 4.246-7.29 9.048-.57 21.286 6.72 12.238 3.73 13.77 6.52 20.178 2.649 6.088 4.534 9.74 8.55 9.341 4.018-.4 16.08-19.24 16.08-19.24z"/></g><g><path fill="#98b2d8" d="M433.107 130.423s9.477 23.355 24.37 19.53c5.068-1.3 5.098-6.743 4.46-10.326-.846-4.675-3.712-9.799-1.398-12.619l-15.532-15.011-3.421-3.313s-1.467 10.15-8.48 21.74z"/></g><g><path fill="#799cbf" d="M461.937 139.628c-.846-4.675-3.712-9.8-1.398-12.62l-15.532-15.011c-.81 1.417-1.14 3.727-.79 7.185 1.819 18.227 12.088 20.573 17.72 20.446z"/></g><g><path fill="#98b2d8" d="M477.905 90.446s2.5 30.926-8.558 40.11c-9.608 7.984-26.088-7.443-27.522-16.359 0 0-5.367-2.679-5.694-8.617-.328-5.939 6.162-5.191 8.68 3.998 0 0 4.908-1.308 3.597-13.144 3.62 1.989 6.84.546 9.778-3.279 0 0 3 6.153 10.593-3.162 0 0 4.3 3.979 9.126.453z"/></g><g><path fill="url(#ybdva)" d="M289.358 187.951c-9.355 3.623-19.855 10.563-30.016 23.736-19.854 25.763-30.594 63.332-28.437 74.876.114.596.242 1.16.42 1.692 3.043 9.934 15.796 10.724 47.614 10.724h76.892s33.686 2.334 41.463-11.885c.854-1.561 1.513-3.3 1.98-5.201v-.015c3.849-15.427-4.621-41.239-21.834-63.219-14.074-17.987-23.462-28.132-41.4-32.334-6.683-1.563-14.556-2.287-24.316-2.287-5.538 0-13.429.451-22.366 3.913z"/></g><g opacity=".22"><g opacity=".22"><path fill="#1f395e" d="M264.044 272.756c8.344-13.122 10.968-31.327 13.285-49.803l7.247 37.573h62.8l11.54-37.573c-.272 17.56 2.137 34.783 10.467 51.26 0 0-41.064 46.468-105.339-1.457z"/></g></g><g><path fill="url(#ybdvb)" d="M241.292 269.785c-9.516 2.447-11.626 10.659-9.967 18.47 3.043 9.934 15.796 10.724 47.614 10.724h4.172l-.951-17.922s-20.44-11.896-35.464-11.895c-1.905 0-3.726.192-5.404.623z"/></g><g><path fill="url(#ybdvc)" d="M335.911 279.655l-2.898 19.324h22.818s33.686 2.334 41.463-11.885c.854-1.561 1.513-3.3 1.98-5.201.017-.015 0-.015 0-.015.838-6.328-1.335-12.254-8.421-15.105-1.957-.789-4.385-1.13-7.124-1.13-17.552 0-47.818 14.012-47.818 14.012z"/></g><g><path fill="#1f395e" d="M336.04 186.325c-.677 9.033-4.412 25.49-22.608 25.49-19.178 0-23.237-16.216-24.074-23.864 8.937-3.462 16.827-3.913 22.367-3.913 9.758 0 17.632.725 24.315 2.287z"/></g><g><path fill="#fff" d="M352.61 298.97h-73.67a3.22 3.22 0 0 1 0-6.44h73.67a3.221 3.221 0 0 1 0 6.44z"/></g><g><path fill="url(#ybdvd)" d="M274.898 238.98c-2.416 0-4.283 2.174-3.912 4.574l7.551 48.984h75.087l7.633-47.262v-.016l.273-1.675c.387-2.415-1.466-4.605-3.913-4.605z"/></g><g><path fill="#3150bc" d="M361.257 245.276l-7.633 47.262H278.94l25.313-2.642c25.99-2.688 48.131-20.047 57.004-44.62z"/></g><g><path fill="#feb19e" d="M313.126 204.971h-.499c-2.898 0-5.298-.596-7.247-1.465-4.734-2.126-7.6-7.069-7.487-12.255.016-.53.016-1.047.016-1.56.016-4.3-.258-7.875-.258-7.875v-1.933l27.052-1.208a62.477 62.477 0 0 0 1.08 10.13c.016.047.016.08.031.128 1.546 8.132-4.412 15.83-12.688 16.038z"/></g><g><path fill="#ff856a" d="M325.782 188.804c-11.27 13.236-22.85 5.507-27.873.886.016-4.3-.258-7.874-.258-7.874v-1.933l27.052-1.208a62.477 62.477 0 0 0 1.08 10.13z"/></g><g><path fill="#feb19e" d="M289.372 166.734s8.388 23.645 22.377 23.645c13.99 0 19.806-25.462 19.806-25.462v-22.142H288.3z"/></g><g><path fill="#feb19e" d="M284.871 153.394s-4.12.753-3.415 5.483c.704 4.731 4.998 10.467 8.487 7.448z"/></g><g><path fill="#feb19e" d="M334.82 151.416s4.185.187 4.13 4.969c-.055 4.782-3.528 11.049-7.396 8.532z"/></g><g><path fill="url(#ybdve)" d="M295.311 116.005c-10.332 3.488-8.589 13.017-8.589 13.017s-4.696-2.685-8.185 4.293c-3.488 6.977 3.922 21.473 3.922 21.473a3.32 3.32 0 0 1 2.412-1.394c3.429 9.864 4.501 13.34 4.501 13.34 2.952-4.227 1.913-13.023 1.913-13.023 6.181 2.548 11.629 2.153 16.237-1.61 6.91 4.764 7.984-1.946 7.984-1.946 4.496 6.777 11.661 5.373 11.661 5.373 1.072 8.721 4.388 9.388 4.388 9.388 1.812-5.232 3.265-13.501 3.265-13.501 2.13.202 2.634 1.098 2.634 1.098 7.649-21.604-5.241-22.016-5.241-22.016-4.831-19.188-22.677-17.311-22.677-17.311s-.672-3.488-2.282-4.428a.778.778 0 0 0-.396-.121c-1.294 0-2.124 4.186-11.547 7.368z"/></g><g opacity=".6"><g opacity=".6"><path fill="#9abced" d="M265.865 171.512h-67.439a3.972 3.972 0 0 0-3.973 3.973v40.252a3.972 3.972 0 0 0 3.973 3.972h46.52l12.131 10.753c.918.814 2.317-.122 1.916-1.28l-3.279-9.473h10.151a3.973 3.973 0 0 0 3.973-3.972v-40.252a3.973 3.973 0 0 0-3.973-3.973z"/></g></g><g><g><path fill="#9abced" d="M219.346 182.282H203.81a1.059 1.059 0 1 1 0-2.118h15.535a1.059 1.059 0 1 1 0 2.118z"/></g><g><path fill="#9abced" d="M257.656 191.463h-45.019a1.06 1.06 0 0 1 0-2.12h45.02a1.06 1.06 0 1 1 0 2.12z"/></g><g><path fill="#9abced" d="M257.656 197.995H203.81a1.06 1.06 0 0 1 0-2.12h53.846a1.06 1.06 0 1 1 0 2.12z"/></g><g><path fill="#9abced" d="M257.656 204.526H203.81a1.059 1.059 0 1 1 0-2.118h53.846a1.06 1.06 0 1 1 0 2.118z"/></g><g><path fill="#9abced" d="M257.656 211.058H203.81a1.059 1.059 0 1 1 0-2.118h53.846a1.059 1.059 0 1 1 0 2.118z"/></g></g><g><path fill="#c1c8d3" d="M564.859 309.437H75.337a1.747 1.747 0 0 1-1.746-1.747v-6.973c0-.965.783-1.747 1.747-1.747h489.52c.966 0 1.748.782 1.748 1.747v6.973c0 .965-.782 1.747-1.747 1.747z"/></g><g><path fill="url(#ybdvf)" d="M443.751 273.156v18.115a7.648 7.648 0 0 0 7.649 7.649h5.636a7.648 7.648 0 0 0 7.648-7.649v-18.115z"/></g><g><path fill="url(#ybdvg)" d="M458.042 241.152v.755c0 .917-.745 1.66-1.661 1.66h-9.007a8.455 8.455 0 0 0 0 16.909h6.793c.917 0 1.66.742 1.66 1.659v2.113a1.66 1.66 0 0 1-1.66 1.662h-2.113a1.66 1.66 0 0 0-1.661 1.66v5.586h6.843v-2.365c0-.918.744-1.66 1.662-1.66a5.788 5.788 0 0 0 5.786-5.787v-3.623a5.786 5.786 0 0 0-5.786-5.787h-8.656a1.66 1.66 0 1 1 0-3.322h15.851c5.225 0 9.461-4.235 9.461-9.46a8.756 8.756 0 0 0-8.756-8.755 8.755 8.755 0 0 0-8.756 8.755z"/></g><g opacity=".6"><g opacity=".6"><path fill="#9abced" d="M435.325 243.517h-54.95a3.825 3.825 0 0 1-3.825-3.824V170.25a3.825 3.825 0 0 1 3.825-3.824h54.95a3.825 3.825 0 0 1 3.824 3.824v69.444a3.825 3.825 0 0 1-3.824 3.824z"/></g></g><g><path fill="#4f7eb7" d="M383.863 240.968a4.635 4.635 0 0 1-4.629-4.63v-69.441a4.635 4.635 0 0 1 4.63-4.63h54.95a4.635 4.635 0 0 1 4.63 4.63v69.442a4.635 4.635 0 0 1-4.63 4.629zm0-77.091a3.022 3.022 0 0 0-3.019 3.02v69.442a3.022 3.022 0 0 0 3.02 3.019h54.95a3.022 3.022 0 0 0 3.02-3.02v-69.441a3.022 3.022 0 0 0-3.02-3.02z"/></g><g><g opacity=".71"><g opacity=".71"><path fill="#7ca6d8" d="M398.155 191.092h-12.213v-14.626h12.213zm-10.602-1.61h8.992v-11.405h-8.992z"/></g></g><g><path fill="#ea9ba1" d="M395.082 186.555l-3.632-4.049 1.198-1.076 2.202 2.458c1.118-1.474 3.854-4.422 9.037-6.556l.613 1.488c-6.468 2.664-8.842 6.724-8.864 6.765z"/></g><g><path fill="#9abced" d="M429.298 181.944h-18.944a1.196 1.196 0 1 1 0-2.392h18.944a1.196 1.196 0 0 1 0 2.392z"/></g><g><path fill="#9abced" d="M429.298 187.752h-18.944a1.196 1.196 0 0 1 0-2.392h18.944a1.196 1.196 0 0 1 0 2.392z"/></g></g><g><g opacity=".71"><g opacity=".71"><path fill="#7ca6d8" d="M398.155 213.502h-12.213v-14.626h12.213zm-10.602-1.611h8.992v-11.405h-8.992z"/></g></g><g><path fill="#ea9ba1" d="M395.082 208.965l-3.632-4.05 1.198-1.075 2.202 2.458c1.118-1.474 3.854-4.423 9.037-6.557l.613 1.49c-6.468 2.664-8.842 6.723-8.864 6.764z"/></g><g><path fill="#9abced" d="M429.298 204.353h-18.944a1.196 1.196 0 1 1 0-2.39h18.944a1.196 1.196 0 0 1 0 2.39z"/></g><g><path fill="#9abced" d="M429.298 210.16h-18.944a1.196 1.196 0 1 1 0-2.391h18.944a1.196 1.196 0 0 1 0 2.392z"/></g></g><g><g opacity=".71"><g opacity=".71"><path fill="#7ca6d8" d="M398.155 235.912h-12.213v-14.627h12.213zm-10.602-1.611h8.992v-11.406h-8.992z"/></g></g><g><path fill="#ea9ba1" d="M395.082 231.375l-3.632-4.05 1.198-1.075 2.202 2.458c1.118-1.474 3.854-4.422 9.037-6.556l.613 1.488c-6.468 2.664-8.842 6.723-8.864 6.764z"/></g><g><path fill="#9abced" d="M429.298 226.763h-18.944a1.196 1.196 0 0 1 0-2.392h18.944a1.196 1.196 0 0 1 0 2.392z"/></g><g><path fill="#9abced" d="M429.298 232.57h-18.944a1.196 1.196 0 1 1 0-2.392h18.944a1.197 1.197 0 0 1 0 2.392z"/></g></g><g opacity=".6"><g opacity=".6"><path fill="#9abced" d="M628.362 137.325h-54.95a3.825 3.825 0 0 1-3.825-3.824V64.057a3.825 3.825 0 0 1 3.825-3.824h54.95a3.825 3.825 0 0 1 3.824 3.824V133.5a3.825 3.825 0 0 1-3.824 3.824z"/></g></g><g><path fill="#4f7eb7" d="M578.243 133.738a4.636 4.636 0 0 1-4.63-4.63V59.666a4.636 4.636 0 0 1 4.63-4.63h54.95a4.636 4.636 0 0 1 4.63 4.63v69.442a4.636 4.636 0 0 1-4.63 4.63zm0-77.092a3.023 3.023 0 0 0-3.02 3.02v69.442a3.023 3.023 0 0 0 3.02 3.02h54.95a3.023 3.023 0 0 0 3.02-3.02V59.666a3.023 3.023 0 0 0-3.02-3.02z"/></g><g opacity=".5"><g opacity=".5"><path fill="#7ca6d8" d="M596.393 80.832c0 5.335-4.325 9.66-9.661 9.66a9.662 9.662 0 0 1 0-19.323c5.336 0 9.66 4.326 9.66 9.663z"/></g><g opacity=".5"><g opacity=".5"><path fill="#e83f54" d="M589.281 79.556l6.44-11.473c5.905 1.476 8.723 7.045 5.905 12.747z"/></g></g><g opacity=".5"><path fill="#9abced" d="M583.242 100.96a2.817 2.817 0 1 1-5.638 0 2.817 2.817 0 0 1 5.638 0z"/></g><g opacity=".5"><path fill="#9abced" d="M583.242 113.44a2.817 2.817 0 1 1-5.638 0 2.817 2.817 0 0 1 5.638 0z"/></g><g opacity=".5"><path fill="#9abced" d="M620.01 103.777h-22.543a2.817 2.817 0 1 1 0-5.636h22.543a2.818 2.818 0 0 1 0 5.636z"/></g><g opacity=".5"><path fill="#9abced" d="M620.01 116.257h-22.543a2.817 2.817 0 1 1 0-5.636h22.543a2.818 2.818 0 0 1 0 5.636z"/></g><g opacity=".5"><path fill="#9abced" d="M583.242 126.12a2.818 2.818 0 1 1-5.635 0 2.818 2.818 0 0 1 5.635 0z"/></g><g opacity=".5"><path fill="#9abced" d="M620.01 128.938h-22.543a2.818 2.818 0 1 1 0-5.637h22.543a2.818 2.818 0 0 1 0 5.637z"/></g></g><g opacity=".6"><g opacity=".6"><path fill="#9abced" d="M232.373 95.882h-54.95a3.824 3.824 0 0 1-3.824-3.824V9.733a3.823 3.823 0 0 1 3.824-3.825h54.95a3.824 3.824 0 0 1 3.824 3.825v82.325a3.825 3.825 0 0 1-3.824 3.824z"/></g></g><g><path fill="#4f7eb7" d="M173.935 93.2a4.635 4.635 0 0 1-4.63-4.63V6.244a4.635 4.635 0 0 1 4.63-4.63h54.95a4.634 4.634 0 0 1 4.629 4.63V88.57a4.635 4.635 0 0 1-4.63 4.63zm0-89.975a3.023 3.023 0 0 0-3.02 3.02V88.57a3.023 3.023 0 0 0 3.02 3.02h54.95a3.023 3.023 0 0 0 3.019-3.02V6.245a3.023 3.023 0 0 0-3.02-3.02z"/></g><g><path fill="#7ca6d8" d="M201.95 42.942l-.786.697a1.206 1.206 0 0 1-1.704-.1l-8.063-9.077 2.592-2.302 8.062 9.077a1.208 1.208 0 0 1-.1 1.705z"/></g><g><path fill="#7ca6d8" d="M188.59 17.785a9.249 9.249 0 0 1 9.259 9.258 9.25 9.25 0 0 1-9.26 9.26c-5.103 0-9.258-4.139-9.258-9.26 0-5.12 4.155-9.258 9.259-9.258zm0 15.568a6.303 6.303 0 0 0 6.31-6.31c0-3.49-2.82-6.31-6.31-6.31a6.312 6.312 0 0 0-6.31 6.31 6.312 6.312 0 0 0 6.31 6.31z"/></g><g><path fill="#9abced" d="M226.102 22.884h-14.627a1.677 1.677 0 1 1 0-3.354h14.627a1.677 1.677 0 1 1 0 3.354z"/></g><g><path fill="#9abced" d="M226.102 31.606h-14.627a1.678 1.678 0 1 1 0-3.354h14.627a1.676 1.676 0 1 1 0 3.354z"/></g><g><path fill="#9abced" d="M226.102 39.657h-14.627a1.677 1.677 0 1 1 0-3.354h14.627a1.677 1.677 0 1 1 0 3.354z"/></g><g><path fill="#9abced" d="M207.885 62.067h-22.543a1.912 1.912 0 1 1 0-3.825h22.543a1.912 1.912 0 1 1 0 3.825z"/></g><g><path fill="#9abced" d="M207.885 74.043h-22.543a1.911 1.911 0 1 1 0-3.824h22.543a1.911 1.911 0 1 1 0 3.824z"/></g><g><path fill="#9abced" d="M207.885 86.02h-22.543a1.911 1.911 0 1 1 0-3.825h22.543a1.911 1.911 0 1 1 0 3.824z"/></g><g><path fill="#9abced" d="M225.548 60.155a3.07 3.07 0 1 1-6.14-.001 3.07 3.07 0 0 1 6.14.001z"/></g><g><path fill="#9abced" d="M225.548 72.13a3.07 3.07 0 1 1-6.141 0 3.07 3.07 0 0 1 6.14 0z"/></g><g><path fill="#9abced" d="M225.548 84.107a3.07 3.07 0 1 1-6.14-.001 3.07 3.07 0 0 1 6.14.001z"/></g><g opacity=".6"><g opacity=".6"><path fill="#9abced" d="M106.233 182.748H10.96a5.368 5.368 0 0 1-5.37-5.367V119.68a5.37 5.37 0 0 1 5.37-5.37h95.273a5.368 5.368 0 0 1 5.366 5.37v57.7a5.367 5.367 0 0 1-5.366 5.368z"/></g></g><g><path fill="#4f7eb7" d="M7.05 179.593a6.18 6.18 0 0 1-6.172-6.172V115.72a6.18 6.18 0 0 1 6.173-6.172h95.273a6.178 6.178 0 0 1 6.173 6.172v57.7a6.179 6.179 0 0 1-6.173 6.173zm0-68.435a4.567 4.567 0 0 0-4.561 4.562v57.7a4.566 4.566 0 0 0 4.562 4.562h95.273a4.566 4.566 0 0 0 4.563-4.561V115.72a4.567 4.567 0 0 0-4.563-4.562z"/></g><g opacity=".5"><g opacity=".5"><path fill="#7ca6d8" d="M43.74 145.905a13.566 13.566 0 0 1-9.662 4.01c-7.536 0-13.655-6.119-13.655-13.656 0-7.551 6.12-13.67 13.655-13.67 1.53 0 3.011.257 4.38.724l-4.38 12.946z"/></g><g opacity=".5"><g opacity=".5"><path fill="#e83f54" d="M49.544 135.206c0 3.2-1.299 6.099-3.404 8.19l-8.205-8.19 3.719-10.995c4.581 1.546 7.89 5.88 7.89 10.995z"/></g></g><g opacity=".5"><path fill="#9abced" d="M95.697 150.72h-31.4v-26.51a.804.804 0 1 1 1.61 0v24.9h29.79a.805.805 0 1 1 0 1.61z"/></g><g opacity=".5"><path fill="#9abced" d="M74.898 137.063h-4.025v12.047h4.025z"/></g><g opacity=".5"><g opacity=".5"><path fill="#e83f54" d="M83.218 130.951h-4.025v18.159h4.025z"/></g></g><g opacity=".5"><path fill="#9abced" d="M91.403 140.031h-4.026v9.079h4.026z"/></g><g opacity=".5"><path fill="#9abced" d="M40.08 163.022H21.157a1.41 1.41 0 0 1 0-2.818H40.08a1.41 1.41 0 0 1 0 2.818z"/></g><g opacity=".5"><path fill="#9abced" d="M68.926 163.022h-18.92a1.41 1.41 0 0 1 0-2.818h18.92a1.409 1.409 0 1 1 0 2.818z"/></g><g opacity=".5"><path fill="#9abced" d="M96.032 163.022h-18.92a1.41 1.41 0 0 1 0-2.818h18.92a1.409 1.409 0 1 1 0 2.818z"/></g><g opacity=".5"><path fill="#9abced" d="M52.491 173.087h-18.92a1.41 1.41 0 0 1 0-2.818h18.92a1.409 1.409 0 1 1 0 2.818z"/></g><g opacity=".5"><path fill="#9abced" d="M79.598 173.087H60.677a1.41 1.41 0 0 1 0-2.818h18.92a1.409 1.409 0 1 1 0 2.818z"/></g></g></g></svg>