<svg xmlns="http://www.w3.org/2000/svg" width="623" height="400" viewBox="0 0 623 400"><g><g><path fill="#2d5ca8" d="M433.228 213.653c-.9-13.88-4.839-28.563 4.24-40.726 5.02-6.723 14.102-7.366 21.566-9.5 12.772-3.65 20.841-12.786 24.002-25.58 1.263-5.118 3.891-10.42 8.738-12.493 7.213-3.084 15.744 2.278 23.236-.046 4.025-1.248 7.06-4.47 10.387-7.055 8.048-6.25 19.29-6.966 19.29-6.966s-3.147 8.146-1.159 17.765c1.274 6.173 1.85 12.8.406 19.043-1.127 4.878-3.845 8.367-7.78 11.3-4.636 3.451-8.159 6.381-10.4 11.768-3.456 8.313 1.562 30.144-10.13 31.436-3.18.352-6.507-.74-9.559.538-5.532 2.32-3.375 9.324-5.096 13.811-2.646 6.9-8.034 14.22-14.5 16.696-15.426 5.91-35.857 3.732-51.658-1.8z"/></g><g><path fill="none" stroke="#5987c9" stroke-linejoin="round" stroke-miterlimit="20" stroke-width="1.5" d="M544.407 112.12c-25.217 21.001-36.783 55.186-62.51 75.561-7.718 6.113-16.474 10.773-24.504 16.471-8.03 5.697-15.544 12.745-19.254 21.865"/></g><g><path fill="none" stroke="#5987c9" stroke-linejoin="round" stroke-miterlimit="20" stroke-width="1.5" d="M498.361 124.143c-2.18 11.968-3.38 30.324-1.614 48.813 0 0 22.281-2.474 30.966-5.476"/></g><g><path fill="none" stroke="#5987c9" stroke-linejoin="round" stroke-miterlimit="20" stroke-width="1.5" d="M505.634 125.194c-1.963 13.2-2.11 24.407-2.76 39.95"/></g><g><path fill="none" stroke="#5987c9" stroke-linejoin="round" stroke-miterlimit="20" stroke-width="1.5" d="M516.962 124.285s-1.253 11.263-.774 21.641"/></g><g><path fill="none" stroke="#5987c9" stroke-linejoin="round" stroke-miterlimit="20" stroke-width="1.5" d="M532.002 114.445c-.16.067-.833 3.573-1.367 11.713"/></g><g><path fill="none" stroke="#5987c9" stroke-linejoin="round" stroke-miterlimit="20" stroke-width="1.5" d="M519.143 141.596c-.057.083 15.94-3.892 25.147-7.295"/></g><g><path fill="none" stroke="#5987c9" stroke-linejoin="round" stroke-miterlimit="20" stroke-width="1.5" d="M505.037 162.176c.054-.073 25.097-3.108 35.809-7.357"/></g><g><path fill="none" stroke="#5987c9" stroke-linejoin="round" stroke-miterlimit="20" stroke-width="1.5" d="M478.298 149.266c-.24.386-3.478 23.004-1.265 42.014"/></g><g><path fill="none" stroke="#5987c9" stroke-linejoin="round" stroke-miterlimit="20" stroke-width="1.5" d="M483.744 186.17s26.52.055 40.258-2.376"/></g><g><path fill="none" stroke="#5987c9" stroke-linejoin="round" stroke-miterlimit="20" stroke-width="1.5" d="M505.012 206.27c-16.438 1.186-48.683-1.353-48.683-1.353v0s-1.376-29.637 2.704-41.49"/></g><g><path fill="none" stroke="#5987c9" stroke-linejoin="round" stroke-miterlimit="20" stroke-width="1.5" d="M443.891 216.414s36.384 4.33 55.652 3.754"/></g><g><path fill="none" stroke="#5987c9" stroke-linejoin="round" stroke-miterlimit="20" stroke-width="1.5" d="M451.626 164.924s-5 23.332-.17 43.819"/></g><g><path fill="none" stroke="#5987c9" stroke-linejoin="round" stroke-miterlimit="20" stroke-width="1.5" d="M440.606 221.005s28.241 9.389 53.914 6.679"/></g><g><path fill="none" stroke="#d2ebff" stroke-miterlimit="20" d="M434.405 169.61c11.557-45.465 39.514-82.994 39.514-82.994"/></g><g><path fill="#d2ebff" d="M472.735 88.052s4.214-20.974 13.216-17.857c9.002 3.116-13.216 17.857-13.216 17.857z"/></g><g><path fill="#d2ebff" d="M466.953 96.848s-11.164-19.691-1.807-23.437c9.358-3.746 1.807 23.437 1.807 23.437z"/></g><g><path fill="#d2ebff" d="M461.716 106.41s-17.97-13.766-10.818-20.869c7.15-7.104 10.818 20.87 10.818 20.87z"/></g><g><path fill="#d2ebff" d="M453.022 121.214s-16.914-12.958-10.184-19.645c6.732-6.687 10.184 19.645 10.184 19.645z"/></g><g><path fill="#d2ebff" d="M453.022 121.213s19.25-9.134 22.126-.093c2.877 9.042-22.126.093-22.126.093z"/></g><g><path fill="#d2ebff" d="M445.835 136.549s-16.914-12.958-10.183-19.645c6.73-6.686 10.183 19.645 10.183 19.645z"/></g><g><path fill="#d2ebff" d="M445.835 136.549s19.25-9.135 22.127-.094c2.877 9.042-22.127.094-22.127.094z"/></g><g><path fill="#d2ebff" d="M439.467 152.173s-16.914-12.957-10.183-19.645c6.731-6.686 10.183 19.645 10.183 19.645z"/></g><g><path fill="#d2ebff" d="M439.467 152.173s19.25-9.134 22.127-.093c2.877 9.04-22.127.093-22.127.093z"/></g><g><path fill="#d2ebff" d="M461.56 105.95s21.232-7.845 23.421 1.994c2.19 9.84-23.422-1.994-23.422-1.994z"/></g><g><path fill="#d2ebff" d="M466.953 96.848s18.155-13.52 23.032-4.697c4.877 8.82-23.032 4.697-23.032 4.697z"/></g><g><path fill="#2d5ca8" d="M147.275 271.76c-22.083.81-44.155-5.731-63.095-17.118C65.241 243.256 37.225 213.054 28.124 182c62.651-4.922 105.543 38.549 121.117 68.925z"/></g><g><path fill="none" stroke="#5987c9" stroke-linejoin="round" stroke-miterlimit="20" stroke-width="1.5" d="M28.124 182s37.099 68.921 117.49 83.976"/></g><g><path fill="none" stroke="#5987c9" stroke-linejoin="round" stroke-miterlimit="20" stroke-width="1.5" d="M28.124 182s64.774 54.008 122.889 79.673"/></g><g><path fill="none" stroke="#5987c9" stroke-linejoin="round" stroke-miterlimit="20" stroke-width="1.5" d="M28.124 182s73.926 23.226 123.98 74.66"/></g><g><path fill="#2d5ca8" d="M444.538 280.373c4.07-24.264 16.516-46.423 33.77-63.797 17.253-17.374 57.995-39.276 95.43-40.35-11.501 58.371-67.781 103.9-105.907 112.21z"/></g><g><path fill="none" stroke="#5987c9" stroke-linejoin="round" stroke-miterlimit="20" stroke-width="1.5" d="M573.738 176.225s-86.905 20.777-122.234 103.986"/></g><g><path fill="none" stroke="#5987c9" stroke-linejoin="round" stroke-miterlimit="20" stroke-width="1.5" d="M573.738 176.225s-76.175 55.137-118.554 111.084"/></g><g><path fill="none" stroke="#5987c9" stroke-linejoin="round" stroke-miterlimit="20" stroke-width="1.5" d="M573.738 176.225s-43.176 73.848-113.09 113.697"/></g><g><path fill="#2d5ca8" d="M181.95 234.433c-18.961-14.09-32.463-34.415-39.771-56.76s-8.217-66.748 7.231-99.22c44.87 35.354 59.181 103.37 49.616 139.595z"/></g><g><path fill="none" stroke="#5987c9" stroke-linejoin="round" stroke-miterlimit="20" stroke-width="1.5" d="M149.41 78.454s-20.236 83.373 35.446 149.953"/></g><g><path fill="none" stroke="#5987c9" stroke-linejoin="round" stroke-miterlimit="20" stroke-width="1.5" d="M149.41 78.454s13.827 89.222 43.123 149.91"/></g><g><path fill="none" stroke="#5987c9" stroke-linejoin="round" stroke-miterlimit="20" stroke-width="1.5" d="M149.41 78.454s44.25 69.195 47.746 146.382"/></g><g><path fill="#2d5ca8" d="M354.295 370.193c36.81 6.727 83.934 4.046 119-8.5s89.479-41.122 113.738-85.935c-103.67-23.064-195.67 30.797-230.59 72.971z"/></g><g><path fill="none" stroke="#5987c9" stroke-linejoin="round" stroke-miterlimit="20" stroke-width="1.5" d="M587.033 275.759s-87.013 90.689-230.87 88.967"/></g><g><path fill="none" stroke="#5987c9" stroke-linejoin="round" stroke-miterlimit="20" stroke-width="1.5" d="M587.033 275.759s-121.256 69.548-233.08 85.778"/></g><g><path fill="none" stroke="#5987c9" stroke-linejoin="round" stroke-miterlimit="20" stroke-width="1.5" d="M587.033 275.759s-133.232-2.7-233.452 76.37"/></g><g><path fill="none" stroke="#5987c9" stroke-linejoin="round" stroke-miterlimit="20" stroke-width="1.5" d="M587.033 275.759s-129.094 31.414-233.709 81.583"/></g><g><path fill="#2d5ca8" d="M382.706 187.732c21.05-11.796 37.385-30.624 47.708-52.308 10.323-21.682 17.047-66.547 5.639-101.462-50.076 29.953-73.462 96.99-68.506 134.94z"/></g><g><path fill="none" stroke="#5987c9" stroke-linejoin="round" stroke-miterlimit="20" stroke-width="1.5" d="M436.053 33.963s9.607 87.108-55.504 147.285"/></g><g><path fill="none" stroke="#5987c9" stroke-linejoin="round" stroke-miterlimit="20" stroke-width="1.5" d="M436.053 33.963s-25.666 88.583-63.275 146.238"/></g><g><path fill="none" stroke="#5987c9" stroke-linejoin="round" stroke-miterlimit="20" stroke-width="1.5" d="M436.053 33.963s-53.87 64.319-67.498 142.06"/></g><g><path fill="#2d5ca8" d="M178.708 319.756c-6.252-16.055-9.517-34.6-26.074-43.5-9.155-4.921-19.686-.89-29.182.623-16.25 2.587-30.088-3.446-40.333-16.155-4.098-5.084-9.821-9.66-16.348-9.45-9.71.31-16.482 10.796-26.11 12.109-5.17.705-10.264-1.325-15.351-2.484-12.305-2.805-25.3 2.274-25.3 2.274s7.796 7.5 10.599 19.339c1.799 7.596 4.62 15.337 9.509 21.59 3.819 4.885 8.695 7.38 14.65 8.61 7.009 1.45 12.499 2.896 17.832 7.77 8.23 7.523 14.025 34.657 27.826 29.989 3.755-1.27 6.917-4.237 11.012-4.4 7.423-.293 8.668 8.7 12.949 12.837 6.582 6.36 16.462 11.758 25.017 11.155 20.408-1.44 42.205-14.578 57.047-29.06z"/></g><g><path fill="none" stroke="#5987c9" stroke-linejoin="round" stroke-miterlimit="20" stroke-width="1.5" d="M.76 263.962c39.3 10.378 70.175 42.7 109.718 52.109 11.865 2.823 24.135 3.472 36.13 5.665 11.995 2.194 24.12 6.173 33.058 14.469"/></g><g><path fill="none" stroke="#5987c9" stroke-linejoin="round" stroke-miterlimit="20" stroke-width="1.5" d="M58.743 253.36c8.712 12.292 19.665 32.272 27.359 53.952 0 0-26.308 8.884-37.63 10.06"/></g><g><path fill="none" stroke="#5987c9" stroke-linejoin="round" stroke-miterlimit="20" stroke-width="1.5" d="M51.129 258.347c9.113 13.792 15.144 26.296 24.006 43.402"/></g><g><path fill="none" stroke="#5987c9" stroke-linejoin="round" stroke-miterlimit="20" stroke-width="1.5" d="M37.936 263.255s7.302 11.988 12.195 23.888"/></g><g><path fill="none" stroke="#5987c9" stroke-linejoin="round" stroke-miterlimit="20" stroke-width="1.5" d="M15.903 260.081c.214-.009 2.805 3.575 7.665 12.432"/></g><g><path fill="none" stroke="#5987c9" stroke-linejoin="round" stroke-miterlimit="20" stroke-width="1.5" d="M44.547 283.83c.107.062-19.931 3.974-32.048 4.972"/></g><g><path fill="none" stroke="#5987c9" stroke-linejoin="round" stroke-miterlimit="20" stroke-width="1.5" d="M71.153 299.55c-.098-.055-29.799 9.645-44.049 10.48"/></g><g><path fill="none" stroke="#5987c9" stroke-linejoin="round" stroke-miterlimit="20" stroke-width="1.5" d="M94.414 271.062c.473.308 15.944 24.005 23.409 46.503"/></g><g><path fill="none" stroke="#5987c9" stroke-linejoin="round" stroke-miterlimit="20" stroke-width="1.5" d="M107.616 315.343s-29.742 13.94-46.438 18.4"/></g><g><path fill="none" stroke="#5987c9" stroke-linejoin="round" stroke-miterlimit="20" stroke-width="1.5" d="M94.26 349.037c19.073-7.272 53.941-26.997 53.941-26.997v0s-13.964-33.992-24.75-45.16"/></g><g><path fill="none" stroke="#5987c9" stroke-linejoin="round" stroke-miterlimit="20" stroke-width="1.5" d="M168.182 328.436s-38.578 23.902-60.51 33.342"/></g><g><path fill="none" stroke="#5987c9" stroke-linejoin="round" stroke-miterlimit="20" stroke-width="1.5" d="M132.552 274.68s17.823 23.576 23.124 49.104"/></g><g><path fill="none" stroke="#5987c9" stroke-linejoin="round" stroke-miterlimit="20" stroke-width="1.5" d="M174.273 331.87s-26.789 25.32-57.028 35.714"/></g><g><path fill="none" stroke="#d2ebff" stroke-miterlimit="20" d="M146.57 235.696c-12.24-55.353-59.713-83.873-59.713-83.873"/></g><g><path fill="#d2ebff" d="M88.283 152.746s-9.453-17.09-16.428-11.896c-6.974 5.196 16.428 11.896 16.428 11.896z"/></g><g><path fill="#d2ebff" d="M96.507 158.693s4.283-20.217-4.894-20.896c-9.177-.678 4.894 20.896 4.894 20.896z"/></g><g><path fill="#d2ebff" d="M104.344 165.219s11.84-16.937 3.657-21.146c-8.183-4.21-3.658 21.146-3.658 21.146z"/></g><g><path fill="#d2ebff" d="M114.601 175.183s11.146-15.942 3.442-19.905c-7.702-3.962-3.442 19.905-3.442 19.905z"/></g><g><path fill="#d2ebff" d="M115.204 175.028s-18.232-6.779-20.132 1.672c-1.9 8.451 20.132-1.672 20.132-1.672z"/></g><g><path fill="#d2ebff" d="M122.82 184.753s11.145-15.942 3.441-19.904c-7.702-3.963-3.442 19.904-3.442 19.904z"/></g><g><path fill="#d2ebff" d="M123.422 184.599s-18.232-6.78-20.132 1.672c-1.898 8.45 20.132-1.672 20.132-1.672z"/></g><g><path fill="#d2ebff" d="M129.68 196.04s13.115-14.366 5.99-19.292c-7.124-4.926-5.99 19.292-5.99 19.292z"/></g><g><path fill="#d2ebff" d="M130.298 195.965s-17.201-9.083-20.18-.95c-2.975 8.136 20.18.95 20.18.95z"/></g><g><path fill="#d2ebff" d="M136.208 206.118s13.115-14.365 5.99-19.292c-7.124-4.926-5.99 19.292-5.99 19.292z"/></g><g><path fill="#d2ebff" d="M136.825 206.043s-17.201-9.083-20.179-.949c-2.977 8.135 20.179.949 20.179.949z"/></g><g><path fill="#d2ebff" d="M141.547 219.821s13.115-14.365 5.99-19.29c-7.125-4.928-5.99 19.29-5.99 19.29z"/></g><g><path fill="#d2ebff" d="M142.163 219.747s-17.201-9.083-20.178-.949c-2.977 8.134 20.178.95 20.178.95z"/></g><g><path fill="#d2ebff" d="M104.042 165.201s-20.643-.97-19.834 8.197c.81 9.166 19.834-8.197 19.834-8.197z"/></g><g><path fill="#d2ebff" d="M96.158 157.961s-19.529-6.757-21.341 2.266c-1.81 9.021 21.341-2.266 21.341-2.266z"/></g><g><path fill="#2d5ca8" d="M319.862 164.106c-6.036-10.734-14.802-20.946-12.212-34.132 1.432-7.29 8.435-11.28 13.576-15.842 8.798-7.806 11.74-18.188 9.363-29.612-.952-4.568-.884-9.807 2.191-13.317 4.576-5.226 13.44-4.213 18.53-8.937 2.735-2.536 3.923-6.271 5.59-9.608 4.03-8.073 12.73-12.949 12.73-12.949s.607 7.708 5.878 14.625c3.381 4.44 6.378 9.508 7.617 15.044.967 4.328.134 8.152-1.885 12-2.377 4.53-4.067 8.218-3.793 13.375.425 7.96 12.79 23.466 3.953 28.975-2.404 1.499-5.478 1.9-7.425 4.09-3.527 3.97.876 8.735 1.221 12.976.531 6.52-.967 14.426-5.18 18.88-10.05 10.624-27.194 16.71-41.925 18.345z"/></g><g><path fill="none" stroke="#5987c9" stroke-linejoin="round" stroke-miterlimit="20" stroke-width="1.5" d="M369.724 40.48c-12.086 26.423-8.227 58.14-20.96 84.255-3.819 7.836-9.024 14.909-13.252 22.532-4.227 7.623-7.527 16.127-6.996 24.828"/></g><g><path fill="none" stroke="#5987c9" stroke-linejoin="round" stroke-miterlimit="20" stroke-width="1.5" d="M337.574 67.712c2.842 10.388 8.914 25.5 17.405 39.582 0 0 16.838-10.508 22.62-16.23"/></g><g><path fill="none" stroke="#5987c9" stroke-linejoin="round" stroke-miterlimit="20" stroke-width="1.5" d="M343.781 65.766c3.489 11.29 7.663 20.292 13.097 32.946"/></g><g><path fill="none" stroke="#5987c9" stroke-linejoin="round" stroke-miterlimit="20" stroke-width="1.5" d="M352.475 60.702s3.313 9.471 7.67 17.571"/></g><g><path fill="none" stroke="#5987c9" stroke-linejoin="round" stroke-miterlimit="20" stroke-width="1.5" d="M360.713 47.089c-.101.114.704 3.17 3.395 9.872"/></g><g><path fill="none" stroke="#5987c9" stroke-linejoin="round" stroke-miterlimit="20" stroke-width="1.5" d="M360.847 73.685c-.015.088 11.233-9.211 17.28-15.454"/></g><g><path fill="none" stroke="#5987c9" stroke-linejoin="round" stroke-miterlimit="20" stroke-width="1.5" d="M357.467 95.515c.015-.08 18.843-12.093 25.767-19.586"/></g><g><path fill="none" stroke="#5987c9" stroke-linejoin="round" stroke-miterlimit="20" stroke-width="1.5" d="M331.18 95.45c-.045.4 6.033 19.693 15.08 34.02"/></g><g><path fill="none" stroke="#5987c9" stroke-linejoin="round" stroke-miterlimit="20" stroke-width="1.5" d="M349.66 122.823s21.189-10.113 31.226-17.314"/></g><g><path fill="none" stroke="#5987c9" stroke-linejoin="round" stroke-miterlimit="20" stroke-width="1.5" d="M374.335 130.722c-12.667 7.24-39.378 17.564-39.378 17.564v0s-12.448-23.13-13.73-34.154"/></g><g><path fill="none" stroke="#5987c9" stroke-linejoin="round" stroke-miterlimit="20" stroke-width="1.5" d="M329.43 162.226s30.701-10.478 45.861-18.315"/></g><g><path fill="none" stroke="#5987c9" stroke-linejoin="round" stroke-miterlimit="20" stroke-width="1.5" d="M315.885 118.163s4.945 20.538 16.646 35.043"/></g><g><path fill="none" stroke="#5987c9" stroke-linejoin="round" stroke-miterlimit="20" stroke-width="1.5" d="M328.566 167.149s26.14-3.321 45.594-15.315"/></g><g><path fill="#2d5ca8" d="M166.062 46.645c-.017-.017-.136 0-.157 0H95.152c-11.13 0-14.57-.356-25.68-.033-.127-6.855 1.783-13.316 5.063-16.777 2.692-2.84 7.327-4.394 11.112-3.393 4.791 1.266 8.042 4.474 11.15 6.854 1.1-9.442 5-18.047 9.193-19.925 7.218-3.234 14.761 1.89 18.148 6.87 2.79 4.102 4.32 8.976 4.887 13.905 4.532-5.008 14.665-8.83 18.315-.887 1.435 3.12 1.317 6.7 1.172 10.132 5.941-1.6 12.57-.35 17.55 3.254z"/></g><g><path fill="#2d5ca8" d="M526.647 94.473c1.364-5.543 14.246-13.635 21.127-8.75.32-6.593 3.396-13.727 10.993-17.845 9.324-5.054 18.28 4.998 20.271 11.34 1.846-5.856 11.256-13.735 18.816-7.085 6.994 6.154 7.692 16.467 6.966 22.34z"/></g><g><path fill="none" stroke="#2d5ca8" stroke-linejoin="round" stroke-miterlimit="20" d="M317.745 120.19l-6.306-2.44a24.813 24.813 0 0 1-3.859 5.439l4.397 5.147a31.886 31.886 0 0 1-12.5 7.866l-2.739-6.19a24.847 24.847 0 0 1-6.573 1.126l-.53 6.74a31.773 31.773 0 0 1-7.394-.787 31.784 31.784 0 0 1-7.007-2.49l2.438-6.306a24.824 24.824 0 0 1-5.436-3.86l-5.149 4.397a31.894 31.894 0 0 1-7.866-12.501l6.191-2.738a24.825 24.825 0 0 1-1.126-6.571l-6.74-.53a31.822 31.822 0 0 1 .786-7.395 31.825 31.825 0 0 1 2.491-7.007l6.305 2.439a24.864 24.864 0 0 1 3.86-5.438l-4.397-5.147a31.9 31.9 0 0 1 12.501-7.867l2.738 6.19a24.887 24.887 0 0 1 6.573-1.125l.53-6.74a31.731 31.731 0 0 1 7.395.787 31.767 31.767 0 0 1 7.005 2.489l-2.437 6.307a24.824 24.824 0 0 1 5.436 3.859l5.148-4.396a31.897 31.897 0 0 1 7.866 12.5l-6.19 2.739a24.866 24.866 0 0 1 1.126 6.57l6.741.532a31.875 31.875 0 0 1-.788 7.394 31.786 31.786 0 0 1-2.49 7.007zm-31.855.865c8.237 1.874 16.434-3.284 18.31-11.521 1.873-8.237-3.286-16.434-11.522-18.31-8.237-1.873-16.434 3.285-18.309 11.522-1.875 8.238 3.284 16.434 11.521 18.309z"/></g><g><path fill="none" stroke="#2d5ca8" stroke-linejoin="round" stroke-miterlimit="20" d="M206.139 113.38l-4.758.85a17.825 17.825 0 0 1-.34 4.754l4.597 1.515a22.825 22.825 0 0 1-4.72 9.445l-3.97-2.766a17.789 17.789 0 0 1-3.598 3.127l2.178 4.316a22.74 22.74 0 0 1-4.81 2.263c-1.725.576-3.47.926-5.205 1.079l-.851-4.757a17.791 17.791 0 0 1-4.755-.341l-1.514 4.596a22.795 22.795 0 0 1-9.445-4.718l2.767-3.971a17.709 17.709 0 0 1-3.128-3.598l-4.316 2.178a22.68 22.68 0 0 1-3.342-10.016l4.758-.85a17.825 17.825 0 0 1 .34-4.754l-4.596-1.514a22.805 22.805 0 0 1 4.718-9.446l3.97 2.767a17.7 17.7 0 0 1 3.599-3.127l-2.178-4.316a22.74 22.74 0 0 1 4.81-2.263 22.757 22.757 0 0 1 5.206-1.08l.85 4.758c1.612-.102 3.21.019 4.755.34l1.514-4.596c3.47.81 6.713 2.43 9.445 4.719l-2.767 3.97a17.709 17.709 0 0 1 3.128 3.599l4.316-2.178a22.68 22.68 0 0 1 3.342 10.015zm-19.143 12.35c5.729-1.911 8.822-8.104 6.91-13.833-1.911-5.729-8.105-8.824-13.834-6.912-5.728 1.913-8.822 8.106-6.911 13.835 1.912 5.728 8.106 8.823 13.835 6.91z"/></g><g><path fill="none" stroke="#2d5ca8" stroke-linejoin="round" stroke-miterlimit="20" d="M264.518 60.427l-7.869 1.195a29.289 29.289 0 0 1-.765 7.812l7.501 2.689a37.53 37.53 0 0 1-8.174 15.345l-6.417-4.724a29.252 29.252 0 0 1-6.056 4.993l3.398 7.197a37.44 37.44 0 0 1-8.016 3.519 37.34 37.34 0 0 1-8.614 1.55l-1.195-7.868a29.215 29.215 0 0 1-7.812-.764l-2.689 7.5a37.553 37.553 0 0 1-15.346-8.173l4.725-6.417a29.278 29.278 0 0 1-4.993-6.056l-7.198 3.398a37.421 37.421 0 0 1-3.517-8.015 37.47 37.47 0 0 1-1.553-8.615l7.87-1.196a29.285 29.285 0 0 1 .764-7.811l-7.5-2.69a37.533 37.533 0 0 1 8.173-15.344l6.417 4.724a29.22 29.22 0 0 1 6.056-4.993l-3.398-7.197a37.463 37.463 0 0 1 8.016-3.52 37.406 37.406 0 0 1 8.614-1.551l1.195 7.87a29.215 29.215 0 0 1 7.812.764l2.69-7.502a37.555 37.555 0 0 1 15.345 8.175l-4.725 6.417a29.274 29.274 0 0 1 4.992 6.056l7.2-3.4a37.451 37.451 0 0 1 3.516 8.017 37.48 37.48 0 0 1 1.553 8.615zm-32.044 19.506c9.513-2.9 14.872-12.962 11.973-22.475-2.9-9.511-12.963-14.872-22.476-11.971C212.46 48.387 207.1 58.449 210 67.96c2.901 9.513 12.963 14.872 22.475 11.972z"/></g><g><path fill="none" stroke="#2d5ca8" stroke-linejoin="round" stroke-miterlimit="20" d="M270.268 4.297a3.188 3.188 0 1 1-6.376 0 3.188 3.188 0 0 1 6.376 0z"/></g><g><path fill="none" stroke="#2d5ca8" stroke-linejoin="round" stroke-miterlimit="20" d="M408.145 29.501a3.189 3.189 0 1 1-6.377 0 3.189 3.189 0 0 1 6.377 0z"/></g><g><path fill="none" stroke="#2d5ca8" stroke-linejoin="round" stroke-miterlimit="20" d="M163.497 65.898a3.188 3.188 0 1 1-6.377 0 3.188 3.188 0 0 1 6.377 0z"/></g><g><path fill="none" stroke="#2d5ca8" stroke-linejoin="round" stroke-miterlimit="20" d="M484.85 292.847a3.188 3.188 0 0 1-3.189 3.188 3.188 3.188 0 1 1 0-6.376 3.188 3.188 0 0 1 3.19 3.188z"/></g><g><path fill="none" stroke="#2d5ca8" stroke-linejoin="round" stroke-miterlimit="20" d="M323.092 48.112v0l-7.732-2.759c-.654-.232-1.35.531-1.193 1.307l1.582 7.781c.131.642.781.874 1.29.46l6.15-5.022c.612-.5.556-1.534-.097-1.767z"/></g><g><path fill="none" stroke="#2d5ca8" stroke-linejoin="round" stroke-miterlimit="20" d="M161.481 316.428v0l.44-8.197c.038-.693-.893-1.144-1.59-.771l-7.008 3.735c-.578.307-.615.998-.073 1.366l6.566 4.463c.655.445 1.628.097 1.665-.596z"/></g><g><path fill="none" stroke="#2d5ca8" stroke-linejoin="round" stroke-miterlimit="20" d="M15.345 153.12v0l-7.933 2.118c-.67.18-.81 1.203-.24 1.753l5.721 5.507c.472.454 1.14.275 1.321-.354l2.212-7.626c.222-.759-.411-1.578-1.081-1.399z"/></g><g><path fill="none" stroke="#2d5ca8" stroke-linejoin="round" stroke-miterlimit="20" d="M603.807 232.62v0l5.527-6.069c.467-.513.032-1.452-.745-1.605l-7.789-1.54c-.642-.128-1.107.383-.922 1.011l2.262 7.611c.226.76 1.2 1.105 1.667.592z"/></g><g><path fill="none" stroke="#2d5ca8" stroke-linejoin="round" stroke-miterlimit="20" d="M453.668 54.992h28.218"/></g><g><path fill="none" stroke="#2d5ca8" stroke-linejoin="round" stroke-miterlimit="20" d="M17.088 243.066h28.219"/></g><g><path fill="none" stroke="#2d5ca8" stroke-linejoin="round" stroke-miterlimit="20" d="M447.823 48.793h13.634"/></g><g><path fill="none" stroke="#2d5ca8" stroke-linejoin="round" stroke-miterlimit="20" d="M77.118 102.457h13.634"/></g><g><path fill="none" stroke="#2d5ca8" stroke-linejoin="round" stroke-miterlimit="20" d="M87.906 97.552h8.714"/></g><g><path fill="none" stroke="#2d5ca8" stroke-linejoin="round" stroke-miterlimit="20" d="M600.66 294.842h13.634"/></g><g><path fill="none" stroke="#2d5ca8" stroke-linejoin="round" stroke-miterlimit="20" d="M612.928 289.21h9.508"/></g><g><path fill="none" stroke="#2d5ca8" stroke-linejoin="round" stroke-miterlimit="20" d="M35.702 249.719h13.634"/></g><g><path fill="none" stroke="#2d5ca8" stroke-linejoin="round" stroke-miterlimit="20" d="M581.876 142.135l-5.331.81a19.796 19.796 0 0 1-.518 5.292l5.082 1.822a25.432 25.432 0 0 1-5.538 10.396l-4.347-3.201a19.851 19.851 0 0 1-4.103 3.383l2.302 4.876a25.338 25.338 0 0 1-5.43 2.383c-1.94.592-3.896.932-5.836 1.052l-.81-5.331a19.837 19.837 0 0 1-5.292-.518l-1.823 5.082a25.446 25.446 0 0 1-10.395-5.538l3.2-4.348a19.815 19.815 0 0 1-3.382-4.102l-4.876 2.302a25.36 25.36 0 0 1-2.383-5.43 25.338 25.338 0 0 1-1.052-5.836l5.33-.811a19.84 19.84 0 0 1 .518-5.292l-5.081-1.822a25.438 25.438 0 0 1 5.537-10.395l4.348 3.2a19.789 19.789 0 0 1 4.103-3.382l-2.302-4.876a25.413 25.413 0 0 1 5.43-2.384 25.371 25.371 0 0 1 5.837-1.052l.809 5.33a19.837 19.837 0 0 1 5.292.52l1.822-5.083a25.444 25.444 0 0 1 10.396 5.538l-3.2 4.348a19.84 19.84 0 0 1 3.382 4.102l4.876-2.301a25.352 25.352 0 0 1 2.383 5.429 25.337 25.337 0 0 1 1.052 5.837zm-21.708 13.215c6.444-1.965 10.075-8.782 8.11-15.226-1.964-6.444-8.781-10.076-15.226-8.111-6.444 1.965-10.075 8.782-8.111 15.227 1.965 6.444 8.783 10.075 15.227 8.11z"/></g><g><path fill="#2d5ca8" d="M361.262 334.542h-90.147s3.738 57.422-14.112 57.422h118.371c-17.849 0-14.112-57.422-14.112-57.422z"/></g><g><path fill="#18277a" d="M270.092 369.06l90.882-18.414c-.166-9.107.288-16.104.288-16.104h-90.148s1.206 18.515-1.021 34.518z"/></g><g><path fill="#2d5ca8" d="M491.512 351.854H140.866a5.566 5.566 0 0 1-5.567-5.565V120.021a5.566 5.566 0 0 1 5.567-5.566h350.646a5.566 5.566 0 0 1 5.565 5.566V346.29a5.566 5.566 0 0 1-5.565 5.565z"/></g><g><path fill="#5987c9" d="M484.33 343.44H148.048a2.589 2.589 0 0 1-2.59-2.589V125.46a2.589 2.589 0 0 1 2.59-2.59H484.33a2.589 2.589 0 0 1 2.589 2.59v215.392a2.589 2.589 0 0 1-2.59 2.59z"/></g><g><path fill="none" stroke="#86bfef" stroke-miterlimit="20" d="M484.33 343.44v0H148.048a2.589 2.589 0 0 1-2.59-2.589V125.46a2.589 2.589 0 0 1 2.59-2.59H484.33a2.589 2.589 0 0 1 2.589 2.59v215.392a2.589 2.589 0 0 1-2.59 2.59z"/></g><g><path fill="#2d5ca8" d="M475.237 338.985H166.718a6.897 6.897 0 0 1-6.896-6.897V169.076a6.897 6.897 0 0 1 6.896-6.898h308.52a6.896 6.896 0 0 1 6.895 6.897v163.013a6.896 6.896 0 0 1-6.896 6.897z"/></g><g><path fill="#5987c9" d="M469.491 330.143H160.972a6.897 6.897 0 0 1-6.896-6.896V160.234a6.897 6.897 0 0 1 6.896-6.897h308.519a6.896 6.896 0 0 1 6.896 6.897v163.013a6.896 6.896 0 0 1-6.896 6.896z"/></g><g><path fill="none" stroke="#86bfef" stroke-miterlimit="20" d="M469.491 330.143v0H160.972a6.897 6.897 0 0 1-6.896-6.896V160.234a6.897 6.897 0 0 1 6.896-6.897h308.519a6.896 6.896 0 0 1 6.896 6.897v163.013a6.896 6.896 0 0 1-6.896 6.896z"/></g><g><path fill="none" stroke="#86bfef" stroke-miterlimit="20" d="M145.459 143.872h341.46"/></g><g><path fill="#2d5ca8" d="M445.91 139.103H210.67a5.836 5.836 0 0 1 0-11.672H445.91a5.836 5.836 0 1 1 0 11.672z"/></g><g><path fill="#2d5ca8" d="M167.299 133.268a3.114 3.114 0 1 1-6.227-.001 3.114 3.114 0 0 1 6.227 0z"/></g><g><path fill="none" stroke="#86bfef" stroke-miterlimit="20" d="M167.299 133.268a3.114 3.114 0 1 1-6.227-.001 3.114 3.114 0 0 1 6.227 0z"/></g><g><path fill="#2d5ca8" d="M179.289 133.268a3.113 3.113 0 1 1-6.227-.001 3.113 3.113 0 0 1 6.227 0z"/></g><g><path fill="none" stroke="#86bfef" stroke-miterlimit="20" d="M179.289 133.268a3.113 3.113 0 1 1-6.227-.001 3.113 3.113 0 0 1 6.227 0z"/></g><g><path fill="#2d5ca8" d="M191.28 133.268a3.114 3.114 0 1 1-6.228-.001 3.114 3.114 0 0 1 6.227 0z"/></g><g><path fill="none" stroke="#86bfef" stroke-miterlimit="20" d="M191.28 133.268a3.114 3.114 0 1 1-6.228-.001 3.114 3.114 0 0 1 6.227 0z"/></g><g><path fill="#2d5ca8" d="M391.472 398.704H240.905a8.38 8.38 0 0 1 8.38-8.38h133.808a8.38 8.38 0 0 1 8.38 8.38z"/></g><g><path fill="#86bfef" d="M478.717 129.378a1.229 1.229 0 1 1-2.457 0 1.229 1.229 0 0 1 2.457 0z"/></g><g><path fill="#86bfef" d="M478.717 133.267a1.228 1.228 0 1 1-2.456.001 1.228 1.228 0 0 1 2.456-.001z"/></g><g><path fill="#86bfef" d="M478.717 137.156a1.229 1.229 0 1 1-2.457 0 1.229 1.229 0 0 1 2.457 0z"/></g><g><path fill="none" stroke="#66adf2" stroke-miterlimit="20" d="M371.265 390.772H294.22"/></g><g><path fill="none" stroke="#66adf2" stroke-miterlimit="20" d="M285.576 390.772h-25.153"/></g><g><path fill="#66adf2" d="M595.148 399.434H37.229v-1.461h557.919z"/></g><g><path fill="#fdd305" d="M266.12 221.764c0-27.655 22.42-50.075 50.077-50.075 27.655 0 50.074 22.42 50.074 50.075a49.843 49.843 0 0 1-9.601 29.486c-7.148 10.77-25.72 22.93-25.72 30.217v8.323a3.009 3.009 0 0 1-3.008 3.009H304.452a3.009 3.009 0 0 1-3.01-3.01v-8.322c0-7.286-18.571-19.446-25.72-30.217h.002a49.838 49.838 0 0 1-9.603-29.486z"/></g><g><path fill="none" stroke="#fff" stroke-miterlimit="20" stroke-width="2" d="M322.325 291.948v0s-2.15-46.057 5.361-60.733c3.538-6.912 10.169-9.94 14.481-7.363 2.867 1.715 4.19 6.331 3.557 10.538-1.246 8.292-8.864 18.522-29.527 18.522-20.664 0-28.282-10.23-29.528-18.522-.633-4.207.69-8.823 3.557-10.538 4.312-2.578 10.943.451 14.481 7.363 7.512 14.676 5.361 60.733 5.361 60.733v0"/></g><g><path fill="none" stroke="#fe9" stroke-linecap="round" stroke-linejoin="bevel" stroke-miterlimit="20" stroke-width="5.5" d="M326.472 181.3c18.082 4.578 31.463 20.959 31.463 40.464"/></g><g><path fill="#fe9" d="M315.231 179.947a2.874 2.874 0 1 0 5.748-.002 2.874 2.874 0 0 0-5.748.002z"/></g><g opacity=".55"><g opacity=".55"><path fill="#ffc043" d="M366.175 224.725c-2.764 20.533-19.342 41.79-49.979 41.79s-46.596-22.251-49.979-41.79c.578 9.885 4.015 19 9.507 26.525h-.001c7.148 10.77 25.72 22.93 25.72 30.217v8.323a3.007 3.007 0 0 0 3.009 3.009h23.491a3.007 3.007 0 0 0 3.007-3.01v-8.322c0-7.286 18.573-19.446 25.72-30.217a49.807 49.807 0 0 0 9.506-26.525z"/></g></g><g><path fill="#28364c" d="M332.134 285.022H300.26v15.19c0 2.48.706 4.91 2.035 7.005a13.702 13.702 0 0 0 11.566 6.357h4.672c4.69 0 9.052-2.4 11.566-6.357a13.073 13.073 0 0 0 2.035-7.005z"/></g><g><path fill="#475577" d="M332.137 296.224a1.83 1.83 0 0 1-.276-.02l-31.873-4.417a1.989 1.989 0 1 1 .545-3.94l31.875 4.418a1.988 1.988 0 0 1-.271 3.959z"/></g><g><path fill="#475577" d="M332.137 303.177c-.092 0-.184-.007-.276-.02l-31.873-4.417a1.99 1.99 0 0 1 .545-3.94l31.875 4.417a1.988 1.988 0 0 1-.271 3.96z"/></g><g><path fill="#475577" d="M330.863 310.014c-.091 0-.183-.007-.275-.02l-30.212-4.186a1.99 1.99 0 0 1 .546-3.94l30.212 4.187a1.988 1.988 0 0 1-.271 3.959z"/></g><g><path fill="none" stroke="#86bfef" stroke-miterlimit="20" d="M395.565 318.933v2h-2v0"/></g><g><path fill="none" stroke="#86bfef" stroke-dasharray="3.968 3.968" stroke-miterlimit="20" d="M389.597 320.933H240.781"/></g><g><path fill="none" stroke="#86bfef" stroke-miterlimit="20" d="M238.798 320.933v0h-2v0-2 0"/></g><g><path fill="none" stroke="#86bfef" stroke-dasharray="3.968 3.968" stroke-miterlimit="20" d="M236.798 314.964V166.149"/></g><g><path fill="none" stroke="#86bfef" stroke-miterlimit="20" d="M236.798 164.164v0-2 0h2v0"/></g><g><path fill="none" stroke="#86bfef" stroke-dasharray="3.968 3.968" stroke-miterlimit="20" d="M242.765 162.164h148.816"/></g><g><path fill="none" stroke="#86bfef" stroke-miterlimit="20" d="M393.565 162.164v0h2v2"/></g><g><path fill="none" stroke="#86bfef" stroke-dasharray="3.968 3.968" stroke-miterlimit="20" d="M395.565 168.133v148.815"/></g><g><path fill="#86bfef" d="M238.862 164.23h-4.13v-4.131h4.13z"/></g><g><path fill="#86bfef" d="M397.661 164.23h-4.13v-4.131h4.13z"/></g><g><path fill="#86bfef" d="M238.862 322.998h-4.13v-4.131h4.13z"/></g><g><path fill="#86bfef" d="M397.661 322.998h-4.13v-4.131h4.13z"/></g><g><path fill="#cce4ff" d="M192.778 179.887h-25.479v-19.788h25.479z"/></g><g><path fill="#cce4ff" d="M222.257 179.887h-25.479v-19.788h25.479z"/></g><g><path fill="#d9edff" d="M192.778 203.075h-25.479v-19.788h25.479z"/></g><g><path fill="#d9edff" d="M222.257 203.075h-25.479v-19.788h25.479z"/></g><g><path fill="#e3f2ff" d="M192.778 226.263h-25.479v-19.788h25.479z"/></g><g><path fill="#e3f2ff" d="M222.257 226.263h-25.479v-19.788h25.479z"/></g><g><path fill="#e9f6ff" d="M192.778 249.451h-25.479v-19.788h25.479z"/></g><g><path fill="#e9f6ff" d="M222.257 249.451h-25.479v-19.788h25.479z"/></g><g><path fill="#eef8ff" d="M192.778 272.64h-25.479v-19.788h25.479z"/></g><g><path fill="#eef8ff" d="M222.257 272.64h-25.479v-19.788h25.479z"/></g><g><path fill="#f3faff" d="M192.778 295.827h-25.479v-19.788h25.479z"/></g><g><path fill="#f3faff" d="M222.257 295.827h-25.479v-19.788h25.479z"/></g><g><path fill="#e3f2ff" d="M468.032 221.227h-63.075V164.01a3.912 3.912 0 0 1 3.912-3.912h55.25a3.913 3.913 0 0 1 3.913 3.912z"/></g><g><path fill="none" stroke="#86bfef" stroke-miterlimit="20" d="M404.957 168.045h63.075"/></g><g><path fill="none" stroke="#cce4ff" stroke-miterlimit="20" d="M404.957 181.3h63.075"/></g><g><path fill="none" stroke="#cce4ff" stroke-miterlimit="20" d="M404.957 194.555h63.075"/></g><g><path fill="none" stroke="#cce4ff" stroke-miterlimit="20" d="M404.957 207.81h63.075"/></g><g><path fill="none" stroke="#86bfef" stroke-miterlimit="20" stroke-width=".75" d="M461.646 166.024l3.223-3.223"/></g><g><path fill="none" stroke="#86bfef" stroke-miterlimit="20" stroke-width=".75" d="M461.646 162.802l3.223 3.223"/></g><g><path fill="#86bfef" d="M454.995 166.386l-1.973-1.973 1.973-1.972z"/></g><g><path fill="#86bfef" d="M456.856 166.386l-1.973-1.973 1.973-1.972z"/></g><g><path fill="none" stroke="#cce4ff" stroke-miterlimit="20" d="M415.612 174.673v0s-1.585 2.32-3.54 2.32-3.54-2.32-3.54-2.32v0s1.585-2.32 3.54-2.32 3.54 2.32 3.54 2.32v0z"/></g><g><path fill="#cce4ff" d="M413.249 174.673a1.177 1.177 0 1 1-2.354-.002 1.177 1.177 0 0 1 2.354.002z"/></g><g><path fill="none" stroke="#cce4ff" stroke-miterlimit="20" d="M415.612 187.916v0s-1.585 2.32-3.54 2.32-3.54-2.32-3.54-2.32v0s1.585-2.32 3.54-2.32 3.54 2.32 3.54 2.32v0z"/></g><g><path fill="#cce4ff" d="M413.249 187.916a1.177 1.177 0 1 1-2.354-.002 1.177 1.177 0 0 1 2.354.002z"/></g><g><path fill="none" stroke="#cce4ff" stroke-miterlimit="20" d="M415.612 201.16v0s-1.585 2.32-3.54 2.32-3.54-2.32-3.54-2.32v0s1.585-2.32 3.54-2.32 3.54 2.32 3.54 2.32v0z"/></g><g><path fill="#cce4ff" d="M413.249 201.16a1.177 1.177 0 1 1-2.354-.002 1.177 1.177 0 0 1 2.354.001z"/></g><g><path fill="none" stroke="#cce4ff" stroke-miterlimit="20" d="M415.612 214.402v0s-1.585 2.32-3.54 2.32-3.54-2.32-3.54-2.32v0s1.585-2.32 3.54-2.32 3.54 2.32 3.54 2.32v0z"/></g><g><path fill="#cce4ff" d="M413.249 214.402a1.177 1.177 0 1 1-2.354-.001 1.177 1.177 0 0 1 2.354.001z"/></g><g><path fill="none" stroke="#cce4ff" stroke-miterlimit="20" d="M420.834 169.169v11.008"/></g><g><path fill="none" stroke="#cce4ff" stroke-miterlimit="20" d="M420.834 182.412v11.008"/></g><g><path fill="none" stroke="#cce4ff" stroke-miterlimit="20" d="M420.834 195.655v11.008"/></g><g><path fill="none" stroke="#cce4ff" stroke-miterlimit="20" d="M420.834 208.899v11.008"/></g><g><path fill="#fff" d="M187.553 240.717h-67.107v-92.752h51.02l16.086 16.085z"/></g><g><path fill="none" stroke="#86bfef" stroke-miterlimit="20" d="M187.553 240.717v0h-67.107v0-92.752 0h51.02v0l16.086 16.085v76.667z"/></g><g><path fill="#c0e3ff" d="M174.425 161.02H126.73v-2.063h47.695z"/></g><g><path fill="#c0e3ff" d="M181.268 168.653h-54.539v-2.063h54.539z"/></g><g><path fill="#c0e3ff" d="M181.268 176.287h-54.539v-2.063h54.539z"/></g><g><path fill="#c0e3ff" d="M181.268 183.921h-54.539v-2.063h54.539z"/></g><g><path fill="#c0e3ff" d="M181.268 191.556h-54.539v-2.063h54.539z"/></g><g><path fill="#c0e3ff" d="M181.268 199.189h-54.539v-2.063h54.539z"/></g><g><path fill="#c0e3ff" d="M181.268 206.823h-54.539v-2.063h54.539z"/></g><g><path fill="#c0e3ff" d="M181.268 214.457h-54.539v-2.063h54.539z"/></g><g><path fill="#c0e3ff" d="M181.268 222.091h-54.539v-2.063h54.539z"/></g><g><path fill="#c0e3ff" d="M153.999 229.726h-27.27v-2.063h27.27z"/></g><g><path fill="#fff" d="M171.467 164.05h16.086l-16.086-16.085z"/></g><g><path fill="none" stroke="#86bfef" stroke-linejoin="round" stroke-miterlimit="20" d="M171.467 164.05v0h16.086v0l-16.086-16.085v16.085z"/></g><g><path fill="#86bfef" d="M154.782 139.398l-.74.838-.74-.838-.74.838-.74-.838-.74.838-.74-.838-.809.915v11.8l.809.914.74-.837.74.837.74-.837.74.837.74-.837.74.837.809-.914v-11.8z"/></g><g><path fill="#ffa897" d="M78.65 365.537l-1.506 23.887-.193 7.192 28.202-.143a1.247 1.247 0 0 0 .434-2.414l-12.162-5.592 2.617-24.813z"/></g><g><path fill="#18277a" d="M107.627 396.169c-.288-.903-.817-1.918-1.351-2.147l-12.896-5.555c-7.108 2.882-16.31.679-16.31.679l-1.641 9.71a.582.582 0 0 0 .585.579l31.397-.162c.632-.002.225-3.076.216-3.104z"/></g><g><path fill="none" stroke="#5288ff" stroke-miterlimit="20" stroke-width=".75" d="M96.17 389.022a15.147 15.147 0 0 0-1.816 3.054"/></g><g><path fill="none" stroke="#5288ff" stroke-miterlimit="20" stroke-width=".75" d="M97.795 389.993c-.75 1.037-1.048 1.636-1.495 2.597"/></g><g><path fill="none" stroke="#5288ff" stroke-miterlimit="20" stroke-width=".75" d="M99.167 390.702c-.508.684-1.007 1.628-1.401 2.382"/></g><g><path fill="none" stroke="#5288ff" stroke-miterlimit="20" stroke-width=".75" d="M75.594 397.339l32.166-.165"/></g><g><path fill="none" stroke="#5288ff" stroke-miterlimit="20" stroke-width=".75" d="M76.488 392.59s7.556.153 8.206 4.705"/></g><g><path fill="none" stroke="#5288ff" stroke-miterlimit="20" stroke-width=".75" d="M103.633 392.883s-2.083 2.96-2.494 4.326"/></g><g><path fill="#5288ff" d="M95.99 278.223s5.761 21.896 5.716 49.756c-.036 21.85-1.845 55.664-1.845 55.664l-24.652-.476s2.897-48.162 2.486-59.856c-.411-11.693-3.356-32.562-3.356-32.562s-8.783-7.862-5.001-21.276z"/></g><g><path fill="none" stroke="#0d40bf" stroke-miterlimit="20" stroke-width=".75" d="M79.103 383.167v0s1.924-48.162 1.513-59.856c-.41-11.694-2.382-32.562-2.382-32.562v0"/></g><g><path fill="#7bc0ff" d="M100.827 385.793h-26.65l.312-5.657h26.65z"/></g><g><path fill="#ffa897" d="M50.07 353.644l-12.05 20.678-3.397 6.343 25.275 12.51a1.246 1.246 0 0 0 1.47-1.961l-8.365-10.45 13.46-21.008z"/></g><g><path fill="#18277a" d="M62.246 394.014c.147-.937.129-2.081-.245-2.525l-9.04-10.746c-7.646-.61-14.884-6.703-14.884-6.703l-5.818 7.945a.581.581 0 0 0 .262.779l28.14 13.929c.566.28 1.58-2.65 1.585-2.68z"/></g><g><path fill="none" stroke="#5288ff" stroke-miterlimit="20" stroke-width=".75" d="M55.208 382.491a15.225 15.225 0 0 0-2.994 1.914"/></g><g><path fill="none" stroke="#5288ff" stroke-miterlimit="20" stroke-width=".75" d="M56.224 384.087c-1.134.59-1.67.99-2.5 1.65"/></g><g><path fill="none" stroke="#5288ff" stroke-miterlimit="20" stroke-width=".75" d="M57.133 385.335c-.76.383-1.63 1.004-2.32 1.502"/></g><g><path fill="none" stroke="#5288ff" stroke-miterlimit="20" stroke-width=".75" d="M33.087 380.702l28.827 14.27"/></g><g><path fill="none" stroke="#5288ff" stroke-miterlimit="20" stroke-width=".75" d="M36.013 376.857s6.687 3.524 5.227 7.885"/></g><g><path fill="none" stroke="#5288ff" stroke-miterlimit="20" stroke-width=".75" d="M60.148 389.286s-3.189 1.713-4.169 2.75"/></g><g><path fill="#5288ff" d="M82.56 278.941s2.396 28.146-1.122 52.048c-3.405 23.126-20.01 47.147-20.01 47.147l-22.049-9.706s14.066-28.593 16.774-40.453c2.178-9.535 2.152-30.08 1.505-35.517a7.54 7.54 0 0 0-.84-2.624c-1.108-2.096-3.128-7.36-1.569-15.94z"/></g><g><path fill="none" stroke="#0d40bf" stroke-miterlimit="20" stroke-width=".75" d="M43.274 368.43v0s14.098-28.585 16.773-40.452c1.867-8.276 2.154-30.081 1.506-35.518a7.507 7.507 0 0 0-.84-2.624c-1.108-2.095-3.128-7.36-1.568-15.94"/></g><g><path fill="#7bc0ff" d="M60.817 381.69l-23.822-11.944 2.814-4.917 23.822 11.943z"/></g><g><path fill="none" stroke="#0d40bf" stroke-miterlimit="20" stroke-width=".75" d="M83.534 278.941v0s2.87 29.104-2.096 52.048c-1.123 5.187-2.227 10.548-4.012 15.6"/></g><g><path fill="none" stroke="#0d40bf" stroke-miterlimit="20" stroke-width=".75" d="M59.306 286.08c.042.16 8.46.008 10.99-5.013"/></g><g><path fill="none" stroke="#0d40bf" stroke-miterlimit="20" stroke-width=".75" d="M84.36 292.47v0s2.666-.002 2.704-1.19c.062-1.867 0-12.126 0-12.126v0"/></g><g><path fill="none" stroke="#0d40bf" stroke-miterlimit="20" stroke-width=".75" d="M91.366 279.88s1.051 4.896 6.108 5.768"/></g><g><path fill="#91351d" d="M86.55 204.668c.324 2.873 3.893 4.492 4.344 7.349.276 1.76-.686 3.77.318 5.244.314.459.787.796 1.07 1.273.432.729.343 1.677-.033 2.435s-1 1.36-1.636 1.918c-1.332 1.165-2.815 2.225-4.524 2.679-1.71.453-3.686.204-4.984-.998-.654-.605-1.094-1.402-1.477-2.206-1.342-2.814-2.117-5.935-1.952-9.048.165-3.114 1.31-6.213 3.429-8.501z"/></g><g><path fill="#91351d" d="M75.02 201.8c-2.074-.62-2.76-2.867-1.367-4.086.675-.59 1.55-1.01 2.443-.936 2.552.206 2.506 4.426.071 4.747z"/></g><g><path fill="#ffa897" d="M81.055 237.662s9.354 9.203 18.206 15.805c7.794 5.811 26.273 12.563 26.273 12.563l4.447-9.824s-9.863-4.398-20.795-13.806c-7.045-6.06-13.233-12.675-13.233-12.675z"/></g><g><path fill="#ffa897" d="M119.725 251.054c4.835 2.349 19.32 9.618 19.316 10.373-.002.754-2.358-.06-2.245.56.114.62 5.526 2.893 5.322 3.646-.277 1.02-5.694-1.603-5.694-1.603s5.79 3.17 5.295 3.986c-.35.578-4.882-1.64-6.72-2.27 1.906.937 4.812 2.82 4.435 3.412-.375.587-3.49-.855-5.938-1.833 1.47.752 4.071 2.268 3.75 2.832-.324.56-9.474-2.826-16.428-5.932z"/></g><g><path fill="#18277a" d="M81.956 223.116s5.423-.854 10.615 2.385c3.826 2.386 8.714 6.495 14.396 13.9L92.57 250.42l-11.89-16.696z"/></g><g><path fill="#18277a" d="M97.151 231.814l1.297 51.913s-31.57 2.228-45.706-5.157c6.023-40.605 10.975-50.907 10.975-50.907l11.273-4.898z"/></g><g><path fill="none" stroke="#5565aa" stroke-miterlimit="20" stroke-width=".75" d="M71.27 224.691v0s1.37 2.971 7.027 2.971c5.658 0 6.531-2.2 6.531-2.2v0"/></g><g><path fill="#ff8d27" d="M136.356 233.726l14.728 13.202-50.237 55.52-14.727-13.202z"/></g><g><path fill="#ffbc45" d="M140.755 237.669l5.93 5.315-50.236 55.52-5.93-5.315z"/></g><g><path fill="#91351d" d="M86.12 289.245l14.728 13.202-2.42 2.7L83.7 291.944z"/></g><g><path fill="#fe9" d="M80.844 302.796l7.108 6.37a5.117 5.117 0 0 0 7.225-.393l3.25-3.625L83.7 291.944l-3.25 3.625a5.12 5.12 0 0 0 .396 7.227z"/></g><g><path fill="#ffdacf" d="M151.084 246.928l4.105-17.371c.28-1.186-.863-2.211-2.011-1.804l-16.822 5.973z"/></g><g opacity=".55"><g opacity=".55"><path fill="#ffdacf" d="M146.685 242.984l7.903-13.967c.54-.953.08-1.366-.809-.725l-13.025 9.377z"/></g></g><g><path fill="#5288ff" d="M152.344 230.708a4.556 4.556 0 0 0 2.313 1.105l.532-2.256c.28-1.186-.864-2.211-2.012-1.804l-2.186.776c.227.81.675 1.573 1.352 2.179z"/></g><g><path fill="#ffa897" d="M61.853 245.752s6.516 11.659 14.926 19.577c7.404 6.972 25.803 16.196 25.803 16.196l5.793-9.677s-12.548-7.876-22.786-18.959c-6.595-7.142-11.34-16.237-11.34-16.237z"/></g><g><path fill="#ffa897" d="M98.334 265.268c4.743 3.019 18.928 12.304 18.835 13.088-.093.783-2.445-.344-2.4.314.044.658 5.395 3.666 5.093 4.425-.41 1.027-5.725-2.348-5.725-2.348s5.638 3.988 5.026 4.776c-.433.559-4.877-2.286-6.712-3.16 1.868 1.2 4.663 3.504 4.2 4.075-.46.565-3.524-1.307-5.95-2.616 1.438.959 3.959 2.844 3.556 3.39-.402.547-9.506-4.067-16.361-8.126z"/></g><g><path fill="#18277a" d="M67.013 224.019c-3.838 2.112-8.62 6.18-8.624 13.337-.004 8.944 8.625 18.426 8.625 18.426l14.551-8.96-6.388-10.586z"/></g><g><path fill="none" stroke="#5565aa" stroke-miterlimit="20" stroke-width=".75" d="M81.565 246.821l-5.455-9.039"/></g><g><path fill="none" stroke="#5565aa" stroke-miterlimit="20" stroke-width=".75" d="M67.014 255.781s-5.16-6.335-7.819-12.797"/></g><g><path fill="none" stroke="#5565aa" stroke-miterlimit="20" stroke-width=".75" d="M97.526 246.821l-.256-10.229"/></g><g><path fill="#ffa897" d="M83.493 217.676l-.122 7.479s-1.38 1.452-5.425 1.026c-3.851-.405-4.661-1.9-4.661-1.9l1.192-11.031z"/></g><g><path fill="#ffa897" d="M86.135 206.658c2.122 6.87 2.507 12.631-2.142 13.642-4.897 1.065-9.634-1.807-9.527-7.69.112-6.184 10.08-9.807 11.67-5.952z"/></g><g><path fill="none" stroke="#e86d5d" stroke-linejoin="round" stroke-miterlimit="20" stroke-width=".75" d="M83.493 220.577c-2.448.315-5.196.097-7.383-2.712"/></g><g><path fill="#ff855a" d="M75.112 212.1c.004 0 .004-.005 0-.005-.003 0-.003.006 0 .006z"/></g><g><path fill="#ff855a" d="M75.076 212.107c.009.021.016.04.023.061.008.017.027.032.047.025.018-.005.034-.026.027-.046-.01-.019-.016-.04-.024-.06-.008-.018-.026-.033-.047-.026-.017.006-.033.026-.026.046z"/></g><g><path fill="#91351d" d="M80.028 206.933c2.162.345 5.144.482 8.01-.827-1.11-2.204-2.03-5.686-6.4-4.481-4.439-2.331-11.104.593-12.826 4.994-.408 1.042-.65 2.18-1.346 3.058-.54.68-1.308 1.14-2.086 1.527-1.716.856-3.593 1.455-5.076 2.67-1.482 1.216-2.485 3.323-1.698 5.07.208.463.528.87.707 1.345.383 1.012.073 2.135.024 3.216-.13 2.865 1.844 5.698 4.578 6.565s5.98-.308 7.525-2.724c.48-.75.82-1.613 1.48-2.211 1.048-.95 2.028-1.325 3.167-2.165 1.771-1.307 1.792-3.937 1.337-6.09-.64-3.033-.544-7.502 2.604-9.947z"/></g><g><path fill="#ffa897" d="M77.941 213.57c-.012-.195-.3-.739-.943-.905-1.133-.29-1.704 1.12-1.49 2.187.133.67.413 1.18.923 1.666.671.643 1.491.733 1.866-.153z"/></g><g><path fill="none" stroke="#e86d5d" stroke-linejoin="round" stroke-miterlimit="20" stroke-width=".75" d="M83.658 211.398v0s1.586 2.39 1.445 3.06c-.141.67-1.732.765-1.732.765v0"/></g><g><path fill="#fff" d="M85.122 216.03l-4.338.647s.85 2.235 3.207 1.715c1.682-.37 1.13-2.363 1.13-2.363z"/></g><g><path fill="#00276f" d="M84.828 210.702c.009.078.015.158.029.235l.029.142c.019.098.035.196.068.29.034.098.09.183.182.236a.293.293 0 0 0 .146.047.29.29 0 0 0 .157-.008.393.393 0 0 0 .236-.18.436.436 0 0 0 .04-.305c-.023-.097-.062-.188-.097-.282a3.976 3.976 0 0 0-.15-.349l-.053-.069a.241.241 0 0 0-.11-.07.327.327 0 0 0-.375.07.243.243 0 0 0-.072.11.274.274 0 0 0-.03.133z"/></g><g><path fill="none" stroke="#00276f" stroke-linecap="round" stroke-linejoin="round" stroke-miterlimit="20" stroke-width=".5" d="M84.015 209.614s.66-.903 1.63-.208"/></g><g><path fill="#00276f" d="M79.893 211.904c.004.077.01.152.02.23l.021.151c.015.1.024.2.053.295a.41.41 0 0 0 .18.236.314.314 0 0 0 .147.047.29.29 0 0 0 .157-.008.394.394 0 0 0 .236-.18l.04-.095a.39.39 0 0 0 0-.209c-.016-.097-.049-.189-.079-.282-.014-.047-.028-.094-.044-.14-.015-.046-.037-.09-.056-.136a.238.238 0 0 0-.062-.117.254.254 0 0 0-.095-.089l-.082-.034a.25.25 0 0 0-.138-.006.168.168 0 0 0-.087.024.253.253 0 0 0-.11.07.343.343 0 0 0-.1.243z"/></g><g><path fill="none" stroke="#00276f" stroke-linecap="round" stroke-linejoin="round" stroke-miterlimit="20" stroke-width=".5" d="M80.68 210.145s-1.065-.354-2.157.912"/></g><g><path fill="#ffa897" d="M567.64 291.712s2.346 32.542 5.083 44.28c4.697 20.142 19.992 42.316 19.992 42.316l-4.58 4.538-6.798 3.237s-19.62-21.647-26.356-40.086c-7.74-21.186-9.567-52.46-9.567-52.46z"/></g><g><path fill="#2e7efa" d="M572.562 397.17c-.217-.82-.305-1.841-.013-2.271l7.064-10.392c6.75-1.243 12.636-7.33 12.636-7.33l5.908 6.54a.524.524 0 0 1-.164.719l-23.775 14.973c-.478.302-1.649-2.214-1.656-2.24z"/></g><g><path fill="none" stroke="#1a3987" stroke-linejoin="round" stroke-miterlimit="20" stroke-width=".75" d="M577.773 386.269c.998.363 1.953.845 2.84 1.43"/></g><g><path fill="none" stroke="#1a3987" stroke-linejoin="round" stroke-miterlimit="20" stroke-width=".75" d="M577.014 387.781c1.063.423 1.576.73 2.376 1.241"/></g><g><path fill="none" stroke="#1a3987" stroke-linejoin="round" stroke-miterlimit="20" stroke-width=".75" d="M576.32 388.977c.711.27 1.542.744 2.202 1.124"/></g><g><path fill="none" stroke="#1a3987" stroke-linejoin="round" stroke-miterlimit="20" stroke-width=".75" d="M597.302 382.651l-24.356 15.341"/></g><g><path fill="none" stroke="#1a3987" stroke-linejoin="round" stroke-miterlimit="20" stroke-width=".75" d="M594.345 379.497s-5.63 3.75-3.932 7.497"/></g><g><path fill="none" stroke="#1a3987" stroke-linejoin="round" stroke-miterlimit="20" stroke-width=".75" d="M573.997 392.77s2.996 1.232 3.963 2.065"/></g><g><path fill="#ffa897" d="M545.138 304.254s-1.326 20.223-2.248 35.69c-.922 15.468-2.727 50.775-2.727 50.775l-6.693 1.58-7.426-1.237s-1.927-30.483-1.927-50.68c0-20.887.805-50.491.805-50.491z"/></g><g><path fill="#2e7efa" d="M512.882 396.512c.258-.808.73-1.716 1.209-1.922l11.54-4.97c6.362 2.579 14.597.608 14.597.608l1.468 8.689a.522.522 0 0 1-.523.518l-28.098-.144c-.565-.003-.201-2.754-.193-2.78z"/></g><g><path fill="none" stroke="#1a3987" stroke-linejoin="round" stroke-miterlimit="20" stroke-width=".75" d="M523.134 390.117a13.637 13.637 0 0 1 1.627 2.732"/></g><g><path fill="none" stroke="#1a3987" stroke-linejoin="round" stroke-miterlimit="20" stroke-width=".75" d="M521.68 390.986c.67.927.937 1.463 1.338 2.322"/></g><g><path fill="none" stroke="#1a3987" stroke-linejoin="round" stroke-miterlimit="20" stroke-width=".75" d="M520.453 391.62c.454.611.9 1.457 1.254 2.132"/></g><g><path fill="none" stroke="#1a3987" stroke-linejoin="round" stroke-miterlimit="20" stroke-width=".75" d="M541.548 397.559l-28.784-.147"/></g><g><path fill="none" stroke="#1a3987" stroke-linejoin="round" stroke-miterlimit="20" stroke-width=".75" d="M540.748 393.309s-6.762.138-7.344 4.212"/></g><g><path fill="none" stroke="#1a3987" stroke-linejoin="round" stroke-miterlimit="20" stroke-width=".75" d="M516.456 393.571s1.864 2.65 2.232 3.871"/></g><g><path fill="#ffa897" d="M528.31 246.083s-12.016 14.529-20.573 13.564c-10.509-1.185-20.572-30.597-20.572-30.597s1.33-13.734 6.413-10.328c0 0 12.526 22.499 16.63 24.215 1.717.716 7.828-8.542 7.828-8.542z"/></g><g><path fill="#ffa897" d="M499.209 228.331c-2.28-4.365-8.8-19.143-9.674-19.09-.875.054.795 4.148.068 4.057-.726-.09-3.721-6.216-4.581-5.93-1.166.388 2.238 6.497 2.238 6.497s-1.111-1.48-2.024-.852c-.647.445.124 2.618.124 2.618s-1.065-.989-1.728-.513c-.656.473 0 2.36 0 2.36s-.975-.76-1.354-.107c-.64 1.106 3.02 8 6.905 16.991z"/></g><g><path fill="none" stroke="#e86d5d" stroke-linejoin="round" stroke-miterlimit="20" stroke-width=".75" d="M490.209 214.382c0 2.484-1.438 3.975-.514 6.799"/></g><g><path fill="#e86d5d" d="M482.884 220.173c.364.494.752.97 1.184 1.389.214.207.453.396.7.513.243.129.51.102.54-.045.069-.166.009-.478-.072-.743-.08-.276-.204-.55-.324-.821a18.642 18.642 0 0 0-.858-1.58.325.325 0 0 1 .547-.348l.007.01c.359.523.775 1.045 1.232 1.46.226.206.476.392.7.468a.455.455 0 0 0 .262.025c-.028-.014.01.028.02-.103.048-.468-.157-1.164-.36-1.758a23.189 23.189 0 0 0-.733-1.82l.632-.3c.295.645.637 1.287 1.005 1.887.186.295.39.592.614.792.117.095.19.11.172.109a.656.656 0 0 0 .097-.33c.054-.664-.078-1.405-.184-2.114-.121-.716-.278-1.43-.433-2.144.272.68.497 1.377.7 2.084.199.71.389 1.416.38 2.213-.017.196-.008.427-.246.68a.551.551 0 0 1-.484.097.991.991 0 0 1-.333-.17c-.341-.267-.566-.57-.792-.875-.434-.62-.79-1.264-1.13-1.93a.35.35 0 1 1 .624-.318v.002l.008.014c.306.613.563 1.234.797 1.88.209.66.484 1.27.394 2.139-.014.204-.186.556-.526.666-.268.073-.517.04-.718-.035-.405-.15-.69-.391-.955-.633-.514-.502-.915-1.05-1.291-1.638l.553-.34c.31.55.563 1.115.795 1.7.109.296.218.59.289.909.055.318.159.649-.02 1.054-.087.218-.36.319-.547.323a1.073 1.073 0 0 1-.521-.17c-.288-.18-.51-.41-.711-.65a8.227 8.227 0 0 1-1.014-1.55z"/></g><g><path fill="#18277a" d="M528.125 267.628s-5.894 10.401-6.24 21.842c-.347 11.441 0 31.377 0 31.377 13.895 2.656 45.003 2.325 51.479 0 0 0-2.266-27.211-4.527-36.752-2.782-11.746-9.514-16.467-9.514-16.467l-15.77-11.095z"/></g><g><path fill="none" stroke="#5565aa" stroke-miterlimit="20" stroke-width=".75" d="M554.135 267.059c5.162 4.786 11.778 9.336 14.628 54.717"/></g><g><path fill="none" stroke="#5565aa" stroke-miterlimit="20" stroke-width=".75" d="M549.07 268.817s3.53 6.073 11.172 5.62"/></g><g><path fill="none" stroke="#5565aa" stroke-miterlimit="20" stroke-width=".75" d="M539.258 268.25s-.286 7.925 0 12.509"/></g><g><path fill="none" stroke="#5565aa" stroke-miterlimit="20" stroke-width=".75" d="M539.153 277.99v0s-2.092.495-2.474-.937c-.38-1.432 0-9.663 0-9.663v0"/></g><g><path fill="#ffa897" d="M563.682 276.642c.123 5.449-1.677 16.23-.948 16.635.727.403 1.51-3.447 2.05-2.995.54.45.008 7.258.836 7.454 1.123.264 1.318-6.74 1.318-6.74s.142 7.683 1.178 7.61c.733-.05.877-5.918 1.194-8.152-.057 2.468-.017 7.542.743 7.472.754-.07 1.187-4.525 1.475-7.577-.014 1.923-.005 6.115.7 6.086.703-.03 2.235-12.257 2.74-21.105z"/></g><g><path fill="#2e7efa" d="M545.281 222.32l-10.907.603s-7.463.5-11.698 5.137c-3.62 3.961-7.899 9.71-7.899 9.71l11.961 10.234 8.37-10.235z"/></g><g><path fill="#2e7efa" d="M528.125 233.155c-4.27 6.563-5.547 9.781-2.427 18.697l2.427 15.776s13.299 5.666 31.198 0c0 0 2.606-21.07.872-35.065l-11.992-10.244-13.83.604z"/></g><g><path fill="#ffa897" d="M536.484 203.88s-4.007 10.415-1.002 13.59c1.562 1.649 6.981.733 9.022-.825 1.513-1.157 3.513-8.087 2.697-9.393-3.118-4.993-10.717-3.371-10.717-3.371z"/></g><g><path fill="#ffa897" d="M547.795 213.047l.408 9.272c-.812 2.583-9.516 5.04-10.907.604l.868-6.713z"/></g><g><path fill="#0b0b3a" d="M552.731 210.65c.807-2.115.395-4.858-.157-6.416a8.561 8.561 0 0 0-4.37-4.818c-2.015-.95-6.192-1.12-9.314.724-1.595-.163-3.28.284-4.465 1.365-1.183 1.081-1.787 2.821-1.352 4.364l8.901-1.018a8.45 8.45 0 0 0 3.124 3.986c1.374.938 2.886 2.11 2.317 4.026-.238.8.511 3.501.511 3.501s2.892-.704 4.805-5.715z"/></g><g><path fill="#ffa897" d="M546.438 211.39c.945-1.461 1.835-1.326 2.38-.623.726.936-.348 3.127-.905 3.537-1.13.829-2.107.845-2.29-.12z"/></g><g><path fill="none" stroke="#e86d5d" stroke-linejoin="round" stroke-miterlimit="20" stroke-width=".75" d="M537.927 218.633c3.85.158 6.577-1.988 6.577-1.988"/></g><g><path fill="none" stroke="#e86d5d" stroke-linejoin="round" stroke-miterlimit="20" stroke-width=".75" d="M538.686 209.151v0s-2.556 2.22-2.496 2.914c.06.695 1.655.987 1.655.987v0"/></g><g><path fill="#fff" d="M535.975 213.651l4.304 1.193s-1.136 2.153-3.454 1.335c-1.654-.583-.85-2.528-.85-2.528z"/></g><g><path fill="#00276f" d="M536.29 208.088c-.027.042-.058.083-.081.127l-.07.134-.071.133a1.82 1.82 0 0 0-.095.223.29.29 0 0 0-.008.157.297.297 0 0 0 .047.147c.02.026.04.054.062.08a.29.29 0 0 0 .127.08c.03.02.064.028.099.028.052.012.105.01.158-.006a.391.391 0 0 0 .235-.182c.036-.073.068-.148.094-.225.016-.047.03-.094.048-.142l.047-.143c.015-.048.024-.098.036-.146a.36.36 0 0 0-.034-.265c-.02-.023-.036-.046-.054-.07a.246.246 0 0 0-.111-.071.177.177 0 0 0-.087-.023.256.256 0 0 0-.137.006.367.367 0 0 0-.205.158z"/></g><g><path fill="none" stroke="#00276f" stroke-linecap="round" stroke-linejoin="round" stroke-miterlimit="20" stroke-width=".5" d="M537.89 207.306s-.555-.994-1.62-.412"/></g><g><path fill="#00276f" d="M541.127 209.915c-.025.044-.053.088-.074.133l-.061.135c-.053.12-.113.237-.151.362a.408.408 0 0 0 .04.304.317.317 0 0 0 .1.111.307.307 0 0 0 .136.07.399.399 0 0 0 .304-.04l.08-.06a.41.41 0 0 0 .102-.175 2.652 2.652 0 0 1-.028.063c.022-.05.048-.102.063-.157l.016-.063.038-.138c.013-.046.027-.092.038-.139.01-.046.017-.094.025-.14a.26.26 0 0 0 .007-.138.269.269 0 0 0-.041-.128c-.02-.022-.036-.046-.054-.069a.267.267 0 0 0-.11-.072.183.183 0 0 0-.087-.023.26.26 0 0 0-.138.007.354.354 0 0 0-.205.157z"/></g><g><path fill="none" stroke="#00276f" stroke-linecap="round" stroke-linejoin="round" stroke-miterlimit="20" stroke-width=".5" d="M541.193 208.256s1.121-.226 2.067 1.189"/></g><g><path fill="#0b0b3a" d="M549.534 201.565c-1.715-1.926.577-4.775 2.763-4.845 2.988-.094 4.823 3.003 2.867 5.477-1.097 1.386-3.257 1.782-4.774.876z"/></g><g><path fill="#0b0b3a" d="M555.71 199.78c-.117-.157-.004-.379.12-.53.62-.75 1.6-1.224 2.569-1.128 1.085.106 1.984 1.091 2.234 2.13.327 1.362-.621 2.455-1.857 2.905-.752.275-1.893.098-2.597-.285-.704-.384-1.171-1.238-.961-2.012z"/></g><g><path fill="#0b0b3a" d="M559.962 200.92c.674-.463 1.132-1.195 2.282-.78.849.305 1.772 1.368 1.39 2.546-.266.825-.964 1.323-1.778 1.416-1.032.118-1.698-.292-2.317-1.07-.2-.25-.306-.595-.2-.898z"/></g><g><path fill="#0b0b3a" d="M563.589 202.477c-.11.076-.193-.14-.136-.26.163-.34.61-.473.976-.374.364.1.94.406 1.164.713.47.647.406 1.56-.067 2.204-.458.623-1.427.703-2.091.308-.664-.396-1.046-1.15-1.191-1.91z"/></g><g><path fill="#0b0b3a" d="M564.806 204.265c.23 1.076.342 2.179.334 3.279.745-.068 1.49-.136 2.234-.206.185-.016.412-.07.452-.251.025-.118-.048-.233-.119-.332-.922-1.305-1.966-2.698-3.506-3.126z"/></g><g><path fill="none" stroke="#1a3987" stroke-linejoin="round" stroke-miterlimit="20" stroke-width=".75" d="M523.968 245.635s-.169-6.698 3.383-11.272"/></g><g><path fill="#ffa897" d="M567.054 235.335s4.701 8.022 6.96 16.588c3.113 11.798-.139 33.702-.139 33.702l-10-5.196s-.662-20.723-3.938-27.335c-2.576-5.2-5.802-12.192-5.802-12.192z"/></g><g><path fill="#2e7efa" d="M548.203 222.32s11.095.765 16.532 7.817c6.299 8.172 8.629 17.036 8.629 17.036l-15.216 6.054-7.113-10.29z"/></g><g><path fill="none" stroke="#1a3987" stroke-linejoin="round" stroke-miterlimit="20" stroke-width=".75" d="M558.148 253.228l-5.694-10.291"/></g><g><path fill="none" stroke="#1a3987" stroke-linejoin="round" stroke-miterlimit="20" stroke-width=".75" d="M556.99 251.133c-.021-.035 15.699-6.16 15.699-6.16"/></g><g><path fill="none" stroke="#1a3987" stroke-linejoin="round" stroke-miterlimit="20" stroke-width=".75" d="M524.145 242.936l-7.844-7.169"/></g><g><path fill="#ffa897" d="M455.914 206.613l2.22 11.161s-6.25 6.327-12.796.438l.074-7.483z"/></g><g><path fill="#ffa897" d="M444.086 196.096s-5.335 10.67-2.032 14.2c1.717 1.834 4.232 2.532 6.498.82 1.68-1.268 8.128-8.918 7.233-10.37-3.417-5.54-11.7-4.65-11.7-4.65z"/></g><g><path fill="#ffa897" d="M441.959 202.108s-1.968 1.961-1.968 3.26c0 .573 1.968.661 1.968.661z"/></g><g><path fill="#fff" d="M442.053 207.123l3.467-.51c.17 1.315-2.413 4.593-3.467.51z"/></g><g><path fill="#00276f" d="M444.063 201.923c-.01.04-.026.08-.037.12-.01.042-.013.086-.022.128a1.365 1.365 0 0 1-.079.247l.034-.083c-.027.065-.066.128-.084.195-.024.086-.054.19-.02.275.03.076.068.148.146.188l.075.033a.341.341 0 0 0 .168 0c.081-.012.143-.072.194-.132.026-.032.06-.068.078-.1.023-.036.036-.078.051-.12.025-.064.045-.13.06-.197.02-.093.033-.188.04-.282a.79.79 0 0 0-.039-.272c-.035-.12-.153-.221-.282-.215-.128.006-.25.087-.283.215z"/></g><g><path fill="none" stroke="#00276f" stroke-linecap="round" stroke-linejoin="round" stroke-miterlimit="20" stroke-width=".5" d="M446.25 201.291a2.224 2.224 0 0 0-1.65-.978c-.284-.022-.587.018-.81.197"/></g><g><path fill="#0b0b3a" d="M457.303 196.398a6.262 6.262 0 0 0-.787-.371c-.292-.114-.599-.216-.827-.43-.143-.135-.246-.304-.358-.465-1.056-1.513-2.944-2.253-4.78-2.436-1.012-.102-7.786-.002-9.696 6.253 1.175-.087 2.351-.16 3.53-.225.787-.04 1.59-.076 2.356.112.19.045.382.11.52.248.096.096.156.223.216.346.5 1.046 1.033 2.06 1.361 3.168.331 1.115.847 2.18 1.204 3.29.332 1.032.367 2.517 1.202 3.217.907.762 3.148 2.99 5.596 2.167 1.415-3.59 3.082-7.921 2.551-11.742-.069-.496-.173-.993-.39-1.445-.354-.732-.98-1.286-1.698-1.687z"/></g><g><path fill="#ffa897" d="M448.423 204.07c.378-2.229 2.473-1.317 3.07-.537.798 1.041-.403 3.457-1.022 3.906-1.255.91-2.334.922-2.531-.145z"/></g><g><path fill="none" stroke="#e86d5d" stroke-linejoin="round" stroke-miterlimit="20" stroke-width=".75" d="M445.52 212.248c2.42-.752 3.932-1.952 3.932-1.952"/></g><g><path fill="#ffa897" d="M473.162 362.242l1.538 26.208.197 7.893-28.83-.159c-.703-.004-1.27-.62-1.266-1.375.003-.566.33-1.072.822-1.272l12.434-6.137-2.675-27.223z"/></g><g><path fill="#dd6b0e" d="M443.539 395.852c.295-.991.836-2.104 1.38-2.356l13.184-6.095c7.267 3.162 16.673.745 16.673.745l1.678 10.654c-.002.353-.27.637-.598.635l-32.096-.177c-.646-.003-.23-3.375-.221-3.406z"/></g><g><path fill="none" stroke="#992913" stroke-miterlimit="20" stroke-width=".75" d="M455.25 388.01a16.898 16.898 0 0 1 1.858 3.35"/></g><g><path fill="none" stroke="#992913" stroke-miterlimit="20" stroke-width=".75" d="M453.59 389.076c.766 1.137 1.07 1.794 1.528 2.848"/></g><g><path fill="none" stroke="#992913" stroke-miterlimit="20" stroke-width=".75" d="M452.187 389.853c.52.75 1.03 1.786 1.433 2.613"/></g><g><path fill="none" stroke="#992913" stroke-miterlimit="20" stroke-width=".75" d="M476.284 397.135l-32.881-.181"/></g><g><path fill="none" stroke="#992913" stroke-miterlimit="20" stroke-width=".75" d="M475.37 391.924s-7.723.169-8.388 5.164"/></g><g><path fill="none" stroke="#992913" stroke-miterlimit="20" stroke-width=".75" d="M447.622 392.246s2.13 3.248 2.55 4.746"/></g><g><path fill="#142251" d="M450.978 278.166s-1.238 29.658-.04 54.288c1.08 22.209 4.323 49.419 4.323 49.419h21.051s-3.528-35.755-4.229-49.419c-.807-15.786-.827-35.435-.827-35.435s1.998-11.073.02-18.849z"/></g><g><path fill="none" stroke="#182e6b" stroke-miterlimit="20" stroke-width=".75" d="M453.7 278.166v0s-1.238 29.658-.04 54.288c1.08 22.209 4.323 49.419 4.323 49.419v0"/></g><g><path fill="#ffa897" d="M448.186 362.242l1.54 26.208.195 7.893-28.829-.159c-.703-.004-1.27-.62-1.267-1.375.003-.566.33-1.072.823-1.272l12.434-6.137-2.676-27.223z"/></g><g><path fill="#ff8d27" d="M418.564 395.852c.294-.991.835-2.104 1.38-2.356l13.183-6.095c7.267 3.162 16.673.745 16.673.745l1.678 10.654c0 .353-.269.637-.598.635l-32.095-.177c-.646-.003-.23-3.375-.22-3.406z"/></g><g><path fill="none" stroke="#c44220" stroke-miterlimit="20" stroke-width=".75" d="M430.274 388.01a16.953 16.953 0 0 1 1.86 3.35"/></g><g><path fill="none" stroke="#c44220" stroke-miterlimit="20" stroke-width=".75" d="M428.615 389.076c.765 1.137 1.07 1.794 1.527 2.848"/></g><g><path fill="none" stroke="#c44220" stroke-miterlimit="20" stroke-width=".75" d="M427.212 389.853c.52.75 1.029 1.786 1.433 2.613"/></g><g><path fill="none" stroke="#c44220" stroke-miterlimit="20" stroke-width=".75" d="M451.31 397.135l-32.882-.181"/></g><g><path fill="none" stroke="#c44220" stroke-miterlimit="20" stroke-width=".75" d="M450.396 391.924s-7.725.169-8.39 5.164"/></g><g><path fill="none" stroke="#c44220" stroke-miterlimit="20" stroke-width=".75" d="M422.646 392.246s2.13 3.248 2.55 4.746"/></g><g><path fill="#18277a" d="M429.715 278.166s-2.122 35.397-1.277 57.616c.844 22.219 2.048 46.091 2.048 46.091h22.006s-.636-37.266-.123-50.938c.515-13.673 2.737-35.46 2.737-35.46s4.858-5.869 2.02-19.1z"/></g><g><path fill="none" stroke="#304dc6" stroke-miterlimit="20" stroke-width=".75" d="M433.401 278.166v0s-2.205 35.397-1.327 57.616c.878 22.219 2.13 46.091 2.13 46.091v0"/></g><g><path fill="none" stroke="#304dc6" stroke-miterlimit="20" stroke-width=".75" d="M440.822 284.51s6.443.226 9.574 0"/></g><g><path fill="none" stroke="#304dc6" stroke-miterlimit="20" stroke-width=".75" d="M464.854 284.51s3.797.1 6.354 0"/></g><g><path fill="#ffa897" d="M473.365 233.156s6.05 8.932 7.226 17.837c1.176 8.906-8.054 25.558-8.054 25.558l-14.403 1.567s6.428-18.723 6.428-24.1c0-7.078-4.303-14.955-4.303-14.955z"/></g><g><path fill="#ffa897" d="M431.551 243.412s-11.979 16.346-22.285 10.954c-9.37-4.9-21.499-16.983-21.499-16.983s3.858-12.124 8.941-8.719c5.965 4.756 10.864 9.25 14.97 10.964 1.717.718 12.211-10.926 12.211-10.926z"/></g><g><path fill="#ffa897" d="M399.431 230.887c-3.697-2.666-13.14-12.148-13.983-11.748-.844.4 2.434 3.78 1.68 3.979-.753.2-6.149-4.658-6.884-4.033-.997.847 4.795 5.527 4.795 5.527s-6.599-4.81-7.252-3.825c-.46.698 4.407 4.599 6.081 6.324-2.05-1.638-5.69-3.9-6.155-3.164-.46.728 2.798 3.455 5.182 5.677-1.617-1.248-4.684-3.36-5.145-2.701-.459.655 7 7.84 14.288 14.325z"/></g><g><path fill="#ff8d27" d="M458.19 214.361s9.695 4.107 12.684 19.42c1.33 6.811 1.694 45.392 1.693 45.362-20.98 4.092-43.572-.004-43.572-.004s-.334-27.773.845-36.768c2.722-20.753 15.53-27.348 15.53-27.348z"/></g><g><path fill="#ff8d27" d="M445.369 215.024s-10.474 1.316-18.691 9.009c-5.147 4.816-12.748 13.402-12.748 13.402l13.98 12.67 16.874-15.88z"/></g><g><path fill="none" stroke="#c44220" stroke-miterlimit="20" stroke-width=".75" d="M427.91 250.106l15.504-14.337"/></g><g><path fill="none" stroke="#c44220" stroke-miterlimit="20" stroke-width=".75" d="M416.332 234.765l13.812 13.24"/></g><g><path fill="none" stroke="#c44220" stroke-miterlimit="20" stroke-width=".75" d="M472.537 276.55s-20.524 4.046-43.566-.155"/></g><g><path fill="#ff8d27" d="M458.19 214.361s9.146 1.16 19.712 26.046l-15.98 7.598-6.052-13.24z"/></g><g><path fill="none" stroke="#c44220" stroke-miterlimit="20" stroke-width=".75" d="M471.687 243.362s.421-11.362-2.958-16.729"/></g><g><path fill="#ffa897" d="M200.785 362.242l-1.651 26.208-.212 7.893 29.969-.159a1.369 1.369 0 0 0 .478-2.647l-12.372-6.137 2.872-27.223z"/></g><g><path fill="#1a65d3" d="M232.579 395.852c-.315-.991-1.87-2.104-2.455-2.356l-13.177-6.095c-7.8 3.162-17.894.745-17.894.745l-1.801 10.654a.637.637 0 0 0 .64.635l33.477-.177c1.99 0 1.22-3.375 1.21-3.406z"/></g><g><path fill="none" stroke="#1a3987" stroke-linejoin="round" stroke-miterlimit="20" stroke-width=".75" d="M219.036 388.01l-1.652 3.35"/></g><g><path fill="none" stroke="#1a3987" stroke-linejoin="round" stroke-miterlimit="20" stroke-width=".75" d="M220.818 389.076c-.82 1.137-1.149 1.794-1.64 2.848"/></g><g><path fill="none" stroke="#1a3987" stroke-linejoin="round" stroke-miterlimit="20" stroke-width=".75" d="M222.324 389.853c-.558.75-1.105 1.786-1.538 2.613"/></g><g><path fill="none" stroke="#1a3987" stroke-linejoin="round" stroke-miterlimit="20" stroke-width=".75" d="M197.433 397.135l35.292-.181"/></g><g><path fill="none" stroke="#1a3987" stroke-linejoin="round" stroke-miterlimit="20" stroke-width=".75" d="M227.223 392.246s-2.286 3.248-2.736 4.746"/></g><g><path fill="none" stroke="#1a3987" stroke-linejoin="round" stroke-miterlimit="20" stroke-width=".75" d="M198.414 391.924s8.29.169 9.004 5.164"/></g><g><path fill="#22252d" d="M193.163 279.154s-2.414 9.286 0 19.661l3.124 84.59h23.883s1.622-73.462-.085-104.25z"/></g><g><path fill="#ffa897" d="M173.978 362.242l-1.65 26.208-.212 7.893 30.942-.159a1.367 1.367 0 0 0 .478-2.647l-13.345-6.137 2.871-27.223z"/></g><g><path fill="#2e7efa" d="M205.773 395.852c-.316-.991-.897-2.104-1.482-2.356l-14.15-6.095c-7.8 3.162-17.895.745-17.895.745l-1.8 10.654a.638.638 0 0 0 .64.635l34.45-.177c.693-.003.247-3.375.237-3.406z"/></g><g><path fill="none" stroke="#1a3987" stroke-linejoin="round" stroke-miterlimit="20" stroke-width=".75" d="M193.204 388.01a16.648 16.648 0 0 0-1.995 3.35"/></g><g><path fill="none" stroke="#1a3987" stroke-linejoin="round" stroke-miterlimit="20" stroke-width=".75" d="M194.985 389.076c-.82 1.137-1.149 1.794-1.64 2.848"/></g><g><path fill="none" stroke="#1a3987" stroke-linejoin="round" stroke-miterlimit="20" stroke-width=".75" d="M196.491 389.853c-.558.75-1.104 1.786-1.538 2.613"/></g><g><path fill="none" stroke="#1a3987" stroke-linejoin="round" stroke-miterlimit="20" stroke-width=".75" d="M170.627 397.135l35.292-.181"/></g><g><path fill="none" stroke="#1a3987" stroke-linejoin="round" stroke-miterlimit="20" stroke-width=".75" d="M171.607 391.924s8.291.169 9.004 5.164"/></g><g><path fill="none" stroke="#1a3987" stroke-linejoin="round" stroke-miterlimit="20" stroke-width=".75" d="M201.39 392.246s-2.285 3.248-2.736 4.746"/></g><g><path fill="#22252d" d="M177.557 279.154s-2.249 8.651-.234 18.583c.145.716.206 1.448.15 2.178l-6.644 83.49h23.883s10.411-77.618 9.768-104.25z"/></g><g><path fill="none" stroke="#4c5360" stroke-linejoin="round" stroke-miterlimit="20" stroke-width=".75" d="M180.478 279.154v0s-2.249 8.651-.234 18.583c.145.716.206 1.448.15 2.178l-6.643 83.49v0"/></g><g><path fill="none" stroke="#4c5360" stroke-linejoin="round" stroke-miterlimit="20" stroke-width=".75" d="M195.722 375.37c2.598-21.05 9.277-74.724 8.758-96.216"/></g><g><path fill="none" stroke="#4c5360" stroke-linejoin="round" stroke-miterlimit="20" stroke-width=".75" d="M179.476 286.544c5.912 0 11.428-1.091 12.061-7.39"/></g><g><path fill="none" stroke="#4c5360" stroke-linejoin="round" stroke-miterlimit="20" stroke-width=".75" d="M204.23 291.726v0s1.807.237 2.248-.734c.896-1.978.896-7.731.896-11.837"/></g><g><path fill="none" stroke="#4c5360" stroke-linejoin="round" stroke-miterlimit="20" stroke-width=".75" d="M213.766 278.638c.106.317.471 5.646 6.661 5.598"/></g><g><path fill="none" stroke="#4c5360" stroke-linejoin="round" stroke-miterlimit="20" stroke-width=".75" d="M171.159 379.129h24.096"/></g><g><path fill="none" stroke="#4c5360" stroke-linejoin="round" stroke-miterlimit="20" stroke-width=".75" d="M196.168 379.129h24.096"/></g><g><path fill="#2e7efa" d="M194.713 219.775c-27.414 15.76-18.997 57.973-17.155 59.38 6.638 2.212 37.672 1.913 43.25 0-.38-8.937-1.907-38.21-4.426-47.242-1.451-3.388-10.422-11.483-10.422-11.483z"/></g><g><path fill="#ffa897" d="M222.76 228.58s14.832 16.57 20.864 20.858c5.046 3.588 18.366 10.701 18.366 10.701s-4.578 10.352-4.588 10.342c-.011-.009-17.718-5.814-24.186-10.509-8.228-5.972-20.916-19.254-20.916-19.254z"/></g><g><path fill="#ffa897" d="M170.718 238.531s-5.024 8.87-5.028 17.924c-.006 12.472 9.454 32.96 9.454 32.96l9.053-8.048s-5.03-20.486-3.42-27.93c1.265-5.853 5.029-13.276 5.029-13.276z"/></g><g><path fill="#2e7efa" d="M194.713 219.775s-11.522-2.748-18.161 5.5c-6.64 8.247-9.253 17.501-9.253 17.501l15.45 7.16 7.08-14z"/></g><g><path fill="#2e7efa" d="M205.96 220.43s6.166.578 10.188 2.494c4.024 1.917 15.828 14.762 15.828 14.762l-12.14 11.622-8.925-9.348z"/></g><g><path fill="#ffa897" d="M183.353 277.603c1.375 5.37 6.22 15.96 5.566 16.572-.65.61-2.513-3.493-2.955-2.891-.442.6 1.995 7.109 1.182 7.546-1.105.59-3.244-6.208-3.244-6.208s1.972 7.563.867 7.799c-.783.167-2.554-5.536-3.504-7.63.741 2.4 1.48 6.433.663 6.589-.809.156-2.097-3.701-3.242-6.604.545 1.879 1.352 5.349.604 5.529-.746.18-5.163-10.135-8.136-18.648z"/></g><g><path fill="#ffa897" d="M254.401 257.018c4.308 1.742 20.707 8.442 20.737 9.27.03.826-3.967-.37-3.816.305.151.674 6.178 2.929 5.987 3.763-.259 1.13-6.306-1.51-6.306-1.51s1.492.907.985 1.822c-.36.649-2.47.12-2.47.12s1.026.914.638 1.579c-.385.66-2.217.215-2.217.215s.803.846.224 1.26c-.98.704-10.694-3.641-19.493-6.471z"/></g><g><path fill="none" stroke="#e86d5d" stroke-linejoin="round" stroke-miterlimit="20" stroke-width=".75" d="M270.249 266.122c-2.334.227-3.602 1.713-6.34 1.102"/></g><g><path fill="#e86d5d" d="M265.476 273.53a7.813 7.813 0 0 1-1.552-.807 2.85 2.85 0 0 1-.678-.609 1.012 1.012 0 0 1-.21-.479c-.014-.177.058-.449.258-.552.371-.209.692-.14.996-.118.307.036.594.112.883.186.572.164 1.125.35 1.671.591l-.283.583c-.59-.3-1.14-.627-1.662-1.065-.252-.228-.506-.474-.687-.845a1.121 1.121 0 0 1-.1-.684c.075-.342.4-.54.592-.572.82-.164 1.415.04 2.056.176.63.162 1.237.345 1.841.58l.015.006a.35.35 0 1 1-.252.652h-.003c-.657-.262-1.295-.537-1.917-.89-.307-.186-.613-.37-.898-.669-.068-.082-.142-.17-.19-.302a.532.532 0 0 1 .046-.477c.223-.254.443-.264.628-.298.751-.079 1.43.036 2.116.16a20.93 20.93 0 0 1 2.02.477c-.687-.077-1.37-.157-2.054-.204-.677-.033-1.385-.088-2 .023a.632.632 0 0 0-.29.117c.001-.029.016.034.116.134.205.188.504.353.797.5.596.288 1.23.55 1.863.77l-.24.657a21.55 21.55 0 0 0-1.773-.523c-.573-.135-1.249-.262-1.672-.178-.122.021-.068.05-.082.013a.435.435 0 0 0 .046.231c.09.2.286.417.498.608.43.391.956.735 1.478 1.025l.011.006a.323.323 0 0 1 .127.44.327.327 0 0 1-.42.137 17.54 17.54 0 0 0-1.56-.665c-.264-.088-.532-.18-.798-.23-.254-.052-.553-.08-.695-.005-.128.036-.134.281.008.498.131.22.33.426.542.611.43.368.913.69 1.408.99z"/></g><g><path fill="none" stroke="#1a3987" stroke-linejoin="round" stroke-miterlimit="20" stroke-width=".75" d="M182.75 249.936l5.942-11.753"/></g><g><path fill="none" stroke="#1a3987" stroke-linejoin="round" stroke-miterlimit="20" stroke-width=".75" d="M218.726 248.145l-1.927-14.53"/></g><g><path fill="none" stroke="#1a3987" stroke-linejoin="round" stroke-miterlimit="20" stroke-width=".75" d="M192.433 219.486v0s2.317 4.998 9.786 4.348c4.564-.398 5.163-3.23 5.163-3.23v0"/></g><g><path fill="none" stroke="#1a3987" stroke-linejoin="round" stroke-miterlimit="20" stroke-width=".75" d="M184.124 247.183l-15.554-7.845"/></g><g><path fill="none" stroke="#1a3987" stroke-linejoin="round" stroke-miterlimit="20" stroke-width=".75" d="M218.496 246.411l11.198-11.156"/></g><g><path fill="#ffa897" d="M207.75 202.777s3.574 9.905.393 13.125c-1.654 1.673-6.534 1.965-8.612.306-1.541-1.23-3.824-8.847-2.95-10.18 3.34-5.1 11.169-3.25 11.169-3.25z"/></g><g><path fill="none" stroke="#e86d5d" stroke-linejoin="round" stroke-miterlimit="20" stroke-width=".75" d="M205.754 207.448v0s1.916 2.34 1.839 3.058c-.077.717-1.735.985-1.735.985v0"/></g><g><path fill="#fff" d="M207.78 212.151l-4.481 1.14s1.127 2.253 3.544 1.46c1.725-.568.937-2.6.937-2.6z"/></g><g><path fill="#00276f" d="M206.936 206.65c.012.052.021.104.035.155l.046.147.046.146c.025.08.06.156.094.233a.282.282 0 0 0 .101.11.295.295 0 0 0 .134.071l.106.014a.294.294 0 0 0 .151-.034.203.203 0 0 0 .087-.05.282.282 0 0 0 .101-.11.386.386 0 0 0 .04-.305c-.044-.128-.104-.248-.164-.368l-.068-.138c-.023-.047-.054-.09-.08-.136a.357.357 0 0 0-.206-.158l-.092-.012a.252.252 0 0 0-.132.03.328.328 0 0 0-.165.14.374.374 0 0 0-.034.265z"/></g><g><path fill="none" stroke="#00276f" stroke-linecap="round" stroke-linejoin="round" stroke-miterlimit="20" stroke-width=".5" d="M205.94 205.54s.595-1.017 1.686-.39"/></g><g><path fill="#00276f" d="M201.888 208.435c.008.05.014.1.024.149.012.05.026.102.04.153.024.099.045.2.083.297.012.05.037.095.071.133a.294.294 0 0 0 .111.102.287.287 0 0 0 .147.047.29.29 0 0 0 .157-.007.394.394 0 0 0 .275-.485c-.035-.13-.096-.251-.148-.374l-.058-.138c-.02-.05-.049-.096-.074-.143a.351.351 0 0 0-.205-.157c-.03-.004-.062-.01-.092-.013a.262.262 0 0 0-.132.03.337.337 0 0 0-.165.14l-.034.083a.335.335 0 0 0 0 .183z"/></g><g><path fill="none" stroke="#00276f" stroke-linecap="round" stroke-linejoin="round" stroke-miterlimit="20" stroke-width=".5" d="M202.499 206.45s-1.155-.258-2.166 1.186"/></g><g><path fill="#ffa897" d="M196.277 211.837l-1.564 7.938c1.182 1.369 6.92 4.34 11.247.656l.128-5.516z"/></g><g><path fill="#0b0b3a" d="M192.704 210.126a10.146 10.146 0 0 0-.31-1.059c-.3-.837-.76-1.579-1.09-2.403-.657-1.646-.111-3.695 1.28-4.797.246-.195.516-.364.736-.591.492-.508.663-1.236.948-1.883.234-.531.575-1.041 1.084-1.314 1.173-.625 2.735.223 3.907-.403.254-.136.468-.332.698-.506 1.68-1.271 3.588-.975 5.42-.313.858.311 1.139.649 1.852 1.205.78.606 1.86.565 2.644 1.16.822.623 1.029 1.767 1.038 2.8.003.374-.015.76-.173 1.099-.203.436-.617.74-1.055.94-1.05.477-2.231.294-3.345.21-1.088-.082-2.353-.849-3.417-.452-1.038.388-1.304 1.661-2.582 1.761-.505.039-1.117-.054-1.418.353-.341.459-.161 1.213-.43 1.743-.254.501-.696.952-1.021 1.413-.647.917-1.563 1.547-1.235 2.743.228.832 1.153 2.168.77 3.049-.251.581-1.53.571-2.497-.165-.996-.758-1.293-2.203-1.537-3.355-.09-.422-.17-.831-.267-1.235z"/></g><g><path fill="#ffa897" d="M197.28 210.33c-.947-1.535-1.87-1.416-2.45-.7-.774.953.29 3.245.857 3.681 1.151.883 2.161.922 2.372-.072z"/></g><g><path fill="none" stroke="#e86d5d" stroke-linejoin="round" stroke-miterlimit="20" stroke-width=".75" d="M205.699 217.393c-3.56.123-6.535-1.582-6.535-1.582"/></g></g></svg>