<svg xmlns="http://www.w3.org/2000/svg" xmlns:xlink="http://www.w3.org/1999/xlink" viewBox="0 0 510.93 450.45"><defs><style>.cls-1{fill:none;}.cls-2{isolation:isolate;}.cls-3{fill:#297fb9;opacity:0.24;}.cls-4{fill:#8f8f8f;}.cls-5{fill:#d6d7d7;}.cls-6{fill:#c8c7c7;}.cls-11,.cls-14,.cls-17,.cls-6{mix-blend-mode:multiply;}.cls-7{fill:#cdcccc;}.cls-8{fill:#f2f2f2;}.cls-9{fill:#1a638c;}.cls-10{fill:#e9f4f2;}.cls-11{fill:#dedede;opacity:0.59;}.cls-12{fill:#333838;}.cls-13{clip-path:url(#clip-path);}.cls-14{fill:#242424;opacity:0.43;}.cls-15{fill:#fbfbfb;}.cls-16{fill:#e7334f;}.cls-17{fill:#010101;opacity:0.09;}.cls-18{fill:#fff;}</style><clipPath id="clip-path"><path class="cls-1" d="M426.53,76.35H50.46a9.54,9.54,0,0,0-9.53,9.49l-1,286.86a9.44,9.44,0,0,0,9.46,9.48H425.44a9.52,9.52,0,0,0,9.52-9.49l1-286.85A9.44,9.44,0,0,0,426.53,76.35Z"/></clipPath></defs><g class="cls-2"><g id="Слой_2" data-name="Слой 2"><g id="Layer_1" data-name="Layer 1"><path class="cls-3" d="M441.68,442.4c0-4.44-84.87-8-189.54-8s-189.53,3.6-189.52,8,84.87,8.05,189.54,8.05S441.69,446.85,441.68,442.4Z"/><polygon class="cls-4" points="299.05 381.63 213.86 381.63 207.06 434.26 306 434.26 299.05 381.63"/><polygon class="cls-5" points="295.49 381.63 210.29 381.63 203.49 434.26 302.44 434.26 295.49 381.63"/><polygon class="cls-6" points="295.49 381.63 210.29 381.63 207.31 408.8 298.55 408.8 295.49 381.63"/><path class="cls-7" d="M195.87,440.21h0c0-4.84,3.63-8.76,8.12-8.76H329.81c4.5,0,8.15,3.92,8.16,8.76H195.87Z"/><path class="cls-8" d="M172.84,440.21h0c0-4.84,3.64-8.76,8.13-8.76H306.79c4.5,0,8.15,3.92,8.15,8.76H172.84Z"/><path class="cls-9" d="M510.93,255.15h0c-16.49,0-29.85-12.61-29.85-28.17l0-120.14V87.54c0-18.18-9.35-32.92-20.89-32.92h-2.87c-11.54,0-30.47,14.74-30.47,32.92h-91V204H277.89v51.18Z"/><path class="cls-10" d="M462.43,54.62H270.91c-15.53,0-28.12,14.74-28.12,32.92v1.62h-.07v256.9c0,18.18-7,32.92-19.82,32.92H415.21c12.78,0,23.14-14.74,23.14-32.92V89.16h0V87.54C438.34,69.36,446.89,54.62,462.43,54.62Z"/><path class="cls-11" d="M439.68,55.21H248.16C232.63,55.21,220,70,220,88.13v1.62H220v256.9c0,18.18-7,32.92-19.82,32.92H392.46c12.78,0,23.14-14.74,23.14-32.92V89.75h0V88.13C415.59,70,424.14,55.21,439.68,55.21Z"/><path class="cls-5" d="M439.8,77.14H55.68a9.65,9.65,0,0,0-9.74,9.47L44.45,372.72a9.51,9.51,0,0,0,9.64,9.46H438.21a9.64,9.64,0,0,0,9.75-9.46l1.48-286.11A9.52,9.52,0,0,0,439.8,77.14Z"/><polygon class="cls-12" points="415.42 100.71 61.39 100.71 60.48 357.82 414.51 357.82 415.42 100.71"/><g class="cls-13"><path class="cls-14" d="M129.45,85.55H384.79a0,0,0,0,1,0,0V335.36a5.53,5.53,0,0,1-5.53,5.53H135a5.53,5.53,0,0,1-5.53-5.53V85.55A0,0,0,0,1,129.45,85.55Z"/></g><path class="cls-15" d="M103.17,314.52l240,0a6.39,6.39,0,0,0,6.52-6.25h0V32.92C349.72,14.74,360.79,0,380.89,0H133C112.89,0,96.59,14.74,96.59,32.92V308.24h0A6.44,6.44,0,0,0,103.17,314.52Z"/><path class="cls-16" d="M29.61,59.46a2.65,2.65,0,0,1-.94,2.08,3.31,3.31,0,0,1-4.53-.62L12.38,47.77a3.08,3.08,0,0,1,0-4.43,3.32,3.32,0,0,1,4.53.63L28.67,57.11A3.52,3.52,0,0,1,29.61,59.46Z"/><path class="cls-16" d="M46.2,39V53.28A2.7,2.7,0,0,1,43,56a3.77,3.77,0,0,1-3.21-3.58V38.15A2.7,2.7,0,0,1,43,35.46,3.76,3.76,0,0,1,46.2,39Z"/><path class="cls-16" d="M21,74.5a2.7,2.7,0,0,1-3.21,2.69l-14.55-2A3.76,3.76,0,0,1,0,71.6a2.69,2.69,0,0,1,3.2-2.69l14.55,2A3.77,3.77,0,0,1,21,74.5Z"/><circle class="cls-17" cx="223.35" cy="169.81" r="94.81"/><circle class="cls-16" cx="216.1" cy="155.45" r="93.46"/><rect class="cls-18" x="167.03" y="142.45" width="98.04" height="28.3" transform="translate(-47.45 198.64) rotate(-45)"/><rect class="cls-18" x="167.03" y="142.45" width="98.04" height="28.3" transform="translate(258.09 420.11) rotate(-135)"/></g></g></g></svg>