<svg xmlns="http://www.w3.org/2000/svg" width="15" height="13" viewBox="0 0 15 13"><defs><linearGradient id="zewsa" x1="-9.81" x2="-9.81" y1="196.7" y2="-4.6" gradientUnits="userSpaceOnUse"><stop offset="0" stop-color="#e1e8f6"/><stop offset=".38" stop-color="#e1e8f6"/><stop offset="1" stop-color="#e1e8f6"/></linearGradient><linearGradient id="zewsb" x1="-68.58" x2="-58.11" y1="35.03" y2="-24.37" gradientUnits="userSpaceOnUse"><stop offset="0" stop-color="#148275"/><stop offset="1" stop-color="#14bda4"/></linearGradient><linearGradient id="zewsc" x1="-77.04" x2="-104.58" y1="106.18" y2="58.47" gradientUnits="userSpaceOnUse"><stop offset="0" stop-color="#148275"/><stop offset="1" stop-color="#14bda4"/></linearGradient><linearGradient id="zewsd" x1="-87.14" x2="-36.32" y1="104.61" y2="75.27" gradientUnits="userSpaceOnUse"><stop offset="0" stop-color="#148275"/><stop offset="1" stop-color="#14bda4"/></linearGradient><linearGradient id="zewse" x1="-89.49" x2="-37.57" y1="66.09" y2="36.12" gradientUnits="userSpaceOnUse"><stop offset="0" stop-color="#148275"/><stop offset="1" stop-color="#14bda4"/></linearGradient><linearGradient id="zewsf" x1="-89.33" x2="-99.58" y1="59.53" y2="1.35" gradientUnits="userSpaceOnUse"><stop offset="0" stop-color="#148275"/><stop offset="1" stop-color="#14bda4"/></linearGradient><linearGradient id="zewsg" x1="72.38" x2="111.36" y1="97.58" y2="75.07" gradientUnits="userSpaceOnUse"><stop offset="0" stop-color="#148275"/><stop offset="1" stop-color="#14bda4"/></linearGradient><linearGradient id="zewsh" x1="81.87" x2="52.26" y1="120.04" y2="68.74" gradientUnits="userSpaceOnUse"><stop offset="0" stop-color="#148275"/><stop offset="1" stop-color="#14bda4"/></linearGradient><linearGradient id="zewsi" x1="72.91" x2="62.41" y1="89.97" y2="30.41" gradientUnits="userSpaceOnUse"><stop offset="0" stop-color="#148275"/><stop offset="1" stop-color="#14bda4"/></linearGradient><linearGradient id="zewsj" x1="94.25" x2="103.38" y1="67.47" y2="15.68" gradientUnits="userSpaceOnUse"><stop offset="0" stop-color="#148275"/><stop offset="1" stop-color="#14bda4"/></linearGradient><linearGradient id="zewsk" x1="154.38" x2="199.51" y1="122.27" y2="122.27" gradientUnits="userSpaceOnUse"><stop offset="0" stop-opacity="0"/><stop offset=".09" stop-opacity="0"/><stop offset="1"/></linearGradient><linearGradient id="zewsl" x1="203.03" x2="188.25" y1="82.81" y2="74.27" gradientUnits="userSpaceOnUse"><stop offset="0" stop-opacity="0"/><stop offset=".23" stop-opacity="0"/><stop offset="1"/></linearGradient><linearGradient id="zewsm" x1="177.39" x2="177.39" y1="86.39" y2="60.49" gradientUnits="userSpaceOnUse"><stop offset="0" stop-opacity="0"/><stop offset=".23" stop-opacity="0"/><stop offset="1"/></linearGradient><radialGradient id="zewsn" cx="190.07" cy="37.27" r="2.83" gradientUnits="userSpaceOnUse"><stop offset="0"/><stop offset="1" stop-opacity="0"/></radialGradient><linearGradient id="zewso" x1="193.12" x2="195.21" y1="43.07" y2="44.53" gradientUnits="userSpaceOnUse"><stop offset="0"/><stop offset=".79" stop-opacity="0"/><stop offset="1" stop-opacity="0"/></linearGradient><linearGradient id="zewsp" x1="-135.62" x2="-165.21" y1="137.13" y2="101.87" gradientUnits="userSpaceOnUse"><stop offset="0" stop-opacity="0"/><stop offset=".24" stop-opacity="0"/><stop offset="1"/></linearGradient><radialGradient id="zewsq" cx="-168.46" cy="44.17" r="2.94" gradientUnits="userSpaceOnUse"><stop offset="0"/><stop offset="1" stop-opacity="0"/></radialGradient><linearGradient id="zewsr" x1="-171.67" x2="-169.28" y1="49.52" y2="47.85" gradientUnits="userSpaceOnUse"><stop offset="0" stop-opacity="0"/><stop offset=".21" stop-opacity="0"/><stop offset="1"/></linearGradient><linearGradient id="zewss" x1="-184.12" x2="-198.38" y1="87.25" y2="87.25" gradientUnits="userSpaceOnUse"><stop offset="0" stop-opacity="0"/><stop offset=".24" stop-opacity="0"/><stop offset="1"/></linearGradient><linearGradient id="zewst" x1="-21.18" x2="-15.89" y1="68.53" y2="59.38" gradientUnits="userSpaceOnUse"><stop offset="0" stop-opacity="0"/><stop offset=".09" stop-opacity="0"/><stop offset="1"/></linearGradient><linearGradient id="zewsu" x1="-29.56" x2=".24" y1="90.09" y2="90.09" gradientUnits="userSpaceOnUse"><stop offset="0" stop-opacity="0"/><stop offset=".09" stop-opacity="0"/><stop offset="1"/></linearGradient><linearGradient id="zewsv" x1="18.77" x2="18.77" y1="68.83" y2="23.68" gradientUnits="userSpaceOnUse"><stop offset="0" stop-opacity="0"/><stop offset=".09" stop-opacity="0"/><stop offset=".78"/><stop offset="1"/></linearGradient><linearGradient id="zewsw" x1="9.25" x2="11.05" y1="13.47" y2="14.9" gradientUnits="userSpaceOnUse"><stop offset="0"/><stop offset=".79" stop-opacity="0"/><stop offset="1" stop-opacity="0"/></linearGradient><radialGradient id="zewsx" cx="4.88" cy="9.63" r="3.17" gradientUnits="userSpaceOnUse"><stop offset="0"/><stop offset="1" stop-opacity="0"/></radialGradient></defs><g><g><path fill="url(#zewsa)" d="M-61.526-4.587c-55.085.891-51.326 42.553-91.855 50.041-12.166 2.248-25.735-1.898-39.682-6.045-20.722-6.16-42.279-12.321-61.311 2.488-31.845 24.777-10.245 48.381-22.047 75.994-11.803 27.614-22.715 49.162 2.449 78.806h523.876s19.709-20.015 19.709-50.524-20.266-32.456-32.736-51.301c-12.47-18.846-10.776-40.892-44.47-50.357-17.979-5.049-29.777.866-41.239 6.781-10.018 5.169-19.779 10.339-33.186 8.187-28.748-4.612-26.521-20.427-75.068-20.537C-5.258 38.838-19.174-4.593-60.562-4.595c-.321 0-.64.002-.964.008z"/></g><g><path fill="url(#zewsb)" d="M-75.448-3.235c-4.12 14.809-3.036 36.516-3.036 36.516 5.152-13.357 11.387-18.813 19.849-25.271 8.462-6.457 17.481-23.047 8.908-29.728-1.824-1.421-3.851-2.072-5.95-2.072-7.766-.001-16.528 8.897-19.771 20.555z"/></g><g><path fill="url(#zewsc)" d="M-103.117 57.838c-11.357 4.134-4.644 19.075 5.512 28.225 11.664 10.509 19.537 20.71 19.537 20.71-1.003-17.265-8.772-49.5-21.983-49.5-.991 0-2.013.181-3.066.565z"/></g><g><path fill="url(#zewsd)" d="M-63.534 70.698c-11.003 11.828-13.473 37.856-14.29 50.041 0 0 4.649-15.188 15.18-25.239 9.131-8.715 23.055-13.477 23.049-22.91-.005-6.208-3.994-9.064-9.079-9.063-4.786 0-10.542 2.528-14.86 7.171z"/></g><g><path fill="url(#zewse)" d="M-73.556 46.091c-7.117 16.258-6.055 37.11-6.055 37.11-.29-13.283 8.684-25.563 17.97-30.736 13.918-7.755 23.493-19.718 17.146-28.189-1.317-1.759-3.035-2.548-4.992-2.549-7.467-.001-18.429 11.481-24.069 24.364z"/></g><g><path fill="url(#zewsf)" d="M-110.187 9.013c-2.339 8.574 12.048 17.364 18.705 26.165 6.347 8.392 10.82 22.821 10.82 22.821.204-15.918-.635-40.635-8.622-49.989-3.686-4.316-7.925-6.261-11.65-6.261-4.347 0-7.994 2.647-9.253 7.264z"/></g><g><path fill="none" stroke="#1dceb4" stroke-linecap="round" stroke-miterlimit="20" stroke-width=".96" d="M-81.312 196.697c1.864-21.502 5.589-73.38 1.967-110.634-4.676-48.1 3.007-75.602 21.935-100.544"/></g><g><path fill="none" stroke="#1dceb4" stroke-linecap="round" stroke-miterlimit="20" stroke-width=".96" d="M-100.5 66.796s18.81 20.047 22.432 39.978"/></g><g><path fill="none" stroke="#1dceb4" stroke-linecap="round" stroke-miterlimit="20" stroke-width=".96" d="M-77.824 120.739c1.15-12.286 10.17-36.346 25.758-46.813"/></g><g><path fill="none" stroke="#1dceb4" stroke-linecap="round" stroke-miterlimit="20" stroke-width=".96" d="M-79.61 83.202c-.403-16.847 5.499-39.227 25.652-49.137"/></g><g><path fill="none" stroke="#1dceb4" stroke-linecap="round" stroke-miterlimit="20" stroke-width=".96" d="M-100.5 10.795c8.35 7.015 19.37 29.713 19.838 47.204"/></g><g><path fill="url(#zewsg)" d="M79.284 109.528s7.655-8.761 18.741-17.593c9.653-7.688 16.522-20.784 6.514-25.133-1.081-.47-2.14-.691-3.175-.691-11.68.002-20.253 28.106-22.08 43.417z"/></g><g><path fill="url(#zewsh)" d="M46.487 76.616c-.522 8.5 11.765 13.553 19.515 21.907 8.94 9.636 12.298 23.576 12.298 23.576-.07-11.023-.869-34.614-10.136-45.877-3.84-4.667-9.254-7.297-13.713-7.298-4.253-.001-7.637 2.391-7.964 7.692z"/></g><g><path fill="url(#zewsi)" d="M53.55 33.347c-6.183 7.285 1.79 18.59 13.907 26.34 8.084 5.172 15.499 16.729 14.509 28.684 0 0 2.099-18.733-3.423-33.774-4.46-12.148-13.983-23.286-20.74-23.285-1.61 0-3.063.632-4.253 2.035z"/></g><g><path fill="url(#zewsj)" d="M94.804 21.142c-7.71 7.992-9.821 30.22-10.509 44.574 0 0 4.821-12.757 11-19.97 6.481-7.566 19.928-14.701 18.291-22.555-.927-4.442-4.347-7.071-8.539-7.071-3.219 0-6.894 1.551-10.243 5.022z"/></g><g><path fill="none" stroke="#1dceb4" stroke-linecap="round" stroke-miterlimit="20" stroke-width=".96" d="M77.457 196.697C77 183.266 75.6 128.499 81.57 90.935c1.456-9.163 2.358-17.517 2.725-25.218"/></g><g><path fill="none" stroke="#1dceb4" stroke-linecap="round" stroke-miterlimit="20" stroke-width=".96" d="M101.69 74.731s-18.049 17.035-22.406 34.797"/></g><g><path fill="none" stroke="#1dceb4" stroke-linecap="round" stroke-miterlimit="20" stroke-width=".96" d="M78.3 122.1c-.365-11.135-7.174-33.31-20.648-43.597"/></g><g><path fill="none" stroke="#1dceb4" stroke-linecap="round" stroke-miterlimit="20" stroke-width=".96" d="M81.966 88.37c1.286-15.158-2.806-35.65-20.424-45.684"/></g><g><path fill="none" stroke="#1dceb4" stroke-linecap="round" stroke-miterlimit="20" stroke-width=".96" d="M104.759 24.265c-7.91 5.864-19.084 25.715-20.464 41.451"/></g><g><path fill="none" stroke="#01004c" stroke-linecap="round" stroke-linejoin="round" stroke-miterlimit="20" d="M214.077-28.315v0h-103.38V6.32h46.344v0l7.863 8.16v0-8.16 0h49.173v0-34.635 0z"/></g><g><path fill="none" stroke="#91b6e0" stroke-miterlimit="20" d="M207.98-10.997c0-6.496-5.266-11.762-11.762-11.762-6.495 0-11.761 5.266-11.761 11.762S189.723.765 196.217.765c6.497 0 11.763-5.266 11.763-11.762z"/></g><g><path fill="#91b6e0" d="M199.716-14.523a3.498 3.498 0 1 0-6.996 0 3.498 3.498 0 0 0 6.996 0z"/></g><g><path fill="#91b6e0" d="M196.218-9.793a7.292 7.292 0 0 0-7.253 8.043 11.703 11.703 0 0 0 7.253 2.515c2.739 0 5.253-.945 7.253-2.515a7.292 7.292 0 0 0-7.253-8.043z"/></g><g><path fill="#91b6e0" d="M177.391-17.254H119.55v-3.255h57.841z"/></g><g><path fill="#f98091" d="M123.732-3.743l-2.585 1.358.494-2.878L119.55-7.3l2.89-.42 1.292-2.618 1.292 2.619 2.89.42-2.091 2.038.493 2.878z"/></g><g><path fill="#f98091" d="M136.101-3.743l-2.584 1.358.493-2.878-2.09-2.038 2.89-.42 1.291-2.618 1.292 2.619 2.89.42-2.09 2.038.492 2.878z"/></g><g><path fill="#f98091" d="M148.47-3.743l-2.585 1.358.494-2.878-2.09-2.038 2.89-.42 1.291-2.618 1.292 2.619 2.89.42-2.09 2.038.492 2.878z"/></g><g><path fill="#f98091" d="M160.84-3.743l-2.586 1.358.494-2.878-2.09-2.038 2.89-.42 1.291-2.618 1.292 2.619 2.89.42-2.09 2.038.492 2.878z"/></g><g><path fill="none" stroke="#01004c" stroke-linecap="round" stroke-linejoin="round" stroke-miterlimit="20" stroke-width="1.2" d="M153.122 126.489v70.208"/></g><g><path fill="none" stroke="#01004c" stroke-linecap="round" stroke-linejoin="round" stroke-miterlimit="20" stroke-width="1.2" d="M188.192 126.489v70.208"/></g><g><path fill="none" stroke="#01004c" stroke-linecap="round" stroke-linejoin="round" stroke-miterlimit="20" stroke-width="1.2" d="M220.332 122.85v73.847"/></g><g><path fill="#d64949" d="M209.691 128.022h-27.659v-3.066h27.659a13.848 13.848 0 0 0 13.441-10.52c3.032-12.136 6.365-36.227 5.774-64.187l3.065-.065c.597 28.263-2.786 52.676-5.864 64.993-1.89 7.563-8.641 12.845-16.416 12.845z"/></g><g><path fill="#e95f5c" d="M178.292 124.956h31.398a13.848 13.848 0 0 0 13.442-10.521c3.032-12.134 6.364-36.225 5.773-64.186h-31.398c.591 27.96-2.74 52.052-5.773 64.186a13.849 13.849 0 0 1-13.442 10.52z"/></g><g><path fill="#fc7e7e" d="M150.633 124.956h31.398v3.066h-31.398z"/></g><g><path fill="#282766" d="M180.31 105.466c-24.66 6.079-52.328 25.74-62.258 66.504l6.064 2.425s18.233-34.034 46.734-41.918c28.501-7.883 28.662-17.914 28.662-17.914l-1.01-9.097z"/></g><g><path fill="#f98091" d="M121.903 181.273l-15.525-8.04 11.673-1.264 6.064 2.426z"/></g><g clip-path="url(#clip-0:461:0:sm)" opacity=".5"><path fill="url(#zewsk)" d="M180.31 105.466c-8.396 2.07-17.14 5.718-25.414 11.233-.494 3.817-1.312 13.444 1.386 22.369 4.48-2.826 9.351-5.147 14.568-6.591 28.501-7.883 28.662-17.914 28.662-17.914l-1.01-9.097z"/></g><g><path fill="#f98091" d="M176.46 189.646l-16.869 4.594 7.736-8.833 6.105-2.32z"/></g><g><path fill="#282766" d="M189.203 105.466c-17.585 7.683-31.937 21.243-31.533 42.66.404 21.417 9.657 37.28 9.657 37.28l6.105-2.32s-4.732-20.273-.69-33.016c4.043-12.743 14.228-25.48 24.941-24.941 10.713.538 13.418-7.705 15.911-18.854z"/></g><g><path fill="#fcd98e" d="M180.31 105.466s18.057 3.774 33.284.81c0 0 4.716-22.1 0-40.967-4.716-18.866-18.192-25.334-29.242-9.434-11.05 15.902-22.37 26.144-35.98 30.32v6.065s23.852-4.852 38.271-16.845c0 0-.27 19.81-6.334 30.051z"/></g><g clip-path="url(#clip-0:457:0:sm)" opacity=".5"><path fill="url(#zewsl)" d="M203.633 62.135l-17.047 15.014-.001.005c-.134 3.009-.571 9.508-1.959 16.054 11.83.111 26.154-10.415 19.007-31.073z"/></g><g clip-path="url(#clip-0:456:0:sm)" opacity=".5"><path fill="url(#zewsm)" d="M164.694 86.381s19.766-17.04 25.376-25.889c0 0 .729 14.532-6.796 20.433-7.525 5.902-18.58 5.456-18.58 5.456z"/></g><g><path fill="#fcd98e" d="M199.524 47.96c9.489 1.818 6.255 17.35-1.965 28.399-8.221 11.05-25.2 18.058-41.91 17.789v-6.2s18.672-2.694 26.383-13.206c7.71-10.511 8.819-28.445 17.492-26.782z"/></g><g><path fill="#01004c" d="M198.486 44.603c3.351-1.899 4.563-5.336 3.856-7.762 0 0 7.277-3.436 4.144-9.5-3.134-6.064-.102-9.5-5.458-11.42-5.357-1.92-9.703 0-9.703 0s-8.036-4.448-10.84 3.032c-2.804 7.478 7.404 10.653 7.404 10.653z"/></g><g><path fill="#ffadb7" d="M197.963 35.595c2.29-2.426 3.706-6.94.202-7.143-3.503-.202-2.291 3.706-3.773 4.448-1.482.741-.907-3.752-4.312-5.593-2.494-1.348-4.65-.809-4.65-.809s-.405 5.391-2.156 8.28c0 0 .673.75 2.021.75 0 0-.606 8.085 7.681 7.748l.607 4.575s1.751.95 5.12-.532c0 0-.337-3.706-.337-5.189 0-1.482-2.695-4.109-.404-6.535z"/></g><g clip-path="url(#clip-0:452:0:sm)" opacity=".51"><path fill="url(#zewsn)" d="M192.894 37.137a2.828 2.828 0 1 0-5.65.271 2.828 2.828 0 0 0 5.65-.271z"/></g><g><path fill="none" stroke="#ef8998" stroke-linecap="round" stroke-miterlimit="20" stroke-width=".5" d="M186.537 31.438s.961-.806 2.171.124"/></g><g><path fill="none" stroke="#ef8998" stroke-linecap="round" stroke-miterlimit="20" stroke-width=".5" d="M196.883 30c.215-.32.509-.425 1.026-.425.062 0 .125.002.19.005.785.045.909.357.962.49.164.414.097 1.105-.172 1.888"/></g><g><path fill="none" stroke="#ef8998" stroke-linecap="round" stroke-miterlimit="20" stroke-width=".5" d="M198.894 29.826s-.57.393-1.004.94"/></g><g clip-path="url(#clip-0:448:0:sm)" opacity=".75"><path fill="url(#zewso)" d="M193.332 45.959c2.491-1.059 2.813-3.525 2.813-3.525s-1.35.652-3.168.842z"/></g><g><path fill="#a9b2bf" d="M162.387 97.551h-45.453a1.443 1.443 0 0 1-1.443-1.442v-1.255h46.896z"/></g><g><path fill="#fff" d="M138.939 94.854h25.755l-8.642-33.138a1.638 1.638 0 0 0-1.585-1.224h-15.528z"/></g><g><path fill="#fff" d="M191.628 97.551h-29.241v-2.697h29.241a1.349 1.349 0 1 1 0 2.697z"/></g><g><path fill="#c1c7d3" d="M153.425 60.492h-44.99a1.47 1.47 0 0 0-1.425 1.842l8.481 32.52h46.895z"/></g><g><path fill="none" stroke="#01004c" stroke-linecap="round" stroke-linejoin="round" stroke-miterlimit="20" stroke-width="2" d="M99.32 99.555v97.142"/></g><g><path fill="none" stroke="#01004c" stroke-linecap="round" stroke-linejoin="round" stroke-miterlimit="20" stroke-width="2" d="M213.594 99.555v97.142"/></g><g><path fill="none" stroke="#01004c" stroke-linecap="round" stroke-linejoin="round" stroke-miterlimit="20" stroke-width="2" d="M254.291 99.555v97.142"/></g><g><path fill="#62a5e7" d="M225.992 101.558H85.306v-4.007h140.686z"/></g><g><path fill="#4091d3" d="M225.992 101.558h34.498v-4.007h-34.498z"/></g><g><path fill="none" stroke="#91b6e0" stroke-linecap="round" stroke-linejoin="round" stroke-miterlimit="20" stroke-width="2" d="M-291.704 196.697h561.317"/></g><g><path fill="#62a5e7" d="M-174.59 196.128c38.133 1.835 89.107-18.376 89.307-44.091.2-25.715-14.785-34.04-38.465-37-23.679-2.96-46.804 0-62.529-3.33-15.725-3.33-56.979-17.02-68.818 14.985-11.84 32.005 20.441 66.545 80.504 69.436z"/></g><g><path fill="none" stroke="#01004c" stroke-linecap="round" stroke-linejoin="round" stroke-miterlimit="20" d="M-222.166 125.027c15.17 7.585 41.995 6.105 64.38 0 22.384-6.104 40.611 3.7 40.611 3.7v0"/></g><g><path fill="none" stroke="#01004c" stroke-linecap="round" stroke-linejoin="round" stroke-miterlimit="20" d="M-147.452-31.466v0h-103.381V3.168h46.345v0l7.863 8.159v0-8.16 0h49.173v0-34.633 0z"/></g><g><path fill="none" stroke="#91b6e0" stroke-miterlimit="20" d="M-153.55-14.15c0-6.495-5.266-11.762-11.761-11.762-6.496 0-11.762 5.267-11.762 11.762 0 6.496 5.266 11.762 11.762 11.762 6.495 0 11.76-5.266 11.76-11.762z"/></g><g><path fill="#91b6e0" d="M-161.813-17.675a3.498 3.498 0 1 0-6.996 0 3.498 3.498 0 0 0 6.996 0z"/></g><g><path fill="#91b6e0" d="M-165.311-12.945a7.291 7.291 0 0 0-7.254 8.042 11.7 11.7 0 0 0 7.253 2.515c2.74 0 5.253-.945 7.253-2.515a7.29 7.29 0 0 0-7.253-8.042z"/></g><g><path fill="#91b6e0" d="M-184.139-20.407h-57.84v-3.255h57.84z"/></g><g><path fill="#f98091" d="M-237.797-6.895l-2.585 1.358.494-2.878-2.091-2.038 2.89-.42 1.292-2.619 1.292 2.62 2.89.42-2.091 2.037.493 2.878z"/></g><g><path fill="#f98091" d="M-225.428-6.895l-2.585 1.358.494-2.878-2.091-2.038 2.89-.42 1.292-2.619 1.292 2.62 2.89.42-2.091 2.037.493 2.878z"/></g><g><path fill="#f98091" d="M-213.059-6.895l-2.585 1.358.494-2.878-2.091-2.038 2.89-.42 1.292-2.619 1.292 2.62 2.89.42-2.091 2.037.493 2.878z"/></g><g><path fill="#f98091" d="M-200.69-6.895l-2.584 1.358.493-2.878-2.091-2.038 2.89-.42 1.292-2.619 1.292 2.62 2.89.42-2.091 2.037.494 2.878z"/></g><g><path fill="#f98091" d="M-188.321-6.895l-2.584 1.358.493-2.878-2.091-2.038 2.89-.42 1.292-2.619 1.292 2.62 2.89.42-2.091 2.037.494 2.878z"/></g><g><path fill="#e95f5c" d="M-190.909 104.169h25.052s29.284 1.447 42.645 15.922C-109.85 134.565-95.5 171.9-95.5 171.9l-5.849 3.495s-18.02-30.92-45.412-45.283c-27.39-14.364-40.808-16.924-40.808-16.924z"/></g><g><path fill="#01004c" d="M-101.349 175.394l2.877 5.897 15.74-9.28-12.768-.11z"/></g><g clip-path="url(#clip-0:423:0:sm)" opacity=".5"><path fill="url(#zewsp)" d="M-135.635 137.145c5.865-6.96 6.799-17.078 6.89-21.797a44.373 44.373 0 0 0-4.173-2.538l-46.244.767.505 2.254c6.748 2.355 17.352 6.654 31.896 14.281 3.911 2.05 7.623 4.445 11.126 7.033z"/></g><g><path fill="#01004c" d="M-199.454 71.489c-3.201-8.136-3.257-18.623 7.015-24.802 10.27-6.18 11.191-21.076 24.948-21.128 13.538-.05 13.132 15.45 10.96 23.466-2.171 8.017-.668 17.035-.668 24.552 0 7.516-9.937 18.705-23.883 13.862-13.947-4.844-16.369-10.856-18.373-15.95z"/></g><g><path fill="#e95f5c" d="M-197.812 104.169s-3.34 13.807 11.357 22.046c14.698 8.239 29.395 12.025 38.525 28.504 9.13 16.479 12.471 33.403 12.471 33.403l6.68-1.336s-.89-27.836-8.684-46.542c-7.794-18.706-39.416-36.075-39.416-36.075z"/></g><g><path fill="#01004c" d="M-135.46 188.122l.74 6.52 17.937-3.48-11.995-4.376z"/></g><g><path fill="#ffadb7" d="M-153.381 76.777l-7.743-1.864-2.377 7.653c4.265 8.787 14.738 25.45 34.723 31.011l1.893-4.176s-19.294-12.403-26.496-32.624z"/></g><g><path fill="#fcd98e" d="M-154.777 72.157c-4.955-20.21-23.995-24.106-36.131-17.871-10.393 5.34-6.904 49.883-6.904 49.883s20.376 3.45 31.956 0c0 0-1.058-12.137 0-27.168 0 0 .727 2.21 2.355 5.565l10.12-5.79a47.357 47.357 0 0 1-1.396-4.62z"/></g><g><path fill="#ffadb7" d="M-182.576 51.766c2.159 3.221 8.82 11.208 18.63 5.151-5.448-4.398-12.291-5.926-18.63-5.15z"/></g><g><path fill="#ffadb7" d="M-175.878 51.81s1.78 2.002 5.985 1.6l1.086-4.886s5.902 2.143 8.74-3.424c2.84-5.567.029-10.062.029-10.062s-6.542-2.965-8.045-.238c-1.503 2.73-1.614 3.808-2.394 3.452-1.203-.549.334-3.786-3.062-3.73-3.396.056-3.563 6.458.167 7.237z"/></g><g><path fill="none" stroke="#ef8998" stroke-linecap="round" stroke-linejoin="round" stroke-miterlimit="20" stroke-width=".5" d="M-163.144 39.835v0s-.048 1.76 1.092 3.032c0 0-.605.406-2.041.222"/></g><g><path fill="none" stroke="#ef8998" stroke-linecap="round" stroke-miterlimit="20" stroke-width=".5" d="M-161.649 39.449s1.167-.374 2.27.33"/></g><g><path fill="none" stroke="#ef8998" stroke-linecap="round" stroke-miterlimit="20" stroke-width=".5" d="M-167.658 38.575s1.462-.652 2.795.402"/></g><g clip-path="url(#clip-0:412:0:sm)" opacity=".51"><path fill="url(#zewsq)" d="M-165.523 44.007a2.94 2.94 0 1 0-5.872.32 2.94 2.94 0 0 0 5.872-.32z"/></g><g><path fill="none" stroke="#ef8998" stroke-linecap="round" stroke-miterlimit="20" stroke-width=".5" d="M-175.11 38.075c-.01-.19-.005-.38.012-.566.031-.326.253-1.952 1.576-1.973h.002c.505 0 .815.064 1.014.212"/></g><g><path fill="none" stroke="#ef8998" stroke-linecap="round" stroke-miterlimit="20" stroke-width=".5" d="M-174.29 35.784l.848 1.487"/></g><g clip-path="url(#clip-0:409:0:sm)" opacity=".75"><path fill="url(#zewsr)" d="M-169.418 51.274l.611-2.75c-3.146-.946-3.897-1.614-3.897-1.614s-.082 2.632 3.286 4.364z"/></g><g clip-path="url(#clip-0:408:0:sm)" opacity=".5"><path fill="url(#zewss)" d="M-186.01 69.206s-8.034 1.466-11.931 6.315c-.749 9.762-.36 20.221-.078 25.381 5.353 5.511 13.902 4.269 13.902 4.269-7.126-8.685-1.893-35.965-1.893-35.965z"/></g><g><path fill="#ffadb7" d="M-174.122 108.422c4.146-1.692 10.071 1.355 10.364 4.32h-10.226z"/></g><g><path fill="#ffadb7" d="M-174.122 108.422s-20.573-6.37-20.761-21.067c-.038-2.954.282-5.45.868-7.599l-3.435-6.514-8.357-1.219c-1.21 3.507-1.881 7.269-2.026 11.213-.446 12.135 7.627 29.505 33.849 29.505z"/></g><g><path fill="#fcd98e" d="M-194.015 79.757c1.424-5.228 4.455-8.342 8.005-10.552l-4.9-14.92c-7.515 4.285-12.384 10.452-14.897 17.739z"/></g><g><path fill="#fff" d="M-164.6 114.412h-25.664a.835.835 0 0 1 0-1.67h25.665z"/></g><g><path fill="#a9b2bf" d="M-125.235 114.412h-39.364v-1.67h40.306v.728c0 .52-.42.942-.942.942z"/></g><g><path fill="#fff" d="M-147.452 85.1h-9.108a.922.922 0 0 0-.88.646l-8.427 26.996h18.415z"/></g><g><path fill="#c1c7d3" d="M-164.6 112.742h40.308l8.226-26.352a.994.994 0 0 0-.948-1.29h-38.956z"/></g><g><path fill="none" stroke="#01004c" stroke-linecap="round" stroke-linejoin="round" stroke-miterlimit="20" stroke-width="1.2" d="M9.093 102.749v93.948"/></g><g><path fill="none" stroke="#01004c" stroke-linecap="round" stroke-linejoin="round" stroke-miterlimit="20" stroke-width="1.2" d="M30.665 96.959V196.5"/></g><g><path fill="none" stroke="#01004c" stroke-linecap="round" stroke-linejoin="round" stroke-miterlimit="20" stroke-width="1.2" d="M-30.616 102.749v93.948"/></g><g><path fill="none" stroke="#01004c" stroke-linecap="round" stroke-linejoin="round" stroke-miterlimit="20" stroke-width="1.2" d="M-30.616 139.27h61.28"/></g><g><path fill="#d64949" d="M1.471 104.577l-.012-3.378c16.537-.054 25.515-2.103 30.022-6.853 2.825-2.978 4.002-7.168 3.704-13.185-.797-16.145-.995-36.781 4.598-53.215l3.198 1.089c-5.409 15.892-5.205 36.115-4.422 51.96.342 6.905-1.172 12.032-4.627 15.675-5.205 5.485-14.913 7.849-32.46 7.907z"/></g><g><path fill="#fc7e7e" d="M-33.28 101.199H1.46l.01 3.378h-34.737z"/></g><g><path fill="#e95f5c" d="M5.045 27.946C-.548 44.38-.351 65.016.447 81.16c.298 6.016-.88 10.207-3.704 13.184-4.507 4.75-13.485 6.8-30.022 6.854H1.46c16.536-.054 25.514-2.104 30.021-6.854 2.825-2.977 4.001-7.168 3.704-13.184-.797-16.145-.995-36.781 4.598-53.215z"/></g><g><path fill="none" stroke="#01004c" stroke-linecap="round" stroke-linejoin="round" stroke-miterlimit="20" d="M60.525-65.344v0H-42.856v34.635h29.162v0l7.863 8.159v0-8.16 0h66.356v0-34.634 0z"/></g><g><path fill="none" stroke="#91b6e0" stroke-miterlimit="20" d="M54.427-48.027c0-6.496-5.266-11.762-11.762-11.762s-11.76 5.266-11.76 11.762 5.264 11.762 11.76 11.762c6.496 0 11.762-5.266 11.762-11.762z"/></g><g><path fill="#91b6e0" d="M46.164-51.552a3.498 3.498 0 1 0-6.996 0 3.498 3.498 0 0 0 6.996 0z"/></g><g><path fill="#91b6e0" d="M42.666-46.823a7.292 7.292 0 0 0-7.253 8.043 11.7 11.7 0 0 0 7.253 2.515c2.739 0 5.253-.945 7.253-2.515a7.292 7.292 0 0 0-7.253-8.043z"/></g><g><path fill="#91b6e0" d="M23.838-54.284h-57.84v-3.255h57.84z"/></g><g><path fill="#f98091" d="M-29.82-40.773l-2.585 1.36.494-2.879-2.091-2.038 2.89-.42 1.292-2.619 1.292 2.62 2.89.42-2.091 2.037.493 2.878z"/></g><g><path fill="#f98091" d="M-17.451-40.773l-2.585 1.36.494-2.879-2.091-2.038 2.89-.42 1.292-2.619 1.292 2.62 2.89.42-2.091 2.037.493 2.878z"/></g><g><path fill="#f98091" d="M-5.082-40.773l-2.585 1.36.494-2.879-2.091-2.038 2.89-.42 1.292-2.619 1.292 2.62 2.89.42-2.091 2.037.493 2.878z"/></g><g><path fill="#ffadb7" d="M-2.932 40.842l-6.271-.657c-1.497 3.057-3.232 6.155-5.42 9.118-10.69 14.476-18.443 24.96-18.435 38.855l6.577-3.252s-.891-5.679 3.006-9.019c3.68-3.153 13.366-12.123 22.22-28.115z"/></g><g clip-path="url(#clip-0:384:0:sm)" opacity=".5"><path fill="url(#zewst)" d="M-17.799 70.486a99.14 99.14 0 0 0 5.557-6.329c-2.208-1.96-6.304-5.003-7.934-7.248-1.75 2.456-3.366 4.821-4.824 7.143.981 2.101 4.12 4.641 7.201 6.434z"/></g><g><path fill="#282766" d="M.241 77.084c-7.683.334-35.408.167-44.76 27.892-9.354 27.724 3.09 51.555 3.09 51.555l6.573-1.034s-6.657-26.137-.31-39.331c6.346-13.194 16.534-17.745 31.9-16.785z"/></g><g><path fill="#f98091" d="M-41.547 156.55l-9.667 8.716 18.022-3.923-1.664-5.846z"/></g><g clip-path="url(#clip-0:381:0:sm)" opacity=".5"><path fill="url(#zewsu)" d="M-29.564 84.888c.812 4.956 2.777 12.923 5.791 18.217 5.477-3.159 12.242-4.241 20.507-3.724L.241 77.084c-4.99.216-18.431.231-29.805 7.804z"/></g><g><path fill="#f98091" d="M-20.08 166.883l-7.96 10.3 17.035-7.07-2.677-5.458z"/></g><g><path fill="#282766" d="M.241 77.084s-22.325 15.42-26.778 43.926c-4.454 28.504 6.457 45.874 6.457 45.874l6.398-2.228s-4.792-26.272 2.223-43.642c7.014-17.37 19.55-21.717 28.903-22.051 9.353-.334 12.916-10.243 11.58-20.933z"/></g><g><path fill="#62a5e7" d="M30.471 79.032s1.113-31.955-2.004-44.203C25.35 22.58 22.343 16.01 9.204 16.568-1.245 17.01-3.388 28.3-9.203 40.184l7.947 7.587a73.488 73.488 0 0 0 1.497-2.838S-2.18 67.059-6.628 77.468c0 0 22.401 3.792 37.1 1.564z"/></g><g clip-path="url(#clip-0:377:0:sm)" opacity=".5"><path fill="url(#zewsv)" d="M28.467 34.829c-1.21-4.754-2.688-8.193-4.464-11.152l-8.571 4.269c8.025 11.002-2.923 33.84-8.555 38.315 0 0 10.611 6.301 23.786-.831-.017-10.222-.418-23.615-2.196-30.601z"/></g><g><path fill="#fff" d="M-14.246 58.888h-5.526a1.83 1.83 0 0 1-1.83-1.83V45.232a1.83 1.83 0 0 1 1.83-1.83h5.525a1.83 1.83 0 0 1 1.83 1.83v11.826a1.83 1.83 0 0 1-1.83 1.83z"/></g><g><path fill="#ffadb7" d="M-18.748 62.776c-1.602-2.951-2.492-7.404.68-7.738 3.174-.334 4.009 1.614 3.675 5.177z"/></g><g><path fill="#ffadb7" d="M21.894 34.383l-5.338 4.16c.317 7.665-1.366 20.278-11.909 24.233-13.36 5.01-19.04-2.56-19.04-2.56l-4.356 2.56s3.911 7.961 18.664 8.795c14.88.843 23.437-7.014 26.555-20.153 1.247-5.255 1.761-9.76 1.611-13.772z"/></g><g><path fill="#62a5e7" d="M23.446 21.949c-4.676-6.903-9.669 1.745-7.442 11.767.24 1.08.466 2.78.551 4.828l11.526-.898c-.224-6.021-1.529-11.111-4.635-15.697z"/></g><g><path fill="#01004c" d="M14.367 12.01s5.558-.683 7.22-6.614C23.25-.537 23.2-6.3 18.612-7.143c0 0-.772-3.382-4.096-2.505 0 0-.554-2.39-3.302-2.184 0 0-1.143-3.926-6.147-3.104-5.004.821-4.98 3.883-4.98 3.883s-7.062-.995-6.258 6.351c0 0-2.95 3.491.548 5.407 0 0 .007 5.628 6.494 5.087 6.488-.54 13.496 6.218 13.496 6.218z"/></g><g><path fill="#ffadb7" d="M9.188 17.375s3.271 1.526 5.501.1c0 0 .129-1.26-.322-5.464 0 0-2.3-2.658-2.087-4.698.212-2.04 4.094-3.875 2.536-6.226-1.558-2.353-3.704-1.827-4.992.685-1.287 2.513-4.407 2.13-4.808-.513C4.613-1.385.902-1.435-1.331.17c0 0 .76 5.033-.278 7.428 0 0 .995.286 1.656.23 0 0 .193 4.579 3.499 6.208 2.349 1.157 5.224.036 5.224.036z"/></g><g clip-path="url(#clip-0:370:0:sm)" opacity=".75"><path fill="url(#zewsw)" d="M9.052 16.304c2.283-.396 2.939-3.65 2.939-3.65s-1.267.892-3.221 1.419z"/></g><g clip-path="url(#clip-0:369:0:sm)" opacity=".51"><path fill="url(#zewsx)" d="M8.048 9.478a3.171 3.171 0 1 0-6.335.304 3.171 3.171 0 0 0 6.335-.304z"/></g><g><path fill="none" stroke="#ef8998" stroke-linecap="round" stroke-miterlimit="20" stroke-width=".5" d="M.55 4.62s.938-1.284 2.195-.615"/></g><g><path fill="none" stroke="#ef8998" stroke-linecap="round" stroke-miterlimit="20" stroke-width=".5" d="M11.193 1.619c.434-.602.926-.952 1.362-.95.437.004.916.366 1.35 1.02.348.525.206.978-.51 1.893"/></g><g><path fill="none" stroke="#ef8998" stroke-linecap="round" stroke-miterlimit="20" stroke-width=".5" d="M13.51 1.186s-.294.505-.873 1.101"/></g></g></svg>