<svg xmlns="http://www.w3.org/2000/svg" xmlns:xlink="http://www.w3.org/1999/xlink" viewBox="0 0 214.03 109.76"><defs><style>.cls-1{fill:none;}.cls-2{opacity:0.4;}.cls-3{clip-path:url(#clip-path);}.cls-4{font-size:22px;font-family:..SFCompactRounded-Regular, "..SFCompactRounded Regular";}.cls-26,.cls-4{fill:#2b2b2b;}.cls-5{letter-spacing:-0.03em;}.cls-6{letter-spacing:0em;}.cls-7{letter-spacing:0em;}.cls-8{letter-spacing:-0.01em;}.cls-9{letter-spacing:-0.01em;}.cls-10{letter-spacing:0em;}.cls-11{letter-spacing:0em;}.cls-12{letter-spacing:-0.01em;}.cls-13{letter-spacing:0em;}.cls-14{letter-spacing:-0.01em;}.cls-15{letter-spacing:0em;}.cls-16{clip-path:url(#clip-path-2);}.cls-17{letter-spacing:0.01em;}.cls-18{letter-spacing:-0.01em;}.cls-19{letter-spacing:-0.01em;}.cls-20{letter-spacing:0.01em;}.cls-21{letter-spacing:-0.01em;}.cls-22{letter-spacing:0em;}.cls-23{letter-spacing:0em;}.cls-24{letter-spacing:0em;}.cls-25{opacity:0.45;}.cls-26{stroke:#fff;stroke-miterlimit:10;}</style><clipPath id="clip-path" transform="translate(0)"><rect class="cls-1" y="54.85" width="218.01" height="23.68"/></clipPath><clipPath id="clip-path-2" transform="translate(0)"><rect class="cls-1" y="85.89" width="221.95" height="28.68"/></clipPath></defs><g id="Слой_2" data-name="Слой 2"><g id="Layer_1" data-name="Layer 1"><g class="cls-2"><g class="cls-3"><text class="cls-4" transform="translate(0 73.22)"><tspan class="cls-5" xml:space="preserve">Şəkli  </tspan><tspan class="cls-6" x="47.37" y="0">b</tspan><tspan x="59.82" y="0">u </tspan><tspan class="cls-7" x="76.6" y="0">s</tspan><tspan class="cls-8" x="85.42" y="0">a</tspan><tspan class="cls-9" x="95.87" y="0">h</tspan><tspan class="cls-8" x="107.89" y="0">ǝ</tspan><tspan class="cls-10" x="118.73" y="0">y</tspan><tspan x="129.16" y="0">ǝ </tspan><tspan class="cls-11" x="144.82" y="0">b</tspan><tspan class="cls-12" x="157.28" y="0">u</tspan><tspan class="cls-13" x="169.24" y="0">r</tspan><tspan class="cls-12" x="176.48" y="0">a</tspan><tspan class="cls-14" x="186.93" y="0">xı</tspan><tspan class="cls-15" x="201.83" y="0">n</tspan></text></g></g><g class="cls-2"><g class="cls-16"><text class="cls-4" transform="translate(21.09 104.26)"><tspan class="cls-17">*</tspan><tspan class="cls-18" x="9.24" y="0">f</tspan><tspan class="cls-19" x="15.36" y="0">o</tspan><tspan class="cls-20" x="27.32" y="0">r</tspan><tspan class="cls-8" x="34.69" y="0">m</tspan><tspan class="cls-21" x="52.89" y="0">a</tspan><tspan class="cls-22" x="63.23" y="0">t</tspan><tspan x="70.6" y="0">: </tspan><tspan class="cls-14" x="79.81" y="0">j</tspan><tspan class="cls-23" x="84.94" y="0">peg</tspan><tspan x="120.65" y="0">, </tspan><tspan class="cls-24" x="129.86" y="0">png</tspan></text></g></g><g class="cls-25"><path class="cls-26" d="M132.44.5H89.57a5.84,5.84,0,0,0-5.84,5.85V33.62a5.84,5.84,0,0,0,5.84,5.85h42.87a5.84,5.84,0,0,0,5.84-5.85V6.35A5.84,5.84,0,0,0,132.44.5Zm1.95,33.12a2,2,0,0,1-1.95,2H89.57a2,2,0,0,1-1.95-2V32.48l7.8-7.79,6.41,6.41a2,2,0,0,0,2.76,0L120.75,15l13.64,13.63v5Zm0-10.55L122.12,10.81a1.94,1.94,0,0,0-2.75,0L103.21,27,96.8,20.55a2,2,0,0,0-2.76,0L87.62,27V6.35A2,2,0,0,1,89.57,4.4h42.87a2,2,0,0,1,1.95,1.95V23.07Z" transform="translate(0)"/><path class="cls-26" d="M101.26,8.29a5.85,5.85,0,1,0,5.85,5.85A5.85,5.85,0,0,0,101.26,8.29Zm0,7.8a1.95,1.95,0,1,1,1.95-1.95A2,2,0,0,1,101.26,16.09Z" transform="translate(0)"/></g></g></g></svg>