<svg xmlns="http://www.w3.org/2000/svg" width="564" height="362" viewBox="0 0 564 362"><g><g><path fill="none" stroke="#2d5ca8" stroke-miterlimit="20" d="M55.575 309.637a79.003 79.003 0 0 1-2.419-.632"/></g><g><path fill="none" stroke="#2d5ca8" stroke-dasharray="4.992 3.494" stroke-miterlimit="20" d="M49.81 307.999c-12.568-4.076-24.671-11.355-33.096-21.365-30.33-36.031 5.21-82.214 40.573-96.756 17.244-7.092 32.786-15.565 37.854-35.228 4.849-18.809-8.43-38.468-11.855-56.416-6.9-36.135 25.595-64.086 59.877-64.089 31.598-.003 45.822 12.041 77.175 33.046 23.702 15.878 68.205 25.189 102.396 21.832 40.718-3.997 56.072-21.833 88.526-36.351 22.335-9.992 53.472-12.129 74.366 2.681 22.319 15.82 13.837 46.799 16.378 69.931.639 5.819 2.154 11.503 5.054 16.62 18.286 32.269 55.743 33.928 55.743 81.711 0 34.238-54.258 47.946-84.097 52.529"/></g><g><path fill="none" stroke="#2d5ca8" stroke-miterlimit="20" d="M476.972 276.403a251.4 251.4 0 0 1-2.472.35"/></g><g><path fill="none" stroke="#2d5ca8" stroke-miterlimit="20" d="M47.03 129.537h12.19"/></g><g><path fill="none" stroke="#2d5ca8" stroke-miterlimit="20" d="M59.22 136.316h12.188"/></g><g><path fill="none" stroke="#2d5ca8" stroke-miterlimit="20" d="M418.997 76.289h12.19"/></g><g><path fill="none" stroke="#2d5ca8" stroke-miterlimit="20" d="M411.26 83.07h12.189"/></g><g><path fill="none" stroke="#2d5ca8" stroke-miterlimit="20" d="M429.836 79.835H446.4"/></g><g><path fill="none" stroke="#2d5ca8" stroke-miterlimit="20" d="M536.137 220.775h8.77"/></g><g><path fill="none" stroke="#2d5ca8" stroke-miterlimit="20" d="M528.184 214.073h12.189"/></g><g><path fill="none" stroke="#2d5ca8" stroke-miterlimit="20" d="M133.118 43.384h12.188"/></g><g><path fill="none" stroke="#2d5ca8" stroke-miterlimit="20" d="M113.263 190.27h20.042"/></g><g><path fill="none" stroke="#2d5ca8" stroke-miterlimit="20" d="M137.54 190.27h10.403"/></g><g><path fill="none" stroke="#a9c6ea" stroke-miterlimit="20" d="M371.693 164.71a3.934 3.934 0 1 1-7.868 0 3.934 3.934 0 0 1 7.868 0z"/></g><g><path fill="none" stroke="#2d5ca8" stroke-miterlimit="20" d="M526.313 137.486a3.934 3.934 0 1 1-7.87 0 3.934 3.934 0 0 1 7.87 0z"/></g><g><path fill="none" stroke="#2d5ca8" stroke-miterlimit="20" d="M380.26 52.672a3.935 3.935 0 1 1-7.87-.002 3.935 3.935 0 0 1 7.87.002z"/></g><g><path fill="none" stroke="#2d5ca8" stroke-miterlimit="20" d="M457.129 58.563a1.957 1.957 0 1 1-3.914 0 1.957 1.957 0 0 1 3.914 0z"/></g><g><path fill="none" stroke="#2d5ca8" stroke-miterlimit="20" d="M337.468 205.615a1.958 1.958 0 1 1-3.915.001 1.958 1.958 0 0 1 3.915 0z"/></g><g><path fill="none" stroke="#2d5ca8" stroke-miterlimit="20" d="M110.049 65.233a1.957 1.957 0 1 1-3.914 0 1.957 1.957 0 0 1 3.914 0z"/></g><g><path fill="none" stroke="#2d5ca8" stroke-miterlimit="20" d="M21.59 187.533a1.957 1.957 0 1 1-3.914 0 1.957 1.957 0 0 1 3.915 0z"/></g><g><path fill="none" stroke="#2d5ca8" stroke-miterlimit="20" d="M117.996 147.438a1.957 1.957 0 1 1-3.913 0 1.957 1.957 0 0 1 3.913 0z"/></g><g><path fill="none" stroke="#2d5ca8" stroke-miterlimit="20" d="M57.604 86.708v4.631"/></g><g><path fill="none" stroke="#2d5ca8" stroke-miterlimit="20" d="M59.919 89.023h-4.631"/></g><g><path fill="none" stroke="#2d5ca8" stroke-miterlimit="20" d="M328.578 24.915v4.632"/></g><g><path fill="none" stroke="#2d5ca8" stroke-miterlimit="20" d="M330.894 27.231h-4.632"/></g><g><path fill="none" stroke="#2d5ca8" stroke-miterlimit="20" d="M474.36 96.549v4.632"/></g><g><path fill="none" stroke="#2d5ca8" stroke-miterlimit="20" d="M476.675 98.864h-4.632"/></g><g><path fill="none" stroke="#2d5ca8" stroke-miterlimit="20" d="M550.09 158.46v4.632"/></g><g><path fill="none" stroke="#2d5ca8" stroke-miterlimit="20" d="M552.405 160.775h-4.632"/></g><g><path fill="none" stroke="#2d5ca8" stroke-miterlimit="20" d="M528.184 239.765v4.632"/></g><g><path fill="none" stroke="#2d5ca8" stroke-miterlimit="20" d="M530.5 242.081h-4.632"/></g><g><path fill="#2d5ca8" d="M388.042 184.983a30.57 30.57 0 0 1-5.13 6.392l5.02 6.634a39.197 39.197 0 0 1-15.907 8.745l-2.911-7.794a30.612 30.612 0 0 1-8.145.905l-1.14 8.231a38.99 38.99 0 0 1-9.015-1.502 39.116 39.116 0 0 1-8.416-3.563l3.449-7.56a30.533 30.533 0 0 1-6.391-5.129l-6.635 5.02a39.224 39.224 0 0 1-8.745-15.909l7.795-2.91a30.535 30.535 0 0 1-.906-8.145l-8.231-1.14c.145-2.992.63-6.013 1.502-9.015a39.074 39.074 0 0 1 3.563-8.417l7.56 3.45a30.563 30.563 0 0 1 5.13-6.392l-5.021-6.635c4.54-4.116 10-7.117 15.909-8.744l2.91 7.795a30.487 30.487 0 0 1 8.145-.906l1.14-8.232c2.992.146 6.014.63 9.015 1.503a39.121 39.121 0 0 1 8.417 3.562l-3.45 7.561a30.51 30.51 0 0 1 6.392 5.13l6.635-5.022a39.224 39.224 0 0 1 8.745 15.91l-7.795 2.911c.657 2.631.973 5.367.905 8.144l8.233 1.14a39.154 39.154 0 0 1-1.503 9.015 39.044 39.044 0 0 1-3.563 8.416zm-31.835 3.053c10.442 3.034 21.366-2.97 24.4-13.413 3.034-10.442-2.971-21.365-13.412-24.4-10.442-3.034-21.366 2.971-24.4 13.412-3.035 10.442 2.97 21.367 13.412 24.401zm-8.45-22.958c2.24-7.7 10.295-12.128 17.996-9.89 7.699 2.237 12.127 10.292 9.89 17.992-2.238 7.701-10.294 12.128-17.994 9.891-7.7-2.237-12.128-10.293-9.891-17.993z"/></g><g><path fill="#2d5ca8" d="M399.894 108.935a15.053 15.053 0 0 1-.293 4.036l3.902 1.288a19.393 19.393 0 0 1-4.013 8.016l-3.369-2.352a15.079 15.079 0 0 1-3.056 2.652l1.845 3.665a19.31 19.31 0 0 1-4.085 1.918 19.328 19.328 0 0 1-4.42.912l-.718-4.04a15.097 15.097 0 0 1-4.036-.292l-1.288 3.9a19.359 19.359 0 0 1-8.016-4.013l2.352-3.368a15.137 15.137 0 0 1-2.652-3.056l-3.665 1.845a19.222 19.222 0 0 1-2.829-8.505l4.04-.718a15.012 15.012 0 0 1 .292-4.036l-3.902-1.29a19.38 19.38 0 0 1 4.013-8.013l3.37 2.35a15.027 15.027 0 0 1 3.056-2.651l-1.846-3.665a19.278 19.278 0 0 1 8.505-2.83l.72 4.04a15.092 15.092 0 0 1 4.034.292l1.29-3.9a19.37 19.37 0 0 1 8.014 4.012l-2.352 3.369a15.106 15.106 0 0 1 2.652 3.056l3.665-1.845a19.259 19.259 0 0 1 2.83 8.504zm-12.568 8.706a8.182 8.182 0 0 0 5.18-10.345 8.182 8.182 0 0 0-15.526 5.165 8.182 8.182 0 0 0 10.346 5.18z"/></g><g><path fill="#2d5ca8" d="M195.904 81.625a23.102 23.102 0 0 1-.447 6.177l5.971 1.971a29.635 29.635 0 0 1-6.143 12.267l-5.155-3.599a23.142 23.142 0 0 1-4.678 4.06l2.824 5.61a29.533 29.533 0 0 1-6.252 2.934 29.471 29.471 0 0 1-6.764 1.395l-1.1-6.182a23.102 23.102 0 0 1-6.177-.448l-1.971 5.971a29.639 29.639 0 0 1-12.268-6.143l3.6-5.155a23.053 23.053 0 0 1-4.06-4.678l-5.609 2.825a29.58 29.58 0 0 1-2.935-6.252 29.535 29.535 0 0 1-1.396-6.765l6.183-1.1a23.097 23.097 0 0 1 .448-6.176l-5.971-1.972a29.643 29.643 0 0 1 6.142-12.268l5.156 3.6a23.084 23.084 0 0 1 4.678-4.06l-2.825-5.609a29.473 29.473 0 0 1 13.017-4.331l1.1 6.184a23.056 23.056 0 0 1 6.176.447l1.972-5.97a29.633 29.633 0 0 1 12.267 6.141l-3.599 5.156a23.106 23.106 0 0 1 4.059 4.678l5.609-2.824a29.458 29.458 0 0 1 4.331 13.016zM176.669 94.95c6.561-2.183 10.11-9.27 7.927-15.833-2.184-6.562-9.272-10.11-15.833-7.927-6.562 2.183-10.111 9.272-7.928 15.833 2.184 6.561 9.272 10.111 15.834 7.927z"/></g><g><path fill="#2d5ca8" d="M141.609 125.288a17.301 17.301 0 0 1-2.906 3.62l2.844 3.759a22.225 22.225 0 0 1-9.011 4.953l-1.65-4.415a17.321 17.321 0 0 1-4.613.513l-.647 4.663a22.159 22.159 0 0 1-5.106-.851 22.143 22.143 0 0 1-4.768-2.018l1.954-4.284a17.322 17.322 0 0 1-3.621-2.905l-3.758 2.844a22.224 22.224 0 0 1-4.954-9.012l4.415-1.649a17.319 17.319 0 0 1-.512-4.614l-4.663-.645c.083-1.695.357-3.406.85-5.107a22.164 22.164 0 0 1 2.019-4.768l4.283 1.954a17.333 17.333 0 0 1 2.906-3.621l-2.844-3.758a22.215 22.215 0 0 1 9.01-4.954l1.65 4.415a17.321 17.321 0 0 1 4.614-.513l.646-4.663a22.16 22.16 0 0 1 5.107.852 22.16 22.16 0 0 1 4.767 2.017l-1.954 4.284a17.25 17.25 0 0 1 3.62 2.906l3.76-2.845a22.21 22.21 0 0 1 4.953 9.012l-4.415 1.649c.372 1.492.55 3.041.513 4.615l4.663.645a22.176 22.176 0 0 1-.851 5.107 22.163 22.163 0 0 1-2.018 4.767zm-18.034 1.729c5.915 1.718 12.103-1.683 13.822-7.598 1.719-5.915-1.683-12.104-7.598-13.822-5.915-1.719-12.103 1.682-13.822 7.597-1.72 5.915 1.683 12.104 7.598 13.823zm-4.786-13.005a8.226 8.226 0 0 1 10.193-5.603 8.223 8.223 0 0 1 5.602 10.192 8.224 8.224 0 1 1-15.795-4.589z"/></g><g><path fill="#2d5ca8" d="M253.424 361.572c2.603-5.37 16.17-28.873 30.476-36.638 1.818-.986 3.736-1.9 5.795-2.094 2.06-.194 4.307.46 5.553 2.11 1.137 1.506 1.263 3.561.935 5.42-2.598 14.702-19.343 20.331-27.522 31.202z"/></g><g><path fill="#2d5ca8" d="M253.424 361.484s13.46-26.57 26.604-42.399c6.22-7.494 10.494-21.373 3.953-25.533-9.466-6.016-18.767 7.386-23.03 14.041-6.443 10.065-11.184 21.203-14.84 32.55-.53 1.643-5.358 21.341-5.454 21.341h3.264z"/></g><g><path fill="none" stroke="#fff" stroke-miterlimit="20" d="M279.165 301.162c-12.412 15.692-22.709 38.926-29.55 60.322"/></g><g><path fill="#b2cded" d="M225.198 361.484s-1.562-40.885-19.653-59.786c-4.888-5.107-12.9-10.414-19.476-11.868-8.522-1.885-8.29 8.137-6.748 14.632 2 8.415 8.877 13.662 13.836 19.93 9.126 11.532 14.572 19.145 21.235 37.092z"/></g><g><path fill="#2d5ca8" d="M230.636 361.484c4.885-8.937 3.167-47.144.718-59.11-1.702-8.32-5.195-16.436-9.971-23.078-4.328-6.019-17.265-19.286-24.878-13.894-4.402 3.118 2.267 14.35 4.027 17.722 5.705 10.934 10.227 22.624 13.762 34.648 4.089 13.91 7.182 28.527 8.288 43.156.014.185.027.37.039.556z"/></g><g><path fill="#2d5ca8" d="M231.53 361.484c-1.61-21.394-.58-54.227 9.064-72.772 10.937-21.032 25.193-30.742 27.262-22.545 6.002 23.772-18.082 87.71-24.863 95.317z"/></g><g><path fill="none" stroke="#fff" stroke-miterlimit="20" d="M183.679 296.657c19.466 13.57 32.9 39.271 35.402 64.827"/></g><g><path fill="none" stroke="#fff" stroke-miterlimit="20" d="M203.597 272.226c9.564 8.54 14.428 21.9 17.367 34.836 4.049 17.815 5.997 36.074 6.637 54.423"/></g><g><path fill="none" stroke="#fff" stroke-miterlimit="20" d="M261.713 275.164c-11.773 27.051-21.703 56.275-23.365 86.32"/></g><g><path fill="#2d5ca8" d="M289.493 327.97s-17.208 11.43-29.217 33.515"/><path fill="none" stroke="#fff" stroke-miterlimit="20" d="M289.493 327.97s-17.208 11.43-29.217 33.515"/></g><g><path fill="#2d5ca8" d="M465.567 361.416c2.556-33.79-.292-66.931 12.58-98.951 3.653-9.088 11.98-23.424 23.491-23.913 17.783-.757 6.895 34.968 3.673 48.337-2.07 8.595-5.16 17.147-8.37 25.369-5.689 14.576-14.246 34.956-20.712 49.158z"/></g><g><path fill="#2d5ca8" d="M456.336 361.416c-5.599-14.324-11.076-28.696-16.614-43.044-4.912-12.726-10.627-25.17-14.596-38.242-3.02-9.95-10.827-32.754.602-39.764 20.35-12.482 36.615 35.818 38.762 52.971 2.83 22.609 2.22 45.351 2.558 68.079z"/></g><g><path fill="#2d5ca8" d="M440.164 361.416s-11.893-15.192-17.257-22.317c-11.982-15.915-26.756-33.202-24.55-51.09.507-4.118 2.016-8.701 6.153-11.137 2.53-1.489 5.671-1.902 8.544-1.629 9.736.928 18.46 15.068 22.84 22.317 8.578 14.195 21.861 63.856 21.861 63.856z"/></g><g><path fill="none" stroke="#fff" stroke-miterlimit="20" d="M431.067 250.38c14.517 29.359 28.686 83.726 29.033 111.036"/></g><g><path fill="none" stroke="#fff" stroke-miterlimit="20" d="M408.498 284.098c12.773 24.538 38.751 77.318 38.751 77.318"/></g><g><path fill="none" stroke="#fff" stroke-miterlimit="20" d="M500.9 246.322c-10.424 23.245-24.708 73.63-30.461 115.162"/></g><g><path fill="#2d5ca8" d="M476.732 361.416s5.943-26.48 10.058-41.513c4.474-16.345 19.11-41.365 34.494-48.473 3.54-1.636 7.809-2.76 11.235-.893 2.094 1.141 3.52 3.26 4.293 5.517 2.618 7.646-10.191 31.795-14.597 38.571-8.627 13.271-20.982 34.357-30.777 46.791z"/></g><g><path fill="none" stroke="#fff" stroke-miterlimit="20" d="M529.664 276.753c-18.188 15.792-42.52 66.145-49.323 84.663"/></g><g><path fill="#2d5ca8" d="M82.034 344.94c-2.329-12.349-6.149-36.837-9.048-51.865-1.402-7.272-5.46-16.155-8.037-23.053-4.7-12.588-16.058-34.463-30.142-33.293-17.475 1.45-3.352 32.867 1.098 44.727 2.861 7.625 6.715 15.087 10.653 22.231 6.984 12.668 17.335 30.308 25.042 42.54z"/></g><g><path fill="#b2cded" d="M92.122 331.613c-4.264-11.153-3.112-25.34-3.098-37.145.026-21.246 7.404-51.114 21.24-65.056 5.702-5.747 15.138-12.139 21.268-3.353 5.805 8.321-.906 30.934-3.02 40.65-4.143 19.027-23.975 54.268-29.704 72.691z"/></g><g><path fill="none" stroke="#fff" stroke-miterlimit="20" d="M121.371 235.774c-9.83 25.498-23.044 72.021-26.416 99.14"/></g><g><path fill="none" stroke="#fff" stroke-miterlimit="20" d="M36.285 243.76c12.458 20.038 30.718 62.96 40.38 100.316"/></g><g><path fill="#2d5ca8" d="M82.532 317.938c5.241-8.577 11.458-36.42 12.876-46.372 1.994-13.994 2.21-28.777-1.255-42.563-2.338-9.299-13.035-37.12-26.459-24.574-6.304 5.893-5.298 38.004-4.547 46.6 1.471 16.834 10.191 46.976 13.183 63.607z"/></g><g><path fill="none" stroke="#fff" stroke-miterlimit="20" d="M75.128 211.604c9.217 24.006 6.884 83.661 4.003 104.523"/></g><g><path fill="none" stroke="#648acc" stroke-miterlimit="20" d="M.622 361.484h536.54"/></g><g><path fill="#f886bc" d="M217.169 119.91c2.622-2.587 8.987-11.33 9.71-11.115.723.216-1.476 3.32-.849 3.386.626.066 4.332-4.483 4.997-4.075.902.553-3.144 5.008-3.144 5.008s4.675-4.659 5.317-3.953c.455.5-2.948 4.22-4.071 5.804 1.435-1.563 4.061-3.819 4.522-3.29.458.524-1.805 3.105-3.434 5.176 1.138-1.197 3.324-3.264 3.774-2.795.448.466-5.028 8.804-10.044 14.888z"/></g><g><path fill="#f886bc" d="M183.782 151.847c22.312-19.062 37.282-36.493 37.282-36.493l8.38 5.596s-14.064 21.803-32.472 40.566z"/></g><g><path fill="#83b2e5" d="M177.118 158.22c4.608-5.787 12.221-11.386 12.221-11.386l13.514 10.927-11.86 13.915z"/></g><g><path fill="#f886bc" d="M200.401 257.344l-7.155 94.218 8.466 5.389s-23.265 1.21-24.022.45c-.756-.763.955-5.982.955-5.982l-3.885-94.3z"/></g><g><path fill="#28364c" d="M181.397 357.334l-3.465-3.406.49-1.79 5.325 5.205 2.561.01 9.03-4.46 9.805 6.137c1.133.709.626 2.459-.71 2.454l-13.177-.047-4.205-2.926-1.193-.004-.012 2.91-8.58-.031.015-4.067z"/></g><g><path fill="#f886bc" d="M181.61 256.84l-21.102 94.722 8.465 5.389s-23.264 1.21-24.02.45c-.757-.763.954-5.982.954-5.982l6.167-94.578z"/></g><g><path fill="#28364c" d="M148.658 357.334l-3.464-3.406.49-1.79 5.324 5.205 2.563.01 9.03-4.46 9.803 6.137c1.133.709.627 2.459-.71 2.454l-13.177-.047-4.205-2.926-1.193-.004-.01 2.91-8.582-.031.015-4.067z"/></g><g><path fill="#101d54" d="M159.425 207.98c-11.61 20.431-11.587 58.44-11.587 58.44h53.815s-.742-33.384-6.751-52.195z"/></g><g><path fill="none" stroke="#273b7a" stroke-miterlimit="20" stroke-width=".75" d="M177.407 209.816l1.341 56.604"/></g><g><path fill="none" stroke="#273b7a" stroke-miterlimit="20" stroke-width=".75" d="M189.315 212.196s-2.72 6.896-11.908 9.28"/></g><g><path fill="#f886bc" d="M236.899 188.114c3.536 1.03 14.272 2.332 14.438 3.067.163.737-3.62.33-3.372.91.246.578 6.024 1.6 5.992 2.378-.044 1.056-5.906-.307-5.906-.307s6.346 1.813 6.042 2.72c-.215.64-5.12-.522-7.05-.73 2.063.492 5.311 1.686 5.075 2.347-.236.655-3.592-.064-6.194-.478 1.6.41 4.47 1.314 4.28 1.934-.19.62-8.476-.56-16.232-1.979z"/></g><g><path fill="#a8ceff" d="M173.59 152.76s.886 2.274 5.718 2.274c3.375 0 4.645-1.768 4.645-1.768s1.243 1.114 14.538 18.562c2.815 3.695 2.207 11.665-2.498 18.558-1.113 6.918-1.528 14.982-1.091 23.84h-38.478s-.671-27.645 1.989-42.722c1.574-8.918 8.262-16.008 15.177-18.744z"/></g><g><path fill="#f886bc" d="M199.008 164.71c25.638 20.116 43.417 24.48 43.417 24.48l-2.091 9.858s-30.793-3.905-51.018-20.906z"/></g><g><path fill="#a8ceff" d="M184.118 153.93c6.578 1.107 16.672 10.789 16.672 10.789l-10.713 15.726s-4.549-3.15-10.713-8.448z"/></g><g><path fill="none" stroke="#101d54" stroke-miterlimit="20" stroke-width=".75" d="M190.077 179.852c-8.024-4.886-11.634-8.469-11.634-8.469"/></g><g><path fill="#f886bc" d="M186.99 135.719c2.675 4.422 3.781 8.843.033 11.11-3.747 2.268-9.773 3.396-13.605-2.9-2.687-4.413-1.805-9.843 1.942-12.11 3.748-2.268 8.955-.522 11.63 3.9z"/></g><g><path fill="#0b0b3a" d="M183.875 136.85c.124.449.48.978.922.962a.28.28 0 0 0 .26-.198c.257-.764-1.44-1.7-1.182-.763z"/></g><g><path fill="none" stroke="#0b0b3a" stroke-linecap="round" stroke-miterlimit="20" stroke-width=".5" d="M182.102 136.47c.69-.975 1.608-1.372 2.54-1.484"/></g><g><path fill="#fff" d="M188.009 140.76l-2.48 1.238s.875 2.14 2.215 1.74c1.12-.334.265-2.978.265-2.978z"/></g><g><path fill="#f886bc" d="M184.118 153.93s-2.143 1.17-4.81 1.105c-3.873-.097-5.718-1.645-5.718-1.645l2.552-10.907 9.386.684z"/></g><g><path fill="#f886bc" d="M186.086 135.92s3.205 2.145 3.319 2.715c.114.57-1.243 1.395-1.243 1.395z"/></g><g><path fill="#0b0b3a" d="M177.118 128.773c-.346.176-1.542-.147-1.977-.147-.609 0-1.218.044-1.819.154-3.573.652-6.242 3.61-7.925 6.652-1.105 1.998-2.034 4.218-4.045 5.486-4.42 2.787-10.222 1.79-15.173 3.457-5.04 1.696-8.9 6.81-7.549 12.267.442 1.786 1.381 3.411 1.932 5.167 1.18 3.746.628 8.107 2.877 11.325.605.864 1.383 1.594 2.223 2.231 3.763 2.858 8.882 3.842 13.436 2.582 4.554-1.26 8.44-4.735 10.2-9.12 2-4.987 1.375-10.927 4.292-15.438 1.362-2.107 3.397-3.715 4.751-5.828 1.237-1.93 1.887-5.564 2.036-7.889.034-.537-.928-5.003-.64-5.003 2.315 0 5.28-1.44 6.647-2.808-1.742-3.826-6.194-4.645-9.266-3.088z"/></g><g><path fill="#f886bc" d="M179.617 140.255s-1.345-.931-2.228.389c-1.142 1.707 1.608 3.863 2.931 3.963 1.324.099 1.29-1.338 1.29-1.338z"/></g><g><path fill="#d9e4f4" d="M467.737 224.912h-83.674V113.17h83.674z"/><path fill="none" stroke="#648acc" stroke-miterlimit="20" d="M467.737 224.912v0h-83.674v0V113.17v0h83.674v0z"/></g><g><path fill="#fff" d="M480.235 224.912h-83.674V113.17h83.674z"/><path fill="none" stroke="#648acc" stroke-miterlimit="20" d="M480.235 224.912v0h-83.674v0V113.17v0h83.674v0z"/></g><g opacity=".45"><g opacity=".45"><path fill="#d7e3f4" d="M465.86 136.472h-54.247a3.597 3.597 0 0 1-3.596-3.596v-7.416a3.596 3.596 0 0 1 3.596-3.595h54.247a3.595 3.595 0 0 1 3.595 3.595v7.416a3.596 3.596 0 0 1-3.594 3.596z"/></g></g><g opacity=".45"><g opacity=".45"><path fill="#d7e3f4" d="M439.782 215.694h-28.169a3.596 3.596 0 0 1-3.596-3.595v-33.875a3.596 3.596 0 0 1 3.596-3.594h28.17a3.596 3.596 0 0 1 3.595 3.594V212.1a3.595 3.595 0 0 1-3.596 3.595z"/></g></g><g><path fill="#b2cded" d="M412.602 151.004h-1.864c-1.502 0-2.72-1.597-2.72-3.565 0-1.97 1.218-3.566 2.72-3.566h1.864z"/></g><g><path fill="#d7e3f4" d="M415.32 147.438c0 1.97-1.218 3.565-2.719 3.565-1.502 0-2.719-1.596-2.719-3.565 0-1.97 1.217-3.565 2.72-3.565 1.5 0 2.718 1.595 2.718 3.565z"/></g><g><path fill="#b2cded" d="M430.647 151.004h-1.864c-1.502 0-2.72-1.597-2.72-3.565 0-1.97 1.218-3.566 2.72-3.566h1.864z"/></g><g><path fill="#d7e3f4" d="M433.365 147.438c0 1.97-1.218 3.565-2.719 3.565-1.502 0-2.718-1.596-2.718-3.565 0-1.97 1.216-3.565 2.718-3.565 1.501 0 2.72 1.595 2.72 3.565z"/></g><g><path fill="#b2cded" d="M448.692 151.004h-1.864c-1.502 0-2.72-1.597-2.72-3.565 0-1.97 1.218-3.566 2.72-3.566h1.864z"/></g><g><path fill="#d7e3f4" d="M451.41 147.438c0 1.97-1.217 3.565-2.719 3.565-1.502 0-2.718-1.596-2.718-3.565 0-1.97 1.216-3.565 2.718-3.565s2.72 1.595 2.72 3.565z"/></g><g><path fill="#b2cded" d="M466.736 151.004h-1.864c-1.5 0-2.719-1.597-2.719-3.565 0-1.97 1.218-3.566 2.72-3.566h1.864z"/></g><g><path fill="#d7e3f4" d="M469.455 147.438c0 1.97-1.217 3.565-2.719 3.565-1.5 0-2.718-1.596-2.718-3.565 0-1.97 1.217-3.565 2.718-3.565 1.502 0 2.72 1.595 2.72 3.565z"/></g><g><path fill="#b2cded" d="M412.602 168.275h-1.864c-1.502 0-2.72-1.597-2.72-3.565 0-1.97 1.218-3.566 2.72-3.566h1.864z"/></g><g><path fill="#d7e3f4" d="M415.32 164.71c0 1.969-1.218 3.565-2.719 3.565-1.502 0-2.719-1.596-2.719-3.565 0-1.97 1.217-3.565 2.72-3.565 1.5 0 2.718 1.595 2.718 3.565z"/></g><g><path fill="#b2cded" d="M430.647 168.275h-1.864c-1.502 0-2.72-1.597-2.72-3.565 0-1.97 1.218-3.566 2.72-3.566h1.864z"/></g><g><path fill="#d7e3f4" d="M433.365 164.71c0 1.969-1.218 3.565-2.719 3.565-1.502 0-2.718-1.596-2.718-3.565 0-1.97 1.216-3.565 2.718-3.565 1.501 0 2.72 1.595 2.72 3.565z"/></g><g><path fill="#b2cded" d="M448.692 168.275h-1.864c-1.502 0-2.72-1.597-2.72-3.565 0-1.97 1.218-3.566 2.72-3.566h1.864z"/></g><g><path fill="#d7e3f4" d="M451.41 164.71c0 1.969-1.217 3.565-2.719 3.565-1.502 0-2.718-1.596-2.718-3.565 0-1.97 1.216-3.565 2.718-3.565s2.72 1.595 2.72 3.565z"/></g><g><path fill="#b2cded" d="M466.736 168.275h-1.864c-1.5 0-2.719-1.597-2.719-3.565 0-1.97 1.218-3.566 2.72-3.566h1.864z"/></g><g><path fill="#d7e3f4" d="M469.455 164.71c0 1.969-1.217 3.565-2.719 3.565-1.5 0-2.718-1.596-2.718-3.565 0-1.97 1.217-3.565 2.718-3.565 1.502 0 2.72 1.595 2.72 3.565z"/></g><g><path fill="#fff" d="M66.326 361.484h142.001v-108.81h-106.27l-35.73 41.784z"/></g><g><path fill="none" stroke="#648acc" stroke-miterlimit="20" d="M66.326 361.484v0h142.001v0-108.81 0h-106.27v0l-35.73 41.784v67.026z"/></g><g><path fill="#d9e4f4" d="M168.017 361.484h52.32v-108.81h-17.31l-35.01 41.784z"/></g><g><path fill="none" stroke="#648acc" stroke-miterlimit="20" d="M168.017 361.484v0h52.32v0-108.81 0h-17.31v0l-35.01 41.784v67.026z"/></g><g><path fill="#d9e4f4" d="M66.326 294.458h101.69v67.026H66.326z"/><path fill="none" stroke="#648acc" stroke-miterlimit="20" d="M66.326 294.458v0h101.69v67.026H66.326v0z"/></g><g><path fill="#b2cded" d="M177.114 264.875c.974.892 2.965.292 4.448-1.339 1.483-1.632 1.897-3.676.923-4.567l-2.017-1.847-5.372 5.907 2.018 1.846z"/></g><g><path fill="#d7e3f4" d="M175.225 263.146c.973.89 2.965.29 4.447-1.34 1.484-1.631 1.897-3.676.924-4.567-.974-.891-2.965-.29-4.448 1.34-1.484 1.63-1.897 3.675-.923 4.567z"/></g><g><path fill="#b2cded" d="M161.285 264.875c.974.892 2.965.292 4.448-1.339 1.484-1.632 1.897-3.676.923-4.567l-2.017-1.847-5.372 5.907 2.018 1.846z"/></g><g><path fill="#d7e3f4" d="M159.396 263.146c.973.89 2.965.29 4.447-1.34 1.484-1.631 1.897-3.676.924-4.567-.974-.891-2.965-.29-4.448 1.34-1.484 1.63-1.897 3.675-.923 4.567z"/></g><g><path fill="#b2cded" d="M128.703 264.875c.974.892 2.966.292 4.45-1.339 1.482-1.632 1.895-3.676.922-4.567l-2.018-1.847-5.37 5.907 2.016 1.846z"/></g><g><path fill="#d7e3f4" d="M126.814 263.146c.974.89 2.965.29 4.448-1.34 1.484-1.631 1.897-3.676.923-4.567s-2.965-.29-4.448 1.34c-1.484 1.63-1.896 3.675-.923 4.567z"/></g><g><path fill="#b2cded" d="M111.919 264.875c.974.892 2.965.292 4.448-1.339 1.484-1.632 1.897-3.676.923-4.567l-2.017-1.847-5.371 5.907 2.017 1.846z"/></g><g><path fill="#d7e3f4" d="M110.03 263.146c.972.89 2.964.29 4.447-1.34 1.484-1.631 1.897-3.676.923-4.567s-2.965-.29-4.448 1.34c-1.484 1.63-1.897 3.675-.923 4.567z"/></g><g opacity=".45"><g opacity=".45"><path fill="#d7e3f4" d="M166.805 286.843l5.643-7.311H86.524l-6.456 7.31z"/></g></g><g><path fill="none" stroke="#648acc" stroke-miterlimit="20" d="M261.83 236.01v90.874a7.959 7.959 0 0 1-7.96 7.959h-50.553a7.959 7.959 0 0 1-7.958-7.96v-2.604 0"/></g><g><path fill="none" stroke="#648acc" stroke-miterlimit="20" d="M274.358 240.18v103.822a8.117 8.117 0 0 1-8.116 8.117h-80.373a7.958 7.958 0 0 1-7.958-7.96v-19.88 0"/></g><g><path fill="none" stroke="#648acc" stroke-miterlimit="20" d="M297.1 238.442v60.231a7.958 7.958 0 0 0 7.959 7.958h62.778a7.958 7.958 0 0 0 7.959-7.958V195.491a7.957 7.957 0 0 1 7.958-7.958h25.885v0"/></g><g><path fill="none" stroke="#648acc" stroke-miterlimit="20" d="M287.008 240.18v84.42a7.96 7.96 0 0 0 7.959 7.959h115.26a7.96 7.96 0 0 0 7.959-7.96V207.238v0"/></g><g><path fill="#fdd305" d="M204.766 108.082c0-41.357 33.527-74.885 74.885-74.885 41.357 0 74.884 33.528 74.884 74.885 0 16.486-5.331 31.725-14.36 44.094h.002c-10.69 16.107-38.464 34.293-38.464 45.188v12.447c0 2.485-2.013 4.5-4.5 4.5h-35.127a4.5 4.5 0 0 1-4.5-4.5v-12.447c0-10.895-27.772-29.081-38.462-45.188-9.027-12.369-14.358-27.608-14.358-44.094z"/></g><g><path fill="#fff" d="M288.153 213.069c-.087-1.876-1.428-31.936.98-58.281a80.753 80.753 0 0 1-9.483.535 80.71 80.71 0 0 1-9.482-.535c2.407 26.345 1.065 56.405.978 58.28l-1.32-.06c.02-.463 1.41-31.556-1.05-58.4-22.212-3.088-32.152-15.67-33.937-27.545-1.043-6.941 1.327-13.848 5.635-16.424 2.615-1.564 5.773-1.88 9.135-.915 5.29 1.516 10.316 6.074 13.447 12.19 3.616 7.065 5.752 18.793 6.985 31.525 2.978.367 6.177.562 9.61.562 3.43 0 6.63-.195 9.607-.562 1.233-12.732 3.371-24.46 6.986-31.524 3.131-6.117 8.157-10.675 13.447-12.191 3.361-.965 6.521-.65 9.135.915 4.31 2.576 6.68 9.483 5.635 16.424-1.784 11.875-11.727 24.457-33.937 27.545-2.46 26.844-1.07 57.937-1.05 58.4zm21.902-102.075c-4.944 1.418-9.667 5.726-12.634 11.523-3.477 6.794-5.555 18.235-6.769 30.737 21.276-3.067 30.8-15.063 32.502-26.388.951-6.33-1.2-12.817-5.007-15.094-1.415-.845-3.022-1.271-4.752-1.271-1.072 0-2.19.163-3.34.493zm-68.903.778c-3.805 2.277-5.957 8.765-5.007 15.094 1.703 11.325 11.226 23.32 32.502 26.388-1.214-12.502-3.29-23.943-6.768-30.737-2.967-5.797-7.69-10.105-12.634-11.523a12.116 12.116 0 0 0-3.34-.493c-1.73 0-3.338.426-4.753 1.27z"/></g><g><path fill="#fe9" d="M342.067 112.379a4.297 4.297 0 0 1-4.297-4.297c0-26.645-18.015-49.816-43.808-56.346a4.296 4.296 0 1 1 2.109-8.331c29.612 7.497 50.294 34.093 50.294 64.677a4.297 4.297 0 0 1-4.297 4.297z"/></g><g><path fill="#fe9" d="M278.207 45.547a4.297 4.297 0 1 0 8.595 0 4.297 4.297 0 0 0-8.595 0z"/></g><g opacity=".55"><g opacity=".55"><path fill="#ffc043" d="M354.39 112.51c-4.132 30.706-28.923 62.495-74.74 62.495-45.816 0-69.682-33.276-74.74-62.495a74.5 74.5 0 0 0 14.214 39.666c10.69 16.107 38.463 34.293 38.463 45.188v12.448a4.5 4.5 0 0 0 4.499 4.499h35.128a4.499 4.499 0 0 0 4.499-4.5v-12.447c0-10.895 27.775-29.081 38.464-45.188h-.001a74.485 74.485 0 0 0 14.215-39.666z"/></g></g><g><path fill="#28364c" d="M303.483 202.68h-47.665v22.717a19.54 19.54 0 0 0 3.044 10.474 20.486 20.486 0 0 0 17.295 9.507h6.988a20.487 20.487 0 0 0 17.295-9.507 19.548 19.548 0 0 0 3.043-10.474z"/></g><g><path fill="#475577" d="M255.814 217.999c.137.004.274 0 .413-.015l47.665-4.941c1.627-.169 2.763-1.631 2.537-3.267-.225-1.634-1.73-2.824-3.354-2.654l-47.665 4.941c-1.627.168-2.764 1.631-2.538 3.266a3.11 3.11 0 0 0 2.941 2.67z"/></g><g><path fill="#475577" d="M255.814 228.395c.137.005.274 0 .413-.015l47.665-4.94c1.627-.168 2.763-1.63 2.537-3.266-.225-1.634-1.73-2.822-3.354-2.654l-47.665 4.94c-1.627.169-2.764 1.63-2.538 3.267a3.107 3.107 0 0 0 2.941 2.669z"/></g><g><path fill="#475577" d="M257.718 238.688c.136.004.273 0 .412-.015l45.18-4.684c1.628-.168 2.764-1.63 2.538-3.266-.226-1.635-1.732-2.825-3.355-2.655l-45.18 4.684c-1.627.168-2.763 1.63-2.537 3.266a3.108 3.108 0 0 0 2.942 2.67z"/></g><g><path fill="#ffcd5c" d="M279.65 1.407V24.94"/><path fill="none" stroke="#ffc043" stroke-linecap="round" stroke-linejoin="round" stroke-miterlimit="20" stroke-width="3" d="M279.65 1.407V24.94"/></g><g><path fill="#ffcd5c" d="M322.087 10.78l-9.504 21.527"/><path fill="none" stroke="#ffc043" stroke-linecap="round" stroke-linejoin="round" stroke-miterlimit="20" stroke-width="3" d="M322.087 10.78l-9.504 21.527"/></g><g><path fill="#ffcd5c" d="M357.855 36.816l-17.39 15.855"/><path fill="none" stroke="#ffc043" stroke-linecap="round" stroke-linejoin="round" stroke-miterlimit="20" stroke-width="3" d="M357.855 36.816l-17.39 15.855"/></g><g><path fill="#ffcd5c" d="M237.214 10.78l9.503 21.527"/><path fill="none" stroke="#ffc043" stroke-linecap="round" stroke-linejoin="round" stroke-miterlimit="20" stroke-width="3" d="M237.214 10.78l9.503 21.527"/></g><g><path fill="#ffcd5c" d="M201.445 36.816l17.39 15.855"/><path fill="none" stroke="#ffc043" stroke-linecap="round" stroke-linejoin="round" stroke-miterlimit="20" stroke-width="3" d="M201.445 36.816l17.39 15.855"/></g><g><path fill="#648acc" d="M179.531 324.4a1.621 1.621 0 1 1-3.242 0 1.621 1.621 0 0 1 3.242 0z"/></g><g><path fill="#648acc" d="M196.98 324.4a1.62 1.62 0 1 1-3.24 0 1.62 1.62 0 0 1 3.24 0z"/></g><g><path fill="#648acc" d="M419.807 207.236a1.621 1.621 0 1 1-3.243 0 1.621 1.621 0 0 1 3.243 0z"/></g><g><path fill="#648acc" d="M428.94 207.236a1.621 1.621 0 1 1-3.242 0 1.621 1.621 0 0 1 3.243 0z"/></g><g><path fill="#648acc" d="M438.074 207.236a1.621 1.621 0 1 1-3.242 0 1.621 1.621 0 0 1 3.242 0z"/></g><g><path fill="#648acc" d="M411.26 187.533a1.621 1.621 0 1 1-3.243 0 1.621 1.621 0 0 1 3.243 0z"/></g><g><path fill="#f46072" d="M326.262 282.437c0 18.47 14.974 33.444 33.444 33.444 18.47 0 33.445-14.973 33.445-33.444 0-18.471-14.974-33.444-33.445-33.444-18.47 0-33.444 14.973-33.444 33.444z"/></g><g><path fill="#fff" d="M335.51 282.437c0 13.362 10.834 24.195 24.196 24.195 13.363 0 24.196-10.833 24.196-24.195s-10.833-24.195-24.196-24.195c-13.362 0-24.195 10.833-24.195 24.195z"/></g><g><path fill="#f46072" d="M343.087 282.437c0 9.179 7.44 16.619 16.619 16.619 9.179 0 16.619-7.44 16.619-16.62 0-9.178-7.44-16.618-16.619-16.618-9.179 0-16.619 7.44-16.619 16.619z"/></g><g><path fill="#fff" d="M351 282.437a8.706 8.706 0 0 0 8.706 8.706 8.705 8.705 0 0 0 8.706-8.706 8.705 8.705 0 0 0-8.706-8.706 8.706 8.706 0 0 0-8.706 8.706z"/></g><g><path fill="#0c3656" d="M358.358 283.784h5.467l-5.467-5.467z"/></g><g><path fill="#0c3656" d="M393.807 248.336h6.256v-1.577h-4.68v-4.678h-1.576z"/></g><g><path fill="#0c3656" d="M396.67 245.473h6.256v-1.577h-4.679v-4.678h-1.577z"/></g><g><path fill="#0c3656" d="M360.45 282.807l37.825-37.824-1.114-1.115-37.826 37.825z"/></g><g><path fill="#f886bc" d="M102.497 222.764l-4.125 7.834s-2.814 0-6.696-1.917c-3.856-1.903-4.979-4.524-4.979-4.524l6.975-9.227z"/></g><g><path fill="#f886bc" d="M111.268 207.967c3.837 2.26-2.5 16.576-5.962 17.482-3.462.906-10.336-5.858-12.385-11.59-2.05-5.731 4.543-8.865 8.419-10.03 3.875-1.164 9.928 4.138 9.928 4.138z"/></g><g><path fill="#00276f" d="M108.39 214.888c-.067.113-.13.228-.191.344-.062.117-.125.23-.178.352a.223.223 0 0 0-.035.11.216.216 0 0 0 .006.119.307.307 0 0 0 .135.177.3.3 0 0 0 .229.029.305.305 0 0 0 .177-.136c.069-.138.125-.282.184-.425.05-.123.1-.246.144-.372a.26.26 0 0 0-.026-.198.257.257 0 0 0-.123-.105.257.257 0 0 0-.322.105z"/></g><g><path fill="none" stroke="#00276f" stroke-linecap="round" stroke-linejoin="round" stroke-miterlimit="20" stroke-width=".75" d="M110.547 213.51s-.842-1.261-3.057-.82"/></g><g><path fill="#fff" d="M105.049 220.476l2.44 1.743s-.953 1.845-1.825 1.128c-.871-.718-.615-2.87-.615-2.87z"/></g><g><path fill="#212237" d="M114.713 211.103c-1.742-.562-3.657-1.622-4.978-2.284-1.762.365-3.594 2.019-3.641 3.892-.011.42-.054.994-.472 1.052-.288.04-.525-.24-.606-.52-.08-.28-.071-.584-.185-.852-.232-.543-.947-.76-1.506-.568-.557.191-.959.697-1.186 1.241-.583 1.392-1.104 3.076.226 4.244.207.182.449.338.581.58.289.523-.051 1.158-.392 1.65-1.057 1.518-2.647 3.225-5.765 3.225-2.191 0-5.833-2.89-6.073-4.335-.022-.129-2.12-8.978 1.773-14.607 2.089-3.02 5.765-5.219 9.599-4.898 2.368.2 4.435 1.594 5.595 2.496 6.393 1.176 7.764 7.765 7.03 9.684z"/></g><g><path fill="#f886bc" d="M111.02 216.33s.566 4.291-.28 4.76c-.846.47-2.631-.753-2.631-.753z"/></g><g><path fill="#f886bc" d="M112.781 332.53l-3.129 20.206-.163 6.084 23.856-.12a1.056 1.056 0 0 0 .37-2.042l-10.29-4.732 4.07-20.989z"/></g><g><path fill="#4868ef" d="M135.439 358.442c-.244-.765-.691-1.623-1.143-1.817l-10.91-4.699c-6.012 2.438-13.796.576-13.796.576l-1.389 8.212a.493.493 0 0 0 .496.491l26.558-.136c.536-.003.192-2.604.184-2.627z"/></g><g><path fill="none" stroke="#273b7a" stroke-miterlimit="20" stroke-width=".75" d="M125.748 352.397a12.858 12.858 0 0 0-1.538 2.582"/></g><g><path fill="none" stroke="#273b7a" stroke-miterlimit="20" stroke-width=".75" d="M127.121 353.219c-.633.876-.886 1.383-1.264 2.195"/></g><g><path fill="none" stroke="#273b7a" stroke-miterlimit="20" stroke-width=".75" d="M128.282 353.818c-.43.577-.852 1.377-1.186 2.015"/></g><g><path fill="none" stroke="#273b7a" stroke-miterlimit="20" stroke-width=".75" d="M108.342 359.432l27.209-.14"/></g><g><path fill="none" stroke="#273b7a" stroke-miterlimit="20" stroke-width=".75" d="M109.098 355.414s6.392.13 6.94 3.981"/></g><g><path fill="none" stroke="#273b7a" stroke-miterlimit="20" stroke-width=".75" d="M132.06 355.663s-1.762 2.504-2.11 3.659"/></g><g><path fill="#f886bc" d="M38.73 337.826l-19.905-2.37-6.084-.164.12 23.856a1.056 1.056 0 0 0 2.043.368l4.73-10.289 20.628 2.323z"/></g><g><path fill="#4868ef" d="M13.12 361.241c.763-.244 1.621-.692 1.815-1.143l4.7-10.91c-2.439-6.012-.576-13.797-.576-13.797l-8.213-1.387a.491.491 0 0 0-.49.494l.136 26.56c.003.535 2.603.19 2.627.183z"/></g><g><path fill="none" stroke="#273b7a" stroke-miterlimit="20" stroke-width=".75" d="M19.163 351.55a12.877 12.877 0 0 0-2.582-1.538"/></g><g><path fill="none" stroke="#273b7a" stroke-miterlimit="20" stroke-width=".75" d="M18.343 352.924c-.877-.634-1.384-.887-2.196-1.265"/></g><g><path fill="none" stroke="#273b7a" stroke-miterlimit="20" stroke-width=".75" d="M17.743 354.085c-.578-.431-1.377-.853-2.016-1.187"/></g><g><path fill="none" stroke="#273b7a" stroke-miterlimit="20" stroke-width=".75" d="M12.129 334.144l.14 27.21"/></g><g><path fill="none" stroke="#273b7a" stroke-miterlimit="20" stroke-width=".75" d="M16.146 334.9s-.13 6.392-3.98 6.941"/></g><g><path fill="none" stroke="#273b7a" stroke-miterlimit="20" stroke-width=".75" d="M15.899 357.862s-2.505-1.763-3.66-2.11"/></g><g><path fill="#22252d" d="M50.57 282.363c-4.278 11.437 2.703 28.04 2.703 28.04l3.68 26.741-34.904-1.537.345 23.213s37.44 2.664 46.494 2.664c9.056 0 12.556-2.026 15.214-7.332 3.96-7.905-1.73-51.608-1.73-52.333l-6.214-28.072z"/></g><g><path fill="none" stroke="#474b51" stroke-miterlimit="20" stroke-width=".75" d="M26.238 335.792l.263 23.315"/></g><g><path fill="#22252d" d="M62.676 288.547s-3.962 20.248 16.152 24.599c8.989 1.944 31.845 2.583 31.845 2.583l-3.903 31.28h22.823s4.728-23.568 6.15-39.333c.949-10.488-3.562-15.178-12.043-16.23-7.177-.89-28.765-2.294-28.765-2.294l-3.628-4.555z"/></g><g><path fill="none" stroke="#474b51" stroke-miterlimit="20" stroke-width=".75" d="M83.336 313.87s-16.927.052-20.977-18.918"/></g><g><path fill="none" stroke="#474b51" stroke-miterlimit="20" stroke-width=".75" d="M71.292 293.163s4.581.877 10.546.486"/></g><g><path fill="none" stroke="#474b51" stroke-miterlimit="20" stroke-width=".75" d="M49.187 290.481s4.514 1.293 7.445 1.264"/></g><g><path fill="none" stroke="#474b51" stroke-miterlimit="20" stroke-width=".75" d="M108.277 342.938h22.16"/></g><g><path fill="#648acc" d="M155.664 276.449h-1.817v-19.857h1.817z"/></g><g><path fill="#648acc" d="M158.105 254.581a3.35 3.35 0 1 1-6.7 0 3.35 3.35 0 0 1 6.7 0z"/></g><g><path fill="#f886bc" d="M137.948 260.282l6.737.497s5.18-1.747 7.242-1.792c1.265-.026 1.92.641 1.92.641v2.036c0 1.355 1.817 1.953 1.817 1.032v-1.119c.02.074 3.73 1.837 1.556 3.516 1.021.21 1.563 1.644-.374 2.627.615.42 1.326 1.583-.094 2.516.63.957-.65 2.013-1.669 2.234-1.927.416-17.34.092-17.34.092z"/></g><g><path fill="#fd9e37" d="M98.63 229.862c11.069 15.311 5.124 20.272-2.831 59.328-26.568 0-46.903-4.594-46.903-4.594S55.224 264.1 66.95 241.29c5.592-10.876 14.888-16.292 20.15-17.674z"/></g><g><path fill="#fd9e37" d="M81.838 247.076s17.103 26.787 25.231 27.975c12.906 1.886 34.247 1.357 34.247 1.357l1.273-18.845s-27.433-1.387-28.564-2.03c-3.675-2.09-15.394-25.67-15.394-25.67z"/></g><g><path fill="none" stroke="#273b7a" stroke-miterlimit="20" stroke-width=".75" d="M100.05 270.163s-10.034-8.328-16.714-21.262"/></g><g><path fill="none" stroke="#273b7a" stroke-miterlimit="20" stroke-width=".75" d="M138.633 257.355l-1.616 19.121"/></g><g><path fill="#f886bc" d="M501.576 227.783c-.414 3.66-3.354 14.068-2.738 14.504.616.435 1.698-3.212 2.137-2.76.44.451-.846 6.176-.115 6.446.991.368 1.994-5.566 1.994-5.566s-.774 6.554.177 6.623c.675.05 1.495-4.925 2.048-6.787-.342 2.094-.493 5.552.208 5.588.695.036 1.326-3.338 1.947-5.899-.238 1.635-.512 4.63.135 4.695.644.063 2.751-8.036 4.435-15.74z"/></g><g><path fill="#f886bc" d="M513.492 177.568s5.923 10.521 6.778 16.98c2.108 15.91-11.092 42.86-11.092 42.86s-9.592-2.618-9.592-3.822c0-1.204 6.684-29.52 6.684-29.52l-9.588-22.134z"/></g><g><path fill="#f886bc" d="M484.69 143.017l1.286 11.864s-7.112 6.032-13.406-.725l.768-7.81z"/></g><g><path fill="#f886bc" d="M474.766 131.13s-7.7 10.605-4.556 14.58c2.322 2.933 8.41 3.267 10.292 2.113.405-2.171 5.395-9.35 4.595-10.946-3.058-6.103-10.331-5.746-10.331-5.746z"/></g><g><path fill="#212237" d="M486.751 132.966c-.249-4.01-4.202-5.183-11.79-4.73-1.016.06-2.823-.63-3.292.273-.617 1.186-.727 3.588.465 4.669.795.72 1.328.877 2.374 1.12 1.375.322 2.775 1.632 2.044 3.07-.192.378-.646 1.019-.359 1.329.146.158.635.33.825.432.545.292.511 1.122.17 1.64-.339.517-.187 1.092-.53 1.607-.81 1.223.151 3.475 1.413 4.223 1.117.66 4.78 1.765 7.46.376 2.324-1.206 3.72-4.487 3.74-10.384.006-2.262-1.675-3.778-2.52-3.625z"/></g><g><path fill="#f886bc" d="M475.604 139.022c1.25-1.586 2.263-1.334 2.815-.463.738 1.16-.74 3.573-1.428 3.985-1.395.834-2.525.748-2.631-.385z"/></g><g><path fill="#28364c" d="M472.519 136.595c-.357.298-.692.838-.495 1.235a.278.278 0 0 0 .287.155c.803-.08.955-2.012.208-1.39z"/></g><g><path fill="none" stroke="#28364c" stroke-miterlimit="20" stroke-width=".75" d="M472.62 135.124c.5.178 1.311.632 1.608 1.265"/></g><g><path fill="#fff" d="M472.605 142.25l-1.758-.94s-1.155 2.16-.337 2.615c.906.504 2.095-1.675 2.095-1.675z"/></g><g><path fill="#103bb2" d="M446.08 361.484l27.78-.02-.002-1.246-27.78.022z"/></g><g><path fill="#22252d" d="M469.905 349.963l2.404.567s.92 3.14 1.273 5.326c.353 2.186.276 4.363.276 4.363l-27.78.02s.726-2.407 7.354-6.29c2.614-1.53 3.943-3.28 3.943-3.28z"/></g><g><path fill="#f2b18f" d="M472.766 339.968l-.456 10.563s-1.166 1.41-5.884 1.414c-4.718.002-9.051-1.275-9.051-1.275l-.931-14.25z"/></g><g><path fill="#103bb2" d="M485.647 361.484l27.78-.02-.001-1.246-27.78.022z"/></g><g><path fill="#22252d" d="M509.473 349.963l2.404.567s.92 3.14 1.273 5.326c.353 2.186.276 4.363.276 4.363l-27.78.02s.726-2.407 7.355-6.29c2.613-1.53 3.942-3.28 3.942-3.28z"/></g><g><path fill="#f2b18f" d="M510.94 339.537l.938 10.993s-1.166 1.41-5.884 1.414c-4.718.003-9.051-1.274-9.051-1.274l-2.141-14.25z"/></g><g><path fill="#0070e4" d="M506.46 230.238s4.333 9.023.851 26.287c1.772 38.547 6.381 90.367 6.381 90.367l-26.467-.093s-5.397-55.704-8.605-83.462c-3.574-30.92-5.809-68.788-5.809-68.788z"/></g><g><path fill="none" stroke="#0b2e6b" stroke-miterlimit="20" stroke-width=".75" d="M491.498 346.799s-5.396-55.703-8.605-83.462"/></g><g><path fill="#0070e4" d="M455.92 231.965s-2.814 40.637-2.814 60.139c0 19.503-1.25 54.789-1.25 54.789h26.751l9.955-92.24c8.152-9.764 7.556-30.953 5.592-39.203l-26.527-7.244z"/></g><g><path fill="none" stroke="#0b2e6b" stroke-miterlimit="20" stroke-width=".75" d="M483.096 305.303v0l5.466-50.65c6.838-7.622 6.838-17.246 6.838-17.246v0"/></g><g><path fill="none" stroke="#0b2e6b" stroke-miterlimit="20" stroke-width=".75" d="M461.503 227.884l-6.33 119.009"/></g><g><path fill="none" stroke="#0b2e6b" stroke-miterlimit="20" stroke-width=".75" d="M479.074 238.608l12.994.26"/></g><g><path fill="none" stroke="#0b2e6b" stroke-miterlimit="20" stroke-width=".75" d="M501.331 238.198l4.94-.103"/></g><g><path fill="#f886bc" d="M433.365 170.065c-3.628-4.104-13.36-19.707-14.455-19.46-1.094.245 1.852 5.074.916 5.108-.936.035-5.973-7.088-7-6.55-1.393.728 4.157 7.747 4.157 7.747s-2.174-2.982-3.198-2c-.727.695-.343 2.154 1.162 4.62-1.01-1.263-1.962-1.486-2.7-.748-.734.731-.008 2.076.894 3.435-.712-.89-1.752-1.338-2.018-.41-.35 1.214 2.596 7.512 9.561 17.783z"/></g><g><path fill="#d8cac0" d="M485.845 153.673s15.329.643 19.926 18.089c2.073 7.865 3.407 61.805 3.407 61.805l-56.013-.374s.746-48.764 1.999-59.323c2.289-19.295 17.483-20.498 17.483-20.498s.69 1.706 6.629 1.706c5.937 0 6.569-1.405 6.569-1.405z"/></g><g><path fill="#d8cac0" d="M485.845 153.673c18.194 0 29.396 24.99 29.396 24.99l-11.44 5.746z"/></g><g><path fill="#f886bc" d="M461.81 189.132s-9.708 13.97-17.546 14.729c-10.537 1.02-29.281-34.058-29.281-34.058l11.824-7.986L443 182.186l5.524-8.256z"/></g><g><path fill="#d8cac0" d="M472.647 153.372c-15.665.861-27.131 24.196-27.131 24.196l18.343 13.166 10.41-13.58z"/></g><g><path fill="none" stroke="#846a6a" stroke-miterlimit="20" stroke-width=".75" d="M463.212 190.27l8.873-11.54"/></g><g><path fill="none" stroke="#846a6a" stroke-miterlimit="20" stroke-width=".75" d="M507.31 182.646c-1.015-7.34-3.51-13.605-3.51-13.605"/></g><g><path fill="#f886bc" d="M471.857 137.486s-2.522 1.212-2.396 1.674c.125.463.882 1.582.882 1.582z"/></g><g><path fill="none" stroke="#0b2e6b" stroke-miterlimit="20" stroke-width=".75" d="M451.855 341.093h27.22"/></g><g><path fill="none" stroke="#0b2e6b" stroke-miterlimit="20" stroke-width=".75" d="M486.668 341.323h26.475"/></g></g></svg>