<svg xmlns="http://www.w3.org/2000/svg" width="564" height="362" viewBox="0 0 564 362"><g><g><path fill="none" stroke="#2d5ca8" stroke-miterlimit="20" d="M55.575 309.635a81.926 81.926 0 0 1-2.418-.631"/></g><g><path fill="none" stroke="#2d5ca8" stroke-dasharray="4.992 3.494" stroke-miterlimit="20" d="M49.81 307.997c-12.569-4.076-24.67-11.355-33.097-21.365-30.328-36.031 5.212-82.214 40.573-96.756 17.244-7.091 32.786-15.565 37.854-35.227 4.85-18.81-8.428-38.47-11.855-56.417-6.899-36.135 25.595-64.086 59.877-64.09 31.6-.002 45.823 12.042 77.176 33.047 23.701 15.878 68.205 25.189 102.395 21.833 40.72-3.997 56.072-21.833 88.526-36.352 22.335-9.992 53.472-12.13 74.366 2.68 22.32 15.82 13.838 46.8 16.38 69.933.638 5.818 2.153 11.503 5.052 16.62 18.287 32.268 55.743 33.927 55.743 81.71 0 34.239-54.258 47.946-84.097 52.529"/></g><g><path fill="none" stroke="#2d5ca8" stroke-miterlimit="20" d="M476.972 276.402c-.847.124-1.672.24-2.473.35"/></g><g><path fill="none" stroke="#2d5ca8" stroke-miterlimit="20" d="M47.03 129.535h12.19"/></g><g><path fill="none" stroke="#2d5ca8" stroke-miterlimit="20" d="M59.22 136.315h12.188"/></g><g><path fill="none" stroke="#2d5ca8" stroke-miterlimit="20" d="M418.998 76.288h12.188"/></g><g><path fill="none" stroke="#2d5ca8" stroke-miterlimit="20" d="M411.26 83.068h12.19"/></g><g><path fill="none" stroke="#2d5ca8" stroke-miterlimit="20" d="M429.836 79.833H446.4"/></g><g><path fill="none" stroke="#2d5ca8" stroke-miterlimit="20" d="M536.136 220.774h8.771"/></g><g><path fill="none" stroke="#2d5ca8" stroke-miterlimit="20" d="M528.184 214.071h12.19"/></g><g><path fill="none" stroke="#2d5ca8" stroke-miterlimit="20" d="M133.118 43.382h12.189"/></g><g><path fill="none" stroke="#2d5ca8" stroke-miterlimit="20" d="M113.262 190.268h20.042"/></g><g><path fill="none" stroke="#2d5ca8" stroke-miterlimit="20" d="M137.54 190.268h10.403"/></g><g><path fill="none" stroke="#a9c6ea" stroke-miterlimit="20" d="M371.693 164.708a3.934 3.934 0 1 1-7.868 0 3.934 3.934 0 0 1 7.868 0z"/></g><g><path fill="none" stroke="#2d5ca8" stroke-miterlimit="20" d="M526.312 137.484a3.934 3.934 0 1 1-7.867 0 3.934 3.934 0 0 1 7.867 0z"/></g><g><path fill="none" stroke="#2d5ca8" stroke-miterlimit="20" d="M380.26 52.67a3.934 3.934 0 1 1-7.868 0 3.934 3.934 0 0 1 7.867 0z"/></g><g><path fill="none" stroke="#2d5ca8" stroke-miterlimit="20" d="M457.129 58.561a1.957 1.957 0 1 1-3.914 0 1.957 1.957 0 0 1 3.914 0z"/></g><g><path fill="none" stroke="#2d5ca8" stroke-miterlimit="20" d="M337.468 205.614a1.957 1.957 0 1 1-3.914 0 1.957 1.957 0 0 1 3.914 0z"/></g><g><path fill="none" stroke="#2d5ca8" stroke-miterlimit="20" d="M110.049 65.231a1.958 1.958 0 1 1-3.915.001 1.958 1.958 0 0 1 3.915 0z"/></g><g><path fill="none" stroke="#2d5ca8" stroke-miterlimit="20" d="M21.59 187.531a1.958 1.958 0 1 1-3.914 0 1.958 1.958 0 0 1 3.915 0z"/></g><g><path fill="none" stroke="#2d5ca8" stroke-miterlimit="20" d="M117.996 147.437a1.957 1.957 0 1 1-3.913 0 1.957 1.957 0 0 1 3.913 0z"/></g><g><path fill="none" stroke="#2d5ca8" stroke-miterlimit="20" d="M57.604 86.706v4.632"/></g><g><path fill="none" stroke="#2d5ca8" stroke-miterlimit="20" d="M59.92 89.022h-4.633"/></g><g><path fill="none" stroke="#2d5ca8" stroke-miterlimit="20" d="M328.578 24.914v4.63"/></g><g><path fill="none" stroke="#2d5ca8" stroke-miterlimit="20" d="M330.894 27.23h-4.632"/></g><g><path fill="none" stroke="#2d5ca8" stroke-miterlimit="20" d="M474.359 96.547v4.632"/></g><g><path fill="none" stroke="#2d5ca8" stroke-miterlimit="20" d="M476.675 98.862h-4.631"/></g><g><path fill="none" stroke="#2d5ca8" stroke-miterlimit="20" d="M550.09 158.458v4.632"/></g><g><path fill="none" stroke="#2d5ca8" stroke-miterlimit="20" d="M552.405 160.774h-4.63"/></g><g><path fill="none" stroke="#2d5ca8" stroke-miterlimit="20" d="M528.184 239.763v4.632"/></g><g><path fill="none" stroke="#2d5ca8" stroke-miterlimit="20" d="M530.5 242.079h-4.631"/></g><g><path fill="#2d5ca8" d="M388.042 184.982a30.567 30.567 0 0 1-5.13 6.391l5.021 6.635a39.224 39.224 0 0 1-15.909 8.745l-2.911-7.795a30.525 30.525 0 0 1-8.145.905l-1.139 8.232a39.098 39.098 0 0 1-9.015-1.502 39.174 39.174 0 0 1-8.417-3.563l3.449-7.56a30.563 30.563 0 0 1-6.391-5.13l-6.635 5.02a39.2 39.2 0 0 1-8.744-15.908l7.794-2.91a30.534 30.534 0 0 1-.905-8.146l-8.232-1.14c.146-2.99.63-6.013 1.502-9.015a39.145 39.145 0 0 1 3.563-8.417l7.561 3.45a30.573 30.573 0 0 1 5.13-6.392l-5.021-6.634c4.54-4.116 10-7.117 15.909-8.745l2.91 7.795a30.535 30.535 0 0 1 8.145-.906l1.14-8.232c2.992.147 6.013.631 9.015 1.503a39.066 39.066 0 0 1 8.416 3.563l-3.449 7.561a30.473 30.473 0 0 1 6.391 5.13l6.636-5.022a39.222 39.222 0 0 1 8.744 15.91l-7.794 2.91c.656 2.632.972 5.368.905 8.145l8.232 1.14a39.046 39.046 0 0 1-1.503 9.014 39.053 39.053 0 0 1-3.563 8.417zm-31.835 3.052c10.441 3.034 21.365-2.97 24.4-13.412 3.034-10.442-2.971-21.366-13.413-24.4-10.441-3.035-21.366 2.97-24.4 13.412-3.034 10.441 2.971 21.366 13.413 24.4zm-8.449-22.958c2.238-7.7 10.294-12.128 17.994-9.89 7.7 2.238 12.128 10.293 9.89 17.993-2.237 7.7-10.293 12.128-17.993 9.891-7.7-2.238-12.128-10.293-9.891-17.994z"/></g><g><path fill="#2d5ca8" d="M399.894 108.933a15.094 15.094 0 0 1-.292 4.036l3.901 1.288a19.359 19.359 0 0 1-4.013 8.015l-3.369-2.351a15.106 15.106 0 0 1-3.056 2.652l1.845 3.665a19.36 19.36 0 0 1-4.085 1.918 19.331 19.331 0 0 1-4.419.912l-.719-4.04a15.094 15.094 0 0 1-4.036-.292l-1.288 3.9a19.363 19.363 0 0 1-8.016-4.012l2.352-3.37a15.079 15.079 0 0 1-2.652-3.055l-3.665 1.845a19.259 19.259 0 0 1-2.83-8.505l4.04-.718a15.056 15.056 0 0 1 .293-4.036l-3.902-1.29a19.373 19.373 0 0 1 4.013-8.013l3.37 2.35a15.106 15.106 0 0 1 3.055-2.651l-1.845-3.665a19.334 19.334 0 0 1 4.085-1.918 19.328 19.328 0 0 1 4.42-.912l.718 4.04a15.094 15.094 0 0 1 4.036.292l1.288-3.9a19.349 19.349 0 0 1 8.016 4.012l-2.352 3.369a15.106 15.106 0 0 1 2.652 3.056l3.665-1.845a19.259 19.259 0 0 1 2.83 8.505zm-12.568 8.706a8.18 8.18 0 0 0 5.18-10.345 8.18 8.18 0 1 0-5.179 10.345z"/></g><g><path fill="#2d5ca8" d="M195.905 81.623a23.15 23.15 0 0 1-.447 6.177l5.97 1.972a29.633 29.633 0 0 1-6.142 12.266l-5.156-3.598a23.07 23.07 0 0 1-4.677 4.058l2.824 5.61a29.512 29.512 0 0 1-6.253 2.934 29.571 29.571 0 0 1-6.764 1.397l-1.1-6.182a23.102 23.102 0 0 1-6.176-.449l-1.972 5.971a29.633 29.633 0 0 1-12.267-6.141l3.599-5.157a23.048 23.048 0 0 1-4.06-4.677l-5.608 2.824a29.515 29.515 0 0 1-2.935-6.252 29.516 29.516 0 0 1-1.397-6.765l6.184-1.1a23.056 23.056 0 0 1 .447-6.175l-5.971-1.972a29.633 29.633 0 0 1 6.142-12.267l5.156 3.599a23.044 23.044 0 0 1 4.678-4.06l-2.825-5.608a29.515 29.515 0 0 1 6.253-2.935 29.516 29.516 0 0 1 6.764-1.396l1.1 6.183a23.053 23.053 0 0 1 6.176.447l1.972-5.971a29.645 29.645 0 0 1 12.267 6.142l-3.6 5.156a23.08 23.08 0 0 1 4.06 4.678l5.61-2.824a29.53 29.53 0 0 1 2.934 6.252 29.518 29.518 0 0 1 1.397 6.764zm-19.237 13.325c6.562-2.183 10.11-9.271 7.927-15.833-2.183-6.561-9.272-10.11-15.833-7.927-6.56 2.182-10.11 9.271-7.927 15.832 2.183 6.562 9.272 10.11 15.833 7.928z"/></g><g><path fill="#2d5ca8" d="M141.609 125.286a17.333 17.333 0 0 1-2.906 3.62l2.844 3.759a22.215 22.215 0 0 1-9.011 4.954l-1.65-4.416c-1.491.373-3.04.552-4.614.513l-.645 4.663a22.113 22.113 0 0 1-5.107-.851 22.143 22.143 0 0 1-4.768-2.018l1.954-4.283a17.333 17.333 0 0 1-3.621-2.906l-3.758 2.844a22.208 22.208 0 0 1-4.954-9.011l4.416-1.65a17.324 17.324 0 0 1-.513-4.613l-4.663-.646c.083-1.695.357-3.406.85-5.107a22.164 22.164 0 0 1 2.019-4.768l4.283 1.954a17.327 17.327 0 0 1 2.906-3.62l-2.844-3.76a22.21 22.21 0 0 1 9.012-4.952l1.649 4.415a17.317 17.317 0 0 1 4.613-.513l.646-4.663c1.695.083 3.406.357 5.107.85a22.214 22.214 0 0 1 4.768 2.019l-1.954 4.284a17.265 17.265 0 0 1 3.62 2.905l3.759-2.844a22.198 22.198 0 0 1 4.953 9.012l-4.415 1.649c.372 1.49.552 3.04.513 4.614l4.663.646a22.159 22.159 0 0 1-.851 5.106 22.143 22.143 0 0 1-2.018 4.768zm-18.034 1.729c5.915 1.719 12.103-1.683 13.822-7.598 1.719-5.915-1.683-12.103-7.598-13.822-5.915-1.72-12.103 1.683-13.822 7.598-1.72 5.915 1.683 12.103 7.598 13.822zm-4.786-13.005a8.224 8.224 0 0 1 10.193-5.602 8.224 8.224 0 0 1-4.59 15.795 8.224 8.224 0 0 1-5.603-10.193z"/></g><g><path fill="#2d5ca8" d="M253.424 361.57c2.602-5.37 16.171-28.873 30.475-36.637 1.818-.987 3.736-1.902 5.796-2.095 2.06-.194 4.306.46 5.553 2.11 1.137 1.505 1.263 3.561.934 5.42-2.598 14.702-19.342 20.331-27.52 31.202z"/></g><g><path fill="#2d5ca8" d="M253.424 361.483s13.46-26.571 26.603-42.4c6.221-7.493 10.494-21.373 3.953-25.532-9.466-6.016-18.766 7.387-23.028 14.042-6.445 10.064-11.186 21.202-14.842 32.548-.529 1.644-5.357 21.342-5.453 21.342h3.264z"/></g><g><path fill="none" stroke="#fff" stroke-miterlimit="20" d="M279.165 301.16c-12.412 15.693-22.708 38.926-29.55 60.323"/></g><g><path fill="#b2cded" d="M225.199 361.483s-1.563-40.884-19.653-59.786c-4.888-5.107-12.901-10.414-19.477-11.868-8.521-1.885-8.29 8.137-6.747 14.632 2 8.415 8.877 13.662 13.836 19.929 9.125 11.533 14.572 19.145 21.234 37.093z"/></g><g><path fill="#2d5ca8" d="M230.636 361.483c4.884-8.936 3.166-47.144.717-59.112-1.702-8.318-5.194-16.434-9.97-23.076-4.329-6.02-17.265-19.286-24.878-13.895-4.403 3.119 2.266 14.35 4.026 17.723 5.705 10.934 10.228 22.624 13.763 34.648 4.09 13.909 7.181 28.527 8.288 43.156l.04.556z"/></g><g><path fill="#2d5ca8" d="M231.53 361.483c-1.61-21.394-.58-54.227 9.065-72.773 10.936-21.031 25.192-30.741 27.262-22.544 6.002 23.772-18.082 87.71-24.864 95.317z"/></g><g><path fill="none" stroke="#fff" stroke-miterlimit="20" d="M183.68 296.656c19.464 13.57 32.9 39.272 35.401 64.827"/></g><g><path fill="none" stroke="#fff" stroke-miterlimit="20" d="M203.597 272.223c9.565 8.541 14.428 21.901 17.368 34.837 4.049 17.815 5.996 36.074 6.635 54.422"/></g><g><path fill="none" stroke="#fff" stroke-miterlimit="20" d="M261.713 275.163c-11.774 27.05-21.704 56.275-23.365 86.32"/></g><g><path fill="#2d5ca8" d="M289.493 327.97s-17.207 11.428-29.217 33.512"/><path fill="none" stroke="#fff" stroke-miterlimit="20" d="M289.493 327.97s-17.207 11.428-29.217 33.512"/></g><g><path fill="#2d5ca8" d="M465.567 361.414c2.556-33.79-.292-66.93 12.58-98.95 3.653-9.089 11.978-23.425 23.491-23.915 17.782-.756 6.894 34.97 3.673 48.338-2.07 8.595-5.16 17.147-8.369 25.368-5.69 14.576-14.247 34.957-20.713 49.16z"/></g><g><path fill="#2d5ca8" d="M456.336 361.414c-5.6-14.325-11.076-28.696-16.614-43.044-4.912-12.726-10.627-25.17-14.595-38.242-3.021-9.95-10.828-32.755.6-39.764 20.352-12.482 36.617 35.818 38.764 52.971 2.829 22.61 2.219 45.351 2.557 68.08z"/></g><g><path fill="#2d5ca8" d="M440.164 361.414s-11.893-15.193-17.257-22.318c-11.982-15.914-26.755-33.2-24.55-51.09.508-4.117 2.016-8.7 6.154-11.136 2.529-1.489 5.67-1.902 8.543-1.628 9.737.927 18.459 15.067 22.839 22.316 8.579 14.195 21.862 63.856 21.862 63.856z"/></g><g><path fill="none" stroke="#fff" stroke-miterlimit="20" d="M431.066 250.378c14.517 29.36 28.686 83.726 29.034 111.036"/></g><g><path fill="none" stroke="#fff" stroke-miterlimit="20" d="M408.499 284.096c12.773 24.538 38.75 77.318 38.75 77.318"/></g><g><path fill="none" stroke="#fff" stroke-miterlimit="20" d="M500.9 246.32c-10.424 23.246-24.708 73.63-30.461 115.163"/></g><g><path fill="#2d5ca8" d="M476.732 361.414s5.943-26.48 10.058-41.513c4.474-16.346 19.11-41.365 34.494-48.473 3.54-1.637 7.81-2.76 11.235-.893 2.093 1.141 3.52 3.26 4.293 5.517 2.618 7.647-10.192 31.794-14.597 38.571-8.627 13.271-20.982 34.357-30.777 46.791z"/></g><g><path fill="none" stroke="#fff" stroke-miterlimit="20" d="M529.664 276.751c-18.188 15.792-42.52 66.145-49.322 84.663"/></g><g><path fill="#2d5ca8" d="M82.035 344.94c-2.33-12.35-6.15-36.838-9.048-51.866-1.402-7.272-5.462-16.155-8.037-23.053-4.7-12.589-16.058-34.463-30.142-33.294-17.475 1.451-3.353 32.867 1.098 44.727 2.86 7.625 6.714 15.087 10.653 22.232 6.983 12.668 17.335 30.307 25.042 42.54z"/></g><g><path fill="#b2cded" d="M92.122 331.612c-4.264-11.154-3.112-25.34-3.098-37.145.026-21.246 7.404-51.114 21.24-65.056 5.701-5.747 15.138-12.138 21.268-3.352 5.805 8.32-.907 30.933-3.02 40.649-4.142 19.028-23.975 54.268-29.704 72.69z"/></g><g><path fill="none" stroke="#fff" stroke-miterlimit="20" d="M121.371 235.773c-9.83 25.497-23.044 72.021-26.416 99.138"/></g><g><path fill="none" stroke="#fff" stroke-miterlimit="20" d="M36.285 243.758c12.458 20.039 30.718 62.96 40.38 100.317"/></g><g><path fill="#2d5ca8" d="M82.532 317.937c5.242-8.578 11.458-36.42 12.876-46.373 1.994-13.993 2.21-28.777-1.255-42.562-2.338-9.3-13.035-37.122-26.459-24.574-6.303 5.892-5.298 38.003-4.547 46.6 1.471 16.833 10.191 46.976 13.183 63.607z"/></g><g><path fill="none" stroke="#fff" stroke-miterlimit="20" d="M75.128 211.603c9.217 24.006 6.883 83.66 4.003 104.523"/></g><g><path fill="none" stroke="#648acc" stroke-miterlimit="20" d="M.622 361.483h536.54"/></g><g><path fill="#f886bc" d="M217.169 119.909c2.622-2.587 8.987-11.331 9.71-11.116.723.216-1.476 3.32-.849 3.387.626.065 4.333-4.483 4.997-4.075.901.553-3.144 5.008-3.144 5.008s4.674-4.66 5.317-3.954c.455.5-2.948 4.22-4.071 5.804 1.435-1.562 4.06-3.82 4.522-3.29.458.525-1.805 3.106-3.434 5.177 1.138-1.197 3.324-3.264 3.774-2.796.448.467-5.028 8.805-10.044 14.889z"/></g><g><path fill="#f886bc" d="M183.782 151.845c22.312-19.063 37.283-36.494 37.283-36.494l8.379 5.597s-14.063 21.803-32.471 40.566z"/></g><g><path fill="#83b2e5" d="M177.118 158.219c4.609-5.788 12.22-11.387 12.22-11.387l13.516 10.928-11.861 13.914z"/></g><g><path fill="#f886bc" d="M200.401 257.342l-7.155 94.218 8.466 5.389s-23.266 1.211-24.022.449c-.756-.762.955-5.98.955-5.98l-3.885-94.3z"/></g><g><path fill="#28364c" d="M181.396 357.332l-3.464-3.407.49-1.789 5.324 5.205 2.563.01 9.03-4.459 9.803 6.137c1.133.71.627 2.458-.709 2.453l-13.177-.047-4.205-2.926-1.194-.004-.01 2.91-8.58-.03.014-4.068z"/></g><g><path fill="#f886bc" d="M181.61 256.84l-21.102 94.72 8.466 5.39s-23.265 1.21-24.021.449c-.757-.763.954-5.981.954-5.981l6.167-94.578z"/></g><g><path fill="#28364c" d="M148.658 357.332l-3.464-3.407.49-1.789 5.324 5.205 2.563.01 9.03-4.459 9.803 6.137c1.133.71.627 2.458-.71 2.453l-13.176-.047-4.205-2.926-1.194-.004-.01 2.91-8.581-.03.015-4.068z"/></g><g><path fill="#101d54" d="M159.425 207.979c-11.61 20.43-11.587 58.44-11.587 58.44h53.815s-.742-33.384-6.751-52.195z"/></g><g><path fill="none" stroke="#273b7a" stroke-miterlimit="20" stroke-width=".75" d="M177.407 209.815l1.34 56.604"/></g><g><path fill="none" stroke="#273b7a" stroke-miterlimit="20" stroke-width=".75" d="M189.315 212.195s-2.72 6.895-11.909 9.28"/></g><g><path fill="#f886bc" d="M236.898 188.113c3.537 1.03 14.273 2.331 14.438 3.067.164.737-3.619.329-3.372.908.248.579 6.025 1.601 5.993 2.38-.044 1.056-5.905-.307-5.905-.307s6.346 1.813 6.042 2.718c-.215.641-5.121-.52-7.051-.728 2.063.491 5.312 1.686 5.076 2.347-.236.655-3.593-.065-6.194-.479 1.599.411 4.47 1.314 4.279 1.935-.189.619-8.475-.561-16.231-1.979z"/></g><g><path fill="#a8ceff" d="M173.59 152.758s.886 2.274 5.717 2.274c3.375 0 4.647-1.769 4.647-1.769s1.242 1.115 14.537 18.563c2.815 3.695 2.207 11.665-2.498 18.557-1.112 6.919-1.528 14.983-1.091 23.841h-38.478s-.671-27.645 1.99-42.722c1.573-8.918 8.26-16.008 15.176-18.744z"/></g><g><path fill="#f886bc" d="M199.008 164.708c25.638 20.116 43.417 24.481 43.417 24.481l-2.091 9.857s-30.793-3.906-51.018-20.906z"/></g><g><path fill="#a8ceff" d="M184.118 153.929c6.578 1.106 16.672 10.788 16.672 10.788l-10.713 15.726s-4.548-3.15-10.712-8.448z"/></g><g><path fill="none" stroke="#101d54" stroke-miterlimit="20" stroke-width=".75" d="M190.077 179.851c-8.025-4.886-11.633-8.469-11.633-8.469"/></g><g><path fill="#f886bc" d="M186.99 135.717c2.675 4.421 3.781 8.843.034 11.11-3.748 2.268-9.774 3.396-13.606-2.899-2.687-4.415-1.805-9.844 1.942-12.111 3.748-2.268 8.955-.521 11.63 3.9z"/></g><g><path fill="#0b0b3a" d="M183.875 136.848c.124.45.478.977.921.961a.277.277 0 0 0 .26-.198c.258-.764-1.44-1.7-1.18-.763z"/></g><g><path fill="none" stroke="#0b0b3a" stroke-linecap="round" stroke-miterlimit="20" stroke-width=".5" d="M182.102 136.468c.69-.974 1.609-1.372 2.54-1.484"/></g><g><path fill="#fff" d="M188.008 140.758l-2.479 1.239s.875 2.14 2.214 1.74c1.12-.335.265-2.98.265-2.98z"/></g><g><path fill="#f886bc" d="M184.118 153.929s-2.142 1.17-4.811 1.104c-3.871-.097-5.717-1.646-5.717-1.646l2.553-10.907 9.386.685z"/></g><g><path fill="#f886bc" d="M186.086 135.92s3.206 2.142 3.319 2.713c.114.57-1.243 1.395-1.243 1.395z"/></g><g><path fill="#0b0b3a" d="M177.118 128.772c-.345.175-1.541-.148-1.976-.148-.61.001-1.22.044-1.82.154-3.573.652-6.242 3.61-7.925 6.653-1.105 1.998-2.033 4.217-4.044 5.485-4.42 2.787-10.222 1.79-15.174 3.457-5.04 1.697-8.9 6.811-7.55 12.268.444 1.786 1.382 3.411 1.934 5.167 1.179 3.746.627 8.106 2.877 11.325.604.863 1.383 1.593 2.222 2.23 3.763 2.86 8.882 3.842 13.436 2.582 4.555-1.259 8.44-4.735 10.2-9.12 1.999-4.986 1.375-10.927 4.292-15.438 1.363-2.107 3.398-3.714 4.75-5.827 1.238-1.93 1.888-5.565 2.037-7.89.034-.537-.927-5.002-.64-5.002 2.315 0 5.279-1.44 6.648-2.808-1.743-3.826-6.194-4.646-9.267-3.088z"/></g><g><path fill="#f886bc" d="M179.617 140.253s-1.345-.93-2.228.39c-1.142 1.706 1.608 3.862 2.932 3.961 1.323.1 1.29-1.337 1.29-1.337z"/></g><g><path fill="#d9e4f4" d="M467.737 224.91h-83.673V113.168h83.673z"/><path fill="none" stroke="#648acc" stroke-miterlimit="20" d="M467.737 224.91v0h-83.673v0-111.742 0h83.673v0z"/></g><g><path fill="#fff" d="M480.235 224.91h-83.674V113.168h83.674z"/><path fill="none" stroke="#648acc" stroke-miterlimit="20" d="M480.235 224.91v0h-83.674v0-111.742 0h83.674v0z"/></g><g opacity=".45"><g opacity=".45"><path fill="#d7e3f4" d="M465.86 136.47h-54.247a3.594 3.594 0 0 1-3.595-3.595v-7.417a3.595 3.595 0 0 1 3.595-3.595h54.247a3.596 3.596 0 0 1 3.595 3.595v7.417a3.595 3.595 0 0 1-3.594 3.595z"/></g></g><g opacity=".45"><g opacity=".45"><path fill="#d7e3f4" d="M439.783 215.693h-28.17a3.595 3.595 0 0 1-3.595-3.595v-33.875a3.595 3.595 0 0 1 3.596-3.594h28.169a3.595 3.595 0 0 1 3.595 3.594v33.875a3.595 3.595 0 0 1-3.595 3.595z"/></g></g><g><path fill="#b2cded" d="M412.601 151.002h-1.864c-1.502 0-2.719-1.596-2.719-3.565 0-1.97 1.217-3.566 2.72-3.566h1.863z"/></g><g><path fill="#d7e3f4" d="M415.32 147.437c0 1.969-1.217 3.565-2.72 3.565-1.5 0-2.717-1.596-2.717-3.565 0-1.97 1.217-3.565 2.718-3.565 1.502 0 2.719 1.596 2.719 3.565z"/></g><g><path fill="#b2cded" d="M430.647 151.002h-1.864c-1.502 0-2.72-1.596-2.72-3.565 0-1.97 1.218-3.566 2.72-3.566h1.864z"/></g><g><path fill="#d7e3f4" d="M433.365 147.437c0 1.969-1.217 3.565-2.719 3.565-1.502 0-2.719-1.596-2.719-3.565 0-1.97 1.217-3.565 2.72-3.565 1.501 0 2.718 1.596 2.718 3.565z"/></g><g><path fill="#b2cded" d="M448.692 151.002h-1.864c-1.502 0-2.72-1.596-2.72-3.565 0-1.97 1.218-3.566 2.72-3.566h1.864z"/></g><g><path fill="#d7e3f4" d="M451.41 147.437c0 1.969-1.217 3.565-2.719 3.565-1.5 0-2.718-1.596-2.718-3.565 0-1.97 1.217-3.565 2.718-3.565 1.502 0 2.72 1.596 2.72 3.565z"/></g><g><path fill="#b2cded" d="M466.736 151.002h-1.864c-1.502 0-2.719-1.596-2.719-3.565 0-1.97 1.217-3.566 2.72-3.566h1.864z"/></g><g><path fill="#d7e3f4" d="M469.456 147.437c0 1.969-1.217 3.565-2.72 3.565-1.501 0-2.718-1.596-2.718-3.565 0-1.97 1.217-3.565 2.719-3.565 1.502 0 2.719 1.596 2.719 3.565z"/></g><g><path fill="#b2cded" d="M412.601 168.274h-1.864c-1.502 0-2.719-1.597-2.719-3.565 0-1.97 1.217-3.566 2.72-3.566h1.863z"/></g><g><path fill="#d7e3f4" d="M415.32 164.708c0 1.97-1.217 3.565-2.72 3.565-1.5 0-2.717-1.596-2.717-3.565 0-1.969 1.217-3.566 2.718-3.566 1.502 0 2.719 1.597 2.719 3.566z"/></g><g><path fill="#b2cded" d="M430.647 168.274h-1.864c-1.502 0-2.72-1.597-2.72-3.565 0-1.97 1.218-3.566 2.72-3.566h1.864z"/></g><g><path fill="#d7e3f4" d="M433.365 164.708c0 1.97-1.217 3.565-2.719 3.565-1.502 0-2.719-1.596-2.719-3.565 0-1.969 1.217-3.566 2.72-3.566 1.501 0 2.718 1.597 2.718 3.566z"/></g><g><path fill="#b2cded" d="M448.692 168.274h-1.864c-1.502 0-2.72-1.597-2.72-3.565 0-1.97 1.218-3.566 2.72-3.566h1.864z"/></g><g><path fill="#d7e3f4" d="M451.41 164.708c0 1.97-1.217 3.565-2.719 3.565-1.5 0-2.718-1.596-2.718-3.565 0-1.969 1.217-3.566 2.718-3.566 1.502 0 2.72 1.597 2.72 3.566z"/></g><g><path fill="#b2cded" d="M466.736 168.274h-1.864c-1.502 0-2.719-1.597-2.719-3.565 0-1.97 1.217-3.566 2.72-3.566h1.864z"/></g><g><path fill="#d7e3f4" d="M469.456 164.708c0 1.97-1.217 3.565-2.72 3.565-1.501 0-2.718-1.596-2.718-3.565 0-1.969 1.217-3.566 2.719-3.566 1.502 0 2.719 1.597 2.719 3.566z"/></g><g><path fill="#fff" d="M66.326 361.483h142V252.672h-106.27l-35.73 41.784z"/></g><g><path fill="none" stroke="#648acc" stroke-miterlimit="20" d="M66.326 361.483v0h142v0-108.811 0h-106.27v0l-35.73 41.784v67.027z"/></g><g><path fill="#d9e4f4" d="M168.016 361.483h52.321V252.672h-17.31l-35.01 41.785z"/></g><g><path fill="none" stroke="#648acc" stroke-miterlimit="20" d="M168.016 361.483v0h52.321v0-108.811 0h-17.31v0l-35.01 41.785v67.026z"/></g><g><path fill="#d9e4f4" d="M66.326 294.456h101.69v67.027H66.326z"/><path fill="none" stroke="#648acc" stroke-miterlimit="20" d="M66.326 294.456v0h101.69v67.027H66.326v0z"/></g><g><path fill="#b2cded" d="M177.114 264.873c.973.892 2.965.292 4.448-1.339 1.483-1.632 1.896-3.676.923-4.567l-2.017-1.846-5.37 5.906 2.016 1.846z"/></g><g><path fill="#d7e3f4" d="M175.225 263.144c.973.89 2.965.292 4.448-1.34 1.483-1.631 1.896-3.676.923-4.567-.974-.891-2.965-.291-4.45 1.34-1.482 1.63-1.895 3.676-.921 4.567z"/></g><g><path fill="#b2cded" d="M161.285 264.873c.973.892 2.965.292 4.448-1.339 1.483-1.632 1.896-3.676.923-4.567l-2.017-1.846-5.37 5.906 2.016 1.846z"/></g><g><path fill="#d7e3f4" d="M159.396 263.144c.973.89 2.965.292 4.448-1.34 1.483-1.631 1.896-3.676.923-4.567-.974-.891-2.965-.291-4.45 1.34-1.482 1.63-1.895 3.676-.921 4.567z"/></g><g><path fill="#b2cded" d="M128.704 264.873c.974.892 2.965.292 4.448-1.339 1.483-1.632 1.896-3.676.923-4.567l-2.017-1.846-5.371 5.906 2.017 1.846z"/></g><g><path fill="#d7e3f4" d="M126.814 263.144c.973.89 2.965.292 4.448-1.34 1.483-1.631 1.896-3.676.923-4.567-.974-.891-2.965-.291-4.449 1.34-1.483 1.63-1.896 3.676-.922 4.567z"/></g><g><path fill="#b2cded" d="M111.919 264.873c.974.892 2.965.292 4.448-1.339 1.483-1.632 1.897-3.676.923-4.567l-2.017-1.846-5.371 5.906 2.017 1.846z"/></g><g><path fill="#d7e3f4" d="M110.03 263.144c.972.89 2.964.292 4.447-1.34 1.483-1.631 1.896-3.676.923-4.567-.974-.891-2.965-.291-4.448 1.34-1.484 1.63-1.897 3.676-.923 4.567z"/></g><g opacity=".45"><g opacity=".45"><path fill="#d7e3f4" d="M166.805 286.841l5.643-7.311H86.524l-6.456 7.311z"/></g></g><g><path fill="none" stroke="#648acc" stroke-miterlimit="20" d="M261.83 236.008v90.874a7.959 7.959 0 0 1-7.959 7.96h-50.553a7.96 7.96 0 0 1-7.959-7.96v-2.605 0"/></g><g><path fill="none" stroke="#648acc" stroke-miterlimit="20" d="M274.358 240.179v103.82a8.117 8.117 0 0 1-8.116 8.118h-80.374a7.958 7.958 0 0 1-7.958-7.96v-19.88 0"/></g><g><path fill="none" stroke="#648acc" stroke-miterlimit="20" d="M297.1 238.441v60.23a7.958 7.958 0 0 0 7.958 7.96h62.779a7.959 7.959 0 0 0 7.959-7.96V195.49a7.958 7.958 0 0 1 7.958-7.958h25.886v0"/></g><g><path fill="none" stroke="#648acc" stroke-miterlimit="20" d="M287.008 240.179v84.419a7.958 7.958 0 0 0 7.958 7.958h115.26a7.958 7.958 0 0 0 7.959-7.958V207.235v0"/></g><g><path fill="#fdd305" d="M204.766 108.08c0-41.357 33.527-74.884 74.884-74.884 41.358 0 74.885 33.527 74.885 74.884 0 16.486-5.331 31.725-14.358 44.094-10.69 16.107-38.463 34.293-38.463 45.188v12.447a4.5 4.5 0 0 1-4.5 4.5h-35.128a4.5 4.5 0 0 1-4.498-4.5v-12.447c0-10.895-27.775-29.08-38.464-45.188-9.026-12.369-14.358-27.608-14.358-44.094z"/></g><g><path fill="#fff" d="M288.154 213.068c-.088-1.876-1.428-31.937.979-58.282-2.95.35-6.108.535-9.483.535-3.375 0-6.532-.185-9.482-.535 2.407 26.345 1.066 56.406.978 58.282l-1.32-.062c.02-.463 1.41-31.555-1.05-58.4-22.211-3.087-32.152-15.67-33.937-27.545-1.043-6.94 1.327-13.848 5.636-16.424 2.614-1.563 5.773-1.88 9.135-.915 5.289 1.517 10.316 6.075 13.446 12.192 3.616 7.063 5.753 18.792 6.985 31.524 2.979.366 6.178.56 9.609.56 3.432 0 6.63-.194 9.609-.56 1.232-12.732 3.37-24.461 6.985-31.524 3.13-6.117 8.158-10.675 13.447-12.192 3.362-.965 6.522-.648 9.135.915 4.309 2.576 6.679 9.484 5.636 16.424-1.785 11.875-11.727 24.458-33.937 27.546-2.46 26.844-1.072 57.936-1.05 58.399zm21.902-102.075c-4.944 1.418-9.668 5.726-12.635 11.523-3.477 6.793-5.555 18.234-6.77 30.736 21.277-3.067 30.8-15.062 32.504-26.387.95-6.33-1.202-12.818-5.007-15.094-1.415-.846-3.023-1.272-4.752-1.272-1.072 0-2.191.164-3.34.494zm-68.903.778c-3.806 2.276-5.958 8.765-5.007 15.094 1.702 11.325 11.225 23.32 32.502 26.387-1.214-12.502-3.291-23.943-6.768-30.736-2.968-5.797-7.691-10.105-12.635-11.523a12.106 12.106 0 0 0-3.34-.494c-1.73 0-3.337.426-4.752 1.272z"/></g><g><path fill="#fe9" d="M342.067 112.377a4.296 4.296 0 0 1-4.296-4.297c0-26.645-18.016-49.816-43.809-56.346a4.298 4.298 0 0 1 2.11-8.33c29.612 7.496 50.292 34.093 50.292 64.676a4.296 4.296 0 0 1-4.296 4.297z"/></g><g><path fill="#fe9" d="M278.207 45.546a4.296 4.296 0 1 0 8.592 0 4.296 4.296 0 0 0-8.592 0z"/></g><g opacity=".55"><g opacity=".55"><path fill="#ffc043" d="M354.39 112.508c-4.132 30.707-28.923 62.495-74.74 62.495-45.816 0-69.681-33.276-74.74-62.494a74.492 74.492 0 0 0 14.214 39.665c10.689 16.107 38.464 34.293 38.464 45.188v12.448a4.498 4.498 0 0 0 4.498 4.499H297.215a4.499 4.499 0 0 0 4.499-4.5v-12.446c0-10.895 27.774-29.081 38.463-45.188a74.492 74.492 0 0 0 14.214-39.666z"/></g></g><g><path fill="#28364c" d="M303.483 202.678h-47.665v22.718c0 3.709 1.056 7.342 3.044 10.474a20.486 20.486 0 0 0 17.295 9.506h6.988a20.486 20.486 0 0 0 17.295-9.507 19.553 19.553 0 0 0 3.043-10.474z"/></g><g><path fill="#475577" d="M255.814 217.997c.136.005.274 0 .413-.015l47.665-4.941c1.627-.168 2.763-1.63 2.538-3.266-.226-1.635-1.731-2.825-3.355-2.654l-47.665 4.94c-1.627.169-2.764 1.632-2.538 3.267a3.107 3.107 0 0 0 2.941 2.669z"/></g><g><path fill="#475577" d="M255.814 228.394c.136.005.274 0 .413-.014l47.665-4.942c1.627-.168 2.763-1.63 2.538-3.266-.226-1.634-1.731-2.822-3.355-2.654l-47.665 4.94c-1.627.169-2.764 1.632-2.538 3.267a3.107 3.107 0 0 0 2.941 2.669z"/></g><g><path fill="#475577" d="M257.717 238.685c.136.005.274 0 .413-.015l45.18-4.683c1.627-.169 2.763-1.63 2.537-3.266-.225-1.636-1.732-2.826-3.354-2.655l-45.18 4.684c-1.627.168-2.764 1.63-2.538 3.266a3.107 3.107 0 0 0 2.942 2.67z"/></g><g><path fill="#ffcd5c" d="M279.65 1.405v23.532"/><path fill="none" stroke="#ffc043" stroke-linecap="round" stroke-linejoin="round" stroke-miterlimit="20" stroke-width="3" d="M279.65 1.405v23.532"/></g><g><path fill="#ffcd5c" d="M322.087 10.778l-9.504 21.527"/><path fill="none" stroke="#ffc043" stroke-linecap="round" stroke-linejoin="round" stroke-miterlimit="20" stroke-width="3" d="M322.087 10.778l-9.504 21.527"/></g><g><path fill="#ffcd5c" d="M357.855 36.814l-17.39 15.855"/><path fill="none" stroke="#ffc043" stroke-linecap="round" stroke-linejoin="round" stroke-miterlimit="20" stroke-width="3" d="M357.855 36.814l-17.39 15.855"/></g><g><path fill="#ffcd5c" d="M237.213 10.778l9.504 21.527"/><path fill="none" stroke="#ffc043" stroke-linecap="round" stroke-linejoin="round" stroke-miterlimit="20" stroke-width="3" d="M237.213 10.778l9.504 21.527"/></g><g><path fill="#ffcd5c" d="M201.446 36.814l17.389 15.855"/><path fill="none" stroke="#ffc043" stroke-linecap="round" stroke-linejoin="round" stroke-miterlimit="20" stroke-width="3" d="M201.446 36.814l17.389 15.855"/></g><g><path fill="#648acc" d="M179.53 324.398a1.62 1.62 0 1 1-3.24 0 1.62 1.62 0 0 1 3.24 0z"/></g><g><path fill="#648acc" d="M196.98 324.398a1.62 1.62 0 1 1-3.24 0 1.62 1.62 0 0 1 3.24 0z"/></g><g><path fill="#648acc" d="M419.806 207.235a1.621 1.621 0 1 1-3.242 0 1.621 1.621 0 0 1 3.242 0z"/></g><g><path fill="#648acc" d="M428.94 207.235a1.621 1.621 0 1 1-3.243 0 1.621 1.621 0 0 1 3.243 0z"/></g><g><path fill="#648acc" d="M438.074 207.235a1.621 1.621 0 1 1-3.243 0 1.621 1.621 0 0 1 3.243 0z"/></g><g><path fill="#648acc" d="M411.26 187.531a1.62 1.62 0 1 1-3.241 0 1.62 1.62 0 0 1 3.241 0z"/></g><g><path fill="#f46072" d="M326.262 282.435c0 18.47 14.973 33.444 33.444 33.444 18.471 0 33.444-14.973 33.444-33.444 0-18.471-14.973-33.444-33.444-33.444-18.47 0-33.444 14.973-33.444 33.444z"/></g><g><path fill="#fff" d="M335.51 282.435c0 13.363 10.834 24.195 24.196 24.195 13.363 0 24.196-10.832 24.196-24.195s-10.833-24.195-24.196-24.195c-13.362 0-24.195 10.832-24.195 24.195z"/></g><g><path fill="#f46072" d="M343.087 282.435c0 9.179 7.441 16.619 16.619 16.619 9.179 0 16.62-7.44 16.62-16.62 0-9.178-7.441-16.618-16.62-16.618-9.178 0-16.619 7.44-16.619 16.619z"/></g><g><path fill="#fff" d="M351 282.435a8.706 8.706 0 1 0 17.413 0 8.706 8.706 0 0 0-17.413 0z"/></g><g><path fill="#0c3656" d="M358.359 283.783h5.466l-5.466-5.467z"/></g><g><path fill="#0c3656" d="M393.807 248.334h6.255v-1.577h-4.678v-4.678h-1.577z"/></g><g><path fill="#0c3656" d="M396.67 245.47h6.255v-1.576h-4.678v-4.678h-1.577z"/></g><g><path fill="#0c3656" d="M360.45 282.805l37.826-37.824-1.116-1.115-37.825 37.824z"/></g><g><path fill="#f886bc" d="M102.497 222.762l-4.125 7.834s-2.814 0-6.697-1.917c-3.855-1.903-4.978-4.525-4.978-4.525l6.974-9.226z"/></g><g><path fill="#f886bc" d="M111.268 207.965c3.836 2.261-2.5 16.576-5.962 17.482-3.462.906-10.336-5.858-12.385-11.589-2.05-5.73 4.543-8.865 8.419-10.03 3.876-1.165 9.928 4.137 9.928 4.137z"/></g><g><path fill="#00276f" d="M108.39 214.886c-.067.113-.13.228-.191.344-.062.117-.125.232-.178.353a.22.22 0 0 0-.035.11.216.216 0 0 0 .006.118.297.297 0 0 0 .135.177.303.303 0 0 0 .228.03.3.3 0 0 0 .177-.136c.07-.138.126-.283.185-.425.05-.124.099-.247.144-.372a.257.257 0 0 0-.026-.2.262.262 0 0 0-.123-.105.258.258 0 0 0-.322.105z"/></g><g><path fill="none" stroke="#00276f" stroke-linecap="round" stroke-linejoin="round" stroke-miterlimit="20" stroke-width=".75" d="M110.547 213.508s-.842-1.262-3.057-.82"/></g><g><path fill="#fff" d="M105.05 220.475l2.44 1.743s-.955 1.845-1.826 1.128c-.872-.718-.615-2.871-.615-2.871z"/></g><g><path fill="#212237" d="M114.713 211.101c-1.742-.56-3.658-1.622-4.978-2.284-1.762.365-3.594 2.018-3.642 3.891-.01.422-.053.996-.47 1.054-.288.04-.526-.242-.607-.52-.081-.28-.07-.585-.185-.852-.232-.543-.947-.76-1.505-.569-.558.192-.96.697-1.188 1.241-.582 1.392-1.103 3.077.227 4.245.207.181.449.338.581.58.289.522-.051 1.158-.392 1.648-1.057 1.52-2.647 3.227-5.764 3.227-2.193 0-5.834-2.89-6.075-4.336-.021-.129-2.119-8.978 1.774-14.607 2.089-3.019 5.765-5.218 9.599-4.897 2.368.198 4.435 1.593 5.595 2.496 6.393 1.176 7.764 7.765 7.03 9.683z"/></g><g><path fill="#f886bc" d="M111.02 216.327s.566 4.292-.28 4.761c-.845.47-2.631-.753-2.631-.753z"/></g><g><path fill="#f886bc" d="M112.781 332.529l-3.129 20.206-.163 6.084 23.856-.122a1.054 1.054 0 0 0 .37-2.041l-10.29-4.731 4.07-20.989z"/></g><g><path fill="#4868ef" d="M135.439 358.44c-.244-.763-.691-1.622-1.143-1.816l-10.91-4.698c-6.012 2.437-13.796.574-13.796.574l-1.389 8.213a.492.492 0 0 0 .496.49l26.558-.136c.536-.002.192-2.602.184-2.626z"/></g><g><path fill="none" stroke="#273b7a" stroke-miterlimit="20" stroke-width=".75" d="M125.748 352.396a12.884 12.884 0 0 0-1.538 2.583"/></g><g><path fill="none" stroke="#273b7a" stroke-miterlimit="20" stroke-width=".75" d="M127.121 353.217c-.633.876-.886 1.383-1.264 2.196"/></g><g><path fill="none" stroke="#273b7a" stroke-miterlimit="20" stroke-width=".75" d="M128.282 353.816c-.43.578-.852 1.377-1.186 2.015"/></g><g><path fill="none" stroke="#273b7a" stroke-miterlimit="20" stroke-width=".75" d="M108.342 359.43l27.209-.14"/></g><g><path fill="none" stroke="#273b7a" stroke-miterlimit="20" stroke-width=".75" d="M109.097 355.413s6.392.13 6.942 3.98"/></g><g><path fill="none" stroke="#273b7a" stroke-miterlimit="20" stroke-width=".75" d="M132.06 355.66s-1.762 2.505-2.11 3.66"/></g><g><path fill="#f886bc" d="M38.73 337.824l-19.905-2.371-6.084-.163.12 23.856a1.054 1.054 0 0 0 2.042.368l4.73-10.288 20.63 2.323z"/></g><g><path fill="#4868ef" d="M13.119 361.239c.764-.244 1.623-.691 1.817-1.143l4.698-10.909c-2.437-6.013-.575-13.797-.575-13.797l-8.213-1.388a.493.493 0 0 0-.49.495l.137 26.559c.002.535 2.602.191 2.626.183z"/></g><g><path fill="none" stroke="#273b7a" stroke-miterlimit="20" stroke-width=".75" d="M19.164 351.549a12.865 12.865 0 0 0-2.583-1.538"/></g><g><path fill="none" stroke="#273b7a" stroke-miterlimit="20" stroke-width=".75" d="M18.342 352.922c-.876-.633-1.383-.886-2.196-1.265"/></g><g><path fill="none" stroke="#273b7a" stroke-miterlimit="20" stroke-width=".75" d="M17.743 354.083c-.578-.43-1.377-.852-2.015-1.186"/></g><g><path fill="none" stroke="#273b7a" stroke-miterlimit="20" stroke-width=".75" d="M12.129 334.142l.14 27.21"/></g><g><path fill="none" stroke="#273b7a" stroke-miterlimit="20" stroke-width=".75" d="M16.146 334.898s-.13 6.392-3.98 6.941"/></g><g><path fill="none" stroke="#273b7a" stroke-miterlimit="20" stroke-width=".75" d="M15.898 357.86s-2.504-1.761-3.659-2.11"/></g><g><path fill="#22252d" d="M50.57 282.362c-4.279 11.436 2.703 28.039 2.703 28.039l3.68 26.742-34.904-1.537.346 23.213s37.438 2.664 46.494 2.664c9.055 0 12.555-2.027 15.213-7.333 3.96-7.905-1.73-51.608-1.73-52.332l-6.215-28.073z"/></g><g><path fill="none" stroke="#474b51" stroke-miterlimit="20" stroke-width=".75" d="M26.238 335.79l.263 23.316"/></g><g><path fill="#22252d" d="M62.676 288.545s-3.962 20.248 16.151 24.6c8.99 1.943 31.845 2.582 31.845 2.582l-3.903 31.281h22.823s4.73-23.569 6.152-39.334c.947-10.488-3.564-15.178-12.044-16.23-7.178-.89-28.765-2.294-28.765-2.294l-3.629-4.556z"/></g><g><path fill="none" stroke="#474b51" stroke-miterlimit="20" stroke-width=".75" d="M83.337 313.868s-16.928.052-20.978-18.917"/></g><g><path fill="none" stroke="#474b51" stroke-miterlimit="20" stroke-width=".75" d="M71.292 293.161s4.581.877 10.546.486"/></g><g><path fill="none" stroke="#474b51" stroke-miterlimit="20" stroke-width=".75" d="M49.187 290.48s4.513 1.292 7.445 1.263"/></g><g><path fill="none" stroke="#474b51" stroke-miterlimit="20" stroke-width=".75" d="M108.277 342.936h22.16"/></g><g><path fill="#648acc" d="M155.664 276.447h-1.816v-19.856h1.816z"/></g><g><path fill="#648acc" d="M158.105 254.58a3.35 3.35 0 1 1-6.699-.001 3.35 3.35 0 0 1 6.699 0z"/></g><g><path fill="#f886bc" d="M137.948 260.28l6.738.498s5.18-1.747 7.241-1.791c1.265-.028 1.92.64 1.92.64v2.036c0 1.356 1.816 1.953 1.816 1.032v-1.12c.021.075 3.731 1.838 1.557 3.517 1.02.21 1.562 1.645-.374 2.627.615.42 1.326 1.583-.094 2.516.63.958-.65 2.013-1.669 2.234-1.927.416-17.34.092-17.34.092z"/></g><g><path fill="#fd9e37" d="M98.63 229.86c11.068 15.311 5.123 20.272-2.832 59.33-26.568 0-46.902-4.596-46.902-4.596s6.327-20.496 18.054-43.306c5.592-10.877 14.888-16.293 20.15-17.675z"/></g><g><path fill="#fd9e37" d="M81.838 247.074s17.103 26.787 25.231 27.975c12.905 1.886 34.247 1.357 34.247 1.357l1.272-18.845s-27.432-1.387-28.564-2.03c-3.675-2.09-15.394-25.67-15.394-25.67z"/></g><g><path fill="none" stroke="#273b7a" stroke-miterlimit="20" stroke-width=".75" d="M100.05 270.161s-10.035-8.328-16.714-21.262"/></g><g><path fill="none" stroke="#273b7a" stroke-miterlimit="20" stroke-width=".75" d="M138.633 257.353l-1.616 19.121"/></g><g><path fill="#f886bc" d="M501.577 227.781c-.415 3.661-3.354 14.068-2.74 14.504.617.435 1.699-3.212 2.139-2.76.438.451-.847 6.176-.116 6.446.992.368 1.994-5.566 1.994-5.566s-.774 6.554.178 6.623c.674.05 1.495-4.925 2.047-6.787-.341 2.093-.493 5.552.208 5.588.696.036 1.327-3.339 1.948-5.898-.238 1.634-.512 4.63.134 4.694.645.064 2.75-8.036 4.435-15.739z"/></g><g><path fill="#f886bc" d="M513.492 177.567s5.923 10.522 6.78 16.98c2.106 15.909-11.094 42.859-11.094 42.859s-9.593-2.617-9.593-3.821c0-1.204 6.686-29.52 6.686-29.52l-9.589-22.133z"/></g><g><path fill="#f886bc" d="M484.69 143.015l1.287 11.863s-7.114 6.032-13.408-.725l.769-7.809z"/></g><g><path fill="#f886bc" d="M474.765 131.13s-7.7 10.604-4.555 14.579c2.321 2.932 8.41 3.266 10.291 2.113.405-2.172 5.396-9.35 4.596-10.947-3.059-6.103-10.332-5.745-10.332-5.745z"/></g><g><path fill="#212237" d="M486.751 132.964c-.249-4.009-4.202-5.183-11.79-4.73-1.015.061-2.823-.629-3.293.273-.617 1.187-.726 3.588.466 4.668.795.722 1.327.878 2.373 1.122 1.375.321 2.776 1.631 2.045 3.07-.192.378-.645 1.017-.358 1.328.145.158.635.331.824.432.545.292.511 1.122.171 1.64-.34.517-.188 1.092-.53 1.608-.812 1.221.15 3.474 1.412 4.222 1.117.661 4.78 1.765 7.46.375 2.324-1.205 3.72-4.485 3.74-10.383.006-2.262-1.676-3.779-2.52-3.625z"/></g><g><path fill="#f886bc" d="M475.604 139.02c1.25-1.585 2.263-1.333 2.815-.463.737 1.161-.74 3.574-1.43 3.986-1.393.834-2.522.747-2.63-.386z"/></g><g><path fill="#28364c" d="M472.519 136.593c-.357.298-.693.838-.495 1.236a.277.277 0 0 0 .287.153c.802-.079.955-2.012.208-1.39z"/></g><g><path fill="none" stroke="#28364c" stroke-miterlimit="20" stroke-width=".75" d="M472.619 135.122c.5.178 1.313.632 1.609 1.265"/></g><g><path fill="#fff" d="M472.605 142.248l-1.759-.94s-1.155 2.16-.336 2.616c.905.504 2.095-1.676 2.095-1.676z"/></g><g><path fill="#103bb2" d="M446.08 361.483l27.78-.021-.002-1.245-27.779.022z"/></g><g><path fill="#22252d" d="M469.905 349.961l2.404.567s.92 3.14 1.273 5.326c.353 2.186.276 4.363.276 4.363l-27.78.021s.726-2.408 7.355-6.29c2.612-1.53 3.942-3.28 3.942-3.28z"/></g><g><path fill="#f2b18f" d="M472.766 339.966l-.456 10.562s-1.166 1.41-5.884 1.414c-4.718.003-9.051-1.275-9.051-1.275l-.931-14.248z"/></g><g><path fill="#103bb2" d="M485.647 361.483l27.78-.021v-1.245l-27.78.022z"/></g><g><path fill="#22252d" d="M509.473 349.961l2.404.567s.92 3.14 1.273 5.326c.353 2.186.276 4.363.276 4.363l-27.78.021s.726-2.408 7.355-6.29c2.612-1.53 3.941-3.28 3.941-3.28z"/></g><g><path fill="#f2b18f" d="M510.94 339.535l.938 10.993s-1.166 1.41-5.884 1.414c-4.718.004-9.051-1.274-9.051-1.274l-2.141-14.25z"/></g><g><path fill="#0070e4" d="M506.46 230.237s4.333 9.023.851 26.287c1.772 38.546 6.381 90.366 6.381 90.366l-26.467-.093s-5.397-55.703-8.605-83.462c-3.574-30.921-5.809-68.788-5.809-68.788z"/></g><g><path fill="none" stroke="#0b2e6b" stroke-miterlimit="20" stroke-width=".75" d="M491.498 346.797s-5.397-55.703-8.605-83.462"/></g><g><path fill="#0070e4" d="M455.92 231.964s-2.814 40.637-2.814 60.139c0 19.502-1.25 54.788-1.25 54.788h26.751l9.955-92.24c8.152-9.764 7.557-30.952 5.592-39.203l-26.527-7.243z"/></g><g><path fill="none" stroke="#0b2e6b" stroke-miterlimit="20" stroke-width=".75" d="M483.096 305.301v0l5.466-50.65c6.837-7.622 6.837-17.246 6.837-17.246v0"/></g><g><path fill="none" stroke="#0b2e6b" stroke-miterlimit="20" stroke-width=".75" d="M461.503 227.882l-6.332 119.008"/></g><g><path fill="none" stroke="#0b2e6b" stroke-miterlimit="20" stroke-width=".75" d="M479.074 238.606l12.995.26"/></g><g><path fill="none" stroke="#0b2e6b" stroke-miterlimit="20" stroke-width=".75" d="M501.33 238.196l4.94-.103"/></g><g><path fill="#f886bc" d="M433.365 170.064c-3.627-4.104-13.36-19.708-14.455-19.462-1.094.247 1.853 5.075.916 5.11-.935.034-5.973-7.089-7-6.55-1.393.728 4.157 7.746 4.157 7.746s-2.173-2.982-3.198-2c-.726.695-.343 2.155 1.162 4.62-1.01-1.262-1.962-1.485-2.702-.748-.732.732-.006 2.076.897 3.436-.713-.89-1.753-1.339-2.02-.41-.348 1.214 2.596 7.512 9.562 17.783z"/></g><g><path fill="#d8cac0" d="M485.845 153.671s15.328.643 19.926 18.09c2.073 7.865 3.407 61.804 3.407 61.804l-56.013-.375s.746-48.764 2-59.322c2.288-19.295 17.481-20.498 17.481-20.498s.692 1.706 6.63 1.706c5.937 0 6.57-1.405 6.57-1.405z"/></g><g><path fill="#d8cac0" d="M485.845 153.671c18.193 0 29.396 24.991 29.396 24.991l-11.44 5.745z"/></g><g><path fill="#f886bc" d="M461.811 189.13s-9.709 13.971-17.548 14.73c-10.536 1.02-29.28-34.059-29.28-34.059l11.823-7.986 16.195 20.368 5.523-8.255z"/></g><g><path fill="#d8cac0" d="M472.646 153.37c-15.664.86-27.13 24.197-27.13 24.197l18.342 13.165 10.411-13.58z"/></g><g><path fill="none" stroke="#846a6a" stroke-miterlimit="20" stroke-width=".75" d="M463.212 190.268l8.873-11.54"/></g><g><path fill="none" stroke="#846a6a" stroke-miterlimit="20" stroke-width=".75" d="M507.31 182.645c-1.015-7.341-3.51-13.605-3.51-13.605"/></g><g><path fill="#f886bc" d="M471.857 137.484s-2.522 1.212-2.396 1.674c.125.463.882 1.582.882 1.582z"/></g><g><path fill="none" stroke="#0b2e6b" stroke-miterlimit="20" stroke-width=".75" d="M451.855 341.09h27.22"/></g><g><path fill="none" stroke="#0b2e6b" stroke-miterlimit="20" stroke-width=".75" d="M486.668 341.321h26.475"/></g></g></svg>