<svg xmlns="http://www.w3.org/2000/svg" width="564" height="264" viewBox="0 0 564 264"><defs><linearGradient id="htzca" x1="283.19" x2="283.19" y1="262.7" y2="61.4" gradientUnits="userSpaceOnUse"><stop offset="0" stop-color="#e1e8f6"/><stop offset=".38" stop-color="#e1e8f6"/><stop offset="1" stop-color="#e1e8f6"/></linearGradient><linearGradient id="htzcb" x1="224.42" x2="234.89" y1="101.03" y2="41.63" gradientUnits="userSpaceOnUse"><stop offset="0" stop-color="#148275"/><stop offset="1" stop-color="#14bda4"/></linearGradient><linearGradient id="htzcc" x1="215.96" x2="188.42" y1="172.18" y2="124.47" gradientUnits="userSpaceOnUse"><stop offset="0" stop-color="#148275"/><stop offset="1" stop-color="#14bda4"/></linearGradient><linearGradient id="htzcd" x1="205.86" x2="256.68" y1="170.61" y2="141.27" gradientUnits="userSpaceOnUse"><stop offset="0" stop-color="#148275"/><stop offset="1" stop-color="#14bda4"/></linearGradient><linearGradient id="htzce" x1="203.51" x2="255.43" y1="132.09" y2="102.12" gradientUnits="userSpaceOnUse"><stop offset="0" stop-color="#148275"/><stop offset="1" stop-color="#14bda4"/></linearGradient><linearGradient id="htzcf" x1="203.67" x2="193.42" y1="125.53" y2="67.35" gradientUnits="userSpaceOnUse"><stop offset="0" stop-color="#148275"/><stop offset="1" stop-color="#14bda4"/></linearGradient><linearGradient id="htzcg" x1="365.38" x2="404.36" y1="163.58" y2="141.07" gradientUnits="userSpaceOnUse"><stop offset="0" stop-color="#148275"/><stop offset="1" stop-color="#14bda4"/></linearGradient><linearGradient id="htzch" x1="374.87" x2="345.26" y1="186.04" y2="134.74" gradientUnits="userSpaceOnUse"><stop offset="0" stop-color="#148275"/><stop offset="1" stop-color="#14bda4"/></linearGradient><linearGradient id="htzci" x1="365.91" x2="355.41" y1="155.97" y2="96.41" gradientUnits="userSpaceOnUse"><stop offset="0" stop-color="#148275"/><stop offset="1" stop-color="#14bda4"/></linearGradient><linearGradient id="htzcj" x1="387.25" x2="396.38" y1="133.47" y2="81.68" gradientUnits="userSpaceOnUse"><stop offset="0" stop-color="#148275"/><stop offset="1" stop-color="#14bda4"/></linearGradient></defs><g><g><path fill="url(#htzca)" d="M231.474 61.413c-55.085.891-51.326 42.553-91.855 50.041-12.166 2.248-25.735-1.898-39.682-6.045-20.722-6.16-42.279-12.321-61.311 2.488-31.845 24.777-10.245 48.381-22.047 75.994-11.803 27.614-22.715 49.162 2.449 78.806h523.876s19.709-20.015 19.709-50.524-20.266-32.456-32.736-51.301c-12.47-18.846-10.776-40.892-44.47-50.357-17.979-5.049-29.777.866-41.239 6.781-10.018 5.169-19.779 10.339-33.186 8.187-28.748-4.612-26.521-20.427-75.068-20.537-48.172-.108-62.088-43.539-103.476-43.541-.321 0-.64.002-.964.008z"/></g><g><path fill="url(#htzcb)" d="M217.552 62.765c-4.12 14.809-3.036 36.516-3.036 36.516 5.152-13.357 11.387-18.813 19.849-25.271 8.462-6.457 17.481-23.047 8.908-29.728-1.824-1.421-3.851-2.072-5.95-2.072-7.766-.001-16.528 8.897-19.771 20.555z"/></g><g><path fill="url(#htzcc)" d="M189.883 123.838c-11.357 4.134-4.644 19.075 5.512 28.225 11.664 10.509 19.537 20.71 19.537 20.71-1.003-17.265-8.772-49.5-21.983-49.5-.991 0-2.013.181-3.066.565z"/></g><g><path fill="url(#htzcd)" d="M229.466 136.698c-11.003 11.828-13.473 37.856-14.29 50.041 0 0 4.649-15.188 15.18-25.239 9.131-8.715 23.055-13.477 23.049-22.91-.005-6.208-3.994-9.064-9.079-9.063-4.786 0-10.542 2.528-14.86 7.171z"/></g><g><path fill="url(#htzce)" d="M219.444 112.091c-7.117 16.258-6.055 37.11-6.055 37.11-.29-13.283 8.684-25.563 17.97-30.736 13.918-7.755 23.493-19.718 17.146-28.189-1.317-1.759-3.035-2.548-4.992-2.549-7.467-.001-18.429 11.481-24.069 24.364z"/></g><g><path fill="url(#htzcf)" d="M182.813 75.013c-2.339 8.574 12.048 17.364 18.705 26.165 6.347 8.392 10.82 22.821 10.82 22.821.204-15.918-.635-40.635-8.622-49.989-3.686-4.316-7.925-6.261-11.65-6.261-4.347 0-7.994 2.647-9.253 7.264z"/></g><g><path fill="none" stroke="#1dceb4" stroke-linecap="round" stroke-miterlimit="20" stroke-width=".96" d="M211.688 262.697c1.864-21.502 5.589-73.38 1.967-110.634-4.676-48.1 3.007-75.602 21.935-100.544"/></g><g><path fill="none" stroke="#1dceb4" stroke-linecap="round" stroke-miterlimit="20" stroke-width=".96" d="M192.5 132.796s18.81 20.047 22.432 39.978"/></g><g><path fill="none" stroke="#1dceb4" stroke-linecap="round" stroke-miterlimit="20" stroke-width=".96" d="M215.176 186.739c1.15-12.286 10.17-36.346 25.758-46.813"/></g><g><path fill="none" stroke="#1dceb4" stroke-linecap="round" stroke-miterlimit="20" stroke-width=".96" d="M213.39 149.202c-.403-16.847 5.499-39.227 25.652-49.137"/></g><g><path fill="none" stroke="#1dceb4" stroke-linecap="round" stroke-miterlimit="20" stroke-width=".96" d="M192.5 76.795c8.35 7.015 19.37 29.713 19.838 47.204"/></g><g><path fill="url(#htzcg)" d="M372.284 175.528s7.655-8.761 18.741-17.593c9.653-7.688 16.522-20.784 6.514-25.133-1.081-.47-2.14-.691-3.175-.691-11.68.002-20.253 28.106-22.08 43.417z"/></g><g><path fill="url(#htzch)" d="M339.487 142.616c-.522 8.5 11.765 13.553 19.515 21.907 8.94 9.636 12.298 23.576 12.298 23.576-.07-11.023-.869-34.614-10.136-45.877-3.84-4.667-9.254-7.297-13.713-7.298-4.253-.001-7.637 2.391-7.964 7.692z"/></g><g><path fill="url(#htzci)" d="M346.55 99.347c-6.183 7.285 1.79 18.59 13.907 26.34 8.084 5.172 15.499 16.729 14.509 28.684 0 0 2.099-18.733-3.423-33.774-4.46-12.148-13.983-23.286-20.74-23.285-1.61 0-3.063.632-4.253 2.035z"/></g><g><path fill="url(#htzcj)" d="M387.804 87.142c-7.71 7.992-9.821 30.22-10.509 44.574 0 0 4.821-12.757 11-19.97 6.481-7.566 19.928-14.701 18.291-22.555-.927-4.442-4.347-7.071-8.539-7.071-3.219 0-6.894 1.551-10.243 5.022z"/></g><g><path fill="none" stroke="#1dceb4" stroke-linecap="round" stroke-miterlimit="20" stroke-width=".96" d="M370.457 262.697c-.458-13.431-1.858-68.198 4.113-105.762 1.456-9.163 2.358-17.517 2.725-25.218"/></g><g><path fill="none" stroke="#1dceb4" stroke-linecap="round" stroke-miterlimit="20" stroke-width=".96" d="M394.69 140.731s-18.049 17.035-22.406 34.797"/></g><g><path fill="none" stroke="#1dceb4" stroke-linecap="round" stroke-miterlimit="20" stroke-width=".96" d="M371.3 188.1c-.365-11.135-7.174-33.31-20.648-43.597"/></g><g><path fill="none" stroke="#1dceb4" stroke-linecap="round" stroke-miterlimit="20" stroke-width=".96" d="M374.966 154.37c1.286-15.158-2.806-35.65-20.424-45.684"/></g><g><path fill="none" stroke="#1dceb4" stroke-linecap="round" stroke-miterlimit="20" stroke-width=".96" d="M397.759 90.265c-7.91 5.864-19.084 25.715-20.464 41.451"/></g><g><path fill="none" stroke="#01004c" stroke-linecap="round" stroke-linejoin="round" stroke-miterlimit="20" d="M507.077 37.685v0h-103.38V72.32h46.344v0l7.863 8.16v0-8.16 0h49.173v0-34.635 0z"/></g><g><path fill="none" stroke="#91b6e0" stroke-miterlimit="20" d="M500.98 55.003c0-6.496-5.266-11.762-11.762-11.762-6.495 0-11.761 5.266-11.761 11.762s5.266 11.762 11.76 11.762c6.497 0 11.763-5.266 11.763-11.762z"/></g><g><path fill="#91b6e0" d="M492.716 51.477a3.498 3.498 0 1 0-6.996 0 3.498 3.498 0 0 0 6.996 0z"/></g><g><path fill="#91b6e0" d="M489.218 56.207a7.292 7.292 0 0 0-7.253 8.043 11.703 11.703 0 0 0 7.253 2.515c2.739 0 5.253-.945 7.253-2.515a7.292 7.292 0 0 0-7.253-8.043z"/></g><g><path fill="#91b6e0" d="M470.391 48.746H412.55v-3.255h57.841z"/></g><g><path fill="#f98091" d="M416.732 62.258l-2.585 1.357.494-2.878-2.091-2.038 2.89-.42 1.292-2.619 1.292 2.62 2.89.42-2.091 2.037.493 2.878z"/></g><g><path fill="#f98091" d="M429.101 62.258l-2.584 1.357.493-2.878-2.09-2.038 2.89-.42 1.291-2.619 1.292 2.62 2.89.42-2.09 2.037.492 2.878z"/></g><g><path fill="#f98091" d="M441.47 62.258l-2.585 1.357.494-2.878-2.09-2.038 2.89-.42 1.291-2.619 1.292 2.62 2.89.42-2.09 2.037.492 2.878z"/></g><g><path fill="#f98091" d="M453.84 62.258l-2.586 1.357.494-2.878-2.09-2.038 2.89-.42 1.291-2.619 1.292 2.62 2.89.42-2.09 2.037.492 2.878z"/></g><g><path fill="none" stroke="#01004c" stroke-linecap="round" stroke-linejoin="round" stroke-miterlimit="20" stroke-width="1.2" d="M446.122 192.489v70.208"/></g><g><path fill="none" stroke="#01004c" stroke-linecap="round" stroke-linejoin="round" stroke-miterlimit="20" stroke-width="1.2" d="M481.192 192.489v70.208"/></g><g><path fill="none" stroke="#01004c" stroke-linecap="round" stroke-linejoin="round" stroke-miterlimit="20" stroke-width="1.2" d="M513.332 188.85v73.847"/></g><g><path fill="#d64949" d="M502.691 194.022h-27.659v-3.066h27.659a13.848 13.848 0 0 0 13.441-10.52c3.032-12.136 6.365-36.227 5.774-64.187l3.065-.065c.597 28.263-2.786 52.676-5.864 64.993-1.89 7.563-8.641 12.845-16.416 12.845z"/></g><g><path fill="#e95f5c" d="M471.293 190.956h31.398a13.848 13.848 0 0 0 13.442-10.521c3.032-12.134 6.364-36.225 5.773-64.186h-31.398c.59 27.96-2.741 52.052-5.773 64.186a13.849 13.849 0 0 1-13.442 10.52z"/></g><g><path fill="#fc7e7e" d="M443.633 190.956h31.398v3.066h-31.398z"/></g><g><path fill="#282766" d="M473.31 171.466c-24.66 6.078-52.328 25.74-62.258 66.503l6.064 2.426s18.233-34.034 46.734-41.918c28.501-7.883 28.662-17.914 28.662-17.914l-1.01-9.097z"/></g><g><path fill="#f98091" d="M414.903 247.273l-15.525-8.04 11.673-1.264 6.064 2.426z"/></g><g><path fill="#f98091" d="M469.46 255.646l-16.868 4.594 7.736-8.833 6.105-2.32z"/></g><g><path fill="#282766" d="M482.203 171.466c-17.585 7.682-31.937 21.242-31.533 42.66.404 21.417 9.657 37.28 9.657 37.28l6.105-2.32s-4.732-20.273-.69-33.016c4.043-12.743 14.228-25.48 24.941-24.941 10.713.539 13.418-7.704 15.911-18.853z"/></g><g><path fill="#fcd98e" d="M473.31 171.466s18.057 3.773 33.284.81c0 0 4.716-22.1 0-40.967-4.716-18.866-18.192-25.334-29.242-9.434-11.05 15.902-22.37 26.144-35.98 30.32v6.065s23.852-4.852 38.271-16.845c0 0-.27 19.81-6.334 30.051z"/></g><g><path fill="#fcd98e" d="M492.524 113.96c9.489 1.818 6.255 17.35-1.965 28.399-8.221 11.05-25.2 18.058-41.91 17.789v-6.2s18.672-2.694 26.383-13.206c7.71-10.511 8.819-28.445 17.492-26.782z"/></g><g><path fill="#01004c" d="M491.486 110.603c3.351-1.899 4.563-5.336 3.856-7.762 0 0 7.277-3.436 4.144-9.5-3.134-6.064-.102-9.5-5.458-11.42-5.357-1.92-9.703 0-9.703 0s-8.036-4.448-10.84 3.032c-2.804 7.478 7.404 10.653 7.404 10.653z"/></g><g><path fill="#ffadb7" d="M490.962 101.595c2.291-2.426 3.706-6.94.202-7.143-3.503-.202-2.29 3.706-3.773 4.448-1.482.741-.907-3.752-4.312-5.593-2.493-1.348-4.649-.809-4.649-.809s-.405 5.391-2.156 8.28c0 0 .673.75 2.021.75 0 0-.606 8.085 7.681 7.748l.607 4.575s1.751.95 5.12-.532c0 0-.337-3.706-.337-5.189 0-1.482-2.695-4.109-.404-6.535z"/></g><g><path fill="none" stroke="#ef8998" stroke-linecap="round" stroke-miterlimit="20" stroke-width=".5" d="M479.537 97.438s.961-.806 2.171.124"/></g><g><path fill="none" stroke="#ef8998" stroke-linecap="round" stroke-miterlimit="20" stroke-width=".5" d="M489.883 96c.215-.32.509-.425 1.026-.425.062 0 .125.002.19.005.785.045.909.357.962.49.164.414.097 1.105-.172 1.888"/></g><g><path fill="none" stroke="#ef8998" stroke-linecap="round" stroke-miterlimit="20" stroke-width=".5" d="M491.894 95.826s-.57.393-1.004.94"/></g><g><path fill="#a9b2bf" d="M455.387 163.551h-45.453a1.443 1.443 0 0 1-1.443-1.442v-1.255h46.896z"/></g><g><path fill="#fff" d="M431.939 160.854h25.755l-8.642-33.138a1.638 1.638 0 0 0-1.585-1.224h-15.528z"/></g><g><path fill="#fff" d="M484.628 163.551h-29.241v-2.697h29.241a1.349 1.349 0 1 1 0 2.697z"/></g><g><path fill="#c1c7d3" d="M446.425 126.492h-44.99a1.47 1.47 0 0 0-1.425 1.842l8.481 32.52h46.895z"/></g><g><path fill="none" stroke="#01004c" stroke-linecap="round" stroke-linejoin="round" stroke-miterlimit="20" stroke-width="2" d="M392.32 165.555v97.142"/></g><g><path fill="none" stroke="#01004c" stroke-linecap="round" stroke-linejoin="round" stroke-miterlimit="20" stroke-width="2" d="M506.594 165.555v97.142"/></g><g><path fill="none" stroke="#01004c" stroke-linecap="round" stroke-linejoin="round" stroke-miterlimit="20" stroke-width="2" d="M547.291 165.555v97.142"/></g><g><path fill="#62a5e7" d="M518.992 167.558H378.306v-4.007h140.686z"/></g><g><path fill="#4091d3" d="M518.992 167.558h34.498v-4.007h-34.498z"/></g><g><path fill="none" stroke="#91b6e0" stroke-linecap="round" stroke-linejoin="round" stroke-miterlimit="20" stroke-width="2" d="M1.296 262.697h561.317"/></g><g><path fill="#62a5e7" d="M118.41 262.128c38.133 1.835 89.107-18.376 89.307-44.091.2-25.715-14.785-34.04-38.465-37-23.679-2.96-46.804 0-62.529-3.33-15.725-3.33-56.979-17.02-68.818 14.985-11.84 32.005 20.441 66.545 80.504 69.436z"/></g><g><path fill="none" stroke="#01004c" stroke-linecap="round" stroke-linejoin="round" stroke-miterlimit="20" d="M70.834 191.027c15.17 7.585 41.995 6.105 64.38 0 22.384-6.104 40.611 3.7 40.611 3.7v0"/></g><g><path fill="none" stroke="#01004c" stroke-linecap="round" stroke-linejoin="round" stroke-miterlimit="20" d="M145.548 34.534v0H42.167v34.634h46.345v0l7.863 8.159v0-8.16 0h49.173v0-34.633 0z"/></g><g><path fill="none" stroke="#91b6e0" stroke-miterlimit="20" d="M139.45 51.85c0-6.495-5.266-11.762-11.761-11.762-6.496 0-11.762 5.267-11.762 11.762 0 6.496 5.266 11.762 11.762 11.762 6.495 0 11.76-5.266 11.76-11.762z"/></g><g><path fill="#91b6e0" d="M131.187 48.325a3.498 3.498 0 1 0-6.996 0 3.498 3.498 0 0 0 6.996 0z"/></g><g><path fill="#91b6e0" d="M127.689 53.055a7.291 7.291 0 0 0-7.253 8.042 11.7 11.7 0 0 0 7.252 2.515c2.74 0 5.254-.945 7.254-2.515a7.29 7.29 0 0 0-7.253-8.042z"/></g><g><path fill="#91b6e0" d="M108.861 45.593h-57.84v-3.255h57.84z"/></g><g><path fill="#f98091" d="M55.203 59.105l-2.585 1.358.494-2.878-2.091-2.038 2.89-.42 1.292-2.619 1.292 2.62 2.89.42-2.091 2.037.493 2.878z"/></g><g><path fill="#f98091" d="M67.572 59.105l-2.585 1.358.494-2.878-2.091-2.038 2.89-.42 1.292-2.619 1.292 2.62 2.89.42-2.091 2.037.493 2.878z"/></g><g><path fill="#f98091" d="M79.941 59.105l-2.585 1.358.494-2.878-2.091-2.038 2.89-.42 1.292-2.619 1.292 2.62 2.89.42-2.091 2.037.493 2.878z"/></g><g><path fill="#f98091" d="M92.31 59.105l-2.584 1.358.493-2.878-2.091-2.038 2.89-.42 1.292-2.619 1.292 2.62 2.89.42-2.091 2.037.494 2.878z"/></g><g><path fill="#f98091" d="M104.679 59.105l-2.584 1.358.493-2.878-2.091-2.038 2.89-.42 1.292-2.619 1.292 2.62 2.89.42-2.091 2.037.494 2.878z"/></g><g><path fill="#e95f5c" d="M102.091 170.169h25.052s29.284 1.447 42.645 15.922C183.15 200.565 197.5 237.9 197.5 237.9l-5.849 3.495s-18.02-30.92-45.412-45.283c-27.39-14.364-40.808-16.924-40.808-16.924z"/></g><g><path fill="#01004c" d="M191.651 241.394l2.877 5.897 15.74-9.28-12.768-.11z"/></g><g><path fill="#01004c" d="M93.546 137.489c-3.202-8.136-3.258-18.623 7.014-24.802 10.272-6.18 11.193-21.076 24.95-21.128 13.536-.05 13.13 15.45 10.958 23.466-2.17 8.017-.667 17.035-.667 24.552 0 7.516-9.937 18.705-23.883 13.862-13.947-4.844-16.369-10.856-18.373-15.95z"/></g><g><path fill="#e95f5c" d="M95.188 170.169s-3.34 13.807 11.357 22.046c14.698 8.239 29.395 12.025 38.525 28.504 9.13 16.479 12.471 33.403 12.471 33.403l6.68-1.336s-.89-27.836-8.684-46.542c-7.794-18.706-39.416-36.075-39.416-36.075z"/></g><g><path fill="#01004c" d="M157.54 254.122l.74 6.52 17.937-3.48-11.995-4.376z"/></g><g><path fill="#ffadb7" d="M139.619 142.777l-7.743-1.864-2.377 7.653c4.265 8.787 14.738 25.45 34.723 31.011l1.893-4.176s-19.294-12.403-26.496-32.624z"/></g><g><path fill="#fcd98e" d="M138.223 138.157c-4.955-20.21-23.995-24.106-36.131-17.871-10.393 5.34-6.904 49.883-6.904 49.883s20.376 3.45 31.956 0c0 0-1.058-12.137 0-27.168 0 0 .727 2.21 2.355 5.565l10.12-5.79a47.357 47.357 0 0 1-1.396-4.62z"/></g><g><path fill="#ffadb7" d="M110.424 117.766c2.159 3.221 8.82 11.208 18.63 5.151-5.448-4.398-12.291-5.926-18.63-5.15z"/></g><g><path fill="#ffadb7" d="M117.122 117.81s1.78 2.002 5.985 1.6l1.086-4.886s5.902 2.143 8.74-3.424c2.84-5.567.029-10.062.029-10.062s-6.542-2.965-8.045-.238c-1.503 2.73-1.614 3.808-2.394 3.452-1.203-.549.334-3.786-3.062-3.73-3.396.056-3.563 6.458.167 7.237z"/></g><g><path fill="none" stroke="#ef8998" stroke-linecap="round" stroke-linejoin="round" stroke-miterlimit="20" stroke-width=".5" d="M129.856 105.835v0s-.048 1.76 1.092 3.032c0 0-.605.406-2.041.222"/></g><g><path fill="none" stroke="#ef8998" stroke-linecap="round" stroke-miterlimit="20" stroke-width=".5" d="M131.351 105.449s1.167-.374 2.27.33"/></g><g><path fill="none" stroke="#ef8998" stroke-linecap="round" stroke-miterlimit="20" stroke-width=".5" d="M125.342 104.575s1.462-.652 2.795.402"/></g><g><path fill="none" stroke="#ef8998" stroke-linecap="round" stroke-miterlimit="20" stroke-width=".5" d="M117.89 104.075c-.01-.19-.005-.38.012-.566.031-.326.253-1.952 1.576-1.973h.002c.505 0 .815.064 1.014.212"/></g><g><path fill="none" stroke="#ef8998" stroke-linecap="round" stroke-miterlimit="20" stroke-width=".5" d="M118.71 101.784l.849 1.487"/></g><g><path fill="#ffadb7" d="M118.878 174.423c4.146-1.693 10.071 1.354 10.364 4.319h-10.226z"/></g><g><path fill="#ffadb7" d="M118.878 174.423s-20.573-6.37-20.761-21.068c-.038-2.953.282-5.45.868-7.598l-3.435-6.516-8.357-1.218c-1.21 3.507-1.881 7.269-2.026 11.213-.446 12.136 7.627 29.506 33.849 29.506z"/></g><g><path fill="#fcd98e" d="M98.985 145.756c1.424-5.227 4.455-8.34 8.005-10.55l-4.9-14.92c-7.515 4.283-12.384 10.45-14.897 17.737z"/></g><g><path fill="#fff" d="M128.4 180.412h-25.664a.835.835 0 0 1 0-1.67H128.4z"/></g><g><path fill="#a9b2bf" d="M167.765 180.412h-39.364v-1.67h40.306v.728c0 .52-.42.942-.942.942z"/></g><g><path fill="#fff" d="M145.548 151.1h-9.108a.922.922 0 0 0-.88.646l-8.427 26.996h18.415z"/></g><g><path fill="#c1c7d3" d="M128.4 178.742h40.308l8.226-26.352a.994.994 0 0 0-.948-1.29H137.03z"/></g><g><path fill="none" stroke="#01004c" stroke-linecap="round" stroke-linejoin="round" stroke-miterlimit="20" stroke-width="1.2" d="M302.093 168.749v93.948"/></g><g><path fill="none" stroke="#01004c" stroke-linecap="round" stroke-linejoin="round" stroke-miterlimit="20" stroke-width="1.2" d="M323.665 162.959V262.5"/></g><g><path fill="none" stroke="#01004c" stroke-linecap="round" stroke-linejoin="round" stroke-miterlimit="20" stroke-width="1.2" d="M262.384 168.749v93.948"/></g><g><path fill="none" stroke="#01004c" stroke-linecap="round" stroke-linejoin="round" stroke-miterlimit="20" stroke-width="1.2" d="M262.384 205.27h61.28"/></g><g><path fill="#d64949" d="M294.471 170.577l-.012-3.378c16.537-.054 25.515-2.103 30.022-6.853 2.825-2.978 4.002-7.168 3.704-13.185-.797-16.145-.995-36.781 4.598-53.215l3.198 1.089c-5.409 15.892-5.205 36.115-4.422 51.96.342 6.905-1.172 12.032-4.627 15.675-5.205 5.485-14.913 7.849-32.46 7.907z"/></g><g><path fill="#fc7e7e" d="M259.72 167.199h34.74l.01 3.378h-34.737z"/></g><g><path fill="#e95f5c" d="M298.045 93.946c-5.593 16.434-5.396 37.07-4.598 53.215.298 6.016-.88 10.207-3.704 13.184-4.507 4.75-13.485 6.8-30.022 6.854h34.739c16.537-.054 25.515-2.104 30.022-6.854 2.824-2.977 4-7.168 3.703-13.184-.797-16.145-.995-36.781 4.598-53.215z"/></g><g><path fill="none" stroke="#01004c" stroke-linecap="round" stroke-linejoin="round" stroke-miterlimit="20" d="M353.525.656v0H250.144V35.29h29.162v0l7.863 8.159v0-8.16 0h66.356v0V.657v0z"/></g><g><path fill="none" stroke="#91b6e0" stroke-miterlimit="20" d="M347.427 17.973c0-6.496-5.266-11.762-11.762-11.762s-11.76 5.266-11.76 11.762 5.264 11.762 11.76 11.762c6.496 0 11.762-5.266 11.762-11.762z"/></g><g><path fill="#91b6e0" d="M339.164 14.448a3.498 3.498 0 1 0-6.996 0 3.498 3.498 0 0 0 6.996 0z"/></g><g><path fill="#91b6e0" d="M335.666 19.177a7.292 7.292 0 0 0-7.253 8.043 11.7 11.7 0 0 0 7.253 2.515c2.739 0 5.253-.945 7.253-2.515a7.292 7.292 0 0 0-7.253-8.043z"/></g><g><path fill="#91b6e0" d="M316.838 11.716h-57.84V8.461h57.84z"/></g><g><path fill="#f98091" d="M263.18 25.227l-2.585 1.36.494-2.879-2.091-2.038 2.89-.42 1.292-2.619 1.292 2.62 2.89.42-2.091 2.037.493 2.878z"/></g><g><path fill="#f98091" d="M275.549 25.227l-2.585 1.36.494-2.879-2.091-2.038 2.89-.42 1.292-2.619 1.292 2.62 2.89.42-2.091 2.037.493 2.878z"/></g><g><path fill="#f98091" d="M287.918 25.227l-2.585 1.36.494-2.879-2.091-2.038 2.89-.42 1.292-2.619 1.292 2.62 2.89.42-2.091 2.037.493 2.878z"/></g><g><path fill="#ffadb7" d="M290.068 106.841l-6.271-.656c-1.497 3.057-3.232 6.155-5.42 9.118-10.69 14.476-18.443 24.96-18.435 38.855l6.577-3.252s-.891-5.678 3.006-9.018c3.68-3.154 13.366-12.124 22.22-28.116z"/></g><g><path fill="#282766" d="M293.241 143.084c-7.683.334-35.408.167-44.76 27.892-9.354 27.724 3.09 51.555 3.09 51.555l6.573-1.034s-6.657-26.137-.31-39.331c6.346-13.194 16.534-17.745 31.9-16.785z"/></g><g><path fill="#f98091" d="M251.453 222.55l-9.667 8.716 18.022-3.923-1.664-5.846z"/></g><g><path fill="#f98091" d="M272.92 232.883l-7.96 10.3 17.036-7.07-2.678-5.458z"/></g><g><path fill="#282766" d="M293.241 143.084s-22.325 15.42-26.778 43.926c-4.454 28.504 6.457 45.874 6.457 45.874l6.398-2.228s-4.792-26.272 2.223-43.642c7.014-17.37 19.55-21.717 28.903-22.051 9.353-.334 12.916-10.243 11.58-20.933z"/></g><g><path fill="#62a5e7" d="M323.471 145.032s1.113-31.955-2.004-44.203c-3.118-12.248-6.124-18.818-19.263-18.261-10.449.443-12.592 11.733-18.407 23.616l7.947 7.587a73.488 73.488 0 0 0 1.497-2.838s-2.422 22.126-6.869 32.535c0 0 22.401 3.792 37.1 1.564z"/></g><g><path fill="#fff" d="M278.753 124.888h-5.526a1.83 1.83 0 0 1-1.83-1.83v-11.826a1.83 1.83 0 0 1 1.83-1.83h5.526a1.83 1.83 0 0 1 1.83 1.83v11.826a1.83 1.83 0 0 1-1.83 1.83z"/></g><g><path fill="#ffadb7" d="M274.252 128.776c-1.602-2.951-2.492-7.404.68-7.738 3.173-.334 4.008 1.614 3.674 5.177z"/></g><g><path fill="#ffadb7" d="M314.894 100.383l-5.338 4.16c.317 7.665-1.366 20.278-11.909 24.233-13.36 5.01-19.04-2.56-19.04-2.56l-4.356 2.56s3.911 7.961 18.664 8.795c14.88.843 23.437-7.014 26.555-20.153 1.247-5.255 1.761-9.76 1.611-13.772z"/></g><g><path fill="#62a5e7" d="M316.446 87.949c-4.676-6.903-9.669 1.745-7.442 11.767.24 1.08.466 2.78.551 4.828l11.526-.898c-.224-6.021-1.529-11.111-4.635-15.697z"/></g><g><path fill="#01004c" d="M307.367 78.01s5.558-.683 7.22-6.614c1.662-5.933 1.612-11.697-2.975-12.539 0 0-.772-3.382-4.096-2.505 0 0-.554-2.39-3.302-2.184 0 0-1.143-3.926-6.147-3.104-5.004.821-4.98 3.883-4.98 3.883s-7.062-.995-6.258 6.351c0 0-2.95 3.491.548 5.407 0 0 .007 5.628 6.494 5.087 6.488-.54 13.496 6.218 13.496 6.218z"/></g><g><path fill="#ffadb7" d="M302.188 83.375s3.271 1.526 5.501.1c0 0 .129-1.26-.322-5.464 0 0-2.3-2.658-2.087-4.698.212-2.04 4.094-3.875 2.536-6.226-1.558-2.353-3.704-1.827-4.992.685-1.287 2.513-4.407 2.13-4.808-.513-.403-2.644-4.114-2.694-6.347-1.088 0 0 .76 5.033-.278 7.428 0 0 .995.286 1.656.23 0 0 .193 4.579 3.499 6.208 2.349 1.157 5.224.036 5.224.036z"/></g></g></svg>