<?xml version="1.0" encoding="UTF-8"?>
<svg id="SVGDoc" width="317" height="43" xmlns="http://www.w3.org/2000/svg" version="1.1" xmlns:xlink="http://www.w3.org/1999/xlink" xmlns:avocode="https://avocode.com/" viewBox="0 0 317 43"><defs><radialGradient id="RadialGradient1059" gradientUnits="userSpaceOnUse" cx="128.666" cy="26.588099999999997" r="2.0061999999999784"><stop stop-opacity="1" stop-color="#357dc0" offset="0"></stop><stop stop-opacity="1" stop-color="#357dc0" offset="1"></stop></radialGradient></defs><desc>Generated with Avocode.</desc><g><g><title>&lt;Path&gt;</title><path d="M9.0948,27.936c-1.377,0 -2.045,-0.456 -2.045,-1.792v-6.589v0h2.899v0v-3.445v0h-2.899v0v-3.518v0h-4.381v0v3.518v0h-2.33v0v3.445v0h2.216v0v7.403c0,3.161 1.563,4.358 5.448,4.358c0.912,0 1.646,-0.073 1.988,-0.13v-3.283c-0.155,0.016 -0.538,0.033 -0.896,0.033z" fill="#666666" fill-opacity="1"></path></g><g><title>&lt;Path&gt;</title><path d="M17.801,15.825c4.26,0 7.183,2.501 7.183,7.322v1.213c0,4.708 -3.021,7.192 -7.012,7.192c-4.227,0 -6.955,-2.794 -6.955,-7.265v-1.523h9.529v-0.505c0,-1.93 -1.197,-3.087 -2.753,-3.087c-1.352,0 -2.362,0.668 -2.541,1.792h-4.138c0.229,-2.386 2.192,-5.139 6.687,-5.139zM20.546,25.378h-5.172v0.017c0,1.678 1.01,2.907 2.558,2.907c1.563,0 2.614,-1.229 2.614,-2.907z" fill="#666666" fill-opacity="1"></path></g><g><title>&lt;Path&gt;</title><path d="M35.67,22.6259v0l5.253,-6.516v0h-5.148v0l-4.275,5.93v0h-0.212v0v-11.166v0h-4.56v0v20.393v0h4.56v0v-5.025v0l0.88,-1.075v0l3.819,6.1v0h5.31v0z" fill="#666666" fill-opacity="1"></path></g><g><title>&lt;Rectangle&gt;</title><path d="M42.462,31.267v0h4.561v0v-20.394v0h-4.561v0z" fill="#666666" fill-opacity="1"></path></g><g><title>&lt;Path&gt;</title><path d="M49.5147,12.29c0,1.352 1.108,2.232 2.46,2.232c1.344,0 2.451,-0.88 2.451,-2.232c0,-1.352 -1.107,-2.231 -2.451,-2.231c-1.352,0 -2.46,0.879 -2.46,2.231zM49.7027,31.267h4.545v-15.157h-4.545z" fill="#666666" fill-opacity="1"></path></g><g><title>&lt;Path&gt;</title><path d="M64.3946,13.4389c0.514,0 0.807,0.033 0.994,0.041v-3.095c-0.285,-0.009 -0.855,-0.098 -1.946,-0.098c-3.764,0 -5.425,1.181 -5.425,4.317v1.506v0h-2.256v0v3.445v0h2.256v0v11.712v0h4.521v0v-11.712v0h2.76v0v-3.445v0h-2.875v0v-1.124c0,-1.131 0.659,-1.547 1.971,-1.547z" fill="#666666" fill-opacity="1"></path></g><g><title>&lt;Path&gt;</title><path d="M66.8467,12.29c0,1.352 1.107,2.232 2.459,2.232c1.353,0 2.46,-0.88 2.46,-2.232c0,-1.352 -1.107,-2.231 -2.46,-2.231c-1.352,0 -2.459,0.879 -2.459,2.231zM67.0337,31.267h4.545v-15.157h-4.545z" fill="#666666" fill-opacity="1"></path></g><g><title>&lt;Path&gt;</title><path d="M91.8653,15.8823c-2.581,0 -4.146,1.433 -4.585,2.696h-0.187c-0.481,-1.589 -1.857,-2.696 -4.17,-2.696c-2.427,0 -3.69,1.45 -4.064,2.598h-0.228v0v-2.37v0h-4.414v0v15.157v0h4.544v0v-8.943c0,-1.971 1.035,-2.736 2.272,-2.736c1.189,0 2.257,0.668 2.257,2.752v8.927v0h4.348v0v-8.91c0,-1.849 0.888,-2.769 2.281,-2.769c1.255,0 2.231,0.749 2.231,2.671v9.008v0h4.553v0v-10.385c0,-2.972 -1.759,-5 -4.838,-5z" fill="#666666" fill-opacity="1"></path></g><g><title>&lt;Path&gt;</title><path d="M148.7782,11.1341c1.98,0 3.584,1.604 3.584,3.575v17.959c0,1.979 -1.604,3.583 -3.584,3.583h-26.42l-9.261,6.418l2.192,-6.418h-9.766c-1.978,0 -3.583,-1.604 -3.583,-3.583v-17.959c0,-1.971 1.605,-3.575 3.583,-3.575zM116.9742,31.2671l5.148,-15.157h-4.724l-2.899,10.963h-0.163l-2.558,-10.963h-4.887l4.814,15.157zM135.3892,21.1601c0,-3.747 -2.834,-5.278 -6.475,-5.278c-4.805,0 -6.328,2.582 -6.409,5.049h4.243c0.057,-1.034 0.822,-1.742 2.109,-1.742c1.279,0 2.044,0.684 2.044,1.913v1.271h-3.502c-3.534,0 -5.448,1.759 -5.448,4.528c0,2.875 2.044,4.594 5.009,4.594c2.231,0 3.444,-0.994 3.958,-2.044h0.203v1.816h4.268zM147.4102,16.0201c-0.293,-0.081 -0.725,-0.122 -1.36,-0.122c-2.02,0 -3.136,1.434 -3.42,2.444h-0.212v-2.232h-4.562v15.157h4.684v-8.177c0,-2.028 0.879,-3.372 3.209,-3.372c0.668,0 1.335,0.057 1.661,0.171z" fill="#297fb8" fill-opacity="1"></path></g><g><title>&lt;Path&gt;</title><path d="M128.604,24.841c-1.4,0 -2.173,0.684 -2.173,1.702v0c0,1.189 1.025,1.792 2.092,1.792v0c1.287,0 2.378,-0.798 2.378,-2.003v0v0v-1.491v0z" fill="url(#RadialGradient1059)"></path></g><g><title>&lt;Path&gt;</title><path d="M252.4471,13.2306c0.864,0 1.525,0.213 1.985,0.651c0.461,0.437 0.684,0.976 0.684,1.625c0,0.55 -0.168,1.032 -0.504,1.436c-0.337,0.404 -0.83,0.662 -1.492,0.762l2.153,2.805c-0.078,0.033 -0.179,0.044 -0.313,0.044c-0.136,0 -0.235,-0.011 -0.315,-0.044l-2.096,-2.737h-2.188v2.737c-0.168,0.078 -0.347,0.078 -0.527,0v-7.29zM250.3731,17.3466h2.086c0.706,0 1.233,-0.168 1.581,-0.516c0.347,-0.347 0.527,-0.785 0.527,-1.312c0,-0.528 -0.18,-0.964 -0.527,-1.312c-0.348,-0.348 -0.875,-0.516 -1.581,-0.516h-2.086z" fill="#403d3a" fill-opacity="1"></path></g><g><title>&lt;Path&gt;</title><path d="M258.3919,15.8774c0.717,0 1.277,0.247 1.681,0.74c0.405,0.493 0.561,1.065 0.46,1.717h-4.014c0.01,0.594 0.202,1.064 0.571,1.412c0.37,0.347 0.853,0.527 1.447,0.527c0.561,0 1.099,-0.18 1.604,-0.549c0.034,0.033 0.045,0.112 0.045,0.224c0,0.112 -0.011,0.19 -0.045,0.224c-0.415,0.348 -0.964,0.516 -1.649,0.516c-0.74,0 -1.335,-0.224 -1.795,-0.673c-0.46,-0.449 -0.682,-1.032 -0.682,-1.749c0,-0.696 0.222,-1.268 0.66,-1.727c0.438,-0.46 1.011,-0.684 1.717,-0.684zM258.4249,16.2924c-0.527,0 -0.953,0.157 -1.289,0.471c-0.337,0.314 -0.527,0.729 -0.573,1.244h3.544c0.011,-0.493 -0.146,-0.908 -0.471,-1.233c-0.325,-0.325 -0.74,-0.493 -1.244,-0.493z" fill="#403d3a" fill-opacity="1"></path></g><g><title>&lt;Path&gt;</title><path d="M263.7416,15.8437c0.728,0 1.334,0.269 1.816,0.819l0.023,-0.651c0.145,-0.056 0.291,-0.056 0.437,0v4.441c0,0.606 -0.18,1.099 -0.55,1.48c-0.37,0.382 -0.897,0.573 -1.581,0.573c-0.707,0 -1.267,-0.169 -1.682,-0.505c-0.034,-0.045 -0.044,-0.124 -0.044,-0.236c0,-0.112 0.01,-0.19 0.044,-0.224c0.504,0.359 1.043,0.538 1.615,0.538c0.549,0 0.975,-0.146 1.266,-0.437c0.292,-0.292 0.438,-0.684 0.438,-1.166v-0.617c-0.482,0.527 -1.076,0.796 -1.782,0.796c-0.685,0 -1.235,-0.224 -1.65,-0.684c-0.415,-0.459 -0.616,-1.032 -0.616,-1.716c0,-0.684 0.213,-1.256 0.628,-1.716c0.415,-0.459 0.965,-0.683 1.648,-0.683zM263.8526,16.3037c-0.561,0 -1.009,0.18 -1.346,0.549c-0.336,0.37 -0.505,0.841 -0.505,1.414c0,0.572 0.169,1.042 0.505,1.412c0.337,0.371 0.785,0.55 1.346,0.55c0.37,0 0.707,-0.09 1.01,-0.269c0.302,-0.18 0.527,-0.37 0.673,-0.561v-2.288c-0.158,-0.19 -0.381,-0.381 -0.685,-0.56c-0.303,-0.18 -0.639,-0.269 -1.009,-0.269z" fill="#403d3a" fill-opacity="1"></path></g><g><title>&lt;Path&gt;</title><path d="M268.0585,14.1617c-0.067,-0.068 -0.157,-0.101 -0.258,-0.101c-0.112,0 -0.202,0.033 -0.28,0.101c-0.079,0.067 -0.112,0.157 -0.112,0.258c0,0.101 0.033,0.191 0.112,0.258c0.078,0.067 0.168,0.101 0.28,0.101c0.101,0 0.191,-0.034 0.258,-0.101c0.068,-0.067 0.101,-0.157 0.101,-0.258c0,-0.101 -0.033,-0.191 -0.101,-0.258zM268.0245,16.0227c-0.168,-0.067 -0.336,-0.067 -0.504,0v4.486c0.168,0.068 0.336,0.068 0.504,0z" fill="#403d3a" fill-opacity="1"></path></g><g><title>&lt;Path&gt;</title><path d="M271.7476,15.8554c-0.00168,0 -0.00336,0 -0.00504,0c-0.00165,0 -0.0033,0 -0.00496,0zM273.4536,16.5504c0.459,0.459 0.695,1.031 0.695,1.716c0,0.684 -0.225,1.255 -0.685,1.715c-0.46,0.46 -1.031,0.695 -1.716,0.695c-0.695,0 -1.267,-0.235 -1.727,-0.695c-0.459,-0.46 -0.684,-1.031 -0.684,-1.715c0,-0.685 0.225,-1.257 0.684,-1.716c0.45889,-0.45889 1.02923,-0.69386 1.72196,-0.695c0.68082,0.00113 1.25216,0.23611 1.71104,0.695zM271.7256,16.2924c-0.549,0 -0.998,0.191 -1.357,0.561c-0.359,0.37 -0.539,0.84 -0.539,1.413c0,0.572 0.18,1.043 0.539,1.412c0.359,0.371 0.819,0.562 1.369,0.562c0.549,0 1.009,-0.191 1.367,-0.562c0.359,-0.369 0.539,-0.84 0.539,-1.412c0,-0.573 -0.18,-1.043 -0.539,-1.413c-0.358,-0.37 -0.818,-0.561 -1.367,-0.561z" fill="#403d3a" fill-opacity="1"></path></g><g><title>&lt;Path&gt;</title><path d="M277.6807,15.8662c0.595,0 1.043,0.168 1.346,0.504c0.303,0.337 0.449,0.774 0.449,1.324v2.815c-0.169,0.067 -0.337,0.067 -0.505,0v-2.737c0,-0.459 -0.112,-0.818 -0.348,-1.088c-0.235,-0.268 -0.594,-0.403 -1.076,-0.403c-0.337,0 -0.662,0.101 -0.975,0.302c-0.315,0.202 -0.562,0.405 -0.742,0.606v3.32c-0.168,0.067 -0.336,0.067 -0.504,0v-4.486c0.145,-0.056 0.303,-0.056 0.459,0l0.024,0.74c0.549,-0.605 1.155,-0.908 1.827,-0.908z" fill="#403d3a" fill-opacity="1"></path></g><g><title>&lt;Path&gt;</title><path d="M282.5924,15.9c0.64,0 1.133,0.168 1.47,0.516c0.336,0.348 0.505,0.818 0.505,1.424v2.703c-0.146,0.056 -0.292,0.056 -0.437,0l-0.024,-0.584c-0.212,0.191 -0.481,0.359 -0.818,0.516c-0.336,0.157 -0.696,0.236 -1.076,0.236c-0.505,0 -0.909,-0.135 -1.222,-0.403c-0.315,-0.27 -0.472,-0.618 -0.472,-1.055c0,-0.438 0.157,-0.785 0.472,-1.054c0.313,-0.269 0.728,-0.404 1.244,-0.404c0.381,0 0.74,0.067 1.076,0.213c0.336,0.146 0.607,0.303 0.796,0.471v-0.695c0,-0.471 -0.122,-0.841 -0.381,-1.11c-0.258,-0.27 -0.639,-0.404 -1.143,-0.404c-0.538,0 -1.066,0.18 -1.582,0.538c-0.033,-0.033 -0.044,-0.112 -0.044,-0.224c0,-0.112 0.011,-0.191 0.044,-0.224c0.426,-0.337 0.975,-0.505 1.648,-0.505zM282.2674,18.165c0.00204,0 0.00407,0 0.00611,0.00001c0.00196,-0.00001 0.00393,-0.00001 0.00589,-0.00001zM281.3384,18.468c-0.237,0.202 -0.348,0.46 -0.348,0.774c0,0.314 0.111,0.571 0.335,0.774c0.225,0.202 0.539,0.302 0.942,0.302c0.36,0 0.707,-0.078 1.055,-0.246c0.348,-0.169 0.595,-0.325 0.74,-0.483v-0.695c-0.145,-0.156 -0.392,-0.314 -0.74,-0.482c-0.34603,-0.16705 -0.69107,-0.2461 -1.04889,-0.24699c-0.39024,0.00101 -0.70128,0.102 -0.93511,0.30299z" fill="#403d3a" fill-opacity="1"></path></g><g><title>&lt;Path&gt;</title><path d="M286.4737,20.5087c-0.168,0.068 -0.337,0.068 -0.505,0v-7.29c0.168,-0.067 0.337,-0.067 0.505,0z" fill="#403d3a" fill-opacity="1"></path></g><g><title>&lt;Path&gt;</title><path d="M290.3641,12.0415c0.102,0 0.192,-0.033 0.259,-0.101c0.066,-0.066 0.101,-0.156 0.101,-0.269c0,-0.101 -0.035,-0.179 -0.101,-0.246c-0.067,-0.068 -0.157,-0.101 -0.259,-0.101c-0.111,0 -0.202,0.033 -0.279,0.101c-0.079,0.067 -0.112,0.157 -0.112,0.258c0,0.112 0.033,0.202 0.112,0.269c0.077,0.067 0.168,0.101 0.279,0.101zM290.6231,13.2305c-0.18,-0.079 -0.358,-0.079 -0.527,0v7.29c0.178,0.079 0.358,0.079 0.527,0z" fill="#403d3a" fill-opacity="1"></path></g><g><title>&lt;Path&gt;</title><path d="M294.5821,15.8662c0.594,0 1.042,0.168 1.346,0.504c0.302,0.337 0.448,0.774 0.448,1.324v2.815c-0.169,0.067 -0.337,0.067 -0.505,0v-2.737c0,-0.459 -0.112,-0.818 -0.348,-1.088c-0.235,-0.268 -0.593,-0.403 -1.076,-0.403c-0.337,0 -0.661,0.101 -0.975,0.302c-0.315,0.202 -0.562,0.405 -0.741,0.606v3.32c-0.169,0.067 -0.337,0.067 -0.504,0v-4.486c0.145,-0.056 0.302,-0.056 0.459,0l0.023,0.74c0.55,-0.605 1.155,-0.908 1.827,-0.908z" fill="#403d3a" fill-opacity="1"></path></g><g><title>&lt;Path&gt;</title><path d="M301.5128,20.5087c-0.068,0.034 -0.18,0.045 -0.325,0.045c-0.146,0 -0.258,-0.011 -0.337,-0.045l-2.647,-2.153v0v2.153c-0.169,0.068 -0.337,0.068 -0.504,0v-7.29c0.167,-0.067 0.335,-0.067 0.504,0v4.834v0l2.557,-2.03c0.067,-0.034 0.18,-0.045 0.325,-0.045c0.147,0 0.259,0.011 0.325,0.045l-2.725,2.176v0z" fill="#403d3a" fill-opacity="1"></path></g><g><title>&lt;Path&gt;</title><path d="M303.1503,14.1617c-0.068,-0.068 -0.158,-0.101 -0.259,-0.101c-0.112,0 -0.202,0.033 -0.28,0.101c-0.078,0.067 -0.111,0.157 -0.111,0.258c0,0.101 0.033,0.191 0.111,0.258c0.078,0.067 0.168,0.101 0.28,0.101c0.101,0 0.191,-0.034 0.259,-0.101c0.067,-0.067 0.1,-0.157 0.1,-0.258c0,-0.101 -0.033,-0.191 -0.1,-0.258zM303.1163,16.0227c-0.168,-0.067 -0.337,-0.067 -0.505,0v4.486c0.168,0.068 0.337,0.068 0.505,0z" fill="#403d3a" fill-opacity="1"></path></g><g><title>&lt;Path&gt;</title><path d="M307.7696,19.3989c0,0.415 -0.168,0.729 -0.493,0.942c-0.325,0.213 -0.718,0.326 -1.178,0.336v0.595c0.235,-0.057 0.472,-0.011 0.695,0.134c0.225,0.146 0.337,0.359 0.337,0.651c0,0.258 -0.09,0.46 -0.269,0.616c-0.18,0.158 -0.404,0.236 -0.661,0.236c-0.236,0 -0.45,-0.067 -0.64,-0.191c-0.034,-0.033 -0.045,-0.09 -0.045,-0.168c0,-0.079 0.011,-0.134 0.045,-0.168c0.19,0.146 0.393,0.213 0.605,0.213c0.18,0 0.326,-0.045 0.449,-0.145c0.124,-0.102 0.179,-0.237 0.179,-0.415c0,-0.236 -0.1,-0.405 -0.314,-0.494c-0.213,-0.09 -0.448,-0.079 -0.706,0.023v-0.92c-0.571,-0.056 -1.021,-0.213 -1.346,-0.471c-0.034,-0.034 -0.045,-0.112 -0.045,-0.224c0,-0.113 0.011,-0.18 0.045,-0.214c0.505,0.37 1.043,0.561 1.604,0.561c0.325,0 0.616,-0.067 0.864,-0.202c0.246,-0.134 0.369,-0.347 0.369,-0.639c0,-0.168 -0.056,-0.314 -0.179,-0.438c-0.124,-0.123 -0.258,-0.212 -0.404,-0.268c-0.145,-0.056 -0.392,-0.146 -0.74,-0.27c-0.571,-0.19 -0.986,-0.381 -1.244,-0.56c-0.259,-0.18 -0.382,-0.437 -0.382,-0.785c0,-0.393 0.168,-0.696 0.494,-0.92c0.325,-0.224 0.717,-0.336 1.177,-0.336c0.303,0 0.605,0.044 0.909,0.134c0.302,0.09 0.538,0.202 0.717,0.348c0.034,0.034 0.045,0.112 0.045,0.224c0,0.112 -0.011,0.179 -0.045,0.213c-0.504,-0.37 -1.031,-0.561 -1.57,-0.561c-0.325,0 -0.605,0.068 -0.852,0.213c-0.247,0.147 -0.37,0.348 -0.37,0.617c0,0.124 0.033,0.236 0.09,0.325c0.056,0.091 0.156,0.18 0.301,0.258c0.147,0.079 0.282,0.146 0.406,0.191c0.123,0.045 0.313,0.112 0.583,0.202c0.549,0.179 0.952,0.359 1.211,0.549c0.257,0.191 0.38,0.46 0.38,0.808z" fill="#403d3a" fill-opacity="1"></path></g><g><title>&lt;Path&gt;</title><path d="M310.6744,15.9c0.64,0 1.133,0.168 1.469,0.516c0.337,0.348 0.505,0.818 0.505,1.424v2.703c-0.146,0.056 -0.292,0.056 -0.437,0l-0.023,-0.584c-0.213,0.191 -0.482,0.359 -0.818,0.516c-0.337,0.157 -0.696,0.236 -1.077,0.236c-0.504,0 -0.909,-0.135 -1.222,-0.403c-0.315,-0.27 -0.472,-0.618 -0.472,-1.055c0,-0.438 0.157,-0.785 0.472,-1.054c0.313,-0.269 0.728,-0.404 1.245,-0.404c0.381,0 0.739,0.067 1.076,0.213c0.336,0.146 0.606,0.303 0.796,0.471v-0.695c0,-0.471 -0.124,-0.841 -0.381,-1.11c-0.258,-0.27 -0.638,-0.404 -1.143,-0.404c-0.539,0 -1.067,0.18 -1.582,0.538c-0.034,-0.033 -0.045,-0.112 -0.045,-0.224c0,-0.112 0.011,-0.191 0.045,-0.224c0.425,-0.337 0.975,-0.505 1.648,-0.505zM310.3494,18.165c0.00187,0 0.00373,0 0.0056,0.00001c0.0018,0 0.0036,-0.00001 0.0054,-0.00001zM309.4194,18.468c-0.236,0.202 -0.348,0.46 -0.348,0.774c0,0.314 0.112,0.571 0.336,0.774c0.224,0.202 0.538,0.302 0.942,0.302c0.359,0 0.706,-0.078 1.055,-0.246c0.348,-0.169 0.594,-0.325 0.739,-0.483v-0.695c-0.145,-0.156 -0.391,-0.314 -0.739,-0.482c-0.34719,-0.16713 -0.69239,-0.24618 -1.0494,-0.24699c-0.38948,0.00092 -0.70168,0.10192 -0.9356,0.30299z" fill="#403d3a" fill-opacity="1"></path></g><g><title>&lt;Path&gt;</title><path d="M315.8448,13.4775c-0.628,0 -0.942,0.359 -0.942,1.066v1.48v0h1.716c0.068,0.145 0.068,0.291 0,0.426h-1.716v0v4.059c-0.168,0.068 -0.336,0.068 -0.504,0v-4.059v0h-0.741c-0.068,-0.135 -0.068,-0.281 0,-0.426h0.741v0v-1.548c0,-0.471 0.134,-0.83 0.391,-1.065c0.259,-0.236 0.584,-0.359 0.977,-0.359c0.403,0 0.796,0.112 1.178,0.347c0.021,0.045 0.033,0.123 0.033,0.247c0,0.124 -0.012,0.202 -0.045,0.235c-0.37,-0.269 -0.73,-0.403 -1.076,-0.403z" fill="#403d3a" fill-opacity="1"></path></g><g><title>&lt;Path&gt;</title><path d="M250.1034,23.6118c0.101,0 0.191,-0.033 0.258,-0.101c0.067,-0.066 0.101,-0.156 0.101,-0.268c0,-0.101 -0.034,-0.18 -0.101,-0.247c-0.067,-0.068 -0.157,-0.101 -0.258,-0.101c-0.112,0 -0.202,0.033 -0.28,0.101c-0.078,0.067 -0.112,0.157 -0.112,0.258c0,0.112 0.034,0.202 0.112,0.269c0.078,0.067 0.168,0.101 0.28,0.101zM250.3614,24.8008c-0.18,-0.078 -0.358,-0.078 -0.527,0v7.29c0.179,0.079 0.359,0.079 0.527,0z" fill="#403d3a" fill-opacity="1"></path></g><g><title>&lt;Path&gt;</title><path d="M254.2979,31.8442c0.55,0 1.076,-0.18 1.582,-0.55c0.033,0.034 0.044,0.113 0.044,0.236c0,0.123 -0.011,0.202 -0.044,0.235c-0.438,0.348 -0.977,0.516 -1.627,0.516c-0.74,0 -1.346,-0.224 -1.817,-0.684c-0.471,-0.46 -0.706,-1.032 -0.706,-1.727c0,-0.695 0.235,-1.267 0.706,-1.727c0.471,-0.459 1.077,-0.684 1.817,-0.684c0.65,0 1.189,0.168 1.627,0.516c0.033,0.033 0.044,0.112 0.044,0.224c0,0.112 -0.011,0.191 -0.044,0.224c-0.506,-0.37 -1.032,-0.549 -1.582,-0.549c-0.595,0 -1.088,0.191 -1.47,0.56c-0.381,0.371 -0.572,0.842 -0.572,1.414c0,0.572 0.191,1.042 0.572,1.413c0.382,0.37 0.875,0.561 1.47,0.561z" fill="#403d3a" fill-opacity="1"></path></g><g><title>&lt;Path&gt;</title><path d="M259.838,31.373c0.034,0.034 0.044,0.112 0.044,0.224c0,0.112 -0.01,0.191 -0.033,0.236c-0.359,0.28 -0.74,0.426 -1.144,0.426c-0.314,0 -0.572,-0.101 -0.763,-0.292c-0.19,-0.191 -0.292,-0.47 -0.292,-0.841v-3.106v0h-0.739c-0.067,-0.135 -0.067,-0.281 0,-0.426h0.739v0v-1.458c0.169,-0.068 0.337,-0.068 0.505,0v1.458v0h1.581c0.068,0.145 0.068,0.291 0,0.426h-1.581v0v3.061c0,0.493 0.214,0.741 0.629,0.741c0.28,0 0.639,-0.157 1.065,-0.471z" fill="#403d3a" fill-opacity="1"></path></g><g><title>&lt;Path&gt;</title><path d="M261.6552,25.7325c-0.067,-0.068 -0.157,-0.101 -0.259,-0.101c-0.111,0 -0.201,0.033 -0.279,0.101c-0.079,0.067 -0.112,0.157 -0.112,0.258c0,0.1 0.033,0.191 0.112,0.258c0.078,0.067 0.168,0.1 0.279,0.1c0.102,0 0.192,-0.033 0.259,-0.1c0.067,-0.067 0.101,-0.158 0.101,-0.258c0,-0.101 -0.034,-0.191 -0.101,-0.258zM261.6212,27.5935c-0.168,-0.067 -0.336,-0.067 -0.504,0v4.486c0.168,0.067 0.336,0.067 0.504,0z" fill="#403d3a" fill-opacity="1"></path></g><g><title>&lt;Path&gt;</title><path d="M268.921,27.4482c0.573,0 0.999,0.168 1.279,0.504c0.281,0.337 0.426,0.774 0.426,1.324v2.815c-0.168,0.066 -0.336,0.066 -0.505,0v-2.737c0,-0.459 -0.111,-0.819 -0.336,-1.088c-0.224,-0.269 -0.55,-0.403 -0.987,-0.403c-0.336,0 -0.65,0.1 -0.953,0.302c-0.303,0.202 -0.538,0.404 -0.706,0.606v3.32c-0.168,0.066 -0.337,0.066 -0.505,0v-2.737c0,-0.459 -0.112,-0.819 -0.325,-1.088c-0.213,-0.269 -0.55,-0.403 -0.998,-0.403c-0.327,0 -0.64,0.1 -0.943,0.291c-0.301,0.191 -0.538,0.393 -0.718,0.606v3.32c-0.167,0.067 -0.336,0.067 -0.503,0v-4.486c0.145,-0.057 0.302,-0.057 0.459,0l0.022,0.74c0.551,-0.606 1.145,-0.908 1.795,-0.908c0.818,0 1.346,0.347 1.581,1.031c0.628,-0.684 1.267,-1.031 1.917,-1.031z" fill="#403d3a" fill-opacity="1"></path></g><g><title>&lt;Path&gt;</title><path d="M273.7779,27.4708c0.639,0 1.132,0.168 1.469,0.516c0.336,0.348 0.505,0.818 0.505,1.423v2.703c-0.146,0.056 -0.292,0.056 -0.437,0l-0.024,-0.583c-0.212,0.191 -0.481,0.359 -0.818,0.516c-0.336,0.157 -0.695,0.235 -1.076,0.235c-0.505,0 -0.909,-0.134 -1.222,-0.403c-0.315,-0.269 -0.472,-0.617 -0.472,-1.054c0,-0.438 0.157,-0.785 0.472,-1.054c0.313,-0.27 0.728,-0.404 1.244,-0.404c0.381,0 0.74,0.067 1.076,0.213c0.337,0.146 0.607,0.303 0.796,0.471v-0.695c0,-0.472 -0.122,-0.842 -0.381,-1.11c-0.258,-0.27 -0.639,-0.405 -1.143,-0.405c-0.538,0 -1.066,0.18 -1.582,0.539c-0.033,-0.034 -0.044,-0.112 -0.044,-0.224c0,-0.112 0.011,-0.191 0.044,-0.225c0.426,-0.336 0.976,-0.505 1.649,-0.505zM273.4519,29.7358c0.00204,0 0.00407,0 0.00611,0.00001c0.00196,-0.00001 0.00393,-0.00001 0.00589,-0.00001zM272.5229,30.0388c-0.236,0.202 -0.348,0.459 -0.348,0.774c0,0.314 0.112,0.571 0.335,0.774c0.225,0.201 0.539,0.302 0.942,0.302c0.36,0 0.707,-0.078 1.055,-0.247c0.348,-0.168 0.595,-0.324 0.74,-0.482v-0.695c-0.145,-0.157 -0.392,-0.314 -0.74,-0.483c-0.34603,-0.16606 -0.69107,-0.2451 -1.04889,-0.24599c-0.39024,0.00101 -0.70128,0.102 -0.93511,0.30299z" fill="#403d3a" fill-opacity="1"></path></g><g><title>&lt;Path&gt;</title><path d="M277.8153,25.7325c-0.067,-0.068 -0.157,-0.101 -0.259,-0.101c-0.111,0 -0.201,0.033 -0.279,0.101c-0.079,0.067 -0.112,0.157 -0.112,0.258c0,0.1 0.033,0.191 0.112,0.258c0.078,0.067 0.168,0.1 0.279,0.1c0.102,0 0.192,-0.033 0.259,-0.1c0.068,-0.067 0.101,-0.158 0.101,-0.258c0,-0.101 -0.033,-0.191 -0.101,-0.258zM277.7813,27.5935c-0.168,-0.067 -0.336,-0.067 -0.504,0v4.486c0.168,0.067 0.336,0.067 0.504,0z" fill="#403d3a" fill-opacity="1"></path></g><g><title>&lt;Path&gt;</title><path d="M284.3414,24.79c0.639,0 1.166,0.168 1.582,0.505c0.416,0.336 0.627,0.785 0.627,1.334c0,0.393 -0.1,0.741 -0.301,1.032c-0.202,0.292 -0.484,0.505 -0.853,0.628c0.471,0.124 0.83,0.348 1.075,0.662c0.248,0.314 0.371,0.695 0.371,1.132c0,0.594 -0.212,1.077 -0.65,1.447c-0.437,0.37 -1.043,0.549 -1.817,0.549h-2.804v-7.289zM282.1104,28.121h2.355c0.482,0 0.864,-0.135 1.144,-0.393c0.279,-0.258 0.426,-0.606 0.426,-1.043c0,-0.437 -0.157,-0.784 -0.483,-1.043c-0.325,-0.257 -0.739,-0.393 -1.245,-0.393h-2.209zM282.1104,31.642h2.243c0.616,0 1.099,-0.146 1.436,-0.437c0.336,-0.292 0.504,-0.673 0.504,-1.144c0,-0.461 -0.146,-0.83 -0.449,-1.11c-0.302,-0.281 -0.762,-0.427 -1.379,-0.427h-2.355z" fill="#403d3a" fill-opacity="1"></path></g><g><title>&lt;Path&gt;</title><path d="M288.5819,25.7325c-0.068,-0.068 -0.158,-0.101 -0.259,-0.101c-0.112,0 -0.202,0.033 -0.28,0.101c-0.078,0.067 -0.112,0.157 -0.112,0.258c0,0.1 0.034,0.191 0.112,0.258c0.078,0.067 0.168,0.1 0.28,0.1c0.101,0 0.191,-0.033 0.259,-0.1c0.067,-0.067 0.1,-0.158 0.1,-0.258c0,-0.101 -0.033,-0.191 -0.1,-0.258zM288.5479,27.5935c-0.168,-0.067 -0.337,-0.067 -0.505,0v4.486c0.168,0.067 0.337,0.067 0.505,0z" fill="#403d3a" fill-opacity="1"></path></g><g><title>&lt;Path&gt;</title><path d="M293.213,27.6386c0.034,0.034 0.045,0.113 0.045,0.246c0,0.135 -0.011,0.225 -0.045,0.27c-0.258,-0.18 -0.583,-0.27 -0.976,-0.27c-0.538,0 -1.087,0.371 -1.649,1.111v3.083c-0.167,0.068 -0.335,0.068 -0.504,0v-4.485c0.146,-0.056 0.303,-0.056 0.46,0l0.033,0.931c0.494,-0.729 1.066,-1.099 1.705,-1.099c0.37,0 0.673,0.067 0.909,0.213z" fill="#403d3a" fill-opacity="1"></path></g><g><title>&lt;Path&gt;</title><path d="M294.7159,32.0795c-0.168,0.067 -0.337,0.067 -0.505,0v-7.29c0.168,-0.067 0.337,-0.067 0.505,0z" fill="#403d3a" fill-opacity="1"></path></g><g><title>&lt;Path&gt;</title><path d="M296.746,25.7325c-0.067,-0.068 -0.157,-0.101 -0.259,-0.101c-0.111,0 -0.202,0.033 -0.279,0.101c-0.079,0.067 -0.112,0.157 -0.112,0.258c0,0.1 0.033,0.191 0.112,0.258c0.077,0.067 0.168,0.1 0.279,0.1c0.102,0 0.192,-0.033 0.259,-0.1c0.067,-0.067 0.101,-0.158 0.101,-0.258c0,-0.101 -0.034,-0.191 -0.101,-0.258zM296.712,27.5935c-0.168,-0.067 -0.336,-0.067 -0.504,0v4.486c0.168,0.067 0.336,0.067 0.504,0z" fill="#403d3a" fill-opacity="1"></path></g><g><title>&lt;Path&gt;</title><path d="M301.9717,27.5937c0.189,-0.078 0.369,-0.078 0.537,0l-3.173,6.313c-0.169,0.068 -0.348,0.068 -0.527,0l1.11,-2.187v0l-2.097,-4.126c0.169,-0.078 0.347,-0.078 0.527,0l1.829,3.6v0z" fill="#403d3a" fill-opacity="1"></path></g><g><title>&lt;Path&gt;</title><path d="M304.1473,25.7325c-0.067,-0.068 -0.157,-0.101 -0.259,-0.101c-0.111,0 -0.201,0.033 -0.279,0.101c-0.079,0.067 -0.112,0.157 -0.112,0.258c0,0.1 0.033,0.191 0.112,0.258c0.078,0.067 0.168,0.1 0.279,0.1c0.102,0 0.192,-0.033 0.259,-0.1c0.068,-0.067 0.101,-0.158 0.101,-0.258c0,-0.101 -0.033,-0.191 -0.101,-0.258zM304.1133,27.5935c-0.168,-0.067 -0.336,-0.067 -0.504,0v4.486c0.168,0.067 0.336,0.067 0.504,0z" fill="#403d3a" fill-opacity="1"></path></g><g><title>&lt;Path&gt;</title><path d="M184.7607,9.4506c0,-0.375 0.299,-0.712 0.711,-0.712h10.706c4.493,0 8.162,3.594 8.162,8.048c0,3.445 -2.284,6.252 -5.541,7.562l5.129,9.51c0.262,0.486 0,1.086 -0.636,1.086h-3.931c-0.337,0 -0.524,-0.188 -0.599,-0.338l-4.979,-9.92h-4.156v9.546c0,0.374 -0.337,0.712 -0.711,0.712h-3.444c-0.412,0 -0.711,-0.338 -0.711,-0.712zM195.7667,20.6806c1.984,0 3.706,-1.722 3.706,-3.818c0,-1.985 -1.722,-3.632 -3.706,-3.632h-6.103v7.45z" fill="#377cbe" fill-opacity="1"></path></g><g><title>&lt;Path&gt;</title><path d="M206.9242,3.0111c0,1.647 1.273,2.995 2.957,2.995c1.685,0 2.995,-1.348 2.995,-2.995c0,-1.647 -1.31,-2.957 -2.995,-2.957c-1.684,0 -2.957,1.31 -2.957,2.957zM207.4102,34.2331c0,0.375 0.338,0.711 0.712,0.711h3.481c0.374,0 0.711,-0.336 0.711,-0.711v-24.783c0,-0.375 -0.337,-0.711 -0.711,-0.711h-3.481c-0.374,0 -0.712,0.336 -0.712,0.711z" fill="#377cbe" fill-opacity="1"></path></g><g><title>&lt;Path&gt;</title><path d="M216.1342,3.0111c0,1.647 1.272,2.995 2.957,2.995c1.684,0 2.995,-1.348 2.995,-2.995c0,-1.647 -1.311,-2.957 -2.995,-2.957c-1.685,0 -2.957,1.31 -2.957,2.957zM216.6202,34.2331c0,0.375 0.337,0.711 0.711,0.711h3.481c0.375,0 0.712,-0.336 0.712,-0.711v-24.783c0,-0.375 -0.337,-0.711 -0.712,-0.711h-3.481c-0.374,0 -0.711,0.336 -0.711,0.711z" fill="#377cbe" fill-opacity="1"></path></g><g><title>&lt;Path&gt;</title><path d="M239.2697,21.6923c2.171,0.748 4.492,2.507 4.492,6.026c0,4.193 -3.594,7.226 -8.161,7.226h-9.06c-0.411,0 -0.711,-0.337 -0.711,-0.711v-24.783c0,-0.374 0.3,-0.712 0.711,-0.712h8.574c4.454,0 7.898,2.995 7.898,6.926c0,2.807 -1.796,4.866 -3.743,5.84zM234.7397,19.7453c1.909,0 3.145,-1.498 3.145,-3.369c0,-1.872 -1.236,-3.183 -3.145,-3.183h-4.08v6.552zM235.2637,30.5263c1.872,0 3.294,-1.46 3.294,-3.406c0,-1.872 -1.422,-3.257 -3.294,-3.257h-4.604v6.663z" fill="#377cbe" fill-opacity="1"></path></g></g></svg>