<svg xmlns="http://www.w3.org/2000/svg" width="17" height="17" viewBox="0 0 17 17"><g><g opacity=".5"><path fill="#666" d="M8.829.823c4.38 0 7.97 3.5 8.018 7.88.052 4.606-3.717 8.13-8.081 8.1C4.38 16.771.802 13.185.82 8.813.815 4.393 4.432.823 8.829.822zm-.986 10.633h-.001v2.037c0 .155.005.16.149.16h1.45c.145-.002.148-.006.15-.158.006-.255.006-.51.006-.764v-3.27c0-.214.004-.216.219-.218.359-.004.717-.003 1.077-.006.18-.002.182-.004.205-.179.056-.428.109-.855.162-1.283.029-.234.027-.235-.217-.236H9.75c-.09.001-.153-.015-.152-.125.003-.404-.02-.81.013-1.214.024-.313.212-.515.517-.583a1.53 1.53 0 0 1 .33-.035c.248.001.496-.004.744 0 .098.001.142-.028.14-.133-.002-.417-.002-.835 0-1.253 0-.094-.027-.138-.131-.147-.488-.04-.976-.072-1.467-.035-.99.073-1.69.712-1.857 1.686-.067.39-.036.781-.045 1.173-.004.17 0 .34-.003.51-.004.14-.017.15-.162.155-.04.002-.078.001-.117.001-.353 0-.705.002-1.058 0-.093 0-.145.02-.144.13.004.481.003.965 0 1.448-.001.1.046.122.13.121.145-.002.289 0 .432.001.26.001.522.004.783.002.098 0 .147.038.14.14-.004.052 0 .104 0 .156z"/></g></g></svg>