<svg xmlns="http://www.w3.org/2000/svg" width="17" height="17" viewBox="0 0 17 17"><g><g opacity=".5"><path fill="#666" d="M16.145 8.795c.012 4.41-3.599 8.003-7.996 8.011C3.757 16.814.1 13.292.095 8.818.09 4.391 3.68.893 7.985.82c4.42-.072 8.148 3.444 8.16 7.975zm-7.518 4.311c.566-.007 1.136.013 1.7-.068.99-.142 1.664-.674 1.956-1.649.079-.263.11-.537.118-.81.029-1.157.037-2.312.005-3.467a3.567 3.567 0 0 0-.081-.699c-.193-.83-.668-1.415-1.486-1.7-.356-.125-.726-.16-1.1-.169-.965-.023-1.931-.015-2.897-.008-.365.003-.731.008-1.091.083-.911.186-1.522.708-1.788 1.61-.08.272-.11.551-.124.831-.046.927-.027 1.854-.023 2.78.002.437.008.875.09 1.307.136.714.5 1.27 1.148 1.618.399.216.833.295 1.283.313.599.023 1.2.034 1.73.03.233 0 .397 0 .56-.002z"/></g><g opacity=".5"><path fill="#666" d="M4.605 6.957c.014-.184.039-.365.094-.539.166-.536.523-.874 1.06-1.026.294-.082.595-.099.894-.1 1.129-.01 2.258-.043 3.385.027.337.02.659.102.94.298.396.276.578.676.64 1.14.046.339.048.678.05 1.018.006.905.016 1.812-.02 2.72-.01.255-.035.508-.115.752-.181.542-.562.864-1.108 1.003-.196.05-.398.072-.6.077-1.135.03-2.271.03-3.407 0a2.697 2.697 0 0 1-.695-.102c-.613-.183-.958-.604-1.075-1.22-.07-.368-.071-.74-.076-1.113-.005-.365-.001-.73-.001-1.097 0-.613-.011-1.226.034-1.838zm3.524 4.051a2.186 2.186 0 0 0 2.198-2.202C10.323 7.599 9.32 6.613 8.103 6.62a2.188 2.188 0 0 0-2.186 2.195 2.195 2.195 0 0 0 2.212 2.192zM9.924 6.5a.495.495 0 0 0 .505.524.496.496 0 0 0 .503-.487.505.505 0 0 0-.5-.514.484.484 0 0 0-.508.477z"/></g><g opacity=".5"><path fill="#666" d="M8.115 10.259a1.438 1.438 0 0 1-1.439-1.446c0-.793.646-1.434 1.451-1.44A1.455 1.455 0 0 1 9.572 8.8c.004.8-.649 1.454-1.457 1.458z"/></g></g></svg>