<svg xmlns="http://www.w3.org/2000/svg" width="17" height="18" viewBox="0 0 17 18"><g><g><path fill="#fffafc" d="M.623 3.582c.023-.199.03-.398.065-.596C.913 1.758 1.95.73 3.18.524c.19-.031.38-.051.571-.051C6.588.469 9.426.463 12.263.461a3.105 3.105 0 0 1 3.131 3.08c.003.782.006 1.564.003 2.346-.002.336-.16.589-.47.721a.738.738 0 0 1-.834-.145.75.75 0 0 1-.247-.584c0-.645.007-1.29-.005-1.935-.015-.724-.34-1.279-.957-1.659a1.82 1.82 0 0 0-.97-.269c-2.602.002-5.203.004-7.805.011a1.937 1.937 0 0 0-1.922 2.004c.005 3.328.011 6.656.014 9.985 0 .611.217 1.123.678 1.524.354.31.774.464 1.244.471.271.005.541-.003.812.002a.77.77 0 0 1 .764.794.78.78 0 0 1-.604.739c-.02.004-.042 0-.057.018l-1.5.003c-.11-.017-.223-.033-.334-.051-1.223-.2-2.268-1.223-2.496-2.438-.038-.203-.046-.408-.069-.612L.623 3.582z"/></g><g><path fill="#fffafc" d="M8.248 17.517a.765.765 0 0 1-.523-.712c-.004-.782-.003-1.563-.004-2.345-.001-.265.14-.458.319-.634 1.458-1.443 2.915-2.888 4.374-4.33.271-.268.52-.56.824-.79.696-.523 1.464-.64 2.27-.312.811.331 1.29.954 1.415 1.822.107.748-.115 1.404-.639 1.95-1.602 1.667-3.209 3.331-4.813 4.998-.048.05-.087.11-.134.16-.118.13-.273.19-.438.232l-2.512.004c-.046-.015-.093-.027-.139-.043zm1.007-1.613c-.003.081.015.108.103.106.334-.006.668-.005 1.002-.002a.195.195 0 0 0 .158-.069c1.03-1.074 2.062-2.146 3.093-3.219.52-.54 1.039-1.082 1.56-1.622.196-.202.28-.44.225-.717a.73.73 0 0 0-.528-.584c-.294-.089-.557-.016-.776.201-1.598 1.584-3.194 3.17-4.792 4.753a.144.144 0 0 0-.045.115c.002.178.001.355.001.532.001.168.005.337-.001.506z"/></g><g><path fill="#fffafc" d="M8.015 6.68l-3.443.005c-.366 0-.644-.175-.77-.481a.778.778 0 0 1 .697-1.07h.07l6.895-.01c.405-.001.708.223.802.59.12.47-.227.947-.712.957-.563.012-1.128.006-1.691.007l-1.848.003z"/></g><g><path fill="#fffafc" d="M6.85 9.789c-.762 0-1.522.003-2.284.003-.4-.001-.71-.233-.793-.59a.778.778 0 0 1 .72-.964c.024-.002.046-.002.07-.002 1.528-.003 3.058-.006 4.586-.007.386 0 .686.219.785.568.137.48-.206.972-.704.982-.657.015-1.314.008-1.971.01h-.41z"/></g><g><path fill="#fffafc" d="M5.694 11.349c.384 0 .768-.004 1.15-.001a.775.775 0 0 1 .115 1.542 1.297 1.297 0 0 1-.139.009c-.75.002-1.5.004-2.249.003-.373 0-.668-.204-.776-.532a.773.773 0 0 1 .697-1.018l.044-.002 1.159-.001z"/></g></g></svg>