<svg xmlns="http://www.w3.org/2000/svg" width="21" height="22" viewBox="0 0 21 22"><g><g><path fill="#fff" d="M20.64 11.667c-.047.121-.035.25-.047.376-.063.673-.487 1.115-1.076 1.124-.661.01-1.167-.517-1.08-1.207.225-1.762-.34-3.3-1.308-4.719-1.03-1.506-2.342-2.709-3.983-3.53-.985-.494-2.026-.768-3.14-.707-.201.011-.402.042-.603.041-.595-.004-1.012-.373-1.077-.938-.064-.555.265-1.032.836-1.162.583-.133 1.179-.128 1.77-.068 2.326.236 4.272 1.284 5.973 2.836 1.192 1.088 2.176 2.337 2.862 3.807.447.96.74 1.964.837 3.022.006.065.024.13.037.194z"/></g><g><path fill="#fff" d="M15.153 21.501c-.963-.004-1.878-.252-2.768-.598-2.105-.817-3.946-2.062-5.642-3.532-1.924-1.666-3.604-3.545-4.937-5.72-.78-1.276-1.423-2.615-1.74-4.088-.142-.663-.214-1.33-.064-2.005.055-.254.134-.503.306-.696.486-.543.97-1.09 1.556-1.529.858-.643 1.633-.665 2.477.006A6.249 6.249 0 0 1 6.278 5.96c.298.75.118 1.415-.407 2-.22.246-.444.491-.686.715-.322.297-.388.646-.273 1.05.127.445.355.841.62 1.218.923 1.317 2.057 2.442 3.225 3.534.667.621 1.367 1.204 2.147 1.68.33.2.675.365 1.061.428a.868.868 0 0 0 .811-.257c.242-.244.488-.485.74-.72.611-.575 1.315-.76 2.102-.426 1.065.453 1.987 1.113 2.68 2.052.496.675.492 1.407.044 2.115-.253.403-.584.74-.92 1.071-.164.161-.334.315-.49.483-.377.41-.864.555-1.395.597-.127.01-.256.001-.384.001z"/></g><g><path fill="#fff" d="M10.482 4.823c.365.033.777.133 1.179.273 2.332.814 3.908 2.39 4.726 4.722.127.363.211.739.27 1.119a1.085 1.085 0 0 1-.808 1.213 1.061 1.061 0 0 1-1.285-.735c-.114-.373-.147-.77-.298-1.132-.715-1.731-1.953-2.856-3.803-3.268-.23-.051-.464-.088-.668-.218a1.066 1.066 0 0 1-.447-1.218c.136-.468.535-.75 1.134-.756z"/></g></g></svg>