<svg xmlns="http://www.w3.org/2000/svg" width="17" height="17" viewBox="0 0 17 17"><g><g><path fill="#297fb8" d="M16.787 8.632c-.037.094-.028.193-.037.29-.049.52-.376.86-.83.867-.51.008-.902-.398-.834-.93.173-1.362-.263-2.55-1.01-3.644-.795-1.163-1.81-2.093-3.076-2.727-.76-.38-1.565-.592-2.424-.545-.155.008-.31.033-.467.032-.459-.003-.78-.288-.83-.725-.05-.43.203-.797.645-.897.45-.103.91-.098 1.367-.052 1.796.182 3.3.99 4.611 2.189.92.84 1.681 1.804 2.21 2.94.346.74.571 1.516.646 2.333.005.05.02.1.03.15z"/></g><g><path fill="#297fb8" d="M12.55 16.225c-.743-.003-1.45-.194-2.137-.461-1.625-.631-3.047-1.593-4.356-2.727-1.485-1.288-2.782-2.74-3.812-4.417C1.642 7.634 1.147 6.6.902 5.462.79 4.952.736 4.435.852 3.914c.043-.195.103-.387.237-.537.374-.42.748-.841 1.2-1.18.663-.496 1.26-.514 1.913.005a4.81 4.81 0 0 1 1.495 2.024c.23.578.092 1.092-.314 1.544-.17.189-.342.379-.53.552-.248.229-.3.499-.21.809.097.345.274.65.478.942.713 1.016 1.588 1.885 2.492 2.728.514.48 1.054.93 1.657 1.297.254.155.52.282.819.332a.672.672 0 0 0 .626-.2c.188-.188.377-.373.57-.555.473-.444 1.017-.587 1.624-.33.823.35 1.535.86 2.069 1.586.384.52.38 1.086.035 1.633-.196.31-.45.57-.711.827-.126.124-.258.243-.378.373-.291.315-.667.428-1.077.46-.098.008-.197 0-.296 0z"/></g><g><path fill="#297fb8" d="M8.944 3.347c.28.025.6.103.908.21 1.803.629 3.02 1.847 3.652 3.646.098.28.163.57.208.865a.837.837 0 0 1-.623.936.82.82 0 0 1-.993-.567c-.09-.288-.114-.594-.23-.874-.552-1.337-1.508-2.205-2.936-2.524-.177-.04-.36-.068-.516-.17a.823.823 0 0 1-.345-.94c.104-.36.413-.577.875-.582z"/></g></g></svg>