<svg xmlns="http://www.w3.org/2000/svg" width="22" height="22" viewBox="0 0 22 22"><g><g opacity=".8"><path fill="#fff" d="M-.006 10.837C.102 5.025 4.908.415 10.758.515c5.714.098 10.472 4.735 10.387 10.7-.084 5.87-4.934 10.405-10.624 10.362C4.736 21.58-.117 16.82-.006 10.837zm5.227 4.533c.027.02.054.04.084.057 1.342.775 2.791 1.055 4.323.881 2.371-.27 4.126-1.475 5.276-3.556a6.78 6.78 0 0 0 .856-3.39c0-.166.023-.296.174-.398a3.21 3.21 0 0 0 .553-.502 2.54 2.54 0 0 0 .41-.54c-.22.067-.406.13-.593.18-.195.05-.39.111-.663.098.25-.192.441-.359.597-.56.157-.2.282-.419.381-.708-.132.061-.216.1-.298.14-.318.155-.65.268-.99.363-.162.045-.27.015-.393-.097a2.365 2.365 0 0 0-1.496-.62 2.415 2.415 0 0 0-2.566 2.437c.001.13.008.26.023.387.015.111-.018.164-.134.156-.104-.007-.207-.006-.31-.018a7.043 7.043 0 0 1-4.083-1.922c-.18-.17-.364-.338-.559-.517-.035.011-.047.075-.072.128a2.26 2.26 0 0 0-.218.923c-.014.777.278 1.422.86 1.94.048.042.151.06.12.178-.344.002-.654-.122-.984-.249-.01.38.08.716.237 1.034.334.675.89 1.09 1.66 1.328-.364.146-.68.093-1.002.104.086.34.264.59.473.82.454.498 1.035.743 1.703.838-.996.78-2.119 1.107-3.38 1.03.007.041.006.052.011.055z"/></g></g></svg>