<svg xmlns="http://www.w3.org/2000/svg" width="17" height="17" viewBox="0 0 17 17"><g><g opacity=".5"><path fill="#666" d="M8.382 16.812C4.039 16.803.376 13.316.397 8.764.417 4.262 4.117.798 8.444.812c4.329.015 7.972 3.532 7.977 7.978a8.015 8.015 0 0 1-8.04 8.022zM5.29 5.143c-.292.014-.587.017-.877.072-.508.094-.867.37-1.046.864-.133.366-.174.746-.205 1.131a18.924 18.924 0 0 0-.028 2.797c.032.474.047.95.19 1.41.159.503.474.83.996.946.25.056.503.082.757.096 1.114.061 2.23.082 3.345.084 1.28.002 2.559-.017 3.835-.124.595-.05 1.012-.353 1.207-.93.055-.16.102-.324.126-.492.07-.486.11-.974.115-1.463.008-.724.025-1.448-.04-2.172-.035-.402-.058-.806-.19-1.194-.11-.327-.286-.598-.59-.776a1.414 1.414 0 0 0-.591-.19 14.852 14.852 0 0 0-.76-.058 73.323 73.323 0 0 0-3.348-.072c-.966.003-1.931.024-2.896.071z"/></g><g opacity=".5"><path fill="#666" d="M10.093 8.776l-.792.432-1.787.966c-.035.02-.07.038-.104.056-.067.035-.113.028-.116-.059-.002-.04-.004-.079-.004-.118l-.001-2.56v-.02c.005-.182.016-.19.173-.11.244.124.486.251.729.378l1.784.93c.039.02.089.03.118.105z"/></g></g></svg>